<svg xmlns="http://www.w3.org/2000/svg" viewBox="0 0 256 256"><title>100 Most Used Icons - Expanded</title><path d="M247.5,85.87v131.5a5,5,0,0,1-5,5H107v-16.5H228.67a5,5,0,0,0,5-5v-120h8.83A5,5,0,0,1,247.5,85.87Z" fill="#72c2e9"/><path d="M85.67,205.87v16.5H13.5a5,5,0,0,1-5-5V85.87a5,5,0,0,1,5-5h8.83v120a5,5,0,0,0,5,5Z" fill="#72c2e9"/><path d="M27.33,205.87H85.67v16.5h-7v-9.5H27.33a12.01,12.01,0,0,1-12-12v-120h7v120A5,5,0,0,0,27.33,205.87Z" fill="#4ba5c8"/><path d="M240.67,80.87v120a12.01,12.01,0,0,1-12,12H114v9.5h-7v-16.5H228.67a5,5,0,0,0,5-5v-120Z" fill="#4ba5c8"/><path d="M233.67,58.37v117.5a5,5,0,0,1-5,5H148a19.994,19.994,0,0,0-20,20,19.994,19.994,0,0,0-20-20H27.33a5,5,0,0,1-5-5V58.37a5,5,0,0,1,5-5H108a19.994,19.994,0,0,1,20,20,19.994,19.994,0,0,1,20-20h80.67A5,5,0,0,1,233.67,58.37Z" fill="#efefef"/><path d="M233.67,175.87v25a5,5,0,0,1-5,5H128v-5a19.994,19.994,0,0,1,20-20h80.67A5,5,0,0,0,233.67,175.87Z" fill="#f0c020"/><path d="M128,200.87v5H107v-12.5H85.67v12.5H27.33a5,5,0,0,1-5-5v-25a5,5,0,0,0,5,5H108A19.994,19.994,0,0,1,128,200.87Z" fill="#f0c020"/><polygon points="233.67 146.2 233.67 156.1 208.9 180.87 199 180.87 233.67 146.2" fill="#afafaf"/><polygon points="107 193.37 107 237.325 96.33 226.745 85.67 237.325 85.67 193.37 107 193.37" fill="#fc5d3d"/><path d="M139.182,28.644c-3.729-1.228-6.642-2.023-8.592-10.422a2.662,2.662,0,0,0-5.181,0c-1.906,8.213-4.566,9.092-8.591,10.422a2.662,2.662,0,0,0,0,5.051c6.686,2.209,7.444,5.476,8.591,10.421a2.66,2.66,0,0,0,5.182,0C132.5,35.9,135.3,34.977,139.182,33.7A2.662,2.662,0,0,0,139.182,28.644Z"/><path d="M131.986,31.193a13.184,13.184,0,0,0-3.93,4.44,13.765,13.765,0,0,0-4.17-4.4,13.131,13.131,0,0,0,4.12-4.64A13.6,13.6,0,0,0,131.986,31.193Z" fill="#f0c020"/><path d="M108,173.37h-3a2.5,2.5,0,0,1,0-5h3a2.5,2.5,0,0,1,0,5Zm-13,0H32.33a2.5,2.5,0,0,1-2.5-2.5V63.37a2.5,2.5,0,1,1,5,0v105H95a2.5,2.5,0,0,1,0,5Z" fill="#fff"/><path d="M43.667,82.953H99a2.5,2.5,0,0,0,0-5H43.667a2.5,2.5,0,0,0,0,5Z"/><path d="M43.667,101.287H99a2.5,2.5,0,0,0,0-5H43.667a2.5,2.5,0,0,0,0,5Z"/><path d="M99,114.619H83.67a2.5,2.5,0,1,0,0,5H99a2.5,2.5,0,0,0,0-5Z"/><path d="M43.67,114.619a2.5,2.5,0,1,0,0,5h20a2.5,2.5,0,0,0,0-5Z"/><path d="M71.17,117.119a2.5,2.5,0,1,0,2.5-2.5A2.5,2.5,0,0,0,71.17,117.119Z"/><path d="M43.667,137.953H99a2.5,2.5,0,0,0,0-5H43.667a2.5,2.5,0,0,0,0,5Z"/><path d="M43.667,156.287H99a2.5,2.5,0,0,0,0-5H43.667a2.5,2.5,0,0,0,0,5Z"/><path d="M150.668,80.453a2.5,2.5,0,0,0,2.5,2.5H208.5a2.5,2.5,0,0,0,0-5H153.168A2.5,2.5,0,0,0,150.668,80.453Z"/><path d="M208.5,96.287H153.168a2.5,2.5,0,0,0,0,5H208.5a2.5,2.5,0,0,0,0-5Z"/><path d="M208.5,114.62H153.168a2.5,2.5,0,0,0,0,5H208.5a2.5,2.5,0,0,0,0-5Z"/><path d="M211,135.453a2.5,2.5,0,0,0-2.5-2.5H153.168a2.5,2.5,0,0,0,0,5H208.5A2.5,2.5,0,0,0,211,135.453Z"/><path d="M153.168,151.287a2.5,2.5,0,0,0,0,5H187.75a2.5,2.5,0,0,0,0-5Z"/><circle cx="148.54" cy="222.368" r="2.5"/><path d="M19.83,58.369v20H13.5A7.508,7.508,0,0,0,6,85.87v131.5a7.508,7.508,0,0,0,7.5,7.5H83.17v12.455a2.5,2.5,0,0,0,4.261,1.774l8.9-8.833,8.908,8.834a2.5,2.5,0,0,0,4.261-1.775V224.868h29.04a2.5,2.5,0,1,0,0-5H109.5v-11.5H228.67a7.508,7.508,0,0,0,7.5-7.5V83.369h6.33a2.507,2.507,0,0,1,2.5,2.5v131.5a2.5,2.5,0,0,1-2.5,2.5H158.54a2.5,2.5,0,0,0,0,5H242.5a7.515,7.515,0,0,0,7.5-7.5V85.869a7.515,7.515,0,0,0-7.5-7.5h-6.33v-20a7.515,7.515,0,0,0-7.5-7.5h-20a2.5,2.5,0,0,0,0,5h20a2.514,2.514,0,0,1,2.5,2.5V143.7H204a7.508,7.508,0,0,0-7.5,7.5v27.168H148a22.485,22.485,0,0,0-17.5,8.382V73.37h0a17.57,17.57,0,0,1,17.5-17.5h40.67a2.5,2.5,0,0,0,.019-5H148a22.43,22.43,0,0,0-20,12.179,22.508,22.508,0,0,0-20-12.179H27.33A7.515,7.515,0,0,0,19.83,58.369Zm63.34,145H27.33a2.5,2.5,0,0,1-2.5-2.5v-5H83.17ZM13.5,219.87a2.5,2.5,0,0,1-2.5-2.5V85.87a2.5,2.5,0,0,1,2.5-2.5h6.33v117.5a7.508,7.508,0,0,0,7.5,7.5H83.17v11.5Zm91,11.455-5.665-5.618v-17.67a2.5,2.5,0,0,0-5,0V225.7l-5.665,5.622V195.87H104.5Zm5-37.956h0a2.5,2.5,0,0,0-2.5-2.5H24.83v-7.926a8.2,8.2,0,0,0,2.5.428H108a17.528,17.528,0,0,1,17.5,17.5v2.5h-16v-10Zm119.17,10H130.5v-2.5a17.518,17.518,0,0,1,17.5-17.5h80.67a8.2,8.2,0,0,0,2.5-.428v7.928h-78a2.5,2.5,0,0,0,0,5h78v5A2.5,2.5,0,0,1,228.67,203.37ZM201.5,151.2a2.5,2.5,0,0,1,2.5-2.5h23.635L201.5,174.834Zm29.67,1.035v23.633a2.507,2.507,0,0,1-2.5,2.5H205.037ZM125.5,73.369h0V186.744a22.458,22.458,0,0,0-17.5-8.376H27.33a2.5,2.5,0,0,1-2.5-2.5V58.369a2.507,2.507,0,0,1,2.5-2.5H108A17.57,17.57,0,0,1,125.5,73.369Z"/><circle cx="198.67" cy="53.369" r="2.5"/></svg>