<svg xmlns="http://www.w3.org/2000/svg" viewBox="0 0 256 256"><title>100 Most Used Icons - Expanded</title><rect x="96.72" y="57.175" width="62.56" height="23" fill="#afafaf"/><rect x="7.75" y="80.175" width="240.5" height="164.351" rx="10" ry="10" fill="#72c2e9"/><path d="M186,162.35a58,58,0,1,1-25.44-48A57.94,57.94,0,0,1,186,162.35Z" fill="#878787"/><path d="M160.56,210.355h11.26a64.976,64.976,0,0,1-87.64,0H95.44a58.008,58.008,0,0,0,65.12,0Z" fill="#4ba5c8"/><path d="M95.44,114.355H84.18a64.989,64.989,0,0,1,87.65,0H160.56a58.008,58.008,0,0,0-65.12,0Z" fill="#4ba5c8"/><path d="M95.44,210.355H7.75v-96H95.44a58,58,0,0,0,0,96Z" fill="#f0c020"/><path d="M248.25,114.355v96H160.56a58,58,0,0,0,0-96h38.63a10,10,0,1,0,20,0Z" fill="#f0c020"/><circle cx="128" cy="162.35" r="40" fill="#efefef"/><rect x="96.72" y="57.175" width="62.56" height="7" fill="#7d7b79"/><rect x="85.75" y="11.474" width="84.5" height="45.701" rx="10" ry="10" fill="#72c2e9"/><rect x="115.149" y="2.074" width="25.701" height="64.5" transform="translate(162.324 -93.676) rotate(90)" fill="#f0c020"/><circle cx="209.19" cy="114.355" r="10" fill="#efefef"/><path d="M42,63.508h4.333a10,10,0,0,1,10,10v6.667a0,0,0,0,1,0,0H32a0,0,0,0,1,0,0V73.508a10,10,0,0,1,10-10Z" fill="#878787"/><path d="M70,162.355a57.94,57.94,0,0,0,25.44,48H84.18a64.981,64.981,0,0,1,0-96H95.44A57.94,57.94,0,0,0,70,162.355Z" fill="#e8a61e"/><path d="M193,162.355a64.9,64.9,0,0,1-21.18,48H160.56a58,58,0,0,0,0-96h11.27A64.914,64.914,0,0,1,193,162.355Z" fill="#e8a61e"/><path d="M203.383,31.8c-3.728-1.228-6.641-2.022-8.591-10.421a2.662,2.662,0,0,0-5.181,0c-1.907,8.213-4.566,9.092-8.591,10.422a2.662,2.662,0,0,0,0,5.051c6.686,2.208,7.444,5.475,8.59,10.42a2.661,2.661,0,0,0,5.183,0c1.9-8.212,4.709-9.138,8.59-10.42A2.663,2.663,0,0,0,203.383,31.8Z"/><path d="M196.188,34.344a13.184,13.184,0,0,0-3.93,4.44,13.786,13.786,0,0,0-4.17-4.4,13.131,13.131,0,0,0,4.12-4.64A13.6,13.6,0,0,0,196.188,34.344Z" fill="#f0c020"/><path d="M74.98,31.8c-3.728-1.228-6.641-2.022-8.591-10.421a2.662,2.662,0,0,0-5.181,0C59.3,29.587,56.642,30.466,52.617,31.8a2.662,2.662,0,0,0,0,5.051c6.686,2.208,7.443,5.475,8.59,10.42a2.66,2.66,0,0,0,5.182,0c1.905-8.212,4.71-9.138,8.591-10.42A2.663,2.663,0,0,0,74.98,31.8Z"/><path d="M67.785,34.344a13.184,13.184,0,0,0-3.93,4.44,13.786,13.786,0,0,0-4.17-4.4,13.131,13.131,0,0,0,4.12-4.64A13.6,13.6,0,0,0,67.785,34.344Z" fill="#f0c020"/><path d="M238.25,237.025H30.75a2.5,2.5,0,1,1,0-5h205v-21.67a2.5,2.5,0,0,1,5,0v24.17A2.5,2.5,0,0,1,238.25,237.025Zm-217.5,0h-3a2.5,2.5,0,0,1,0-5h3a2.5,2.5,0,0,1,0,5Z" fill="#c5e5fe"/><path d="M238.25,116.855a2.5,2.5,0,0,1-2.5-2.5V90.175a2.5,2.5,0,0,1,5,0v24.18A2.5,2.5,0,0,1,238.25,116.855Z" fill="#c5e5fe"/><path d="M238.25,212.855a2.5,2.5,0,0,1-2.5-2.5v-96a2.5,2.5,0,0,1,5,0v96A2.5,2.5,0,0,1,238.25,212.855Z" fill="#f8e5b0"/><path d="M92.291,198.059c-.738-.738-1.464-1.51-2.159-2.295a2.5,2.5,0,1,1,3.744-3.314c.628.709,1.284,1.407,1.95,2.073a2.5,2.5,0,1,1-3.535,3.536Zm-8.263-10.845a50.509,50.509,0,0,1,79.681-60.572,2.5,2.5,0,0,1-3.535,3.535A45.513,45.513,0,0,0,88.38,184.75a2.5,2.5,0,0,1-4.352,2.464Z" fill="#efefef"/><path d="M128,194.836a32.27,32.27,0,0,1-22.979-9.505,2.5,2.5,0,1,1,3.535-3.535,27.51,27.51,0,0,0,45.257-28.933,2.5,2.5,0,1,1,4.695-1.717A32.519,32.519,0,0,1,128,194.836Zm21.292-49.893c-.577-.705-1.2-1.391-1.846-2.039a2.5,2.5,0,0,1,3.535-3.535c.764.764,1.5,1.573,2.18,2.406a2.5,2.5,0,0,1-3.869,3.168Z" fill="#fff"/><path d="M24.833,196.291a2.5,2.5,0,0,0,2.5,2.5H59.667a2.5,2.5,0,0,0,0-5H27.333A2.5,2.5,0,0,0,24.833,196.291Z"/><path d="M170.5,162.35a42.5,42.5,0,1,0-42.5,42.5A42.548,42.548,0,0,0,170.5,162.35ZM128,199.85a37.5,37.5,0,1,1,37.5-37.5A37.542,37.542,0,0,1,128,199.85Z"/><path d="M134.8,217.435a2.5,2.5,0,1,0,2.79,2.18A2.5,2.5,0,0,0,134.8,217.435Z"/><path d="M250.75,234.525V90.175a12.514,12.514,0,0,0-12.5-12.5H161.78v-18.1a12.516,12.516,0,0,0,10.97-12.4v-2.55a2.5,2.5,0,0,0-5,0v2.55a7.529,7.529,0,0,1-7.5,7.5H95.75a7.529,7.529,0,0,1-7.5-7.5v-25.7a7.529,7.529,0,0,1,7.5-7.5h64.5a7.529,7.529,0,0,1,7.5,7.5v3.15a2.5,2.5,0,0,0,5,0v-3.15a12.517,12.517,0,0,0-12.5-12.5H95.75a12.516,12.516,0,0,0-12.5,12.5v25.7a12.515,12.515,0,0,0,10.97,12.4v18.1H58.833V73.508a12.514,12.514,0,0,0-12.5-12.5H42a12.514,12.514,0,0,0-12.5,12.5v4.167H17.75a12.514,12.514,0,0,0-12.5,12.5v144.35a12.514,12.514,0,0,0,12.5,12.5h220.5A12.514,12.514,0,0,0,250.75,234.525ZM188.5,162.356h0a60.544,60.544,0,0,0-20.624-45.5H196.94a12.5,12.5,0,0,0,24.5,0H245.75v91H167.874A60.571,60.571,0,0,0,188.5,162.356Zm13.189-48a7.5,7.5,0,1,1,7.5,7.5A7.509,7.509,0,0,1,201.689,114.355ZM99.22,59.675h57.56v18H99.22ZM34.5,73.508a7.509,7.509,0,0,1,7.5-7.5h4.333a7.509,7.509,0,0,1,7.5,7.5v4.167H34.5ZM17.75,82.675h220.5a7.508,7.508,0,0,1,7.5,7.5v21.68H221.438a12.5,12.5,0,0,0-24.5,0H161.3a60.465,60.465,0,0,0-66.614,0H54.06a2.5,2.5,0,1,0,0,5H88.118a60.5,60.5,0,0,0,.011,91H10.25v-91H34.06a2.5,2.5,0,0,0,0-5H10.25V90.175A7.508,7.508,0,0,1,17.75,82.675Zm-7.5,151.85V212.854H94.7a60.23,60.23,0,0,0,30.3,9.921,2.5,2.5,0,0,0,.25-4.99A55.5,55.5,0,1,1,159.126,116.4c.01.007.019.017.029.024a55.51,55.51,0,0,1-15.006,99.042,2.507,2.507,0,0,0-1.67,3.119,2.54,2.54,0,0,0,3.13,1.661,60.212,60.212,0,0,0,15.677-7.39H245.75v21.67a7.508,7.508,0,0,1-7.5,7.5H17.75A7.508,7.508,0,0,1,10.25,234.525Z"/><circle cx="44.06" cy="114.354" r="2.5"/><circle cx="170.25" cy="34.625" r="2.5"/><path d="M95.75,18.974a2.5,2.5,0,0,0-2.5,2.5v25.7a2.5,2.5,0,0,0,2.5,2.5h64.5a2.5,2.5,0,0,0,2.5-2.5v-25.7a2.5,2.5,0,0,0-2.5-2.5Zm34.75,5h11v20.7h-11Zm-5,20.7h-11v-20.7h11Zm-27.25-20.7H109.5v20.7H98.25Zm59.5,20.7H146.5v-20.7h11.25Z"/></svg>