<svg xmlns="http://www.w3.org/2000/svg" viewBox="0 0 256 256"><title>100 Most Used Icons - Expanded</title><path d="M172.86,164.85a23.581,23.581,0,0,0-8.6,18.24H71.19a23.627,23.627,0,0,0-8.58-18.24Z" fill="#efefef"/><path d="M250.08,170.49v6.96a5.648,5.648,0,0,1-5.65,5.64H211.6a23.571,23.571,0,0,0-8.59-18.24h41.42A5.648,5.648,0,0,1,250.08,170.49Z" fill="#efefef"/><path d="M241.35,124.88v39.97H203.01a23.644,23.644,0,0,0-30.15,0H62.61a23.644,23.644,0,0,0-30.15,0H18.16V60.54A11.288,11.288,0,0,1,29.44,49.25l138.94-.01a10.51,10.51,0,0,1,10.06,7.46l14.97,49.43a10.525,10.525,0,0,0,10.05,7.47h26.61A11.28,11.28,0,0,1,241.35,124.88Z" fill="#fc5d3d"/><rect x="33.299" y="65.029" width="63.914" height="48.565" rx="5.643" ry="5.643" fill="#efefef"/><path d="M171.591,113.594H118.625a5.643,5.643,0,0,1-5.643-5.643V70.672a5.642,5.642,0,0,1,5.643-5.643H160.3a5.644,5.644,0,0,1,5.4,4.008l11.288,37.278A5.644,5.644,0,0,1,171.591,113.594Z" fill="#efefef"/><path d="M78.19,183.09h-7a23.627,23.627,0,0,0-8.58-18.24h9.58A30.558,30.558,0,0,1,78.19,183.09Z" fill="#afafaf"/><path d="M71.194,183.09a23.677,23.677,0,1,1-8.589-18.239A23.672,23.672,0,0,1,71.194,183.09Z" fill="#878787"/><circle cx="47.524" cy="183.09" r="11.055" fill="#efefef"/><path d="M163.27,164.85h9.59a23.581,23.581,0,0,0-8.6,18.24h-7A30.567,30.567,0,0,1,163.27,164.85Z" fill="#afafaf"/><path d="M218.6,183.09h-7a23.571,23.571,0,0,0-8.59-18.24h9.59A30.625,30.625,0,0,1,218.6,183.09Z" fill="#afafaf"/><path d="M211.6,183.09a23.679,23.679,0,1,1-8.59-18.239A23.663,23.663,0,0,1,211.6,183.09Z" fill="#878787"/><circle cx="187.934" cy="183.09" r="11.055" fill="#efefef"/><path d="M224.41,133.285h16.942a0,0,0,0,1,0,0v15.688a0,0,0,0,1,0,0H234.41a10,10,0,0,1-10-10v-5.687A0,0,0,0,1,224.41,133.285Z" fill="#f0c020"/><path d="M241.35,157.85v7H203.01a23.644,23.644,0,0,0-30.15,0H62.61a23.644,23.644,0,0,0-30.15,0H18.16v-7H30.12a30.641,30.641,0,0,1,34.83,0H170.52a30.642,30.642,0,0,1,34.83,0Z" fill="#b25035"/><path d="M32.46,164.85a23.55,23.55,0,0,0-8.6,18.24H11.57a5.648,5.648,0,0,1-5.65-5.64v-6.96a5.648,5.648,0,0,1,5.65-5.64Z" fill="#efefef"/><path d="M32.46,164.85a23.55,23.55,0,0,0-8.6,18.24h-7a30.5,30.5,0,0,1,6.01-18.24Z" fill="#afafaf"/><path d="M227.991,77.5c-3.729-1.228-6.642-2.022-8.592-10.421a2.662,2.662,0,0,0-5.181,0c-1.906,8.212-4.566,9.091-8.591,10.422a2.662,2.662,0,0,0,0,5.05c6.686,2.209,7.444,5.476,8.591,10.421a2.66,2.66,0,0,0,5.182,0c1.905-8.212,4.709-9.139,8.591-10.421A2.662,2.662,0,0,0,227.991,77.5Z"/><path d="M220.8,80.049a13.184,13.184,0,0,0-3.93,4.44,13.786,13.786,0,0,0-4.17-4.4,13.131,13.131,0,0,0,4.12-4.64A13.6,13.6,0,0,0,220.8,80.049Z" fill="#f0c020"/><path d="M87.214,106.094h-3a2.5,2.5,0,0,1,0-5h3a2.5,2.5,0,0,1,0,5Zm-13,0H43.3a2.5,2.5,0,0,1-2.5-2.5V75.029a2.5,2.5,0,0,1,5,0v26.065H74.214a2.5,2.5,0,0,1,0,5Z" fill="#fff"/><path d="M165.72,106.094h-3a2.5,2.5,0,1,1,0-5h3a2.5,2.5,0,0,1,0,5Zm-13,0H122.981a2.5,2.5,0,0,1-2.5-2.5V75.029a2.5,2.5,0,0,1,5,0v26.065H152.72a2.5,2.5,0,0,1,0,5Z" fill="#fff"/><path d="M112.981,129.458a2.5,2.5,0,0,0,0,5h16.728a2.5,2.5,0,0,0,0-5Z"/><circle cx="18.16" cy="83.11" r="2.5"/><path d="M47.524,169.534A13.556,13.556,0,1,0,61.079,183.09,13.571,13.571,0,0,0,47.524,169.534Zm0,22.111a8.556,8.556,0,1,1,8.555-8.555A8.565,8.565,0,0,1,47.524,191.645Z"/><path d="M173.6,202.09a2.5,2.5,0,1,0,3.44-.84v-.01A2.506,2.506,0,0,0,173.6,202.09Z"/><path d="M187.935,196.645a13.556,13.556,0,1,0-13.556-13.555A13.571,13.571,0,0,0,187.935,196.645Zm0-22.111a8.556,8.556,0,1,1-8.556,8.556A8.565,8.565,0,0,1,187.935,174.534Z"/><path d="M11.57,185.59h9.91a26.165,26.165,0,0,0,52.092,0h88.32a25.909,25.909,0,0,0,4.558,12.44,2.557,2.557,0,0,0,3.48.62,2.5,2.5,0,0,0,.62-3.48,21.146,21.146,0,0,1-3.79-12.077v0a21.17,21.17,0,1,1,21.17,21.17,20.716,20.716,0,0,1-2.5-.15,2.5,2.5,0,1,0-.59,4.97,26.551,26.551,0,0,0,3.09.18,26.15,26.15,0,0,0,26.051-23.67H244.43a8.154,8.154,0,0,0,8.15-8.14v-6.96a8.154,8.154,0,0,0-8.15-8.14h-.58V124.88a13.793,13.793,0,0,0-13.78-13.78H203.45a8.051,8.051,0,0,1-7.65-5.69L180.83,55.97a13.008,13.008,0,0,0-12.45-9.23l-138.94.01A13.8,13.8,0,0,0,15.66,60.54V73.11a2.5,2.5,0,0,0,5,0V60.54a8.82,8.82,0,0,1,8.78-8.79l138.94-.01a8.07,8.07,0,0,1,7.67,5.68l14.97,49.43a13.016,13.016,0,0,0,12.44,9.25h26.61a8.817,8.817,0,0,1,8.78,8.78v5.905H224.41a2.5,2.5,0,0,0-2.5,2.5v5.687a12.514,12.514,0,0,0,12.5,12.5h4.44V162.35H203.89a26.27,26.27,0,0,0-15.95-5.43h-.02a26.182,26.182,0,0,0-15.94,5.43H63.49a26.155,26.155,0,0,0-31.91,0H20.66V93.11a2.5,2.5,0,0,0-5,0v69.24H11.57a8.154,8.154,0,0,0-8.15,8.14v6.96A8.154,8.154,0,0,0,11.57,185.59Zm222.84-39.118a7.508,7.508,0,0,1-7.5-7.5v-3.187h11.94v10.687Zm6.94,20.878h3.08a3.149,3.149,0,0,1,3.15,3.14v6.96a3.149,3.149,0,0,1-3.15,3.14H213.982a26.144,26.144,0,0,0-5.141-13.24ZM47.515,204.259a21.187,21.187,0,0,1-21.156-21.153v-.016a21.165,21.165,0,1,1,42.33,0c0,.009,0,.017,0,.026A21.2,21.2,0,0,1,47.515,204.259ZM167.022,167.35a26.231,26.231,0,0,0-5.144,13.24H73.572c0-.029-.009-.058-.012-.087a26.15,26.15,0,0,0-5.128-13.153ZM8.42,170.49a3.149,3.149,0,0,1,3.15-3.14H26.618A26.077,26.077,0,0,0,21.5,180.465c0,.042-.013.083-.016.125H11.57a3.149,3.149,0,0,1-3.15-3.14Z"/><path d="M38.943,116.094H91.57a8.153,8.153,0,0,0,8.144-8.144V70.672a8.153,8.153,0,0,0-8.144-8.143H38.943A8.153,8.153,0,0,0,30.8,70.672V107.95A8.153,8.153,0,0,0,38.943,116.094ZM35.8,70.672a3.147,3.147,0,0,1,3.144-3.143H91.57a3.147,3.147,0,0,1,3.144,3.143V107.95a3.147,3.147,0,0,1-3.144,3.144H38.943A3.147,3.147,0,0,1,35.8,107.95Z"/><path d="M168.1,68.31a8.1,8.1,0,0,0-7.8-5.78H118.63a8.156,8.156,0,0,0-8.15,8.14v37.28a8.156,8.156,0,0,0,8.15,8.14h52.96a8.153,8.153,0,0,0,7.79-10.5l-4.29-14.18a2.53,2.53,0,0,0-3.12-1.67,2.5,2.5,0,0,0-1.66,3.12v.01l4.29,14.17a3.151,3.151,0,0,1-3.01,4.06H118.63a3.169,3.169,0,0,1-3.15-3.15V70.67a3.154,3.154,0,0,1,3.15-3.14H160.3a3.123,3.123,0,0,1,3.01,2.23l1.2,3.96a2.5,2.5,0,0,0,4.79-1.45Z"/><path d="M167.41,83.29a2.5,2.5,0,1,0,4.78-1.45,2.53,2.53,0,0,0-3.12-1.67A2.5,2.5,0,0,0,167.41,83.29Z"/></svg>