<svg xmlns="http://www.w3.org/2000/svg" viewBox="0 0 256 256"><title>100 Most Used Icons - Expanded</title><rect x="34.287" y="68.337" width="26.172" height="169.663" fill="#72c2e9"/><rect x="195.542" y="68.355" width="26.172" height="169.645" fill="#72c2e9"/><rect x="52.565" y="18" width="150.871" height="18.625" rx="4.734" ry="4.734" fill="#f0c020"/><path d="M60.458,50.829V68.336H31.209a4.72,4.72,0,0,1-4.734-4.715V55.563a4.736,4.736,0,0,1,4.734-4.734Z" fill="#f0c020"/><path d="M229.525,55.563v8.058a4.736,4.736,0,0,1-4.734,4.734H195.542V50.829h29.249A4.736,4.736,0,0,1,229.525,55.563Z" fill="#f0c020"/><polygon points="34.287 68.337 34.287 74.965 53.83 74.965 53.83 238 60.458 238 60.458 68.336 34.287 68.337" fill="#4ba5c8"/><polygon points="221.713 68.355 195.542 68.355 195.542 68.355 195.542 238 202.17 238 202.17 74.969 221.713 74.983 221.713 68.355" fill="#4ba5c8"/><rect x="53.83" y="50.829" width="6.628" height="17.508" fill="#e8a61e"/><rect x="195.542" y="50.829" width="6.628" height="17.527" fill="#e8a61e"/><rect x="60.458" y="36.625" width="135.083" height="201.375" fill="#72c2e9"/><rect x="60.458" y="36.625" width="135.083" height="6.628" fill="#4ba5c8"/><rect x="74.662" y="50.829" width="15.235" height="15.728" fill="#efefef"/><rect x="74.662" y="82.275" width="15.235" height="15.728" fill="#efefef"/><rect x="74.662" y="113.731" width="15.235" height="15.718" fill="#efefef"/><rect x="74.662" y="145.177" width="15.235" height="15.718" fill="#efefef"/><rect x="74.662" y="176.623" width="15.235" height="15.728" fill="#efefef"/><rect x="105.142" y="50.829" width="15.235" height="15.728" fill="#efefef"/><rect x="105.142" y="82.275" width="15.235" height="15.728" fill="#efefef"/><rect x="105.142" y="113.731" width="15.235" height="15.718" fill="#efefef"/><rect x="105.142" y="145.177" width="15.235" height="15.718" fill="#efefef"/><rect x="105.142" y="176.623" width="15.235" height="15.728" fill="#efefef"/><rect x="135.622" y="50.829" width="15.235" height="15.728" fill="#efefef"/><rect x="135.622" y="82.275" width="15.235" height="15.728" fill="#efefef"/><rect x="135.622" y="113.731" width="15.235" height="15.718" fill="#efefef"/><rect x="135.622" y="145.177" width="15.235" height="15.718" fill="#efefef"/><rect x="135.622" y="176.623" width="15.235" height="15.728" fill="#efefef"/><rect x="166.103" y="50.829" width="15.235" height="15.728" fill="#efefef"/><rect x="166.103" y="82.275" width="15.235" height="15.728" fill="#efefef"/><rect x="166.103" y="113.731" width="15.235" height="15.718" fill="#efefef"/><rect x="166.103" y="145.177" width="15.235" height="15.718" fill="#efefef"/><rect x="166.103" y="176.623" width="15.235" height="15.728" fill="#efefef"/><rect x="105.142" y="208.069" width="45.716" height="29.931" fill="#efefef"/><path d="M252.384,133.853c-3.729-1.228-6.642-2.022-8.592-10.421a2.662,2.662,0,0,0-5.181,0c-1.907,8.212-4.566,9.091-8.591,10.422a2.661,2.661,0,0,0,0,5.05c6.686,2.209,7.444,5.476,8.591,10.421a2.66,2.66,0,0,0,5.182,0c1.905-8.212,4.709-9.139,8.591-10.421A2.662,2.662,0,0,0,252.384,133.853Z"/><path d="M245.188,136.4a13.184,13.184,0,0,0-3.93,4.44,13.786,13.786,0,0,0-4.17-4.4,13.131,13.131,0,0,0,4.12-4.64A13.6,13.6,0,0,0,245.188,136.4Z" fill="#f0c020"/><path d="M25.98,133.853c-3.729-1.228-6.641-2.022-8.591-10.421a2.662,2.662,0,0,0-5.181,0c-1.907,8.212-4.566,9.091-8.592,10.422a2.662,2.662,0,0,0,0,5.05c6.686,2.209,7.444,5.476,8.591,10.421a2.66,2.66,0,0,0,5.182,0c1.905-8.212,4.71-9.139,8.591-10.421A2.662,2.662,0,0,0,25.98,133.853Z"/><path d="M18.785,136.4a13.174,13.174,0,0,0-3.93,4.44,13.779,13.779,0,0,0-4.171-4.4,13.142,13.142,0,0,0,4.121-4.64A13.576,13.576,0,0,0,18.785,136.4Z" fill="#f0c020"/><path d="M43.756,231.031a2.5,2.5,0,0,1-2.5-2.5V95.274a2.5,2.5,0,0,1,5,0V228.531A2.5,2.5,0,0,1,43.756,231.031Zm0-143.257a2.5,2.5,0,0,1-2.5-2.5v-3a2.5,2.5,0,0,1,5,0v3A2.5,2.5,0,0,1,43.756,87.774Z" fill="#c5e5fe"/><path d="M212.244,231.031a2.5,2.5,0,0,1-2.5-2.5v-3a2.5,2.5,0,0,1,5,0v3A2.5,2.5,0,0,1,212.244,231.031Zm0-13a2.5,2.5,0,0,1-2.5-2.5V82.274a2.5,2.5,0,0,1,5,0V215.531A2.5,2.5,0,0,1,212.244,218.031Z" fill="#c5e5fe"/><path d="M221.71,155.84a2.5,2.5,0,1,0,2.5,2.49A2.5,2.5,0,0,0,221.71,155.84Z"/><circle cx="42.53" cy="50.83" r="2.5"/><path d="M221.71,240.5a2.492,2.492,0,0,0,2.5-2.5V168.34a2.5,2.5,0,0,0-5,0V235.5H198.042V70.837l21.168.015V148.34a2.5,2.5,0,0,0,5,0V70.855h.581a7.242,7.242,0,0,0,7.234-7.234V55.563a7.243,7.243,0,0,0-7.234-7.235H198.042v-9.2h.659a7.243,7.243,0,0,0,7.235-7.234V22.734A7.243,7.243,0,0,0,198.7,15.5H57.3a7.243,7.243,0,0,0-7.235,7.234v9.157A7.243,7.243,0,0,0,57.3,39.125h.659v9.2H52.53a2.5,2.5,0,0,0,0,5h5.428v12.5l-26.748.01a2.252,2.252,0,0,1-2.24-2.22V55.56a2.254,2.254,0,0,1,2.24-2.23h1.32a2.5,2.5,0,0,0,0-5H31.21a7.24,7.24,0,0,0-7.23,7.23v8.06a7.245,7.245,0,0,0,7.23,7.22h.577V238a2.5,2.5,0,0,0,2.5,2.5Zm3.081-187.172a2.238,2.238,0,0,1,2.234,2.235v8.058a2.236,2.236,0,0,1-2.233,2.234l-26.75-.017V53.328ZM55.064,31.891V22.734A2.237,2.237,0,0,1,57.3,20.5H198.7a2.237,2.237,0,0,1,2.235,2.234v9.157a2.237,2.237,0,0,1-2.235,2.234H57.3A2.237,2.237,0,0,1,55.064,31.891ZM36.787,70.84H57.958V235.5H36.787ZM107.64,235.5V210.569H125.5V235.5Zm22.86,0V210.569h17.86v2.08a2.5,2.5,0,0,0,5,0v-4.58a2.5,2.5,0,0,0-2.5-2.5H105.14a2.505,2.505,0,0,0-2.5,2.5V235.5H62.958V39.125H193.042l0,196.375H153.36v-2.851a2.5,2.5,0,0,0-5,0V235.5Z"/><path d="M89.9,48.328H74.662a2.5,2.5,0,0,0-2.5,2.5V66.557a2.5,2.5,0,0,0,2.5,2.5H89.9a2.5,2.5,0,0,0,2.5-2.5V50.828A2.5,2.5,0,0,0,89.9,48.328ZM87.4,64.057H77.162V53.328H87.4Z"/><path d="M89.9,79.774H74.662a2.5,2.5,0,0,0-2.5,2.5V98a2.5,2.5,0,0,0,2.5,2.5H89.9A2.5,2.5,0,0,0,92.4,98V82.274A2.5,2.5,0,0,0,89.9,79.774ZM87.4,95.5H77.162V84.774H87.4Z"/><path d="M89.9,111.23H74.662a2.5,2.5,0,0,0-2.5,2.5v15.718a2.5,2.5,0,0,0,2.5,2.5H89.9a2.5,2.5,0,0,0,2.5-2.5V113.73A2.5,2.5,0,0,0,89.9,111.23Zm-2.5,15.718H77.162V116.23H87.4Z"/><path d="M89.9,142.677H74.662a2.5,2.5,0,0,0-2.5,2.5V160.9a2.5,2.5,0,0,0,2.5,2.5H89.9a2.5,2.5,0,0,0,2.5-2.5V145.177A2.5,2.5,0,0,0,89.9,142.677ZM87.4,158.4H77.162V147.677H87.4Z"/><path d="M89.9,174.123H74.662a2.5,2.5,0,0,0-2.5,2.5v15.728a2.5,2.5,0,0,0,2.5,2.5H89.9a2.5,2.5,0,0,0,2.5-2.5V176.623A2.5,2.5,0,0,0,89.9,174.123Zm-2.5,15.728H77.162V179.123H87.4Z"/><path d="M120.377,48.328H105.142a2.5,2.5,0,0,0-2.5,2.5V66.557a2.5,2.5,0,0,0,2.5,2.5h15.235a2.5,2.5,0,0,0,2.5-2.5V50.828A2.5,2.5,0,0,0,120.377,48.328Zm-2.5,15.729H107.642V53.328h10.235Z"/><path d="M120.377,79.774H105.142a2.5,2.5,0,0,0-2.5,2.5V98a2.5,2.5,0,0,0,2.5,2.5h15.235a2.5,2.5,0,0,0,2.5-2.5V82.274A2.5,2.5,0,0,0,120.377,79.774Zm-2.5,15.728H107.642V84.774h10.235Z"/><path d="M120.377,111.23H105.142a2.5,2.5,0,0,0-2.5,2.5v15.718a2.5,2.5,0,0,0,2.5,2.5h15.235a2.5,2.5,0,0,0,2.5-2.5V113.73A2.5,2.5,0,0,0,120.377,111.23Zm-2.5,15.718H107.642V116.23h10.235Z"/><path d="M120.377,142.677H105.142a2.5,2.5,0,0,0-2.5,2.5V160.9a2.5,2.5,0,0,0,2.5,2.5h15.235a2.5,2.5,0,0,0,2.5-2.5V145.177A2.5,2.5,0,0,0,120.377,142.677Zm-2.5,15.719H107.642V147.677h10.235Z"/><path d="M120.377,174.123H105.142a2.5,2.5,0,0,0-2.5,2.5v15.728a2.5,2.5,0,0,0,2.5,2.5h15.235a2.5,2.5,0,0,0,2.5-2.5V176.623A2.5,2.5,0,0,0,120.377,174.123Zm-2.5,15.728H107.642V179.123h10.235Z"/><path d="M150.858,48.328H135.623a2.5,2.5,0,0,0-2.5,2.5V66.557a2.5,2.5,0,0,0,2.5,2.5h15.235a2.5,2.5,0,0,0,2.5-2.5V50.828A2.5,2.5,0,0,0,150.858,48.328Zm-2.5,15.729H138.123V53.328h10.235Z"/><path d="M150.858,79.774H135.623a2.5,2.5,0,0,0-2.5,2.5V98a2.5,2.5,0,0,0,2.5,2.5h15.235a2.5,2.5,0,0,0,2.5-2.5V82.274A2.5,2.5,0,0,0,150.858,79.774Zm-2.5,15.728H138.123V84.774h10.235Z"/><path d="M150.858,111.23H135.623a2.5,2.5,0,0,0-2.5,2.5v15.718a2.5,2.5,0,0,0,2.5,2.5h15.235a2.5,2.5,0,0,0,2.5-2.5V113.73A2.5,2.5,0,0,0,150.858,111.23Zm-2.5,15.718H138.123V116.23h10.235Z"/><path d="M150.858,142.677H135.623a2.5,2.5,0,0,0-2.5,2.5V160.9a2.5,2.5,0,0,0,2.5,2.5h15.235a2.5,2.5,0,0,0,2.5-2.5V145.177A2.5,2.5,0,0,0,150.858,142.677Zm-2.5,15.719H138.123V147.677h10.235Z"/><path d="M150.858,174.123H135.623a2.5,2.5,0,0,0-2.5,2.5v15.728a2.5,2.5,0,0,0,2.5,2.5h15.235a2.5,2.5,0,0,0,2.5-2.5V176.623A2.5,2.5,0,0,0,150.858,174.123Zm-2.5,15.728H138.123V179.123h10.235Z"/><path d="M166.1,69.057h15.235a2.5,2.5,0,0,0,2.5-2.5V50.828a2.5,2.5,0,0,0-2.5-2.5H166.1a2.5,2.5,0,0,0-2.5,2.5V66.557A2.5,2.5,0,0,0,166.1,69.057Zm2.5-15.729h10.235V64.057H168.6Z"/><path d="M166.1,100.5h15.235a2.5,2.5,0,0,0,2.5-2.5V82.274a2.5,2.5,0,0,0-2.5-2.5H166.1a2.5,2.5,0,0,0-2.5,2.5V98A2.5,2.5,0,0,0,166.1,100.5Zm2.5-15.728h10.235V95.5H168.6Z"/><path d="M166.1,131.948h15.235a2.5,2.5,0,0,0,2.5-2.5V113.73a2.5,2.5,0,0,0-2.5-2.5H166.1a2.5,2.5,0,0,0-2.5,2.5v15.718A2.5,2.5,0,0,0,166.1,131.948Zm2.5-15.718h10.235v10.718H168.6Z"/><path d="M166.1,163.4h15.235a2.5,2.5,0,0,0,2.5-2.5V145.177a2.5,2.5,0,0,0-2.5-2.5H166.1a2.5,2.5,0,0,0-2.5,2.5V160.9A2.5,2.5,0,0,0,166.1,163.4Zm2.5-15.719h10.235V158.4H168.6Z"/><path d="M166.1,194.851h15.235a2.5,2.5,0,0,0,2.5-2.5V176.623a2.5,2.5,0,0,0-2.5-2.5H166.1a2.5,2.5,0,0,0-2.5,2.5v15.728A2.5,2.5,0,0,0,166.1,194.851Zm2.5-15.728h10.235v10.728H168.6Z"/><circle cx="150.86" cy="222.649" r="2.5"/></svg>