<svg xmlns="http://www.w3.org/2000/svg" viewBox="0 0 256 256"><title>100 Most Used Icons - Expanded</title><path d="M249.5,128A121.5,121.5,0,0,1,128,249.5a119.784,119.784,0,0,1-16.39-1.11q-3.48-.465-6.9-1.13A121.57,121.57,0,0,1,6.83,136.94c-.17-2.35-.28-4.72-.31-7.1-.02-.61-.02-1.23-.02-1.84A120.868,120.868,0,0,1,23.92,65.29v-.01q2.4-3.975,5.09-7.74A121.584,121.584,0,0,1,178.79,17.6h.01q3.315,1.53,6.51,3.25a121.911,121.911,0,0,1,46.85,44.57c1.2,2,2.35,4.03,3.43,6.1A120.791,120.791,0,0,1,249.5,128Z" fill="#72c2e9"/><path d="M121.69,182.27l-10.06,66.04a.235.235,0,0,1-.02.08q-3.48-.465-6.9-1.13A121.529,121.529,0,0,1,39.47,211.2l-9.85-38.7a36.986,36.986,0,0,1,.03-18.4l2.39-9.24a4.167,4.167,0,0,0-3.52-5.19L6.83,136.94c-.17-2.35-.28-4.72-.31-7.1-.02-.61-.02-1.23-.02-1.84A120.868,120.868,0,0,1,23.92,65.29v-.01q2.4-3.975,5.09-7.74l67.64-9a18.122,18.122,0,0,1,18.68,9.92l10.23,20.6a27.144,27.144,0,0,1-11.63,35.92L90.55,127.26a4.177,4.177,0,0,0-.53,7.06l17.07,12.61A36.894,36.894,0,0,1,121.69,182.27Z" fill="#4ba5c8"/><path d="M85.86,139.95l17.07,12.61a29.981,29.981,0,0,1,11.84,28.65l-10.06,66.05a120.962,120.962,0,0,1-55.7-26.95L36.4,170.77a29.879,29.879,0,0,1,.03-14.91l2.39-9.25a11.179,11.179,0,0,0-9.43-13.89L6.52,129.84c-.02-.61-.02-1.23-.02-1.84A120.868,120.868,0,0,1,23.92,65.29v-.01l73.65-9.8a11.187,11.187,0,0,1,11.49,6.1l10.23,20.59a19.994,19.994,0,0,1-8.61,26.61L87.3,121.06A11.174,11.174,0,0,0,85.86,139.95Z" fill="#13bf6d"/><path d="M235.59,71.52a6.821,6.821,0,0,1-1.92.73l-37.06,8.19a4.193,4.193,0,0,0-2.83,5.98,18.177,18.177,0,0,1-10.01,25.25l-3.19,1.16a18.17,18.17,0,0,1-24.31-18.96l.92-8.83a4.163,4.163,0,0,0-1.65-3.77l-4.79-3.62a18.191,18.191,0,0,1-2.45-26.8L178.79,17.6h.01q3.315,1.53,6.51,3.25a121.911,121.911,0,0,1,46.85,44.57C233.36,67.42,234.51,69.45,235.59,71.52Z" fill="#4ba5c8"/><path d="M232.16,65.42,195.1,73.61a11.184,11.184,0,0,0-7.57,15.95,11.171,11.171,0,0,1-6.15,15.53l-3.2,1.17A11.174,11.174,0,0,1,163.23,94.6l.92-8.84a11.184,11.184,0,0,0-4.39-10.08l-4.79-3.62a11.176,11.176,0,0,1-1.51-16.48l31.85-34.73A121.911,121.911,0,0,1,232.16,65.42Z" fill="#13bf6d"/><path d="M157.946,173.626l-3.479-4.271a17.572,17.572,0,0,1,23.789-25.432l4.749,3.366a17.585,17.585,0,0,1,0,28.67l-1.272.9A17.57,17.57,0,0,1,157.946,173.626Z" fill="#4ba5c8"/><path d="M164.358,148.364h0a10.572,10.572,0,0,0-4.464,16.569l3.479,4.271a10.573,10.573,0,0,0,14.312,1.946l1.271-.9a10.572,10.572,0,0,0,0-17.248l-4.75-3.369A10.574,10.574,0,0,0,164.358,148.364Z" fill="#13bf6d"/><path d="M96.091,237.441a2.5,2.5,0,0,1-2.1-2.847l8.417-55.269a17.5,17.5,0,0,0-6.909-16.71L78.438,150.007a23.676,23.676,0,0,1,3.051-40.014L104.875,97.71a7.535,7.535,0,0,0,3.22-9.979l-4.442-8.939a2.5,2.5,0,0,1,4.479-2.225l4.441,8.94a12.534,12.534,0,0,1-5.376,16.63L83.812,114.421a18.675,18.675,0,0,0-2.405,31.563l17.066,12.609a22.51,22.51,0,0,1,8.882,21.483l-8.417,55.27A2.5,2.5,0,0,1,96.091,237.441ZM99.2,69.836l-1.335-2.687a2.5,2.5,0,0,1,4.479-2.224l1.335,2.686A2.5,2.5,0,1,1,99.2,69.836Z" fill="#76ffbb"/><path d="M211.047,57.377a109.213,109.213,0,0,0-25.964-22.253,2.5,2.5,0,0,1,2.619-4.258,114.172,114.172,0,0,1,27.152,23.269,2.5,2.5,0,0,1-3.807,3.242Z" fill="#76ffbb"/><path d="M184.263,224.274a2.5,2.5,0,0,1,.812-3.441q1.25-.772,2.479-1.576a2.5,2.5,0,1,1,2.738,4.183q-1.281.84-2.588,1.647A2.5,2.5,0,0,1,184.263,224.274Zm10.808-7.22a2.5,2.5,0,0,1,.41-3.512A109.033,109.033,0,0,0,226.043,80.289a2.5,2.5,0,1,1,4.494-2.189,114.03,114.03,0,0,1-31.954,139.364A2.5,2.5,0,0,1,195.071,217.054Z" fill="#c5e5fe"/><path d="M76.171,29.282A2.5,2.5,0,0,1,77.3,25.931a114.049,114.049,0,0,1,87.64-5.812,2.5,2.5,0,0,1-1.62,4.731,109.045,109.045,0,0,0-83.8,5.559A2.5,2.5,0,0,1,76.171,29.282Z" fill="#c5e5fe"/><path d="M50,31.609h-.021A2.5,2.5,0,1,0,53.13,35.5a.01.01,0,0,0,.01-.01,2.514,2.514,0,0,0,.36-3.511A2.569,2.569,0,0,0,50,31.609Z"/><path d="M128.02,4h-.03A123.316,123.316,0,0,0,58.16,25.52,2.513,2.513,0,0,0,57.51,29a2.57,2.57,0,0,0,3.46.66s.009,0,.009-.011a119.141,119.141,0,0,1,120.286-8.087L151.618,53.89a13.686,13.686,0,0,0,1.845,20.166l4.792,3.62a8.739,8.739,0,0,1,3.409,7.825l-.92,8.839a13.673,13.673,0,0,0,18.294,14.267l3.2-1.168a13.676,13.676,0,0,0,7.529-19,8.665,8.665,0,0,1,5.875-12.387l35.279-7.8A118.991,118.991,0,0,1,111.95,245.91c-1.464-.2-2.936-.431-4.4-.686l5.933-38.924a2.5,2.5,0,0,0-2.1-2.85,2.534,2.534,0,0,0-2.85,2.09l-5.891,38.722A118.683,118.683,0,0,1,51.23,218.9L38.822,170.15a27.448,27.448,0,0,1,.029-13.665l2.389-9.249a13.685,13.685,0,0,0-11.538-17l-20.7-2.606A118.786,118.786,0,0,1,25.474,67.589L97.9,57.96a8.628,8.628,0,0,1,8.92,4.74L117.05,83.279a17.491,17.491,0,0,1-7.53,23.29L86.14,118.85a13.66,13.66,0,0,0-1.76,23.11l17.07,12.609A27.58,27.58,0,0,1,112.3,180.83l-.76,4.94a2.5,2.5,0,0,0,4.95.75l.75-4.93a32.507,32.507,0,0,0-12.83-31.04L87.34,137.939a8.664,8.664,0,0,1,1.12-14.66l23.38-12.289a22.484,22.484,0,0,0,9.69-29.93L111.3,60.47A13.689,13.689,0,0,0,97.24,53L28.92,62.09c.7-1.041,1.4-2.08,2.13-3.1A119.252,119.252,0,0,1,45.79,41.97a2.5,2.5,0,0,0,.069-3.531,2.544,2.544,0,0,0-3.529-.08A124,124,0,1,0,128.02,4Zm66.54,67.168A13.662,13.662,0,0,0,185.3,90.685a8.675,8.675,0,0,1-4.776,12.057l-3.2,1.17a8.674,8.674,0,0,1-11.6-9.054l.921-8.843a13.771,13.771,0,0,0-5.371-12.33l-4.79-3.62A8.665,8.665,0,0,1,155.3,57.27L185.817,24a119.359,119.359,0,0,1,42.347,39.746ZM9.1,132.685,29.078,135.2A8.682,8.682,0,0,1,36.4,145.983l-2.389,9.248a32.459,32.459,0,0,0-.032,16.155L44.511,212.77A118.93,118.93,0,0,1,9.1,132.685Z"/><path d="M112.89,193.56a2.541,2.541,0,0,0-2.85,2.1,2.5,2.5,0,1,0,2.85-2.1Z"/><path d="M179.132,173.189l1.27-.9a13.061,13.061,0,0,0,0-21.326l-4.751-3.368a13.072,13.072,0,0,0-17.7,18.92l3.479,4.269A13.107,13.107,0,0,0,179.132,173.189ZM165.24,150.7a8.056,8.056,0,0,1,7.519.968l4.751,3.368a8.065,8.065,0,0,1,0,13.17l-1.271.9a8.094,8.094,0,0,1-10.927-1.487l-3.479-4.27A8.067,8.067,0,0,1,165.24,150.7Z"/></svg>