<svg xmlns="http://www.w3.org/2000/svg" viewBox="0 0 256 256"><title>100 Most Used Icons - Expanded</title><path d="M165.375,242.6a121.466,121.466,0,0,1-74.7.01c-51.45-16.73-87-67.05-82.85-123.24a120.72,120.72,0,0,1,62.75,7.44A154.623,154.623,0,0,1,128.015,7.49a154.623,154.623,0,0,1,57.44,119.32,120.713,120.713,0,0,1,62.75-7.44C252.355,175.6,216.8,225.87,165.375,242.6Z" fill="#fc5d3d"/><path d="M165.375,242.6a121.466,121.466,0,0,1-74.7.01,60.585,60.585,0,0,1-23-51.96,6.992,6.992,0,0,1,5.95-6.41,60.733,60.733,0,0,1,22.52.9,75.533,75.533,0,0,1,27.46-49.09,7.013,7.013,0,0,1,8.82,0,75.509,75.509,0,0,1,27.46,49.09,60.522,60.522,0,0,1,22.52-.9,6.992,6.992,0,0,1,5.95,6.41A60.621,60.621,0,0,1,165.375,242.6Z" fill="#b25035"/><path d="M181.378,191.161a53.617,53.617,0,0,0-27.859,3.305,68.647,68.647,0,0,0-25.5-52.976,68.647,68.647,0,0,0-25.5,52.976,53.611,53.611,0,0,0-27.858-3.305,53.5,53.5,0,1,0,106.725,0Z" fill="#f0c020"/><path d="M189.853,219.6a2.5,2.5,0,0,1,.589-3.486,108.022,108.022,0,0,0,45.571-85.4,107.245,107.245,0,0,0-45.877,7.692,12.517,12.517,0,0,1-17.181-11.5A141.959,141.959,0,0,0,135.4,31.516a2.5,2.5,0,1,1,3.678-3.386,146.945,146.945,0,0,1,38.873,98.733,7.509,7.509,0,0,0,10.307,6.9,112.763,112.763,0,0,1,50.456-7.9,2.5,2.5,0,0,1,2.321,2.493,113,113,0,0,1-47.7,91.824A2.5,2.5,0,0,1,189.853,219.6ZM128.5,24.519q-1.071-1.012-2.166-2.007a2.5,2.5,0,0,1,3.362-3.7q1.132,1.028,2.242,2.079a2.5,2.5,0,1,1-3.438,3.63Z" fill="#ffcbc3"/><path d="M128.015,240.99a2.5,2.5,0,1,1,0-5c.948,0,1.9-.031,2.83-.094a2.5,2.5,0,0,1,.334,4.989C130.139,240.955,129.075,240.99,128.015,240.99Zm10.417-3.666a2.5,2.5,0,0,1,1.659-3.122,41.064,41.064,0,0,0,28.048-30.764,40.726,40.726,0,0,0-9.938,2.619,12.523,12.523,0,0,1-17.182-11.5,56.093,56.093,0,0,0-14.843-37.7,2.5,2.5,0,0,1,3.678-3.388,61.088,61.088,0,0,1,16.165,41.048,7.513,7.513,0,0,0,10.31,6.9,45.722,45.722,0,0,1,14.687-3.266,2.5,2.5,0,0,1,2.613,2.823,46.085,46.085,0,0,1-32.075,38.006A2.5,2.5,0,0,1,138.432,237.324Z" fill="#f8e5b0"/><path d="M95.235,43.96a2.5,2.5,0,0,0,3.47-.691s.01,0,.01-.009a2.509,2.509,0,0,0-.7-3.46,2.561,2.561,0,0,0-3.46.68c0,.01,0,.01-.01.01A2.507,2.507,0,0,0,95.235,43.96Z"/><path d="M69.635,129.13a2.506,2.506,0,0,0,3.44-2.3,152.5,152.5,0,0,1,20.43-75.21,2.5,2.5,0,0,0-.91-3.41,2.568,2.568,0,0,0-3.42.91,156.687,156.687,0,0,0-21.03,74.07,123.091,123.091,0,0,0-60.69-6.29,2.473,2.473,0,0,0-2.121,2.28C-.031,188.635,55.3,250.99,128.015,250.99c71.688,0,127.85-60.984,122.68-131.8a2.473,2.473,0,0,0-2.12-2.29,123.229,123.229,0,0,0-60.69,6.29,157.075,157.075,0,0,0-58.3-117.64,2.551,2.551,0,0,0-3.139,0,158.44,158.44,0,0,0-25.98,26.68,2.508,2.508,0,0,0,.46,3.51,2.558,2.558,0,0,0,3.51-.46,153.448,153.448,0,0,1,23.58-24.55,152.164,152.164,0,0,1,54.94,116.1,2.506,2.506,0,0,0,3.44,2.3,118.252,118.252,0,0,1,59.45-7.571,117.485,117.485,0,0,1-87.438,120.469,55.916,55.916,0,0,0,25.458-51.048,2.5,2.5,0,0,0-2.12-2.29,55.854,55.854,0,0,0-25.84,2.24,70.636,70.636,0,0,0-3.52-18.49,2.5,2.5,0,1,0-4.74,1.57,66.251,66.251,0,0,1,3.37,20.47,2.5,2.5,0,0,0,3.44,2.3A50.947,50.947,0,0,1,179,193.37a51.005,51.005,0,1,1-101.96.01,50.846,50.846,0,0,1,24.54,3.4,2.493,2.493,0,0,0,3.43-2.3,66.294,66.294,0,0,1,23.01-49.73A66.157,66.157,0,0,1,139,156.87a2.567,2.567,0,0,0,3.48.61,2.513,2.513,0,0,0,.609-3.49,71.068,71.068,0,0,0-13.5-14.44,2.551,2.551,0,0,0-3.139,0,71.081,71.081,0,0,0-26.321,51.38,55.862,55.862,0,0,0-25.839-2.24,2.489,2.489,0,0,0-2.13,2.28A55.939,55.939,0,0,0,97.62,242.029a117.5,117.5,0,0,1-87.435-120.47A117.98,117.98,0,0,1,69.635,129.13Z"/><path d="M147.305,166.23a2.5,2.5,0,0,0,1.11-3.35.01.01,0,0,0-.01-.01,2.535,2.535,0,0,0-3.35-1.1,2.509,2.509,0,0,0-1.11,3.361l.01.01A2.494,2.494,0,0,0,147.305,166.23Z"/></svg>