<svg xmlns="http://www.w3.org/2000/svg" viewBox="0 0 256 256"><title>100 Most Used Icons - Expanded</title><path d="M239.779,109.029V243.818a5.309,5.309,0,0,1-5.307,5.307H145.055v-140.1h21.853v62.353l11.876-15.124,11.866,15.124V109.029Z" fill="#efefef"/><path d="M190.65,109.029v62.353l-11.866-15.124-11.876,15.124V109.029H145.055v140.1h7.429V116.458h6.994v54.924a7.439,7.439,0,0,0,13.278,4.585l6.028-7.674,6.018,7.674a7.439,7.439,0,0,0,13.277-4.585V116.458h41.7v-7.429Z" fill="#afafaf"/><path d="M75.962,71.617A10.617,10.617,0,0,0,65.348,82.23v26.8H11.868a5.309,5.309,0,0,1-5.307-5.307v-26.8a5.308,5.308,0,0,1,5.307-5.306Z" fill="#f0c020"/><path d="M110.943,71.617v37.412H89.09V82.23A10.617,10.617,0,0,1,99.7,71.617Z" fill="#f0c020"/><path d="M166.908,82.23v26.8H145.055V71.617h11.239A10.617,10.617,0,0,1,166.908,82.23Z" fill="#f0c020"/><path d="M249.437,76.923v26.8a5.309,5.309,0,0,1-5.307,5.307H190.65V82.23a10.617,10.617,0,0,0-10.614-10.613H244.13A5.308,5.308,0,0,1,249.437,76.923Z" fill="#f0c020"/><path d="M110.943,109.029v140.1H21.526a5.31,5.31,0,0,1-5.307-5.307V109.029H65.348v62.353l11.866-15.124L89.09,171.382V109.029Z" fill="#efefef"/><path d="M89.09,109.029v62.353L77.214,156.258,65.348,171.382V109.029H16.219v7.429h41.7v54.924A7.436,7.436,0,0,0,71.2,175.967l6.018-7.674,6.028,7.674a7.436,7.436,0,0,0,13.278-4.585V116.458h6.994V249.125h7.429v-140.1Z" fill="#afafaf"/><path d="M61.4,71.617H75.962A10.617,10.617,0,0,0,65.348,82.23v26.8H57.919V82.23A17.8,17.8,0,0,1,61.4,71.617Z" fill="#e8a61e"/><path d="M107.133,71.617A7.424,7.424,0,0,1,99.7,79.046,3.194,3.194,0,0,0,96.52,82.23v26.8H89.09V82.23A10.617,10.617,0,0,1,99.7,71.617Z" fill="#e8a61e"/><path d="M99.7,71.617A10.617,10.617,0,0,0,89.09,82.23v89.152L77.214,156.258,65.348,171.382V82.23A10.617,10.617,0,0,1,75.962,71.617Z" fill="#fc5d3d"/><path d="M166.908,82.23v26.8h-7.43V82.23a3.194,3.194,0,0,0-3.184-3.184,7.424,7.424,0,0,1-7.429-7.429h7.429A10.617,10.617,0,0,1,166.908,82.23Z" fill="#e8a61e"/><path d="M198.079,82.23v26.8H190.65V82.23a10.617,10.617,0,0,0-10.614-10.613H194.6A17.8,17.8,0,0,1,198.079,82.23Z" fill="#e8a61e"/><path d="M190.65,82.23v89.152l-11.866-15.124-11.876,15.124V82.23a10.617,10.617,0,0,0-10.614-10.613h23.742A10.617,10.617,0,0,1,190.65,82.23Z" fill="#72c2e9"/><path d="M95.628,6.875h-13.8a32.371,32.371,0,1,0,0,64.742H128V39.246A32.377,32.377,0,0,0,95.628,6.875ZM114.2,57.819H81.831a18.574,18.574,0,0,1,0-37.147h13.8A18.6,18.6,0,0,1,114.2,39.246Z" fill="#72c2e9"/><path d="M174.167,6.875h-13.8A32.377,32.377,0,0,0,128,39.246V71.617h46.168a32.371,32.371,0,1,0,0-64.742Zm0,50.944H141.8V39.246A18.6,18.6,0,0,1,160.37,20.672h13.8a18.574,18.574,0,1,1,0,37.147Z" fill="#fc5d3d"/><path d="M128,71.617H110.943V249.125h34.112V71.617Z" fill="#fc5d3d"/><rect x="127.999" y="71.617" width="17.056" height="177.508" fill="#72c2e9"/><path d="M243.964,36.717c-3.728-1.228-6.641-2.022-8.591-10.421a2.662,2.662,0,0,0-5.181,0c-1.907,8.212-4.566,9.091-8.591,10.421a2.662,2.662,0,0,0,0,5.051c6.686,2.209,7.444,5.476,8.59,10.421a2.66,2.66,0,0,0,5.182,0c1.905-8.212,4.71-9.139,8.591-10.421A2.662,2.662,0,0,0,243.964,36.717Z"/><path d="M236.769,39.266a13.184,13.184,0,0,0-3.93,4.44,13.786,13.786,0,0,0-4.17-4.4,13.131,13.131,0,0,0,4.12-4.64A13.6,13.6,0,0,0,236.769,39.266Z" fill="#f0c020"/><path d="M34.4,36.717C30.669,35.489,27.756,34.7,25.806,26.3a2.662,2.662,0,0,0-5.181,0c-1.907,8.212-4.566,9.091-8.591,10.421a2.662,2.662,0,0,0,0,5.051c6.686,2.209,7.444,5.476,8.59,10.421a2.661,2.661,0,0,0,5.183,0c1.9-8.212,4.709-9.139,8.59-10.421A2.662,2.662,0,0,0,34.4,36.717Z"/><path d="M27.2,39.266a13.184,13.184,0,0,0-3.93,4.44,13.786,13.786,0,0,0-4.17-4.4,13.131,13.131,0,0,0,4.12-4.64A13.6,13.6,0,0,0,27.2,39.266Z" fill="#f0c020"/><path d="M229.166,241.012H161.608a2.5,2.5,0,0,1,0-5h65.058V136.888a2.5,2.5,0,1,1,5,0V238.512A2.5,2.5,0,0,1,229.166,241.012Zm0-111.624a2.5,2.5,0,0,1-2.5-2.5v-3a2.5,2.5,0,1,1,5,0v3A2.5,2.5,0,0,1,229.166,129.388Z" fill="#fff"/><path d="M94.744,241.012H43.622a2.5,2.5,0,0,1,0-5H94.744a2.5,2.5,0,0,1,0,5Zm-61.122,0h-3a2.5,2.5,0,0,1,0-5h3a2.5,2.5,0,1,1,0,5Z" fill="#fff"/><circle cx="207.939" cy="71.62" r="2.5"/><path d="M67.5,13.029a2.5,2.5,0,0,0-2.4-4.38c-.01,0-.01,0-.02.011a2.5,2.5,0,0,0,2.42,4.369Z"/><path d="M244.129,69.12h-26.19a2.5,2.5,0,1,0,0,5h26.19a2.817,2.817,0,0,1,2.81,2.8v26.8a2.818,2.818,0,0,1-2.81,2.809H193.15v-24.3c0-.033,0-.066,0-.1a13.084,13.084,0,0,0-2.806-8.01h7.6a2.5,2.5,0,0,0,0-5h-5.807A34.863,34.863,0,0,0,174.167,4.375h-13.8a34.919,34.919,0,0,0-32.361,21.906,34.851,34.851,0,0,0-32.38-21.9h-13.8a34.992,34.992,0,0,0-6.64.63,2.5,2.5,0,0,0-1.98,2.92,2.529,2.529,0,0,0,2.93,1.98,30.983,30.983,0,0,1,5.69-.54h13.8A30,30,0,0,1,125.5,39.25V69.109l-43.67.011a29.87,29.87,0,0,1-21.62-50.48,2.5,2.5,0,0,0-.08-3.54,2.566,2.566,0,0,0-3.54.089A34.878,34.878,0,0,0,63.82,69.116H11.868a7.816,7.816,0,0,0-7.807,7.807v26.8a7.815,7.815,0,0,0,7.807,7.806h1.851v132.29a7.816,7.816,0,0,0,7.807,7.807H234.472a7.816,7.816,0,0,0,7.807-7.807V111.529h1.85a7.82,7.82,0,0,0,7.81-7.809V76.92A7.819,7.819,0,0,0,244.129,69.12ZM130.5,39.246A29.9,29.9,0,0,1,160.37,9.375h13.8a29.871,29.871,0,1,1,0,59.741H130.5V39.246Zm57.651,124.9-6.869-8.755V121.5a2.5,2.5,0,1,0-5,0v33.9l-6.873,8.753V82.229a13.258,13.258,0,0,0-2.818-8.113H180c.014,0,.027,0,.04,0a8.147,8.147,0,0,1,8.11,8.109C188.149,112.346,188.15,95.317,188.15,164.146ZM164.408,82.229v24.3H147.559V74.116h8.735A8.123,8.123,0,0,1,164.408,82.229ZM89.419,74.12a13.034,13.034,0,0,0-2.829,8.109V164.15L79.717,155.4V121.5a2.5,2.5,0,0,0-5,0v33.892l-6.869,8.755V82.229a8.123,8.123,0,0,1,8.114-8.113S78.911,74.12,89.419,74.12ZM11.868,106.528a2.809,2.809,0,0,1-2.807-2.806v-26.8a2.81,2.81,0,0,1,2.807-2.807h53.8a13.051,13.051,0,0,0-2.818,8.113v24.3Zm96.575,140.1H21.526a2.811,2.811,0,0,1-2.807-2.807V111.528H62.848v59.854a2.5,2.5,0,0,0,4.467,1.543l9.9-12.618,9.909,12.619a2.5,2.5,0,0,0,4.466-1.544V111.528h16.853ZM91.59,106.528v-24.3a8.121,8.121,0,0,1,8.037-8.109h8.816v32.408ZM142.555,246.62H130.5V193.689a2.5,2.5,0,0,0-5,0v52.936H113.443V74.12H125.5v99.569a2.5,2.5,0,0,0,5,0V74.12h12.056Zm94.724-2.8a2.81,2.81,0,0,1-2.807,2.807H147.559v-135.1h16.849v59.854a2.5,2.5,0,0,0,4.466,1.544l9.909-12.619,9.9,12.618a2.5,2.5,0,0,0,4.467-1.543V111.529h44.129Z"/><circle cx="127.999" cy="183.689" r="2.5"/><path d="M195.241,39.246a21.1,21.1,0,0,0-21.074-21.073h-13.8A21.1,21.1,0,0,0,139.3,39.246V57.819a2.5,2.5,0,0,0,2.5,2.5h32.371A21.1,21.1,0,0,0,195.241,39.246Zm-50.945,0A16.092,16.092,0,0,1,160.37,23.173h13.8a16.073,16.073,0,1,1,0,32.146H144.3Z"/><path d="M114.2,60.319a2.5,2.5,0,0,0,2.5-2.5V39.246A21.1,21.1,0,0,0,95.628,18.173h-13.8a21.073,21.073,0,1,0,0,42.146ZM65.757,39.246A16.092,16.092,0,0,1,81.831,23.173h13.8A16.092,16.092,0,0,1,111.7,39.246V55.319H81.831A16.092,16.092,0,0,1,65.757,39.246Z"/></svg>