<svg xmlns="http://www.w3.org/2000/svg" viewBox="0 0 256 256"><title>100 Most Used Icons - Expanded</title><circle cx="128" cy="128" r="116.167" fill="#f0c020"/><circle cx="128" cy="128" r="116.167" fill="#f0c020"/><path d="M224.17,128a95.89,95.89,0,0,1-20.37,59.12,96.748,96.748,0,0,1-29.52,25.16c-2.28,1.26-4.61,2.43-7,3.49a96.04,96.04,0,0,1-78.56,0c-2.39-1.06-4.72-2.23-7-3.49A96.748,96.748,0,0,1,52.2,187.12,96.153,96.153,0,1,1,224.17,128Z" fill="#efefef"/><path d="M191.88,128.29a22.413,22.413,0,0,0,4.5-13.49v-9.59a22.522,22.522,0,0,0-43.43-8.37V91.82a24.95,24.95,0,0,0-49.9,0v5.02a22.522,22.522,0,0,0-43.43,8.37v9.59a22.413,22.413,0,0,0,4.5,13.49A38.247,38.247,0,0,0,45.2,161v15.87a95.523,95.523,0,0,0,7,10.25,96.748,96.748,0,0,0,29.52,25.16c2.28,1.26,4.61,2.43,7,3.49a96.04,96.04,0,0,0,78.56,0c2.39-1.06,4.72-2.23,7-3.49a96.748,96.748,0,0,0,29.52-25.16,95.523,95.523,0,0,0,7-10.25V161A38.247,38.247,0,0,0,191.88,128.29Zm-88.01-7.55a22.353,22.353,0,0,0,.8-5.94v-2.9a24.673,24.673,0,0,0,3.64,6.45A45.21,45.21,0,0,0,103.87,120.74Zm43.81-2.37a24.822,24.822,0,0,0,3.65-6.47v2.9a22.157,22.157,0,0,0,.81,5.96A46.535,46.535,0,0,0,147.68,118.37Z" fill="#afafaf"/><path d="M128.085,120.949a17.858,17.858,0,0,1-18.037-17.867V91.823a17.952,17.952,0,0,1,35.9,0v11.259A17.867,17.867,0,0,1,128.085,120.949Z" fill="#feb69f"/><rect x="66.625" y="89.691" width="31.045" height="40.633" rx="15.523" ry="15.523" fill="#feb69f"/><rect x="158.33" y="89.691" width="31.045" height="40.633" rx="15.523" ry="15.523" fill="#feb69f"/><path d="M203.8,161v26.12a96.748,96.748,0,0,1-29.52,25.16c-2.28,1.26-4.61,2.43-7,3.49V160.23a39.089,39.089,0,0,0-9.26-25.33c-.02-.02-.01-.04,0-.06a30.353,30.353,0,0,1,6.5-3.03,29.392,29.392,0,0,1,9.33-1.49h.01C190.33,130.32,203.8,144.52,203.8,161Z" fill="#13bf6d"/><path d="M97.98,134.84c.01.02.02.04,0,.06a39.089,39.089,0,0,0-9.26,25.33v55.54c-2.39-1.06-4.72-2.23-7-3.49A96.748,96.748,0,0,1,52.2,187.12V161c0-16.47,13.46-30.67,29.93-30.68h.02a29.538,29.538,0,0,1,9.32,1.5A29.2,29.2,0,0,1,97.98,134.84Z" fill="#fc5d3d"/><path d="M97.98,134.84c.01.02.02.04,0,.06a39.089,39.089,0,0,0-9.26,25.33v55.54c-2.39-1.06-4.72-2.23-7-3.49V160.23a46.3,46.3,0,0,1,9.75-28.41A29.2,29.2,0,0,1,97.98,134.84Z" fill="#b25035"/><path d="M174.28,160.23v52.05c-2.28,1.26-4.61,2.43-7,3.49V160.23a39.089,39.089,0,0,0-9.26-25.33c-.02-.02-.01-.04,0-.06a30.353,30.353,0,0,1,6.5-3.03A46.313,46.313,0,0,1,174.28,160.23Z" fill="#139c6e"/><path d="M167.28,160.23v55.54a96.04,96.04,0,0,1-78.56,0V160.23a39.089,39.089,0,0,1,9.26-25.33l.03-.03a39.266,39.266,0,0,1,59.98,0l.03.03A39.089,39.089,0,0,1,167.28,160.23Z" fill="#72c2e9"/><path d="M128,236.617a107.928,107.928,0,0,1-76.839-31.778A2.5,2.5,0,0,1,54.7,201.3,103.668,103.668,0,0,0,231.617,128a104,104,0,0,0-21.9-63.8,2.5,2.5,0,0,1,3.939-3.08A108.686,108.686,0,0,1,128,236.617ZM203.347,56.8q-1-1.062-2.043-2.1a2.5,2.5,0,0,1,3.535-3.535q1.087,1.089,2.14,2.2a2.5,2.5,0,1,1-3.632,3.436Z" fill="#f8e5b0"/><path d="M193.8,186.073a2.5,2.5,0,0,1-2.5-2.5v-3a2.5,2.5,0,0,1,5,0v3A2.5,2.5,0,0,1,193.8,186.073Zm0-13a2.5,2.5,0,0,1-2.5-2.5V161a18.268,18.268,0,0,0-14.52-17.909,2.5,2.5,0,1,1,.914-4.916C188.3,140.146,196.3,149.958,196.3,161v9.573A2.5,2.5,0,0,1,193.8,173.073Z" fill="#76ffbb"/><path d="M62.2,186.073a2.5,2.5,0,0,1-2.5-2.5v-3a2.5,2.5,0,0,1,5,0v3A2.5,2.5,0,0,1,62.2,186.073Zm0-13a2.5,2.5,0,0,1-2.5-2.5V161a23.482,23.482,0,0,1,14.453-21.607,2.5,2.5,0,1,1,1.881,4.632A18.439,18.439,0,0,0,64.7,161v9.573A2.5,2.5,0,0,1,62.2,173.073Z" fill="#ffcbc3"/><path d="M157.28,211.547a2.5,2.5,0,0,1-2.5-2.5v-3a2.5,2.5,0,0,1,5,0v3A2.5,2.5,0,0,1,157.28,211.547Zm0-13a2.5,2.5,0,0,1-2.5-2.5V160.23a26.817,26.817,0,0,0-26.7-26.78h-.148a2.5,2.5,0,1,1,0-5h.154a31.827,31.827,0,0,1,31.69,31.78v35.817A2.5,2.5,0,0,1,157.28,198.547Z" fill="#c5e5fe"/><path d="M135.668,100.5a2.5,2.5,0,0,0-2.5,2.5,5.168,5.168,0,1,1-10.336,0,2.5,2.5,0,0,0-5,0,10.168,10.168,0,1,0,20.336,0A2.5,2.5,0,0,0,135.668,100.5Z"/><path d="M90.8,114.8a2.5,2.5,0,0,0-5,0,3.648,3.648,0,0,1-7.3,0,2.5,2.5,0,0,0-5,0,8.648,8.648,0,0,0,17.3,0Z"/><path d="M173.853,123.449A8.657,8.657,0,0,0,182.5,114.8a2.5,2.5,0,0,0-5,0,3.648,3.648,0,0,1-7.295,0,2.5,2.5,0,1,0-5,0A8.657,8.657,0,0,0,173.853,123.449Z"/><path d="M141.33,79.569a2.5,2.5,0,0,0-.351-3.509v-.01a2.572,2.572,0,0,0-3.519.36,2.493,2.493,0,0,0,.35,3.52h.009A2.5,2.5,0,0,0,141.33,79.569Z"/><path d="M127.979,226.67h.041a98.7,98.7,0,0,0,97.57-113.26,2.532,2.532,0,0,0-2.84-2.11,2.5,2.5,0,0,0-2.1,2.84v.02A93.583,93.583,0,0,1,206.3,179.332V161a33.651,33.651,0,0,0-22.189-31.4,18.009,18.009,0,0,0,7.764-14.8v-9.587a18.023,18.023,0,1,0-36.045,0V114.8a18,18,0,0,0,7.663,14.724,32.435,32.435,0,0,0-4.986,2.156,41.752,41.752,0,0,0-19.167-11.642,20.363,20.363,0,0,0,9.11-16.959V91.819a20.253,20.253,0,0,0-1.07-6.519,2.5,2.5,0,0,0-4.74,1.59.009.009,0,0,0,.009.009,15.439,15.439,0,0,1,.8,4.92V103.08a15.45,15.45,0,0,1-30.9,0V91.819A15.41,15.41,0,0,1,127.92,76.46a15.684,15.684,0,0,1,2.1.12,2.531,2.531,0,0,0,2.79-2.17,2.494,2.494,0,0,0-2.17-2.79,19.806,19.806,0,0,0-2.72-.16,20.386,20.386,0,0,0-20.37,20.359V103.08a20.363,20.363,0,0,0,9.084,16.943,41.657,41.657,0,0,0-19.127,11.66,31.852,31.852,0,0,0-5.011-2.15A18,18,0,0,0,100.17,114.8v-9.587a18.023,18.023,0,1,0-36.045,0V114.8a18.007,18.007,0,0,0,7.765,14.8A33.66,33.66,0,0,0,49.7,161v18.337A93.653,93.653,0,1,1,215.79,95.319a2.54,2.54,0,0,0,3.22,1.471,2.492,2.492,0,0,0,1.469-3.21A98.824,98.824,0,0,0,128.02,29.33H128a98.67,98.67,0,0,0-.021,197.34ZM160.83,114.8v-9.587a13.023,13.023,0,1,1,26.045,0V114.8a13.023,13.023,0,0,1-26.045,0Zm12.982,18.021c15.038,0,27.488,13,27.488,28.178v25.236a94.265,94.265,0,0,1-31.52,25.586V160.23a42.006,42.006,0,0,0-8.014-24.6A27.18,27.18,0,0,1,173.812,132.822ZM128.08,123.45h0a36.8,36.8,0,0,1,36.7,36.78v53.9a93.47,93.47,0,0,1-73.56.007v-53.9A36.786,36.786,0,0,1,128.08,123.45ZM69.125,114.8v-9.587a13.023,13.023,0,1,1,26.045,0V114.8a13.023,13.023,0,0,1-26.045,0Zm13.022,18.023a27.664,27.664,0,0,1,12.09,2.8A42.013,42.013,0,0,0,86.22,160.23v51.591a94.18,94.18,0,0,1-31.52-25.6V161C54.7,145.727,67.274,132.824,82.147,132.824Z"/><path d="M9.33,128a118.2,118.2,0,0,0,33.84,82.979,2.555,2.555,0,0,0,3.54.041,2.5,2.5,0,0,0,.04-3.53,113.505,113.505,0,1,1,14.81,12.75,2.572,2.572,0,0,0-3.491.56,2.49,2.49,0,0,0,.571,3.49,118.058,118.058,0,0,0,69.35,22.38H128A118.67,118.67,0,1,0,9.33,128Z"/><path d="M50.359,214.439a2.5,2.5,0,1,0,3.521-.259A2.567,2.567,0,0,0,50.359,214.439Z"/><path d="M218.71,104.609s0,.011.01.011a2.5,2.5,0,0,0,4.84-1.261,2.546,2.546,0,0,0-3.05-1.8A2.5,2.5,0,0,0,218.71,104.609Z"/></svg>