<svg xmlns="http://www.w3.org/2000/svg" viewBox="0 0 256 256"><title>100 Most Used Icons - Expanded</title><path d="M232.794,128.757l-97.721,97.722a10,10,0,0,1-14.142,0L23.209,128.757a59.844,59.844,0,0,1,0-84.631h0a59.843,59.843,0,0,1,84.628,0l13.094,13.092a10,10,0,0,0,14.141,0l13.094-13.092a59.843,59.843,0,0,1,84.628,0h0A59.842,59.842,0,0,1,232.794,128.757Z" fill="#f0c020"/><path d="M123.052,207.387,33.815,118.151A44.844,44.844,0,0,1,97.232,54.73l13.093,13.092a24.968,24.968,0,0,0,35.353,0L158.772,54.73a44.844,44.844,0,0,1,63.416,63.421l-89.236,89.236A7,7,0,0,1,123.052,207.387Z" fill="#e8a61e"/><path d="M38.765,113.2a37.843,37.843,0,0,1,53.517-53.52l13.093,13.091a31.983,31.983,0,0,0,45.253,0l13.093-13.091a37.843,37.843,0,0,1,53.517,53.52L128,202.437Z" fill="#fc5d3d"/><path d="M126.234,190.063l-2.121-2.121a2.5,2.5,0,0,1,3.535-3.535l2.121,2.121a2.5,2.5,0,1,1-3.535,3.535Zm-9.192-9.193L44.068,107.9a30.357,30.357,0,0,1,0-42.912A2.5,2.5,0,1,1,47.6,68.521a25.361,25.361,0,0,0,0,35.841l72.974,72.973a2.5,2.5,0,1,1-3.535,3.535Z" fill="#ffcbc3"/><path d="M126.347,217.526l2-2a2.5,2.5,0,0,1,3.535,3.535l-2.114,2.114a2.5,2.5,0,1,1-3.422-3.649Zm9.073-5.536a2.5,2.5,0,0,1,0-3.536l88.536-88.536A47.344,47.344,0,0,0,190.479,39.1a2.5,2.5,0,0,1,0-5,52.344,52.344,0,0,1,37.012,89.355L138.955,211.99A2.5,2.5,0,0,1,135.42,211.99Z" fill="#f8e5b0"/><path d="M21.442,130.524l8.56,8.56a2.555,2.555,0,0,0,3.54,0,2.5,2.5,0,0,0,0-3.53l-8.571-8.56a57.328,57.328,0,0,1-.049-81.05c.02-.02.04-.03.06-.05a57.3,57.3,0,0,1,81.089,0l13.09,13.09a12.506,12.506,0,0,0,17.68,0l13.09-13.09a57.343,57.343,0,1,1,81.09,81.1l-97.72,97.72a7.5,7.5,0,0,1-10.6,0l-75.02-75.02a2.574,2.574,0,0,0-3.54,0,2.509,2.509,0,0,0,.011,3.54l75.009,75.01a12.494,12.494,0,0,0,17.68,0l97.72-97.72a62.342,62.342,0,0,0-88.16-88.17l-13.1,13.09a7.494,7.494,0,0,1-10.6,0l-13.1-13.09a62.342,62.342,0,0,0-88.159,88.17Z"/><path d="M37.071,142.624a2.5,2.5,0,1,0,3.541,0A2.5,2.5,0,0,0,37.071,142.624Z"/><path d="M190.8,136.1a2.5,2.5,0,1,0,3.54,0A2.555,2.555,0,0,0,190.8,136.1Z"/><path d="M197.872,129.034a2.5,2.5,0,0,0,0,3.53,2.555,2.555,0,0,0,3.54,0l17.59-17.6a40.34,40.34,0,1,0-57.05-57.05L148.861,71a29.478,29.478,0,0,1-41.72,0l-13.09-13.09A40.34,40.34,0,1,0,37,114.964l89.23,89.24a2.507,2.507,0,0,0,3.539,0l57.49-57.5a2.485,2.485,0,0,0,0-3.53,2.542,2.542,0,0,0-3.53,0L128,198.9l-87.471-87.47a35.345,35.345,0,0,1,49.98-49.99l13.1,13.09a34.471,34.471,0,0,0,48.779.01l13.1-13.1a35.344,35.344,0,0,1,49.979,49.99Z"/></svg>