<svg xmlns="http://www.w3.org/2000/svg" viewBox="0 0 256 256"><title>100 Most Used Icons - Expanded</title><polygon points="222.96 110.905 222.96 234.145 33.04 234.145 33.04 110.905 128 28.425 222.96 110.905" fill="#efefef"/><path d="M222.96,110.905v9.27C198.77,99.165,137.39,45.845,128,37.7l-94.96,82.48v-9.27L128,28.425Z" fill="#afafaf"/><path d="M97.049,144.253h61.9a5,5,0,0,1,5,5v84.892a0,0,0,0,1,0,0h-71.9a0,0,0,0,1,0,0V149.253A5,5,0,0,1,97.049,144.253Z" fill="#fc5d3d"/><circle cx="128" cy="98.043" r="25.018" fill="#f0c020"/><path d="M246.93,119.605a9.143,9.143,0,0,1-12.9.91l-11.07-9.61L128,28.425l-94.96,82.48-11.07,9.61a9.144,9.144,0,0,1-11.99-13.81L122,9.415a9.155,9.155,0,0,1,12,0l112.02,97.29A9.149,9.149,0,0,1,246.93,119.605Z" fill="#fc5d3d"/><path d="M249.17,241.485a7.345,7.345,0,0,1-7.34,7.34H14.17a7.34,7.34,0,0,1,0-14.68H241.83A7.34,7.34,0,0,1,249.17,241.485Z" fill="#13bf6d"/><path d="M212.96,226.645a2.5,2.5,0,0,1-2.5-2.5v-88.39a2.5,2.5,0,0,1,5,0v88.39A2.5,2.5,0,0,1,212.96,226.645Zm0-98.39a2.5,2.5,0,0,1-2.5-2.5v-3a2.5,2.5,0,0,1,5,0v3A2.5,2.5,0,0,1,212.96,128.255Z" fill="#fff"/><path d="M153.951,226.645a2.5,2.5,0,0,1-2.5-2.5v-3a2.5,2.5,0,0,1,5,0v3A2.5,2.5,0,0,1,153.951,226.645Zm0-13a2.5,2.5,0,0,1-2.5-2.5V156.753h-49.4a2.5,2.5,0,0,1,0-5h51.9a2.5,2.5,0,0,1,2.5,2.5v56.892A2.5,2.5,0,0,1,153.951,213.645Z" fill="#ffcbc3"/><path d="M129.2,115.506a2.5,2.5,0,0,1-.2-4.992,12.519,12.519,0,0,0,7.847-21.322,2.5,2.5,0,0,1,3.535-3.537A17.519,17.519,0,0,1,129.4,115.5C129.335,115.5,129.268,115.506,129.2,115.506Zm-10.886-2.864a17.687,17.687,0,0,1-2.7-2.211,2.5,2.5,0,0,1,3.535-3.537,12.605,12.605,0,0,0,1.933,1.583,2.5,2.5,0,1,1-2.766,4.165Z" fill="#f8e5b0"/><path d="M155.518,98.043A27.518,27.518,0,1,0,128,125.561,27.549,27.549,0,0,0,155.518,98.043Zm-50.036,0A22.518,22.518,0,1,1,128,120.561,22.544,22.544,0,0,1,105.482,98.043Z"/><circle cx="33.04" cy="177.305" r="2.5"/><path d="M30.54,231.645H14.17a9.84,9.84,0,0,0,0,19.68H163.359a2.5,2.5,0,0,0,0-5H14.17a4.84,4.84,0,0,1,0-9.68H241.84a4.84,4.84,0,0,1-.01,9.68H183.359a2.5,2.5,0,1,0,0,5H241.83a9.84,9.84,0,0,0,0-19.68H225.46V116.386l6.93,6.019a11.615,11.615,0,0,0,7.62,2.85v-.05l.02.05a11.646,11.646,0,0,0,7.63-20.44l-48.181-41.84a2.565,2.565,0,0,0-3.519.25,2.488,2.488,0,0,0,.24,3.52v.01l48.18,41.84a6.642,6.642,0,0,1-8.71,10.03L129.64,26.535a2.567,2.567,0,0,0-3.281,0L20.33,118.625a6.642,6.642,0,0,1-8.71-10.03l112.02-97.29a6.662,6.662,0,0,1,8.719-.01L181.1,53.635a2.577,2.577,0,0,0,3.53-.24,2.5,2.5,0,0,0-.25-3.53L135.64,7.525a11.664,11.664,0,0,0-15.29.01L8.34,104.815a11.646,11.646,0,0,0,15.269,17.59l6.931-6.02v50.92a2.5,2.5,0,0,0,5,0V112.042L128,31.735l92.46,80.308v119.6H166.451V149.253a7.508,7.508,0,0,0-7.5-7.5h-61.9a7.508,7.508,0,0,0-7.5,7.5v82.392H35.54v-44.34a2.5,2.5,0,0,0-5,0Zm64.009-82.392a2.5,2.5,0,0,1,2.5-2.5h61.9a2.5,2.5,0,0,1,2.5,2.5v82.392h-66.9Z"/><path d="M192.18,59.945a2.489,2.489,0,0,0-.241-3.52,2.566,2.566,0,0,0-3.529.24,2.5,2.5,0,1,0,3.77,3.28Z"/><circle cx="173.359" cy="248.825" r="2.5"/><path d="M115.75,190.317H105a2.5,2.5,0,0,0,0,5h10.75a2.5,2.5,0,0,0,0-5Z"/></svg>