<svg xmlns="http://www.w3.org/2000/svg" viewBox="0 0 256 256"><title>100 Most Used Icons - Expanded</title><path d="M128,8.331A89.28,89.28,0,0,0,38.721,97.61c0,40.209,59.372,118.625,81.282,146.194a10.214,10.214,0,0,0,15.994,0c21.91-27.569,81.282-105.985,81.282-146.194A89.28,89.28,0,0,0,128,8.331Z" fill="#fc5d3d"/><path d="M189.02,97.615A61.021,61.021,0,0,1,135,158.225v-51.1l13.75,7.94a7,7,0,0,0,7-12.13L142,95l13.75-7.93a7,7,0,0,0-7-12.13L135,82.875V67a7,7,0,0,0-14,0v15.88l-13.75-7.94a7,7,0,0,0-7,12.13L114,95l-13.75,7.94a7,7,0,0,0,7,12.13l13.75-7.94v51.1a61.017,61.017,0,1,1,68.02-60.61Z" fill="#efefef"/><path d="M126.613,239.54a2.5,2.5,0,0,1-.4-3.513l1.859-2.347a2.5,2.5,0,1,1,3.924,3.1l-1.867,2.359A2.5,2.5,0,0,1,126.613,239.54Zm8.046-10.222a2.5,2.5,0,0,1-.455-3.507c44.192-57.355,70.574-105.281,70.574-128.2A76.865,76.865,0,0,0,128,20.831a2.5,2.5,0,0,1,0-5A81.871,81.871,0,0,1,209.778,97.61c0,35.545-54.813,109.449-71.613,131.253A2.5,2.5,0,0,1,134.659,229.318Z" fill="#ffcbc3"/><path d="M128,5.834a91.76,91.76,0,0,0-91.78,91.78c.179,40.407,56.873,116.348,81.82,147.74a12.7,12.7,0,0,0,19.91,0c8.96-11.26,26.409-33.87,42.69-58.7a2.5,2.5,0,0,0-.73-3.46,2.567,2.567,0,0,0-3.46.721c-16.15,24.639-33.5,47.12-42.41,58.33a7.707,7.707,0,0,1-12.08,0C97.972,212.09,41.047,135.821,41.22,97.614a86.78,86.78,0,0,1,173.56,0c.079,19.4-15.02,48.47-27.7,69.44a2.5,2.5,0,1,0,4.279,2.58l.011-.01c19.05-31.72,28.34-55.28,28.41-72.01A91.772,91.772,0,0,0,128,5.834Z"/><path d="M185.29,174.754a2.551,2.551,0,0,0-3.44.781,2.5,2.5,0,1,0,3.44-.781Z"/><path d="M127.99,34.094a63.385,63.385,0,0,0-42.341,16.18,2.5,2.5,0,0,0-.2,3.53,2.575,2.575,0,0,0,3.529.2L88.99,54A58.518,58.518,0,1,1,137.5,155.354v-43.9l10,5.779a9.506,9.506,0,0,0,9.5-16.469L147,95l10-5.77a9.5,9.5,0,1,0-9.51-16.451l-9.99,5.77V67a9.5,9.5,0,0,0-19,0V78.544l-10-5.779A9.5,9.5,0,1,0,99,89.225L109,95l-10,5.77a9.506,9.506,0,0,0,9.5,16.469l10-5.779v43.9a58.536,58.536,0,0,1-41.49-86.48,2.5,2.5,0,0,0-.95-3.4,2.568,2.568,0,0,0-3.411.949,63.534,63.534,0,0,0,48.071,94.281,2.506,2.506,0,0,0,2.78-2.48v-51.1a2.507,2.507,0,0,0-3.75-2.169L106,112.894a4.5,4.5,0,0,1-4.5-7.79l13.75-7.939a2.512,2.512,0,0,0,0-4.341L101.5,84.9a4.5,4.5,0,0,1,4.5-7.8l13.75,7.94a2.507,2.507,0,0,0,3.75-2.17V67a4.5,4.5,0,0,1,9,0V82.874a2.507,2.507,0,0,0,3.75,2.17L150,77.094a4.507,4.507,0,0,1,4.5,7.81l-13.75,7.92a2.512,2.512,0,0,0,0,4.341L154.5,105.1a4.5,4.5,0,1,1-4.5,7.79l-13.75-7.939a2.507,2.507,0,0,0-3.75,2.169v51.1a2.5,2.5,0,0,0,2.78,2.48,63.514,63.514,0,0,0-7.29-126.611Z"/><path d="M78.87,61.334a2.512,2.512,0,0,0,3.52-.379v-.011a2.5,2.5,0,0,0-.38-3.509,2.579,2.579,0,0,0-3.51.369.01.01,0,0,1-.01.01A2.5,2.5,0,0,0,78.87,61.334Z"/></svg>