<svg xmlns="http://www.w3.org/2000/svg" viewBox="0 0 256 256"><title>100 Most Used Icons - Expanded</title><path d="M233.969,137.143,32.132,248.63a10.445,10.445,0,0,1-15.495-9.143V16.514A10.445,10.445,0,0,1,32.132,7.371L233.969,118.858A10.445,10.445,0,0,1,233.969,137.143Z" fill="#f0c020"/><path d="M32.137,219.056V36.945a7.006,7.006,0,0,1,10.385-6.128L207.37,121.873a7.005,7.005,0,0,1,0,12.255L42.522,225.184A7,7,0,0,1,32.137,219.056Z" fill="#e8a61e"/><path d="M25.109,241.086a2.5,2.5,0,0,1,.979-3.4l2.626-1.451a2.5,2.5,0,1,1,2.418,4.377l-2.626,1.451A2.5,2.5,0,0,1,25.109,241.086ZM36.488,234.8a2.5,2.5,0,0,1,.98-3.4L227.925,126.2a2.5,2.5,0,0,1,2.418,4.377L39.885,235.779A2.5,2.5,0,0,1,36.488,234.8Z" fill="#f8e5b0"/><polygon points="39.137 36.945 203.985 128.001 39.137 219.056 39.137 36.945" fill="#72c2e9"/><path d="M182.094,130.189,59.308,62.367a2.5,2.5,0,1,1,2.418-4.377l122.786,67.822a2.5,2.5,0,0,1-2.418,4.377ZM50.554,57.532l-2.626-1.451A2.5,2.5,0,0,1,50.346,51.7l2.626,1.451a2.5,2.5,0,1,1-2.418,4.377Z" fill="#c5e5fe"/><path d="M36.64,36.941v182.12a2.5,2.5,0,0,0,3.71,2.179l23.32-12.88a2.5,2.5,0,0,0,.98-3.4,2.562,2.562,0,0,0-3.39-.98h-.01L41.64,214.82V41.18L198.81,128,78.76,194.311a2.509,2.509,0,0,0-.98,3.4,2.566,2.566,0,0,0,3.4.98l124.01-68.5a2.5,2.5,0,0,0,0-4.38L40.35,34.76A2.5,2.5,0,0,0,36.64,36.941Z"/><path d="M70.01,199.15a2.5,2.5,0,1,0,3.4.98A2.562,2.562,0,0,0,70.01,199.15Z"/><path d="M97.29,40.5,33.34,5.18a12.949,12.949,0,0,0-19.2,11.33V239.49a12.951,12.951,0,0,0,19.2,11.33L235.18,139.331a12.949,12.949,0,0,0,0-22.661L114.79,50.17a2.57,2.57,0,0,0-3.4.98,2.513,2.513,0,0,0,.97,3.391.009.009,0,0,1,.01.009l120.39,66.5a7.933,7.933,0,0,1,0,13.9L30.92,246.441a7.949,7.949,0,0,1-11.78-6.951V16.51A7.946,7.946,0,0,1,30.92,9.561L94.87,44.88a2.554,2.554,0,0,0,3.39-.98A2.5,2.5,0,0,0,97.29,40.5Z"/><path d="M107.02,48.731a2.5,2.5,0,0,0-.98-3.391,2.558,2.558,0,0,0-3.4.98,2.5,2.5,0,0,0,4.38,2.411Z"/></svg>