<svg xmlns="http://www.w3.org/2000/svg" viewBox="0 0 256 256"><title>100 Most Used Icons - Expanded</title><circle cx="128" cy="128" r="114.057" fill="#f0c020"/><path d="M189.686,150.7l-4.1-3.057a19.189,19.189,0,0,1-7.707-15.332,27.026,27.026,0,0,0-26.455-26.986,23.432,23.432,0,0,0-46.85,0,27.026,27.026,0,0,0-26.454,26.986,19.133,19.133,0,0,1-7.716,15.338l-4.09,3.051A7.006,7.006,0,0,0,70.5,163.311h115A7.006,7.006,0,0,0,189.686,150.7Z" fill="#e8a61e"/><path d="M185.5,156.311H70.5l4.091-3.051A26.115,26.115,0,0,0,85.12,132.311a20,20,0,0,1,20-20h7.73a16.451,16.451,0,0,0,30.3,0h7.729a20,20,0,0,1,20,20,26.105,26.105,0,0,0,10.53,20.949Z" fill="#878787"/><path d="M150.551,112.311a24.339,24.339,0,0,1-.951,2.719,23.444,23.444,0,0,1-44.149-2.719h7.4a16.451,16.451,0,0,0,30.3,0Z" fill="#4c4944"/><path d="M144.44,105.911A16.44,16.44,0,1,1,128,89.47,16.458,16.458,0,0,1,144.44,105.911Z" fill="#fc5d3d"/><path d="M128,234.507a105.84,105.84,0,0,1-75.347-31.16,2.5,2.5,0,1,1,3.535-3.535A101.557,101.557,0,0,0,229.507,128a101.907,101.907,0,0,0-21.3-62.305,2.5,2.5,0,1,1,3.947-3.07A106.576,106.576,0,0,1,128,234.507ZM201.852,58.289q-1-1.062-2.04-2.1a2.5,2.5,0,1,1,3.535-3.535q1.09,1.087,2.142,2.2a2.5,2.5,0,0,1-3.637,3.432Z" fill="#f8e5b0"/><path d="M123.15,116.108a11.25,11.25,0,0,1-3.134-2.214,2.5,2.5,0,1,1,3.535-3.535,6.241,6.241,0,0,0,1.743,1.231,2.5,2.5,0,1,1-2.144,4.518Zm8.545-1.839a2.5,2.5,0,0,1,.328-3.519,6.3,6.3,0,0,0,.427-9.289,2.5,2.5,0,1,1,3.535-3.537,11.3,11.3,0,0,1-.771,16.673A2.5,2.5,0,0,1,131.7,114.269Z" fill="#ffcbc3"/><path d="M128,204.383a24.834,24.834,0,0,0,24.807-24.806,2.5,2.5,0,0,0-5,0,19.807,19.807,0,0,1-39.613,0,2.5,2.5,0,0,0-5,0A24.834,24.834,0,0,0,128,204.383Z"/><path d="M231.25,176.6a2.515,2.515,0,0,0,3.3-1.269A116.62,116.62,0,0,0,128,11.44a118.1,118.1,0,0,0-20.33,1.77,2.5,2.5,0,0,0,.871,4.92A112.95,112.95,0,0,1,128,16.44,111.618,111.618,0,0,1,229.98,173.3,2.5,2.5,0,0,0,231.25,176.6Z"/><path d="M128,244.56a116.532,116.532,0,0,0,96.65-51.39,2.5,2.5,0,0,0-.67-3.469,2.574,2.574,0,0,0-3.48.67A111.568,111.568,0,1,1,89.68,23.2a2.51,2.51,0,0,0,1.49-3.21A2.553,2.553,0,0,0,87.96,18.5,116.579,116.579,0,0,0,128,244.56Z"/><path d="M229.01,181.07a2.549,2.549,0,0,0-3.389.971,2.5,2.5,0,1,0,3.389-.971Z"/><path d="M99,20.25a2.509,2.509,0,0,0,1.77-3.06A2.546,2.546,0,0,0,97.7,15.42H97.69A2.5,2.5,0,0,0,99,20.25Z"/><path d="M91.5,88.667v-8a2.5,2.5,0,0,0-5,0v8a2.5,2.5,0,0,0,5,0Z"/><path d="M169.5,88.667v-8a2.5,2.5,0,0,0-5,0v8a2.5,2.5,0,0,0,5,0Z"/><path d="M82.621,132.31A23.636,23.636,0,0,1,73.1,151.256l-4.09,3.05A2.5,2.5,0,0,0,72,158.314l4.087-3.047A28.642,28.642,0,0,0,87.621,132.31a17.52,17.52,0,0,1,17.5-17.5h6.173a18.92,18.92,0,0,0,33.413,0h6.173a17.52,17.52,0,0,1,17.5,17.5,28.727,28.727,0,0,0,11.537,22.954l4.089,3.05A2.5,2.5,0,0,0,187,154.306l-4.092-3.052a23.707,23.707,0,0,1-9.523-18.944,22.526,22.526,0,0,0-22.5-22.5h-4.349a18.906,18.906,0,0,0,.409-3.9,19.167,19.167,0,0,0-.38-3.79,2.525,2.525,0,0,0-2.95-1.951,2.482,2.482,0,0,0-1.949,2.93v.021a14.489,14.489,0,0,1,.279,2.79A13.94,13.94,0,1,1,128,91.97a15.27,15.27,0,0,1,2.13.16,2.544,2.544,0,0,0,2.85-2.089,2.519,2.519,0,0,0-2.1-2.851,19.627,19.627,0,0,0-2.88-.22,18.927,18.927,0,0,0-18.531,22.84h-4.348A22.526,22.526,0,0,0,82.621,132.31Z"/><path d="M106.64,132.306a32.351,32.351,0,0,1,.695-6.728,2.5,2.5,0,1,0-4.89-1.043,37.37,37.37,0,0,0-.8,7.771c0,13.727-5.45,19.581-7.64,22.5a2.5,2.5,0,1,0,4,3C100.068,155.05,106.64,147.981,106.64,132.306Z"/><path d="M158,157.806a2.5,2.5,0,0,0,4-3c-2.1-2.8-7.639-8.686-7.639-22.5a37.37,37.37,0,0,0-.8-7.771,2.5,2.5,0,1,0-4.89,1.043,32.351,32.351,0,0,1,.695,6.728C149.361,145.5,153.523,151.837,158,157.806Z"/><path d="M130.5,156.306v-22a2.5,2.5,0,0,0-5,0v22a2.5,2.5,0,1,0,5,0Z"/><path d="M141.15,95.73a2.5,2.5,0,0,0-.08-3.52c0-.009-.01-.009-.01-.009a2.541,2.541,0,0,0-3.529.079,2.5,2.5,0,1,0,3.619,3.45Z"/></svg>