<svg xmlns="http://www.w3.org/2000/svg" viewBox="0 0 256 256"><title>100 Most Used Icons - Expanded</title><path d="M146.623,21.442,172.85,62.069a22.157,22.157,0,0,0,12.834,9.373l47.5,12.84a22.16,22.16,0,0,1,11.2,35.621L213.7,156.537a22.16,22.16,0,0,0-5.131,15.574l2.982,49.06a22.161,22.161,0,0,1-30.471,21.871l-44.726-18.2a22.154,22.154,0,0,0-16.7,0l-44.727,18.2a22.16,22.16,0,0,1-30.47-21.871l2.982-49.06a22.165,22.165,0,0,0-5.131-15.574L11.624,119.9A22.16,22.16,0,0,1,22.83,84.282l47.5-12.84A22.159,22.159,0,0,0,83.16,62.069l26.227-40.627A22.16,22.16,0,0,1,146.623,21.442Z" fill="#72c2e9"/><path d="M185.876,227.719l-43.49-17.694a38.1,38.1,0,0,0-28.761,0L70.134,227.719a7,7,0,0,1-9.625-6.909l2.9-47.729a38.012,38.012,0,0,0-8.836-26.818L24.734,110.637a7.005,7.005,0,0,1,3.539-11.252L74.5,86.888A38.092,38.092,0,0,0,96.6,70.745l25.522-39.533a7,7,0,0,1,11.762,0l25.521,39.534a38.1,38.1,0,0,0,22.1,16.142l46.227,12.5a7,7,0,0,1,3.539,11.252l-29.839,35.627a38.007,38.007,0,0,0-8.835,26.817l2.9,47.729A7,7,0,0,1,185.876,227.719Z" fill="#4ba5c8"/><path d="M70.4,173.506a44.978,44.978,0,0,0-10.457-31.737L30.1,106.142l46.226-12.5a45.077,45.077,0,0,0,26.157-19.1l25.521-39.532,25.521,39.534a45.083,45.083,0,0,0,26.156,19.1l46.227,12.5L196.07,141.769a44.987,44.987,0,0,0-10.457,31.737l2.9,47.729-43.491-17.694a45.126,45.126,0,0,0-34.037,0L67.5,221.235Z" fill="#f0c020"/><path d="M183.909,236.1l-44.727-18.2a29.758,29.758,0,0,0-22.354,0L84.144,231.2a2.5,2.5,0,0,1-1.885-4.632l32.684-13.3a34.608,34.608,0,0,1,26.123,0l44.727,18.2a9.641,9.641,0,0,0,13.283-9.536L196.1,172.869a34.673,34.673,0,0,1,8.024-24.357L234.8,111.877a9.631,9.631,0,0,0-4.885-15.528l-47.495-12.84a34.6,34.6,0,0,1-20.075-14.662L136.121,28.221a2.5,2.5,0,1,1,4.2-2.711l26.227,40.626a29.6,29.6,0,0,0,17.178,12.546l47.5,12.84a14.658,14.658,0,0,1,7.414,23.565l-30.684,36.635a29.672,29.672,0,0,0-6.868,20.844l2.981,49.06A14.644,14.644,0,0,1,183.909,236.1ZM68.844,234.721a2.5,2.5,0,0,1,1.374-3.257L73,230.333a2.5,2.5,0,0,1,1.883,4.632L72.1,236.1A2.5,2.5,0,0,1,68.844,234.721Z" fill="#c5e5fe"/><path d="M176.627,208.3l-2.779-1.13a2.5,2.5,0,0,1,1.882-4.632l2.78,1.13a2.5,2.5,0,0,1-1.883,4.632ZM75.946,205.835l1.937-31.875a52.665,52.665,0,0,0-12.194-37.007L45.894,113.319a2.5,2.5,0,0,1,3.833-3.211l19.8,23.635a57.664,57.664,0,0,1,13.351,40.522l-1.7,27.909,25.1-10.211a57.546,57.546,0,0,1,43.459,0l16.735,6.808a2.5,2.5,0,0,1-1.885,4.632L147.85,196.6a52.54,52.54,0,0,0-39.69,0L79.384,208.3A2.5,2.5,0,0,1,75.946,205.835Z" fill="#f8e5b0"/><path d="M138.694,225.8a2.5,2.5,0,1,0,3.261-1.38A2.487,2.487,0,0,0,138.694,225.8Z"/><path d="M246.305,121.511a24.663,24.663,0,0,0-12.47-39.64l-47.5-12.84a19.65,19.65,0,0,1-11.391-8.32l-26.219-40.63a24.67,24.67,0,0,0-41.44,0L81.064,60.711a19.67,19.67,0,0,1-11.389,8.32l-47.5,12.84a24.661,24.661,0,0,0-12.47,39.64l30.689,36.63a19.76,19.76,0,0,1,4.55,13.82l-2.979,49.06a24.645,24.645,0,0,0,33.9,24.34l44.731-18.2a19.61,19.61,0,0,1,10.58-1.19,2.5,2.5,0,0,0,.809-4.94,24.61,24.61,0,0,0-13.269,1.5l-44.731,18.2a19.656,19.656,0,0,1-27.04-19.4l2.991-49.07a24.744,24.744,0,0,0-5.71-17.33L13.535,118.3a19.643,19.643,0,0,1,9.949-31.61l47.491-12.84a24.642,24.642,0,0,0,14.29-10.43L111.484,22.8a19.659,19.659,0,0,1,33.04,0l26.221,40.62a24.636,24.636,0,0,0,14.29,10.43l47.489,12.84a19.643,19.643,0,0,1,9.941,31.61l-30.68,36.63a24.66,24.66,0,0,0-5.711,17.35l2.981,49.04a19.665,19.665,0,0,1-27.031,19.41l-30.809-12.54a2.5,2.5,0,1,0-1.88,4.63l30.8,12.54a24.657,24.657,0,0,0,33.91-24.34l-2.981-49.06a19.675,19.675,0,0,1,4.55-13.82Z"/><path d="M187.574,223.551a2.494,2.494,0,0,0,3.431-2.47l-2.9-47.73a42.7,42.7,0,0,1,9.88-29.98l8.561-10.21a2.51,2.51,0,0,0-.311-3.52,2.558,2.558,0,0,0-3.519.31l-8.561,10.21a47.443,47.443,0,0,0-11.04,33.5l2.66,43.76-39.809-16.2a47.629,47.629,0,0,0-35.92.01l-39.811,16.19,2.66-43.76a47.549,47.549,0,0,0-11.04-33.5l-27.33-32.63,42.451-11.47a47.569,47.569,0,0,0,27.61-20.16l23.42-36.28,23.42,36.28a47.577,47.577,0,0,0,27.6,20.16l42.46,11.47-5.939,7.08a2.516,2.516,0,0,0,.319,3.53,2.58,2.58,0,0,0,3.521-.31l8.439-10.08a2.5,2.5,0,0,0-1.26-4.02l-46.229-12.5a42.63,42.63,0,0,1-24.71-18.04L130.1,33.651a2.506,2.506,0,0,0-4.2,0l-25.519,39.53a42.61,42.61,0,0,1-24.71,18.05l-46.231,12.5a2.5,2.5,0,0,0-1.259,4.02l29.839,35.62a42.751,42.751,0,0,1,9.88,29.98L65,221.081a2.5,2.5,0,0,0,3.44,2.47l43.49-17.69a42.588,42.588,0,0,1,32.16,0Z"/><path d="M209.135,122.281a2.5,2.5,0,1,0,3.83,3.21,2.51,2.51,0,0,0-.311-3.52A2.567,2.567,0,0,0,209.135,122.281Z"/></svg>