<svg xmlns="http://www.w3.org/2000/svg" viewBox="0 0 256 256"><title>100 Most Used Icons - Expanded</title><path d="M185.265,125.481a54.728,54.728,0,0,1-81.58,47.71,54.015,54.015,0,0,1-5.99-3.91l5.44-5.43,12.88-12.88a7.733,7.733,0,0,0,2.14-4.06,24.827,24.827,0,1,0-9.07-9.07,7.773,7.773,0,0,0-4.06,2.14l-12.88,12.88-5.43,5.44a54.713,54.713,0,0,1-10.95-32.82,54.75,54.75,0,0,1,109.5,0Z" fill="#f0c020"/><path d="M245.265,125.481a114.8,114.8,0,0,1-162.02,104.59c-2.25-1.03-4.46-2.11-6.63-3.27l6.63-6.63a4.988,4.988,0,0,0,1.46-3.7l-.67-20.17q3.465,2.28,7.15,4.22a83.961,83.961,0,0,0,39.33,9.71,84.816,84.816,0,1,0-75.04-45.41c1.29,2.45,2.7,4.84,4.22,7.14l-20.17-.67a4.988,4.988,0,0,0-3.7,1.46l-6.63,6.63c-1.16-2.17-2.24-4.38-3.27-6.63a114.761,114.761,0,1,1,219.34-47.27Z" fill="#72c2e9"/><path d="M55.475,164.821c1.29,2.45,2.7,4.84,4.22,7.14l-20.17-.67a4.988,4.988,0,0,0-3.7,1.46l-6.63,6.63c-1.16-2.17-2.24-4.38-3.27-6.63l4.95-4.95a11.856,11.856,0,0,1,8.5-3.51C39.545,164.291,47.665,164.561,55.475,164.821Z" fill="#4ba5c8"/><path d="M91.705,216.241a12.068,12.068,0,0,1-3.54,8.91l-4.92,4.92c-2.25-1.03-4.46-2.11-6.63-3.27l6.63-6.63a4.988,4.988,0,0,0,1.46-3.7l-.67-20.17q3.465,2.28,7.15,4.22Z" fill="#4ba5c8"/><path d="M155.265,125.481a24.724,24.724,0,0,1-37.11,21.43,7.766,7.766,0,0,0-9.07-9.07,24.745,24.745,0,1,1,46.18-12.36Z" fill="#fc5d3d"/><path d="M124.715,149.541a24.557,24.557,0,0,1-6.56-2.63,7.766,7.766,0,0,0-9.07-9.07,24.557,24.557,0,0,1-2.63-6.56,14.76,14.76,0,0,1,18.26,18.26Z" fill="#b25035"/><path d="M84.705,216.471a4.988,4.988,0,0,1-1.46,3.7l-6.63,6.63-16.99,16.99a5,5,0,0,1-8.53-3.37l-.79-23.75,33.3-33.3.43,12.93Z" fill="#efefef"/><path d="M72.625,172.391l-33.3,33.3-23.75-.79a5,5,0,0,1-3.37-8.53l16.99-16.99,6.63-6.63a4.988,4.988,0,0,1,3.7-1.46l20.17.67Z" fill="#efefef"/><path d="M118.155,146.911a7.733,7.733,0,0,1-2.14,4.06l-12.88,12.88-10.99-10.99,12.88-12.88a7.769,7.769,0,0,1,13.13,6.93Z" fill="#efefef"/><path d="M215.265,125.481a84.848,84.848,0,0,1-84.75,84.75,83.961,83.961,0,0,1-39.33-9.71q-3.69-1.935-7.15-4.22l-.43-12.93,14.09-14.09a54.713,54.713,0,0,0,32.82,10.95,54.787,54.787,0,1,0-47.71-27.92,54.015,54.015,0,0,0,3.91,5.99l-14.09,14.09-12.93-.43c-1.52-2.3-2.93-4.69-4.22-7.14a84.74,84.74,0,1,1,159.79-39.34Z" fill="#13bf6d"/><polygon points="103.135 163.851 97.695 169.281 83.605 183.371 50.305 216.671 39.325 205.691 72.625 172.391 86.715 158.301 92.145 152.861 103.135 163.851" fill="#fc5d3d"/><path d="M86.715,158.3l-14.09,14.09-12.93-.43c-1.52-2.3-2.93-4.69-4.22-7.14,7.23.24,14.19.46,14.35.47l12.98-12.98A54.015,54.015,0,0,0,86.715,158.3Z" fill="#139c6e"/><path d="M90.705,186.171l.48,14.35q-3.69-1.935-7.15-4.22l-.43-12.93,14.09-14.09a54.015,54.015,0,0,0,5.99,3.91Z" fill="#139c6e"/><path d="M105.025,139.981l-12.88,12.88-5.43,5.44a54.015,54.015,0,0,1-3.91-5.99c6.26-6.26-1.91,1.9,17.27-17.28a14.682,14.682,0,0,1,6.38-3.75,24.557,24.557,0,0,0,2.63,6.56A7.773,7.773,0,0,0,105.025,139.981Z" fill="#e8a61e"/><path d="M124.715,149.541a14.658,14.658,0,0,1-3.75,6.38c-20.52,20.52-12.68,12.67-17.28,17.27a54.015,54.015,0,0,1-5.99-3.91l5.44-5.43,12.88-12.88a7.733,7.733,0,0,0,2.14-4.06A24.557,24.557,0,0,0,124.715,149.541Z" fill="#e8a61e"/><path d="M160.685,158.6a2.5,2.5,0,0,1-.034-3.536c.662-.675,1.307-1.377,1.917-2.087a2.5,2.5,0,0,1,3.793,3.258c-.682.793-1.4,1.577-2.141,2.331A2.5,2.5,0,0,1,160.685,158.6Zm9.4-9.735a2.5,2.5,0,0,1-2.207-3.672,42.236,42.236,0,0,0-65.281-51.4,2.5,2.5,0,0,1-3.3-3.752,47.237,47.237,0,0,1,73,57.5A2.5,2.5,0,0,1,170.086,148.861Z" fill="#f8e5b0"/><path d="M175.12,220.286a2.5,2.5,0,0,1,1.114-3.356q1.309-.657,2.6-1.351a2.5,2.5,0,1,1,2.373,4.4q-1.353.729-2.729,1.42A2.5,2.5,0,0,1,175.12,220.286Zm11.388-6.273a2.5,2.5,0,0,1,.688-3.468A102.215,102.215,0,1,0,61.384,50.208,2.5,2.5,0,1,1,58,46.527,107.213,107.213,0,1,1,189.975,214.7,2.5,2.5,0,0,1,186.508,214.013Z" fill="#c5e5fe"/><path d="M181.288,180.338a2.5,2.5,0,0,1,.019-3.535q1.031-1.02,2.021-2.08a2.5,2.5,0,1,1,3.655,3.412q-1.058,1.134-2.16,2.223A2.5,2.5,0,0,1,181.288,180.338Zm8.738-9.612a2.5,2.5,0,0,1-.588-3.486A72.208,72.208,0,0,0,82.007,71.991a2.5,2.5,0,1,1-3.363-3.7A77.208,77.208,0,0,1,193.512,170.138,2.5,2.5,0,0,1,190.026,170.726Z" fill="#76ffbb"/><path d="M80.185,103.781a2.5,2.5,0,0,0,2.2-4.491,2.543,2.543,0,0,0-3.35,1.151A2.494,2.494,0,0,0,80.185,103.781Z"/><path d="M147.155,236.5a2.5,2.5,0,1,0,2.84,2.111A2.546,2.546,0,0,0,147.155,236.5Z"/><path d="M21.925,205.111a2.5,2.5,0,1,0,2.58-2.42A2.494,2.494,0,0,0,21.925,205.111Z"/><path d="M10.435,194.6a7.515,7.515,0,0,0,3.38,12.56,2.537,2.537,0,0,0,3.05-1.79,2.5,2.5,0,0,0-1.79-3.05,2.5,2.5,0,0,1-1.1-4.18L16.72,195.4l28.419.942-6.814,6.812-3.82-.12a2.5,2.5,0,0,0-.17,5l3.923.128,9.582,9.581L48.6,240.5a7.5,7.5,0,0,0,12.8,5.059l15.69-15.691a116.431,116.431,0,0,0,53.432,12.863c2.42,0,4.85-.07,7.22-.221a2.5,2.5,0,1,0-.31-4.989h-.01c-2.29.14-4.61.21-6.9.21a111.285,111.285,0,0,1-49.709-11.586l4.2-4.2a7.522,7.522,0,0,0,2.2-5.549v-.011l-.515-15.5a87.376,87.376,0,1,0-31.572-31.577L39.6,168.79H39.6a7.559,7.559,0,0,0-5.55,2.2l-4.2,4.195a112.258,112.258,0,1,1,212.916-49.705,111.856,111.856,0,0,1-86.02,109.17,2.5,2.5,0,1,0,1.16,4.859,117.243,117.243,0,1,0-131.776-60.6Zm17.1-10.024,28.418.942L49.984,191.5l-28.42-.943ZM92.147,156.4l7.451,7.451c-4.5,4.5-40.686,40.678-49.293,49.286l-7.442-7.442C84.71,163.845,63.74,184.81,92.147,156.4Zm3.534-3.537,11.112-11.113a5.272,5.272,0,0,1,7.455,7.456l-11.113,11.112Zm23.65-12.66,12.952-12.953a2.5,2.5,0,0,0-3.535-3.535L115.8,136.666a10.31,10.31,0,0,0-5.269-1.436,22.278,22.278,0,1,1,10.243,10.242A10.279,10.279,0,0,0,119.331,140.2ZM71.421,228.46l-5.97,5.97L64.5,206.013l5.978-5.976ZM53.594,240.337l-.754-22.666,6.82-6.818.95,28.418-2.752,2.753A2.5,2.5,0,0,1,53.594,240.337ZM81.477,218.4l-5.214,5.215L75.32,195.2l5.978-5.977.908,27.328A2.507,2.507,0,0,1,81.477,218.4ZM48.265,125.481A82.365,82.365,0,1,1,86.49,194.905l-.35-10.527,11.826-11.824A57.245,57.245,0,1,0,84.455,91.51a2.513,2.513,0,0,0,.52,3.5,2.574,2.574,0,0,0,3.5-.529,52.262,52.262,0,1,1,13.094,74.472c1.29-1.291,14.7-14.7,16.214-16.214a10.234,10.234,0,0,0,1.745-2.346,26.711,26.711,0,0,0,10.987,2.338,27.25,27.25,0,1,0-27.25-27.25,26.707,26.707,0,0,0,2.339,10.988,10.231,10.231,0,0,0-2.346,1.744L87.042,154.429a52.2,52.2,0,0,1-6.887-42.889,2.518,2.518,0,0,0-1.74-3.08,2.549,2.549,0,0,0-3.08,1.741,57.227,57.227,0,0,0,8.107,47.829L71.62,169.855l-10.512-.35A81.766,81.766,0,0,1,48.265,125.481ZM37.6,174.521a2.474,2.474,0,0,1,1.78-.731l27.4.91L60.8,180.674l-28.418-.942Z"/></svg>