<svg xmlns="http://www.w3.org/2000/svg" viewBox="0 0 256 256"><title>100 Most Used Icons - Expanded</title><rect x="198.079" y="5.829" width="45.12" height="59.053" rx="22.56" ry="22.56" transform="translate(89.624 -145.66) rotate(45)" fill="#feb69f"/><rect x="12.801" y="191.107" width="45.12" height="59.053" rx="22.56" ry="22.56" transform="translate(-95.646 401.649) rotate(-135)" fill="#feb69f"/><rect x="198.079" y="191.107" width="45.12" height="59.053" rx="22.56" ry="22.56" transform="translate(532.666 220.63) rotate(135)" fill="#feb69f"/><rect x="12.801" y="5.829" width="45.12" height="59.053" rx="22.56" ry="22.56" transform="translate(-14.643 35.36) rotate(-45)" fill="#feb69f"/><path d="M128,71.945l-19.46,19.46-6.56-6.55a12.106,12.106,0,1,0-17.12,17.12l6.55,6.56L71.95,128l-24.98-24.98a26.55,26.55,0,0,1,0-37.52L65.5,46.965a26.55,26.55,0,0,1,37.52,0L123.05,67Z" fill="#72c2e9"/><path d="M209.03,103.015,184.05,128l-19.46-19.46,6.55-6.56a12.106,12.106,0,0,0-17.12-17.12l-6.56,6.55L128,71.945,132.95,67l20.03-20.03a26.55,26.55,0,0,1,37.52,0L209.03,65.5A26.55,26.55,0,0,1,209.03,103.015Z" fill="#8b72e9"/><path d="M128,184.045l-24.98,24.98a26.55,26.55,0,0,1-37.52,0L46.97,190.5a26.55,26.55,0,0,1,0-37.52L67,132.945,71.95,128l19.46,19.46-6.55,6.56a12.106,12.106,0,0,0,17.12,17.12l6.56-6.55Z" fill="#13bf6d"/><path d="M209.03,190.5l-18.53,18.53a26.55,26.55,0,0,1-37.52,0L128,184.045l19.46-19.46,6.56,6.55a12.106,12.106,0,0,0,17.12-17.12l-6.55-6.56L184.05,128l4.95,4.95,20.03,20.03A26.55,26.55,0,0,1,209.03,190.5Z" fill="#f0c020"/><path d="M108.54,164.585,128,184.045,123.05,189l-14.51-14.52-1.61,1.61a19.106,19.106,0,0,1-27.02-27.02l1.61-1.61L67,132.945,71.95,128l19.46,19.46-6.55,6.56a12.106,12.106,0,0,0,17.12,17.12Z" fill="#139c6e"/><path d="M91.41,108.535,71.95,128,67,123.045l14.52-14.51-1.61-1.61a19.106,19.106,0,0,1,27.02-27.02l1.61,1.61L123.05,67l4.95,4.95-19.46,19.46-6.56-6.55a12.106,12.106,0,1,0-17.12,17.12Z" fill="#4ba5c8"/><path d="M189,132.945l-14.52,14.51,1.61,1.61a19.106,19.106,0,0,1-27.02,27.02l-1.61-1.61L132.95,189l-4.95-4.95,19.46-19.46,6.56,6.55a12.106,12.106,0,0,0,17.12-17.12l-6.55-6.56L184.05,128Z" fill="#e8a61e"/><path d="M147.46,91.405,128,71.945,132.95,67l14.51,14.52,1.61-1.61a19.106,19.106,0,0,1,27.02,27.02l-1.61,1.61L189,123.045,184.05,128l-19.46-19.46,6.55-6.56a12.106,12.106,0,0,0-17.12-17.12Z" fill="#7256e1"/><path d="M171.14,154.015a12.106,12.106,0,0,1-17.12,17.12l-6.56-6.55L128,184.045l-19.46-19.46-6.56,6.55a12.106,12.106,0,0,1-17.12-17.12l6.55-6.56L71.95,128l19.46-19.46-6.55-6.56a12.106,12.106,0,1,1,17.12-17.12l6.56,6.55L128,71.945l19.46,19.46,6.56-6.55a12.106,12.106,0,0,1,17.12,17.12l-6.55,6.56L184.05,128l-19.46,19.46Z" fill="#efefef"/><path d="M115.087,146.9l-12-12a13,13,0,1,1,18.387-18.382l2.805,2.8,10.246-10.245a13,13,0,1,1,18.382,18.385l-19.435,19.437A12.992,12.992,0,0,1,115.087,146.9Z" fill="#afafaf"/><path d="M120.039,141.956l-12-12a6,6,0,0,1,8.484-8.485l7.758,7.757,15.2-15.194a6,6,0,0,1,8.484,8.484l-19.438,19.438A6,6,0,0,1,120.039,141.956Z" fill="#fc5d3d"/><path d="M238.487,125.466c-3.728-1.228-6.641-2.022-8.591-10.421a2.662,2.662,0,0,0-5.181,0c-1.907,8.212-4.566,9.091-8.591,10.422a2.661,2.661,0,0,0,0,5.05c6.686,2.209,7.444,5.476,8.59,10.421a2.661,2.661,0,0,0,5.183,0c1.9-8.212,4.709-9.139,8.59-10.421A2.662,2.662,0,0,0,238.487,125.466Z"/><path d="M231.292,128.015a13.184,13.184,0,0,0-3.93,4.44,13.786,13.786,0,0,0-4.17-4.4,13.131,13.131,0,0,0,4.12-4.64A13.6,13.6,0,0,0,231.292,128.015Z" fill="#f0c020"/><path d="M39.876,125.466c-3.729-1.228-6.641-2.022-8.591-10.421a2.662,2.662,0,0,0-5.181,0c-1.907,8.212-4.566,9.091-8.591,10.422a2.661,2.661,0,0,0,0,5.05c6.686,2.209,7.443,5.476,8.59,10.421a2.66,2.66,0,0,0,5.182,0c1.9-8.212,4.71-9.139,8.591-10.421A2.662,2.662,0,0,0,39.876,125.466Z"/><path d="M32.681,128.015a13.184,13.184,0,0,0-3.93,4.44,13.786,13.786,0,0,0-4.17-4.4,13.131,13.131,0,0,0,4.12-4.64A13.6,13.6,0,0,0,32.681,128.015Z" fill="#f0c020"/><path d="M139.182,224.772c-3.729-1.228-6.642-2.023-8.592-10.422a2.662,2.662,0,0,0-5.181,0c-1.906,8.213-4.566,9.092-8.591,10.422a2.662,2.662,0,0,0,0,5.051c6.686,2.209,7.444,5.476,8.591,10.421a2.66,2.66,0,0,0,5.182,0c1.905-8.212,4.709-9.139,8.591-10.421A2.662,2.662,0,0,0,139.182,224.772Z"/><path d="M131.986,227.32a13.194,13.194,0,0,0-3.93,4.44,13.773,13.773,0,0,0-4.17-4.4,13.134,13.134,0,0,0,4.12-4.641A13.588,13.588,0,0,0,131.986,227.32Z" fill="#f0c020"/><path d="M139.182,26.161c-3.729-1.228-6.642-2.023-8.592-10.422a2.662,2.662,0,0,0-5.181,0c-1.906,8.213-4.566,9.092-8.591,10.422a2.662,2.662,0,0,0,0,5.051c6.686,2.209,7.444,5.475,8.591,10.421a2.66,2.66,0,0,0,5.182,0c1.905-8.212,4.709-9.139,8.591-10.421A2.662,2.662,0,0,0,139.182,26.161Z"/><path d="M131.986,28.709a13.184,13.184,0,0,0-3.93,4.44,13.786,13.786,0,0,0-4.17-4.4,13.131,13.131,0,0,0,4.12-4.64A13.6,13.6,0,0,0,131.986,28.709Z" fill="#f0c020"/><path d="M143.029,71.059a2.5,2.5,0,0,1,0-3.535L145.15,65.4a2.5,2.5,0,0,1,3.536,3.535l-2.122,2.121A2.5,2.5,0,0,1,143.029,71.059Zm9.193-9.192a2.5,2.5,0,0,1,0-3.535l6.062-6.064a19.039,19.039,0,0,1,26.915,0,2.5,2.5,0,0,1-3.533,3.537,14.043,14.043,0,0,0-19.847,0l-6.062,6.063A2.5,2.5,0,0,1,152.222,61.867Z" fill="#b8a4ff"/><path d="M70.8,203.719a2.5,2.5,0,0,1,3.535-3.538,14.029,14.029,0,0,0,19.846,0l6.812-6.812a2.5,2.5,0,1,1,3.535,3.535l-6.812,6.813A19.028,19.028,0,0,1,70.8,203.719Zm37.264-13.882a2.5,2.5,0,0,1,0-3.535l2.122-2.122a2.5,2.5,0,0,1,3.535,3.536l-2.121,2.121A2.5,2.5,0,0,1,108.064,189.837Z" fill="#76ffbb"/><path d="M200.19,185.2a2.5,2.5,0,0,1,0-3.535,14.041,14.041,0,0,0,0-19.847l-6.061-6.062a2.5,2.5,0,0,1,3.535-3.535l6.063,6.062a19.04,19.04,0,0,1,0,26.915A2.5,2.5,0,0,1,200.19,185.2Zm-13.13-36.516-2.122-2.121a2.5,2.5,0,1,1,3.536-3.535l2.121,2.121a2.5,2.5,0,0,1-3.535,3.535Z" fill="#f8e5b0"/><path d="M68.281,113.719,66.16,111.6a2.5,2.5,0,0,1,3.535-3.535l2.121,2.121a2.5,2.5,0,0,1-3.535,3.536Zm-9.192-9.193-6.814-6.813a19.03,19.03,0,0,1,0-26.915,2.5,2.5,0,0,1,3.537,3.533,14.033,14.033,0,0,0,0,19.847l6.812,6.813a2.5,2.5,0,0,1-3.535,3.535Z" fill="#c5e5fe"/><path d="M220.758,45.328a7.136,7.136,0,1,1-10.092-10.092,2.5,2.5,0,1,0-3.535-3.535,12.135,12.135,0,1,0,17.162,17.162,2.5,2.5,0,1,0-3.535-3.535Z"/><path d="M243.285,48.149A25.059,25.059,0,0,0,207.846,12.71l-9.853,9.852a24.973,24.973,0,0,0-7.076,21.373A29.048,29.048,0,0,0,151.21,45.2L128,68.407,104.786,45.2a29.084,29.084,0,0,0-39.7-1.257,24.972,24.972,0,0,0-7.076-21.377L48.154,12.71A25.059,25.059,0,0,0,12.715,48.149L22.567,58a24.973,24.973,0,0,0,21.377,7.076,29.083,29.083,0,0,0,1.258,39.7L68.415,128,45.2,151.209a29.082,29.082,0,0,0-1.26,39.7,24.959,24.959,0,0,0-21.372,7.077l-9.849,9.859a24.825,24.825,0,0,0-3.63,4.571,2.5,2.5,0,0,0,4.26,2.62,19.952,19.952,0,0,1,2.9-3.66l9.85-9.85a20.06,20.06,0,0,1,28.37,28.369l-9.85,9.851a20.072,20.072,0,0,1-33.141-7.6A2.533,2.533,0,0,0,8.3,230.6a2.492,2.492,0,0,0-1.54,3.181,24.781,24.781,0,0,0,5.95,9.49,25.063,25.063,0,0,0,35.439.01l9.861-9.86a24.989,24.989,0,0,0,7.075-21.373,29.074,29.074,0,0,0,39.7-1.259L128,187.582l14.642,14.642a2.572,2.572,0,0,0,3.54,0,2.519,2.519,0,0,0,0-3.54h-.01l-14.64-14.639,15.928-15.928,4.785,4.786a14.612,14.612,0,1,0,20.665-20.665l-4.785-4.786,15.927-15.927,23.21,23.22a24.03,24.03,0,0,1,0,33.979c-11.484,11.483-8.917,8.917-18.531,18.531a23.894,23.894,0,0,1-16.989,7.03,24.168,24.168,0,0,1-11.28-2.8,2.5,2.5,0,1,0-2.34,4.42,29.131,29.131,0,0,0,13.62,3.38h.02a28.834,28.834,0,0,0,19.157-7.231,24.969,24.969,0,0,0,7.076,21.373l9.853,9.853a25.059,25.059,0,0,0,35.439-35.439l-9.852-9.853a24.974,24.974,0,0,0-21.373-7.077,29.03,29.03,0,0,0-1.26-39.706l-23.211-23.211L210.8,104.785a28.789,28.789,0,0,0,5.58-7.84,2.5,2.5,0,1,0-4.49-2.19h-.01a23.877,23.877,0,0,1-4.62,6.49l-23.21,23.21-15.927-15.918,4.785-4.785a14.612,14.612,0,0,0-20.665-20.665l-4.785,4.785L131.53,71.945l23.22-23.21a24.031,24.031,0,0,1,33.979,0L207.26,67.264a23.757,23.757,0,0,1,5.95,9.851,2.537,2.537,0,0,0,3.13,1.649,2.505,2.505,0,0,0,1.65-3.129,29.128,29.128,0,0,0-5.927-10.556,25.386,25.386,0,0,0,3.65.264A24.9,24.9,0,0,0,233.433,58ZM229.9,201.523l9.853,9.853a20.06,20.06,0,0,1-28.369,28.369l-9.853-9.853A20.06,20.06,0,0,1,229.9,201.523ZM149.229,93.175l6.561-6.55a9.6,9.6,0,0,1,13.58,13.58l-6.551,6.559a2.508,2.508,0,0,0,0,3.545L180.5,128,162.815,145.68a2.5,2.5,0,0,0-.31,3.155c.238.36,6.559,6.644,6.865,6.95a9.6,9.6,0,0,1-13.58,13.58l-6.561-6.551a2.518,2.518,0,0,0-3.543,0L128,180.5,110.314,162.81a2.5,2.5,0,0,0-3.535,0l-.006.006-6.562,6.553A9.606,9.606,0,1,1,86.63,155.781l6.55-6.56,0,0h0a2.5,2.5,0,0,0,0-3.536L75.5,128l17.686-17.686a2.5,2.5,0,0,0,0-3.535h0l0-.006-6.554-6.562a9.606,9.606,0,0,1,13.588-13.583l6.559,6.551.006,0a2.5,2.5,0,0,0,3.535,0L128,75.494l17.686,17.685A2.517,2.517,0,0,0,149.229,93.175ZM26.1,54.467,16.25,44.614A20.06,20.06,0,0,1,44.619,16.245L54.472,26.1A20.06,20.06,0,0,1,26.1,54.467Zm22.634,12.8c3.035-3.034-8.315,8.316,18.53-18.529a24.077,24.077,0,0,1,33.985,0l23.213,23.213L108.54,87.87l-4.783-4.783a14.612,14.612,0,1,0-20.665,20.665l4.783,4.783L71.95,124.46,48.738,101.248A24.076,24.076,0,0,1,48.737,67.262Zm52.516,140a24.078,24.078,0,0,1-33.985,0l-18.53-18.53a24.075,24.075,0,0,1,0-33.985L71.95,131.53l15.925,15.925-4.783,4.783A14.612,14.612,0,0,0,103.757,172.9l4.783-4.783,15.925,15.925ZM201.4,54.325a20.033,20.033,0,0,1,.128-28.228l9.853-9.852A20.06,20.06,0,0,1,239.75,44.614L229.9,54.467A20.021,20.021,0,0,1,201.4,54.325Z"/><path d="M45.334,224.289a2.5,2.5,0,0,0,3.535,0,12.135,12.135,0,1,0-17.162-17.162,2.5,2.5,0,0,0,3.535,3.535,7.136,7.136,0,1,1,10.092,10.092A2.5,2.5,0,0,0,45.334,224.289Z"/><path d="M10.49,223.394v-.019a2.265,2.265,0,1,0,0,.019Z"/><path d="M207.132,224.288a2.5,2.5,0,0,0,3.535-3.535,7.136,7.136,0,1,1,10.092-10.092,2.5,2.5,0,1,0,3.535-3.535,12.135,12.135,0,1,0-17.162,17.162Z"/><path d="M48.868,31.7a2.5,2.5,0,1,0-3.535,3.535A7.136,7.136,0,1,1,35.241,45.329a2.5,2.5,0,0,0-3.535,3.535A12.135,12.135,0,1,0,48.868,31.7Z"/><path d="M214.22,86.064a2.5,2.5,0,1,0,2.679-2.3A2.506,2.506,0,0,0,214.22,86.064Z"/><path d="M149.71,205.755a2.5,2.5,0,1,0,3.54,0A2.572,2.572,0,0,0,149.71,205.755Z"/><path d="M137.709,112.266l-13.428,13.427-5.989-5.988a8.5,8.5,0,1,0-12.021,12.018l12,12a8.492,8.492,0,0,0,12.02,0l19.438-19.436a8.5,8.5,0,0,0-12.02-12.021Zm8.484,8.485-19.438,19.438a3.583,3.583,0,0,1-4.947,0h0l-12-12a3.5,3.5,0,1,1,4.949-4.948L122.514,131a2.5,2.5,0,0,0,3.535,0l15.2-15.2a3.581,3.581,0,0,1,4.948,0A3.5,3.5,0,0,1,146.193,120.751Z"/></svg>