<svg xmlns="http://www.w3.org/2000/svg" viewBox="0 0 256 256"><title>100 Most Used Icons - Expanded</title><rect x="41.75" y="36.37" width="172.5" height="183.26" fill="#f0c020"/><path d="M248.75,46.37V209.63a10,10,0,0,1-10,10h-24.5V36.37h24.5A10,10,0,0,1,248.75,46.37Z" fill="#fc5d3d"/><path d="M41.75,36.37V219.63H17.25a10,10,0,0,1-10-10V46.37a10,10,0,0,1,10-10Z" fill="#fc5d3d"/><rect x="41.75" y="36.37" width="172.5" height="183.26" fill="#efefef"/><path d="M73,176.2V75.375c0-17.67,19.989-28.287,34.634-18.01l71.871,50.416a22.014,22.014,0,0,1,0,36.022l-71.871,50.405C93,204.476,73,193.875,73,176.2Z" fill="#afafaf"/><path d="M175.486,138.072l-71.871,50.405A15,15,0,0,1,80,176.2V75.375A15,15,0,0,1,103.616,63.1l71.871,50.416A15,15,0,0,1,175.486,138.072Z" fill="#fc5d3d"/><rect x="19.083" y="50.366" width="9.667" height="9.667" fill="#efefef"/><rect x="19.083" y="75.01" width="9.667" height="9.667" fill="#efefef"/><rect x="19.083" y="99.653" width="9.667" height="9.667" fill="#efefef"/><rect x="19.083" y="124.297" width="9.667" height="9.667" fill="#efefef"/><rect x="19.083" y="148.94" width="9.667" height="9.667" fill="#efefef"/><rect x="19.083" y="173.583" width="9.667" height="9.667" fill="#efefef"/><rect x="19.083" y="198.227" width="9.667" height="9.667" fill="#efefef"/><rect x="226.667" y="50.366" width="9.667" height="9.667" fill="#efefef"/><rect x="226.667" y="75.01" width="9.667" height="9.667" fill="#efefef"/><rect x="226.667" y="99.653" width="9.667" height="9.667" fill="#efefef"/><rect x="226.667" y="124.297" width="9.667" height="9.667" fill="#efefef"/><rect x="226.667" y="148.94" width="9.667" height="9.667" fill="#efefef"/><rect x="226.667" y="173.583" width="9.667" height="9.667" fill="#efefef"/><rect x="226.667" y="198.227" width="9.667" height="9.667" fill="#efefef"/><path d="M204.25,212.13H64.75a2.5,2.5,0,0,1,0-5h137V46.37a2.5,2.5,0,0,1,5,0V209.63A2.5,2.5,0,0,1,204.25,212.13Zm-149.5,0h-3a2.5,2.5,0,0,1,0-5h3a2.5,2.5,0,0,1,0,5Z" fill="#fff"/><path d="M95.826,181.726a2.5,2.5,0,0,1,.612-3.482l2.456-1.723a2.5,2.5,0,0,1,2.871,4.094l-2.456,1.722A2.5,2.5,0,0,1,95.826,181.726Zm10.644-7.464a2.5,2.5,0,0,1,.611-3.483l61.228-42.941a2.492,2.492,0,0,0,0-4.093L96.438,73.329a2.5,2.5,0,1,1,2.871-4.094l71.871,50.416a7.5,7.5,0,0,1,0,12.281l-61.228,42.941A2.5,2.5,0,0,1,106.47,174.262Z" fill="#ffcbc3"/><path d="M16.583,60.033a2.5,2.5,0,0,0,2.5,2.5H28.75a2.5,2.5,0,0,0,2.5-2.5V50.366a2.5,2.5,0,0,0-2.5-2.5H19.083a2.5,2.5,0,0,0-2.5,2.5Zm5-7.167H26.25v4.667H21.583Z"/><path d="M28.75,72.51H19.083a2.5,2.5,0,0,0-2.5,2.5v9.666a2.5,2.5,0,0,0,2.5,2.5H28.75a2.5,2.5,0,0,0,2.5-2.5V75.01A2.5,2.5,0,0,0,28.75,72.51Zm-2.5,9.666H21.583V77.51H26.25Z"/><path d="M28.75,97.153H19.083a2.5,2.5,0,0,0-2.5,2.5v9.667a2.5,2.5,0,0,0,2.5,2.5H28.75a2.5,2.5,0,0,0,2.5-2.5V99.653A2.5,2.5,0,0,0,28.75,97.153Zm-2.5,9.667H21.583v-4.667H26.25Z"/><path d="M28.75,121.8H19.083a2.5,2.5,0,0,0-2.5,2.5v9.667a2.5,2.5,0,0,0,2.5,2.5H28.75a2.5,2.5,0,0,0,2.5-2.5V124.3A2.5,2.5,0,0,0,28.75,121.8Zm-2.5,9.667H21.583V126.8H26.25Z"/><path d="M28.75,146.44H19.083a2.5,2.5,0,0,0-2.5,2.5v9.666a2.5,2.5,0,0,0,2.5,2.5H28.75a2.5,2.5,0,0,0,2.5-2.5V148.94A2.5,2.5,0,0,0,28.75,146.44Zm-2.5,9.666H21.583V151.44H26.25Z"/><path d="M28.75,171.083H19.083a2.5,2.5,0,0,0-2.5,2.5v9.667a2.5,2.5,0,0,0,2.5,2.5H28.75a2.5,2.5,0,0,0,2.5-2.5v-9.667A2.5,2.5,0,0,0,28.75,171.083Zm-2.5,9.667H21.583v-4.667H26.25Z"/><path d="M28.75,195.727H19.083a2.5,2.5,0,0,0-2.5,2.5v9.667a2.5,2.5,0,0,0,2.5,2.5H28.75a2.5,2.5,0,0,0,2.5-2.5v-9.667A2.5,2.5,0,0,0,28.75,195.727Zm-2.5,9.667H21.583v-4.667H26.25Z"/><path d="M226.667,62.533h9.666a2.5,2.5,0,0,0,2.5-2.5V50.366a2.5,2.5,0,0,0-2.5-2.5h-9.666a2.5,2.5,0,0,0-2.5,2.5v9.667A2.5,2.5,0,0,0,226.667,62.533Zm2.5-9.667h4.666v4.667h-4.666Z"/><path d="M226.667,87.176h9.666a2.5,2.5,0,0,0,2.5-2.5V75.01a2.5,2.5,0,0,0-2.5-2.5h-9.666a2.5,2.5,0,0,0-2.5,2.5v9.666A2.5,2.5,0,0,0,226.667,87.176Zm2.5-9.666h4.666v4.666h-4.666Z"/><path d="M226.667,111.82h9.666a2.5,2.5,0,0,0,2.5-2.5V99.653a2.5,2.5,0,0,0-2.5-2.5h-9.666a2.5,2.5,0,0,0-2.5,2.5v9.667A2.5,2.5,0,0,0,226.667,111.82Zm2.5-9.667h4.666v4.667h-4.666Z"/><path d="M226.667,136.463h9.666a2.5,2.5,0,0,0,2.5-2.5V124.3a2.5,2.5,0,0,0-2.5-2.5h-9.666a2.5,2.5,0,0,0-2.5,2.5v9.667A2.5,2.5,0,0,0,226.667,136.463Zm2.5-9.667h4.666v4.667h-4.666Z"/><path d="M226.667,161.106h9.666a2.5,2.5,0,0,0,2.5-2.5V148.94a2.5,2.5,0,0,0-2.5-2.5h-9.666a2.5,2.5,0,0,0-2.5,2.5v9.666A2.5,2.5,0,0,0,226.667,161.106Zm2.5-9.666h4.666v4.666h-4.666Z"/><path d="M226.667,185.75h9.666a2.5,2.5,0,0,0,2.5-2.5v-9.667a2.5,2.5,0,0,0-2.5-2.5h-9.666a2.5,2.5,0,0,0-2.5,2.5v9.667A2.5,2.5,0,0,0,226.667,185.75Zm2.5-9.667h4.666v4.667h-4.666Z"/><path d="M226.667,210.394h9.666a2.5,2.5,0,0,0,2.5-2.5v-9.667a2.5,2.5,0,0,0-2.5-2.5h-9.666a2.5,2.5,0,0,0-2.5,2.5v9.667A2.5,2.5,0,0,0,226.667,210.394Zm2.5-9.667h4.666v4.667h-4.666Z"/><path d="M4.75,46.37V209.63a12.514,12.514,0,0,0,12.5,12.5h221.5a12.514,12.514,0,0,0,12.5-12.5V46.37a12.514,12.514,0,0,0-12.5-12.5H17.25A12.514,12.514,0,0,0,4.75,46.37Zm241.5,0V209.63a7.508,7.508,0,0,1-7.5,7.5h-22V38.87h22A7.508,7.508,0,0,1,246.25,46.37Zm-34.5,170.76H44.25V38.87h167.5Zm-172.5,0h-22a7.508,7.508,0,0,1-7.5-7.5V46.37a7.508,7.508,0,0,1,7.5-7.5h22Z"/><path d="M105.05,190.52l71.87-50.4a17.511,17.511,0,0,0,0-28.66L105.05,61.05A17.512,17.512,0,0,0,77.5,75.38V96.76a2.5,2.5,0,0,0,5,0V75.38a12.525,12.525,0,0,1,19.68-10.24l71.87,50.42a12.5,12.5,0,0,1,0,20.47l-71.87,50.4A12.524,12.524,0,0,1,82.5,176.2V116.76a2.5,2.5,0,1,0-5,0V176.2A17.508,17.508,0,0,0,105.05,190.52Z"/><circle cx="80" cy="106.76" r="2.5"/></svg>