<?xml version="1.0" encoding="utf-8"?>
<!-- Generator: Adobe Illustrator 24.0.0, SVG Export Plug-In . SVG Version: 6.00 Build 0)  -->
<svg version="1.1" id="Layer_1" xmlns="http://www.w3.org/2000/svg" xmlns:xlink="http://www.w3.org/1999/xlink" x="0px" y="0px"
	 viewBox="0 0 256 256" style="enable-background:new 0 0 256 256;" xml:space="preserve">
<style type="text/css">
	.st0{fill:#A4D4A0;}
	.st1{fill:#419B46;}
	.st2{fill:#65BC49;}
	.st3{fill:#1C2D6B;}
	.st4{fill:#89AADB;}
	.st5{fill:#4B67B0;}
	.st6{fill:#6287C5;}
	.st7{fill:#EF7F72;}
	.st8{fill:#E8383B;}
	.st9{fill:#E95947;}
	.st10{fill:#EDE49D;}
	.st11{fill:#D3BA2A;}
	.st12{fill:#EEE045;}
	.st13{fill:#FFFFFF;}
</style>
<g>
	<g>
		<g>
			<g>
				<path class="st4" d="M86.206,128.009c0-49.706,18.712-90,41.794-90c-49.706,0-90,40.294-90,90s40.294,90,90,90
					C104.918,218.009,86.206,177.715,86.206,128.009z"/>
			</g>
		</g>
		<g>
			<g>
				<path class="st5" d="M128,38.009c23.082,0,41.794,40.294,41.794,90s-18.712,90-41.794,90c49.706,0,90-40.294,90-90
					S177.706,38.009,128,38.009z"/>
			</g>
		</g>
		<g>
			<g>
				<ellipse class="st6" cx="128" cy="128.009" rx="41.794" ry="90"/>
			</g>
		</g>
	</g>
	<g>
		<g>
			<g>
				<path class="st0" d="M128,38.009v90l16.176-88.538C138.927,38.518,133.524,38.009,128,38.009z"/>
			</g>
		</g>
		<g>
			<g>
				<path class="st1" d="M157.637,43.012L128,128.009l44.659-78.154C167.908,47.134,162.881,44.841,157.637,43.012z"/>
			</g>
		</g>
		<g>
			<g>
				<path class="st2" d="M144.176,39.471L128,128.009l29.637-84.997C153.292,41.498,148.795,40.31,144.176,39.471z"/>
			</g>
		</g>
	</g>
	<g>
		<g>
			<path class="st3" d="M128,131.509c-0.298,0-0.6-0.039-0.899-0.118c-1.534-0.407-2.602-1.796-2.602-3.383v-90
				c0-1.933,1.567-3.5,3.5-3.5c16.292,0,32.337,4.256,46.398,12.309c1.676,0.96,2.258,3.096,1.3,4.773l-44.659,78.154
				C130.405,130.855,129.233,131.509,128,131.509z M131.5,41.58v73.25l36.35-63.612C156.633,45.391,144.193,42.093,131.5,41.58z"/>
		</g>
	</g>
	<g>
		<g>
			<path class="st3" d="M128,221.509c-51.556,0-93.5-41.944-93.5-93.5s41.944-93.5,93.5-93.5s93.5,41.944,93.5,93.5
				S179.556,221.509,128,221.509z M128,41.509c-47.696,0-86.5,38.804-86.5,86.5s38.804,86.5,86.5,86.5s86.5-38.804,86.5-86.5
				S175.696,41.509,128,41.509z"/>
		</g>
	</g>
	<g>
		<g>
			<path class="st3" d="M128,197.509c-38.322,0-69.5-31.178-69.5-69.5s31.178-69.5,69.5-69.5s69.5,31.178,69.5,69.5
				S166.322,197.509,128,197.509z M128,65.509c-34.462,0-62.5,28.038-62.5,62.5s28.038,62.5,62.5,62.5s62.5-28.038,62.5-62.5
				S162.462,65.509,128,65.509z"/>
		</g>
	</g>
	<g>
		<g>
			<path class="st3" d="M128,173.509c-25.089,0-45.5-20.411-45.5-45.5s20.411-45.5,45.5-45.5s45.5,20.411,45.5,45.5
				S153.089,173.509,128,173.509z M128,89.509c-21.229,0-38.5,17.271-38.5,38.5s17.271,38.5,38.5,38.5s38.5-17.271,38.5-38.5
				S149.229,89.509,128,89.509z"/>
		</g>
	</g>
	<g>
		<g>
			<circle class="st9" cx="180.154" cy="87.554" r="6"/>
		</g>
		<g>
			<path class="st3" d="M180.154,97.054c-5.238,0-9.5-4.262-9.5-9.5s4.262-9.5,9.5-9.5s9.5,4.262,9.5,9.5
				S185.392,97.054,180.154,97.054z M180.154,85.054c-1.378,0-2.5,1.122-2.5,2.5s1.122,2.5,2.5,2.5s2.5-1.122,2.5-2.5
				S181.532,85.054,180.154,85.054z"/>
		</g>
	</g>
	<g>
		<g>
			<circle class="st9" cx="98" cy="157.448" r="6"/>
		</g>
		<g>
			<path class="st3" d="M98,166.948c-5.238,0-9.5-4.262-9.5-9.5s4.262-9.5,9.5-9.5s9.5,4.262,9.5,9.5S103.238,166.948,98,166.948z
				 M98,154.948c-1.378,0-2.5,1.122-2.5,2.5s1.122,2.5,2.5,2.5s2.5-1.122,2.5-2.5S99.378,154.948,98,154.948z"/>
		</g>
	</g>
	<g>
		<g>
			<circle class="st9" cx="39.263" cy="146.009" r="6"/>
		</g>
		<g>
			<path class="st3" d="M39.263,155.509c-5.238,0-9.5-4.262-9.5-9.5s4.262-9.5,9.5-9.5s9.5,4.262,9.5,9.5
				S44.501,155.509,39.263,155.509z M39.263,143.509c-1.378,0-2.5,1.122-2.5,2.5s1.122,2.5,2.5,2.5s2.5-1.122,2.5-2.5
				S40.642,143.509,39.263,143.509z"/>
		</g>
	</g>
	<g>
		<g>
			<circle class="st9" cx="194" cy="190.046" r="6"/>
		</g>
		<g>
			<path class="st3" d="M194,199.546c-5.238,0-9.5-4.262-9.5-9.5s4.262-9.5,9.5-9.5s9.5,4.262,9.5,9.5S199.238,199.546,194,199.546z
				 M194,187.546c-1.378,0-2.5,1.122-2.5,2.5s1.122,2.5,2.5,2.5s2.5-1.122,2.5-2.5S195.378,187.546,194,187.546z"/>
		</g>
	</g>
	<g>
		<g>
			<circle class="st9" cx="77.406" cy="53.415" r="6"/>
		</g>
		<g>
			<path class="st3" d="M77.406,62.915c-5.238,0-9.5-4.262-9.5-9.5s4.262-9.5,9.5-9.5s9.5,4.262,9.5,9.5
				S82.644,62.915,77.406,62.915z M77.406,50.915c-1.378,0-2.5,1.122-2.5,2.5s1.122,2.5,2.5,2.5s2.5-1.122,2.5-2.5
				S78.784,50.915,77.406,50.915z"/>
		</g>
	</g>
	<g>
		<g>
			<path class="st3" d="M128,227.491c-1.933,0-3.5-1.567-3.5-3.5V32.009c0-1.933,1.567-3.5,3.5-3.5s3.5,1.567,3.5,3.5v191.982
				C131.5,225.924,129.933,227.491,128,227.491z"/>
		</g>
	</g>
	<g>
		<g>
			<path class="st3" d="M224,131.509H32c-1.933,0-3.5-1.567-3.5-3.5s1.567-3.5,3.5-3.5h192c1.933,0,3.5,1.567,3.5,3.5
				S225.933,131.509,224,131.509z"/>
		</g>
	</g>
	<g>
		<g>
			<g>
				<path class="st10" d="M122,128.009c0-9.941,2.686-18,6-18c-9.941,0-18,8.059-18,18s8.059,18,18,18
					C124.686,146.009,122,137.95,122,128.009z"/>
			</g>
		</g>
		<g>
			<g>
				<path class="st11" d="M128,110.009c3.314,0,6,8.059,6,18s-2.686,18-6,18c9.941,0,18-8.059,18-18S137.941,110.009,128,110.009z"
					/>
			</g>
		</g>
		<g>
			<g>
				<ellipse class="st12" cx="128" cy="128.009" rx="6" ry="18"/>
			</g>
		</g>
	</g>
	<g>
		<g>
			<path class="st3" d="M128,149.509c-11.855,0-21.5-9.645-21.5-21.5s9.645-21.5,21.5-21.5s21.5,9.645,21.5,21.5
				S139.855,149.509,128,149.509z M128,113.509c-7.995,0-14.5,6.505-14.5,14.5s6.505,14.5,14.5,14.5s14.5-6.505,14.5-14.5
				S135.995,113.509,128,113.509z"/>
		</g>
	</g>
</g>
</svg>
