<svg xmlns="http://www.w3.org/2000/svg" version="1.1" xmlns:xlink="http://www.w3.org/1999/xlink" xmlns:svgjs="http://svgjs.dev/svgjs" viewBox="0 0 800 800"><rect width="100%" height="100%" fill="hsl(0, 0%, 100%)"></rect><g fill="hsl(0, 0%, 95%)"><rect width="251" height="2" x="640.5" y="658" rx="1" transform="rotate(45, 766, 659)" opacity="0.51"></rect><rect width="309" height="2" x="167.5" y="327" rx="1" transform="rotate(45, 322, 328)" opacity="0.63"></rect><rect width="432" height="2" x="201" y="106" rx="1" transform="rotate(45, 417, 107)" opacity="0.82"></rect><rect width="173" height="2" x="80.5" y="477" rx="1" transform="rotate(45, 167, 478)" opacity="0.23"></rect><rect width="130" height="2" x="349" y="269" rx="1" transform="rotate(45, 414, 270)" opacity="0.09"></rect><rect width="188" height="2" x="498" y="188" rx="1" transform="rotate(45, 592, 189)" opacity="0.87"></rect><rect width="388" height="2" x="335" y="416" rx="1" transform="rotate(45, 529, 417)" opacity="0.94"></rect><rect width="136" height="2" x="280" y="490" rx="1" transform="rotate(45, 348, 491)" opacity="0.08"></rect><rect width="240" height="2" x="504" y="633" rx="1" transform="rotate(45, 624, 634)" opacity="0.70"></rect><rect width="294" height="2" x="-103" y="591" rx="1" transform="rotate(45, 44, 592)" opacity="0.43"></rect><rect width="303" height="2" x="197.5" y="267" rx="1" transform="rotate(45, 349, 268)" opacity="0.41"></rect><rect width="229" height="2" x="135.5" y="301" rx="1" transform="rotate(45, 250, 302)" opacity="0.09"></rect><rect width="154" height="2" x="360" y="443" rx="1" transform="rotate(45, 437, 444)" opacity="0.11"></rect><rect width="343" height="2" x="527.5" y="639" rx="1" transform="rotate(45, 699, 640)" opacity="0.34"></rect><rect width="374" height="2" x="-22" y="598" rx="1" transform="rotate(45, 165, 599)" opacity="0.32"></rect><rect width="84" height="2" x="553" y="526" rx="1" transform="rotate(45, 595, 527)" opacity="0.81"></rect><rect width="232" height="2" x="123" y="169" rx="1" transform="rotate(45, 239, 170)" opacity="0.56"></rect><rect width="163" height="2" x="498.5" y="34" rx="1" transform="rotate(45, 580, 35)" opacity="0.71"></rect><rect width="91" height="2" x="508.5" y="644" rx="1" transform="rotate(45, 554, 645)" opacity="0.80"></rect><rect width="377" height="2" x="-123.5" y="321" rx="1" transform="rotate(45, 65, 322)" opacity="0.48"></rect><rect width="387" height="2" x="-40.5" y="176" rx="1" transform="rotate(45, 153, 177)" opacity="0.63"></rect><rect width="76" height="2" x="612" y="723" rx="1" transform="rotate(45, 650, 724)" opacity="0.68"></rect><rect width="53" height="2" x="357.5" y="193" rx="1" transform="rotate(45, 384, 194)" opacity="0.69"></rect><rect width="231" height="2" x="363.5" y="374" rx="1" transform="rotate(45, 479, 375)" opacity="0.91"></rect><rect width="321" height="2" x="120.5" y="384" rx="1" transform="rotate(45, 281, 385)" opacity="0.81"></rect><rect width="334" height="2" x="317" y="731" rx="1" transform="rotate(45, 484, 732)" opacity="0.76"></rect><rect width="109" height="2" x="84.5" y="714" rx="1" transform="rotate(45, 139, 715)" opacity="0.72"></rect><rect width="124" height="2" x="21" y="253" rx="1" transform="rotate(45, 83, 254)" opacity="0.73"></rect><rect width="517" height="2" x="145.5" y="352" rx="1" transform="rotate(45, 404, 353)" opacity="0.56"></rect><rect width="230" height="2" x="238" y="416" rx="1" transform="rotate(45, 353, 417)" opacity="0.43"></rect><rect width="285" height="2" x="631.5" y="721" rx="1" transform="rotate(45, 774, 722)" opacity="0.33"></rect><rect width="178" height="2" x="482" y="463" rx="1" transform="rotate(45, 571, 464)" opacity="0.15"></rect><rect width="158" height="2" x="660" y="550" rx="1" transform="rotate(45, 739, 551)" opacity="0.09"></rect><rect width="134" height="2" x="93" y="98" rx="1" transform="rotate(45, 160, 99)" opacity="0.81"></rect><rect width="99" height="2" x="666.5" y="336" rx="1" transform="rotate(45, 716, 337)" opacity="0.49"></rect><rect width="367" height="2" x="-90.5" y="436" rx="1" transform="rotate(45, 93, 437)" opacity="0.33"></rect><rect width="279" height="2" x="323.5" y="499" rx="1" transform="rotate(45, 463, 500)" opacity="0.15"></rect><rect width="80" height="2" x="663" y="699" rx="1" transform="rotate(45, 703, 700)" opacity="0.95"></rect><rect width="238" height="2" x="607" y="47" rx="1" transform="rotate(45, 726, 48)" opacity="0.51"></rect><rect width="298" height="2" x="379" y="239" rx="1" transform="rotate(45, 528, 240)" opacity="0.29"></rect><rect width="122" height="2" x="-24" y="500" rx="1" transform="rotate(45, 37, 501)" opacity="0.43"></rect><rect width="414" height="2" x="408" y="421" rx="1" transform="rotate(45, 615, 422)" opacity="0.39"></rect><rect width="224" height="2" x="641" y="448" rx="1" transform="rotate(45, 753, 449)" opacity="0.38"></rect><rect width="391" height="2" x="95.5" y="227" rx="1" transform="rotate(45, 291, 228)" opacity="0.31"></rect><rect width="399" height="2" x="192.5" y="33" rx="1" transform="rotate(45, 392, 34)" opacity="0.44"></rect><rect width="281" height="2" x="-33.5" y="769" rx="1" transform="rotate(45, 107, 770)" opacity="0.78"></rect><rect width="223" height="2" x="371.5" y="50" rx="1" transform="rotate(45, 483, 51)" opacity="0.56"></rect><rect width="411" height="2" x="-170.5" y="110" rx="1" transform="rotate(45, 35, 111)" opacity="0.38"></rect><rect width="50" height="2" x="93" y="25" rx="1" transform="rotate(45, 118, 26)" opacity="0.55"></rect><rect width="323" height="2" x="311.5" y="239" rx="1" transform="rotate(45, 473, 240)" opacity="0.60"></rect><rect width="371" height="2" x="18.5" y="26" rx="1" transform="rotate(45, 204, 27)" opacity="0.63"></rect><rect width="287" height="2" x="624.5" y="354" rx="1" transform="rotate(45, 768, 355)" opacity="0.33"></rect><rect width="555" height="2" x="236.5" y="149" rx="1" transform="rotate(45, 514, 150)" opacity="0.78"></rect><rect width="150" height="2" x="521" y="102" rx="1" transform="rotate(45, 596, 103)" opacity="0.97"></rect><rect width="268" height="2" x="180" y="47" rx="1" transform="rotate(45, 314, 48)" opacity="0.49"></rect><rect width="492" height="2" x="506" y="153" rx="1" transform="rotate(45, 752, 154)" opacity="0.48"></rect><rect width="315" height="2" x="518.5" y="247" rx="1" transform="rotate(45, 676, 248)" opacity="0.79"></rect><rect width="102" height="2" x="598" y="334" rx="1" transform="rotate(45, 649, 335)" opacity="0.63"></rect><rect width="176" height="2" x="400" y="662" rx="1" transform="rotate(45, 488, 663)" opacity="0.51"></rect><rect width="310" height="2" x="433" y="251" rx="1" transform="rotate(45, 588, 252)" opacity="0.51"></rect><rect width="254" height="2" x="138" y="464" rx="1" transform="rotate(45, 265, 465)" opacity="0.72"></rect><rect width="263" height="2" x="97.5" y="535" rx="1" transform="rotate(45, 229, 536)" opacity="0.53"></rect><rect width="188" height="2" x="342" y="768" rx="1" transform="rotate(45, 436, 769)" opacity="0.42"></rect><rect width="389" height="2" x="483.5" y="582" rx="1" transform="rotate(45, 678, 583)" opacity="0.64"></rect><rect width="35" height="2" x="549.5" y="706" rx="1" transform="rotate(45, 567, 707)" opacity="0.07"></rect><rect width="381" height="2" x="-136.5" y="185" rx="1" transform="rotate(45, 54, 186)" opacity="0.43"></rect><rect width="236" height="2" x="-5" y="549" rx="1" transform="rotate(45, 113, 550)" opacity="0.88"></rect><rect width="414" height="2" x="53" y="767" rx="1" transform="rotate(45, 260, 768)" opacity="0.51"></rect><rect width="350" height="2" x="-133" y="771" rx="1" transform="rotate(45, 42, 772)" opacity="0.71"></rect><rect width="131" height="2" x="555.5" y="772" rx="1" transform="rotate(45, 621, 773)" opacity="0.59"></rect><rect width="118" height="2" x="269" y="140" rx="1" transform="rotate(45, 328, 141)" opacity="0.84"></rect><rect width="221" height="2" x="489.5" y="306" rx="1" transform="rotate(45, 600, 307)" opacity="0.82"></rect><rect width="134" height="2" x="-9" y="49" rx="1" transform="rotate(45, 58, 50)" opacity="0.68"></rect><rect width="99" height="2" x="411.5" y="613" rx="1" transform="rotate(45, 461, 614)" opacity="0.39"></rect><rect width="210" height="2" x="576" y="404" rx="1" transform="rotate(45, 681, 405)" opacity="0.91"></rect><rect width="65" height="2" x="364.5" y="686" rx="1" transform="rotate(45, 397, 687)" opacity="0.94"></rect><rect width="413" height="2" x="149.5" y="760" rx="1" transform="rotate(45, 356, 761)" opacity="0.84"></rect><rect width="47" height="2" x="0.5" y="717" rx="1" transform="rotate(45, 24, 718)" opacity="0.13"></rect><rect width="85" height="2" x="169.5" y="350" rx="1" transform="rotate(45, 212, 351)" opacity="0.12"></rect><rect width="288" height="2" x="52" y="409" rx="1" transform="rotate(45, 196, 410)" opacity="0.53"></rect><rect width="278" height="2" x="311" y="175" rx="1" transform="rotate(45, 450, 176)" opacity="0.19"></rect><rect width="116" height="2" x="191" y="82" rx="1" transform="rotate(45, 249, 83)" opacity="0.77"></rect><rect width="159" height="2" x="399.5" y="306" rx="1" transform="rotate(45, 479, 307)" opacity="0.70"></rect><rect width="43" height="2" x="506.5" y="502" rx="1" transform="rotate(45, 528, 503)" opacity="0.96"></rect><rect width="199" height="2" x="456.5" y="580" rx="1" transform="rotate(45, 556, 581)" opacity="0.33"></rect><rect width="218" height="2" x="192" y="593" rx="1" transform="rotate(45, 301, 594)" opacity="0.15"></rect><rect width="392" height="2" x="-78" y="648" rx="1" transform="rotate(45, 118, 649)" opacity="0.59"></rect><rect width="161" height="2" x="683.5" y="599" rx="1" transform="rotate(45, 764, 600)" opacity="0.51"></rect><rect width="350" height="2" x="596" y="509" rx="1" transform="rotate(45, 771, 510)" opacity="0.35"></rect><rect width="216" height="2" x="432" y="771" rx="1" transform="rotate(45, 540, 772)" opacity="0.76"></rect><rect width="113" height="2" x="435.5" y="557" rx="1" transform="rotate(45, 492, 558)" opacity="0.91"></rect><rect width="302" height="2" x="211" y="546" rx="1" transform="rotate(45, 362, 547)" opacity="0.95"></rect><rect width="255" height="2" x="-100.5" y="374" rx="1" transform="rotate(45, 27, 375)" opacity="0.50"></rect><rect width="229" height="2" x="536.5" y="528" rx="1" transform="rotate(45, 651, 529)" opacity="0.62"></rect><rect width="219" height="2" x="32.5" y="341" rx="1" transform="rotate(45, 142, 342)" opacity="0.40"></rect><rect width="134" height="2" x="96" y="783" rx="1" transform="rotate(45, 163, 784)" opacity="0.35"></rect><rect width="263" height="2" x="-51.5" y="703" rx="1" transform="rotate(45, 80, 704)" opacity="0.92"></rect><rect width="241" height="2" x="70.5" y="750" rx="1" transform="rotate(45, 191, 751)" opacity="0.14"></rect><rect width="329" height="2" x="499.5" y="146" rx="1" transform="rotate(45, 664, 147)" opacity="0.60"></rect><rect width="185" height="2" x="-60.5" y="652" rx="1" transform="rotate(45, 32, 653)" opacity="0.21"></rect><rect width="56" height="2" x="178" y="685" rx="1" transform="rotate(45, 206, 686)" opacity="0.65"></rect><rect width="362" height="2" x="244" y="555" rx="1" transform="rotate(45, 425, 556)" opacity="0.25"></rect><rect width="129" height="2" x="486.5" y="339" rx="1" transform="rotate(45, 551, 340)" opacity="0.89"></rect><rect width="489" height="2" x="448.5" y="478" rx="1" transform="rotate(45, 693, 479)" opacity="0.28"></rect><rect width="432" height="2" x="-24" y="255" rx="1" transform="rotate(45, 192, 256)" opacity="0.21"></rect><rect width="420" height="2" x="551" y="255" rx="1" transform="rotate(45, 761, 256)" opacity="0.40"></rect><rect width="219" height="2" x="265.5" y="619" rx="1" transform="rotate(45, 375, 620)" opacity="0.18"></rect><rect width="249" height="2" x="108.5" y="619" rx="1" transform="rotate(45, 233, 620)" opacity="0.48"></rect><rect width="418" height="2" x="87" y="694" rx="1" transform="rotate(45, 296, 695)" opacity="0.52"></rect><rect width="141" height="2" x="706.5" y="411" rx="1" transform="rotate(45, 777, 412)" opacity="1.00"></rect><rect width="249" height="2" x="611.5" y="771" rx="1" transform="rotate(45, 736, 772)" opacity="0.49"></rect></g></svg>