<?xml version="1.0" encoding="UTF-8"?>
<svg id="Layer_1" data-name="Layer 1" xmlns="http://www.w3.org/2000/svg" viewBox="0 0 1572.14 595.79">
  <g>
    <path d="M1046.35,465.95l-156.81.15-108.36-.04c-21.76,0-39.82-13.75-42.98-35.72-.61-12.7,1.61-25.91,9.51-36.42l228.54-304.19-194.07-.34c-21-.04-36.78-17.76-37.73-37.32-.32-20.76,14.53-37.8,35.91-40.57l261.65.04c18.07,0,33.97,12.21,38.67,29.25,4.61,16.7-.02,34.39-11.1,47.39l-137.73,188.08-83.4,111.59,198.4.95c20.85.1,35.37,19.45,35.56,38.24s-14.63,38.89-36.08,38.91Z"/>
    <g>
      <path d="M678.91,45.32l-.45,278c-.06,35.63-14.47,69.67-37.11,96.32-21.6,25.42-50.5,42.03-82.78,49.34-52.81,11.96-112.83,2.48-154.09-34.01-31.87-28.18-52.27-69.16-52.3-112.58l-.19-275.69c-.01-20.92,19.56-36.49,38.51-36.45,19.42.04,38.11,15.64,38.17,36.48l.84,271.55c.1,31.67,20.04,59.35,48.26,71.35,48.74,20.73,109.09-1.45,121.38-56.07,2.17-9.63,2.69-18.12,2.7-28.24l.35-258.63c.03-20.62,18.72-35.89,37.23-36.42,20.26-.57,36.69,14.15,39.48,35.04Z"/>
      <path d="M77.57,198.93l139.67.57c20.38.08,34.46,19.85,34.25,38.46s-15.19,37.99-35.64,38.05l-138.2.41-.54,155.01c-.07,21.3-20.05,36.65-39.41,36.18S0,450.7,0,429.38L.07,127.62c0-36.98,19.18-71,48.82-92.3,19.85-14.26,43.41-23.35,68.26-23.41l141.93-.34c17.68-.04,32.62,12.07,37.48,28.55,3.47,11.77,1.14,23.8-6.31,33.58-6.56,8.63-16.92,15.44-29.35,15.45l-140.63.07c-14.28,0-26.21,7.39-34.9,17.5-4.8,7.07-7.73,14.75-7.74,23.49l-.05,68.73Z"/>
    </g>
  </g>
  <path d="M1364.41,588.21c-12.95,12.25-32.5,9.11-41.56-5.48l-34.52-45.54-92.92-118.82-26.97-35.24c-74.1-96.8-64.56-235.7,23.19-321.28,24.24-23.64,53.26-40.92,85.79-51.08,36.28-11.33,73.78-13.94,111.11-6.87,77.1,14.6,133.97,64.24,164.63,135.59,34.53,80.35,20.89,177.99-32.39,246.67l-51.51,66.4-34.74,44.46-70.11,91.16ZM1502.59,231.81c0-86.69-70.28-156.97-156.97-156.97s-156.97,70.28-156.97,156.97,70.28,156.97,156.97,156.97,156.97-70.28,156.97-156.97Z"/>
  <path d="M1334.56,286.07c-14.32,16.49-29.63,31.41-46.39,45.38-7.04,5.87-17.23,2.88-21.24-4.68-8.08-15.23,7.27-32.22,19.82-43.6,9.05-8.21,18.58-14.56,30-19.05,3.83-1.5,7.22-4.04,9.63-7.29l-31.74-32.8c-18.28-18.89-35.2-51.75-29.87-77.69.86-4.2,3.56-8.06,6.65-9.23,11.7-4.43,22.12,13.18,30.63,25.48l16.36,23.62,25.08,30.99,53.05,61.78,24.04,30.88c5.9,7.58,3.54,17.79-4.51,22.73-4.46,2.74-11.88,3.33-15.75-1.43l-49.46-60.87c-6.26,4.77-11.21,9.88-16.32,15.77Z"/>
  <path d="M1395.22,203.2c-2.04,2.06-.83,5.99.36,7.48,1.35,1.69,6.31,3.51,8.2,1.63l37.17-36.95c1.77-1.76,5.28-2.17,7.04-1.28s3.66,6.76,1.94,8.49l-49.1,49.46c-5.44,5.48-14.32,5.15-19.24.15l-21-21.36c-4.59-4.66-8.13-14.84-2.55-20.46l50.71-51.1c2.08-2.09,6.34-1.81,8.12-.18,2.13,1.94,2.42,5.84.03,8.27l-20.3,20.62-17.58,18.52c-1.51,1.59-.56,6.37.63,7.94s5.54,3.1,7.47,1.15l40.8-41.39c1.41-1.43,5.67-.05,6.78,1.32,1.29,1.59,1.87,5.88.08,7.69l-39.56,40.01Z"/>
</svg>