<?xml version="1.0" encoding="utf-8"?>
<!-- Generator: Adobe Illustrator 23.0.1, SVG Export Plug-In . SVG Version: 6.00 Build 0)  -->
<svg version="1.1" id="Layer_1" xmlns="http://www.w3.org/2000/svg" xmlns:xlink="http://www.w3.org/1999/xlink" x="0px" y="0px"
	 viewBox="0 0 256 256" style="enable-background:new 0 0 256 256;" xml:space="preserve">
<style type="text/css">
	.st0{fill:#EDE27E;}
	.st1{fill:#FFECA7;}
	.st2{fill:#D3BA2A;}
	.st3{fill:#EEE045;}
	.st4{fill:#E8383B;}
	.st5{fill:#EF7F72;}
	.st6{fill:#E95947;}
	.st7{fill:#1C2D6B;}
	.st8{fill:#6287C5;}
	.st9{fill:#65BC49;}
	.st10{fill:#4B67B0;}
	.st11{fill:#89AADB;}
	.st12{fill:#419B46;}
	.st13{fill:#A4D4A0;}
	.st14{fill:#FF00FF;}
	.st15{fill:#FFFFFF;}
</style>
<g>
	<g>
		<path class="st1" d="M128,43.871h-18c-39.764,0-72,32.235-72,72v0h60v-42C98,57.303,111.431,43.871,128,43.871z"/>
		<path class="st2" d="M146,43.871h-18c16.569,0,30,13.431,30,30v42h60v0C218,76.107,185.765,43.871,146,43.871z"/>
		<path class="st3" d="M128,43.871c-16.569,0-30,13.431-30,30v42h60v-42C158,57.303,144.569,43.871,128,43.871z"/>
	</g>
	<g>
		<path class="st1" d="M96.5,189.096v-16.967H33c0,22.091,17.909,40,40,40h46.533C106.812,212.129,96.5,201.816,96.5,189.096z"/>
		<path class="st2" d="M159.5,172.129v16.967c0,12.721-10.312,23.033-23.033,23.033H183c22.091,0,40-17.909,40-40H159.5z"/>
		<path class="st3" d="M159.5,189.096v-16.967h-63v16.967c0,12.721,10.312,23.033,23.033,23.033h16.934
			C149.188,212.129,159.5,201.816,159.5,189.096z"/>
	</g>
	<g>
		<path class="st7" d="M218,118.871H38c-1.657,0-3-1.343-3-3c0-41.355,33.645-75,75-75h36c41.355,0,75,33.645,75,75
			C221,117.528,219.657,118.871,218,118.871z M41.064,112.871h173.871c-1.576-36.66-31.895-66-68.936-66h-36
			C72.959,46.871,42.641,76.211,41.064,112.871z"/>
	</g>
	<g>
		<path class="st7" d="M183,215.129H73c-23.71,0-43-19.29-43-43c0-1.657,1.343-3,3-3h190c1.657,0,3,1.343,3,3
			C226,195.839,206.71,215.129,183,215.129z M36.121,175.129c1.532,19.004,17.487,34,36.879,34h110c19.392,0,35.348-14.996,36.88-34
			H36.121z"/>
	</g>
	<g>
		<path class="st5" d="M98,144.45v-17.157c0-6.308,5.113-11.421,11.421-11.421H57.782c-10.925,0-19.782,8.857-19.782,19.782v0.436
			c0,10.925,8.857,19.782,19.782,19.782h51.639C103.113,155.871,98,150.758,98,144.45z"/>
		<path class="st4" d="M198.218,115.871h-51.639c6.308,0,11.421,5.113,11.421,11.421v17.157c0,6.308-5.113,11.421-11.421,11.421
			h51.639c10.925,0,19.782-8.857,19.782-19.782v-0.436C218,124.728,209.143,115.871,198.218,115.871z"/>
		<path class="st6" d="M158,144.45v-17.157c0-6.308-5.113-11.421-11.421-11.421h-37.157c-6.308,0-11.421,5.113-11.421,11.421v17.157
			c0,6.308,5.113,11.421,11.421,11.421h37.157C152.887,155.871,158,150.758,158,144.45z"/>
	</g>
	<g>
		<path class="st7" d="M198.218,158.871H57.782C45.22,158.871,35,148.651,35,136.089v-0.436c0-12.562,10.22-22.782,22.782-22.782
			h140.436c12.562,0,22.782,10.22,22.782,22.782v0.436C221,148.651,210.78,158.871,198.218,158.871z M57.782,118.871
			c-9.254,0-16.782,7.528-16.782,16.782v0.436c0,9.254,7.528,16.782,16.782,16.782h140.436c9.254,0,16.782-7.528,16.782-16.782
			v-0.436c0-9.254-7.528-16.782-16.782-16.782H57.782z"/>
	</g>
	<g>
		<polygon class="st11" points="57.467,115.871 97.467,141.371 84.467,115.871 		"/>
		<polygon class="st10" points="110.467,115.871 97.467,141.371 137.467,115.871 		"/>
		<polygon class="st8" points="84.467,115.871 97.467,141.371 110.467,115.871 		"/>
	</g>
	<g>
		<path class="st7" d="M97.467,144.371c-0.561,0-1.121-0.157-1.613-0.47l-40-25.5c-1.124-0.717-1.641-2.09-1.267-3.37
			c0.373-1.28,1.546-2.16,2.88-2.16h80c1.333,0,2.507,0.88,2.88,2.16c0.373,1.28-0.143,2.653-1.268,3.37l-40,25.5
			C98.588,144.214,98.028,144.371,97.467,144.371z M67.754,118.871l29.713,18.942l29.714-18.942H67.754z"/>
	</g>
	<g>
		<polygon class="st11" points="137.467,115.871 167.467,134.996 157.467,115.871 		"/>
		<polygon class="st10" points="177.467,115.871 167.467,134.996 197.467,115.871 		"/>
		<polygon class="st8" points="157.467,115.871 167.467,134.996 177.467,115.871 		"/>
	</g>
	<g>
		<path class="st7" d="M167.468,137.996c-0.561,0-1.121-0.157-1.612-0.47l-30-19.125c-1.125-0.717-1.641-2.09-1.268-3.37
			c0.373-1.28,1.547-2.16,2.88-2.16h60c1.333,0,2.507,0.88,2.88,2.16c0.373,1.28-0.143,2.653-1.268,3.37l-30,19.125
			C168.589,137.839,168.028,137.996,167.468,137.996z M147.755,118.871l19.713,12.567l19.713-12.567H147.755z"/>
	</g>
	<g>
		<path class="st13" d="M98,167.608v-6.974c0-2.631,2.133-4.763,4.763-4.763H46.25c-4.556,0-8.25,3.694-8.25,8.25
			c0,4.556,3.694,8.25,8.25,8.25h56.513C100.133,172.371,98,170.239,98,167.608z"/>
		<path class="st12" d="M209.75,155.871h-56.513c2.631,0,4.763,2.133,4.763,4.763v6.974c0,2.631-2.133,4.763-4.763,4.763h56.513
			c4.556,0,8.25-3.694,8.25-8.25C218,159.565,214.306,155.871,209.75,155.871z"/>
		<path class="st9" d="M158,167.608v-6.974c0-2.631-2.133-4.763-4.763-4.763h-50.474c-2.631,0-4.763,2.133-4.763,4.763v6.974
			c0,2.631,2.133,4.763,4.763,4.763h50.474C155.867,172.371,158,170.239,158,167.608z"/>
	</g>
	<g>
		<path class="st7" d="M209.75,175.371H46.25c-6.203,0-11.25-5.047-11.25-11.25s5.047-11.25,11.25-11.25h163.5
			c6.203,0,11.25,5.047,11.25,11.25S215.953,175.371,209.75,175.371z M46.25,158.871c-2.895,0-5.25,2.355-5.25,5.25
			s2.355,5.25,5.25,5.25h163.5c2.895,0,5.25-2.355,5.25-5.25s-2.355-5.25-5.25-5.25H46.25z"/>
	</g>
</g>
</svg>
