<?xml version="1.0" encoding="utf-8"?>
<!-- Generator: Adobe Illustrator 23.0.1, SVG Export Plug-In . SVG Version: 6.00 Build 0)  -->
<svg version="1.1" id="Layer_1" xmlns="http://www.w3.org/2000/svg" xmlns:xlink="http://www.w3.org/1999/xlink" x="0px" y="0px"
	 viewBox="0 0 256 256" style="enable-background:new 0 0 256 256;" xml:space="preserve">
<style type="text/css">
	.st0{fill:#EDE27E;}
	.st1{fill:#FFECA7;}
	.st2{fill:#D3BA2A;}
	.st3{fill:#EEE045;}
	.st4{fill:#E8383B;}
	.st5{fill:#EF7F72;}
	.st6{fill:#E95947;}
	.st7{fill:#1C2D6B;}
	.st8{fill:#6287C5;}
	.st9{fill:#65BC49;}
	.st10{fill:#4B67B0;}
	.st11{fill:#89AADB;}
	.st12{fill:#419B46;}
	.st13{fill:#A4D4A0;}
	.st14{fill:#FF00FF;}
	.st15{fill:#FFFFFF;}
</style>
<g>
	<g>
		<path class="st1" d="M93.435,205.756V87.174c0-3.048,2.47-5.518,5.518-5.518H32.947c-5.303,0-9.601,4.299-9.601,9.601v110.415
			c0,5.303,4.299,9.601,9.601,9.601h66.006C95.906,211.274,93.435,208.804,93.435,205.756z"/>
		<path class="st2" d="M223.053,81.656h-66.006c3.047,0,5.518,2.47,5.518,5.518v118.582c0,3.047-2.47,5.518-5.518,5.518h66.006
			c5.303,0,9.601-4.299,9.601-9.601V91.258C232.654,85.955,228.356,81.656,223.053,81.656z"/>
		<path class="st3" d="M162.565,205.756V87.174c0-3.048-2.47-5.518-5.518-5.518H98.953c-3.047,0-5.518,2.47-5.518,5.518v118.582
			c0,3.047,2.47,5.518,5.518,5.518h58.094C160.094,211.274,162.565,208.804,162.565,205.756z"/>
	</g>
	<g>
		<path class="st7" d="M222.654,214.274H33.346c-7.168,0-13-5.832-13-13V91.656c0-7.168,5.832-13,13-13h189.309
			c7.168,0,13,5.832,13,13v109.618C235.654,208.442,229.822,214.274,222.654,214.274z M33.346,84.656c-3.86,0-7,3.141-7,7v109.618
			c0,3.859,3.14,7,7,7h189.309c3.859,0,7-3.141,7-7V91.656c0-3.859-3.141-7-7-7H33.346z"/>
	</g>
	<g>
		<path class="st8" d="M160.935,102.227c-0.502-0.26-0.996-0.541-1.478-0.851C159.939,101.686,160.434,101.964,160.935,102.227z"/>
		<path class="st8" d="M96.715,101.374c-0.499,0.321-1.011,0.61-1.531,0.878C95.703,101.981,96.217,101.695,96.715,101.374z"/>
		<path class="st8" d="M162.564,102.983c-0.502-0.206-0.996-0.436-1.484-0.683C161.568,102.55,162.063,102.777,162.564,102.983z"/>
		<path class="st8" d="M94.979,102.354c-0.507,0.254-1.021,0.489-1.543,0.698C93.958,102.844,94.472,102.611,94.979,102.354z"/>
		<path class="st11" d="M98.953,81.656H32.947c-4.813,0-8.787,3.545-9.482,8.164l0.07,4.832l10.457,6.722
			c6.368,4.094,14.539,4.093,20.907-0.001c6.368-4.094,14.54-4.094,20.908,0l0.002,0.001c5.319,3.42,11.893,3.972,17.627,1.678
			V87.174C93.435,84.127,95.906,81.656,98.953,81.656z"/>
		<path class="st10" d="M223.053,81.656h-66.006c3.047,0,5.518,2.47,5.518,5.518v15.809c5.773,2.373,12.424,1.845,17.796-1.607
			l0.01-0.006c6.367-4.092,14.536-4.093,20.903-0.001l0.013,0.009c6.367,4.092,14.535,4.092,20.902,0l10.465-6.726v-3.395
			C232.654,85.955,228.356,81.656,223.053,81.656z"/>
		<path class="st3" d="M161.081,102.3c-0.048-0.025-0.098-0.047-0.146-0.073C160.983,102.252,161.032,102.275,161.081,102.3z"/>
		<polygon class="st3" points="162.565,102.984 162.565,102.984 162.564,102.983 		"/>
		<polygon class="st3" points="93.435,103.053 93.436,103.052 93.435,103.053 		"/>
		<path class="st3" d="M95.184,102.252c-0.068,0.035-0.137,0.068-0.205,0.102C95.047,102.32,95.116,102.287,95.184,102.252z"/>
		<path class="st8" d="M157.047,81.656H98.953c-3.047,0-5.518,2.47-5.518,5.518v15.879c0,0,0,0,0,0
			c0.522-0.209,1.036-0.445,1.543-0.698c0.068-0.034,0.137-0.067,0.205-0.102c0.52-0.268,1.032-0.557,1.531-0.878l0.004-0.002
			c6.367-4.093,14.538-4.093,20.906,0l0.007,0.004c6.367,4.093,14.537,4.093,20.905,0l0.008-0.005
			c6.367-4.093,14.537-4.093,20.905,0l0.008,0.005c0.482,0.31,0.976,0.591,1.478,0.851c0.048,0.026,0.098,0.048,0.146,0.073
			c0.488,0.247,0.982,0.477,1.484,0.683c0,0,0,0,0,0V87.174C162.565,84.127,160.094,81.656,157.047,81.656z"/>
	</g>
	<g>
		<path class="st7" d="M169.932,107.441c-4.204,0.001-8.42-1.178-12.097-3.542c-5.372-3.452-12.305-3.453-17.669-0.005
			c-7.342,4.719-16.821,4.721-24.156,0.005c-5.372-3.453-12.305-3.451-17.668-0.004c-0.016,0.011-0.032,0.021-0.048,0.03
			c-7.32,4.682-16.76,4.679-24.076-0.008c-0.011-0.007-0.022-0.015-0.033-0.021c-5.366-3.45-12.298-3.447-17.663,0.001
			c-7.336,4.716-16.816,4.718-24.152,0l-10.457-6.722c-0.846-0.543-1.363-1.475-1.377-2.479l-0.07-4.832
			c-0.002-0.164,0.008-0.328,0.033-0.49c0.92-6.11,6.271-10.718,12.449-10.718h190.106c6.948,0,12.602,5.653,12.602,12.602v3.395
			c0,1.021-0.52,1.972-1.378,2.523l-10.465,6.726c-7.334,4.713-16.812,4.713-24.146,0c-5.379-3.456-12.309-3.455-17.672-0.008
			c-0.025,0.017-0.062,0.039-0.088,0.055C178.286,106.275,174.114,107.441,169.932,107.441z M190.8,95.305
			c4.204,0,8.419,1.178,12.096,3.541c5.378,3.455,12.31,3.453,17.672,0.009l9.087-5.84v-1.757c0-3.64-2.962-6.602-6.602-6.602
			H32.947c-3.158,0-5.904,2.302-6.479,5.391l0.043,2.952l9.103,5.852c5.365,3.449,12.297,3.449,17.662,0
			c7.326-4.71,16.789-4.718,24.122-0.021c0.011,0.008,0.022,0.015,0.033,0.021c5.364,3.449,12.297,3.449,17.662,0
			c0.016-0.01,0.031-0.02,0.047-0.029c7.329-4.688,16.787-4.68,24.107,0.026c5.372,3.452,12.302,3.453,17.667,0.005
			c7.343-4.72,16.822-4.72,24.157-0.005c5.373,3.453,12.305,3.453,17.668,0.005c0.026-0.017,0.062-0.039,0.088-0.055
			C182.445,96.471,186.617,95.305,190.8,95.305z"/>
	</g>
	<g>
		<path class="st11" d="M23.535,152.581v15.037l10.457,6.722c6.368,4.093,14.539,4.093,20.907-0.001l0,0
			c6.368-4.094,14.54-4.094,20.908,0l0.002,0.001c5.319,3.42,11.893,3.972,17.627,1.679v-23.438H23.535z"/>
		<path class="st10" d="M162.565,152.581v23.368c5.773,2.373,12.424,1.846,17.796-1.607l0.01-0.006
			c6.367-4.092,14.536-4.092,20.903,0l0.013,0.008c6.367,4.092,14.535,4.092,20.902,0l10.465-6.725v-15.037H162.565z"/>
		<path class="st8" d="M93.435,152.581v23.438c1.13-0.452,2.231-1.004,3.28-1.678l0.004-0.002c6.367-4.093,14.538-4.093,20.906,0
			l0.007,0.004c6.367,4.093,14.537,4.093,20.905,0l0.008-0.005c6.367-4.093,14.537-4.093,20.905,0l0.008,0.005
			c0.995,0.64,2.038,1.168,3.108,1.607v-23.368H93.435z"/>
	</g>
	<g>
		<path class="st7" d="M169.932,180.407c-4.204,0.001-8.42-1.178-12.097-3.542c-5.372-3.452-12.305-3.453-17.669-0.005
			c-7.342,4.719-16.821,4.721-24.156,0.005c-5.372-3.453-12.305-3.451-17.668-0.004c-0.016,0.01-0.032,0.02-0.047,0.029
			c-7.318,4.683-16.759,4.681-24.078-0.008c-0.011-0.007-0.022-0.014-0.033-0.021c-5.364-3.45-12.297-3.448-17.663,0
			c-7.335,4.717-16.814,4.718-24.151,0.001l-10.457-6.722c-0.859-0.552-1.378-1.503-1.378-2.523V152.58c0-1.657,1.343-3,3-3h209.119
			c1.657,0,3,1.343,3,3v15.038c0,1.021-0.52,1.972-1.378,2.523l-10.465,6.726c-7.334,4.713-16.812,4.715-24.146,0
			c-5.379-3.456-12.309-3.455-17.672-0.008c-0.025,0.017-0.062,0.039-0.088,0.055C178.286,179.241,174.114,180.407,169.932,180.407z
			 M190.8,168.271c4.204,0,8.419,1.178,12.096,3.541c5.378,3.454,12.31,3.453,17.672,0.009l9.087-5.84v-10.4H26.535v10.4
			l9.079,5.836c5.365,3.45,12.298,3.448,17.662-0.001c7.327-4.711,16.79-4.716,24.122-0.021c0.011,0.008,0.022,0.015,0.033,0.021
			c5.364,3.449,12.297,3.449,17.662,0c0.016-0.01,0.031-0.02,0.047-0.029c7.328-4.689,16.786-4.68,24.107,0.026
			c5.372,3.452,12.302,3.453,17.667,0.005c7.343-4.72,16.822-4.72,24.157-0.005c5.373,3.453,12.305,3.453,17.668,0.005
			c0.025-0.017,0.062-0.039,0.088-0.055C182.445,169.437,186.617,168.271,190.8,168.271z"/>
	</g>
	<g>
		<rect x="23.346" y="133.378" class="st5" width="70.09" height="19.203"/>
		<rect x="162.565" y="133.378" class="st4" width="70.09" height="19.203"/>
		<rect x="93.435" y="133.378" class="st6" width="69.129" height="19.203"/>
	</g>
	<g>
		<path class="st7" d="M232.654,155.58H23.346c-1.657,0-3-1.343-3-3v-19.202c0-1.657,1.343-3,3-3h209.309c1.657,0,3,1.343,3,3
			v19.202C235.654,154.237,234.312,155.58,232.654,155.58z M26.346,149.58h203.309v-13.202H26.346V149.58z"/>
	</g>
	<g>
		<path class="st5" d="M189.707,60.177c0-8.533,2.303-15.451,5.144-15.451c-8.533,0-15.451,6.918-15.451,15.451
			s6.918,15.451,15.451,15.451C192.01,75.628,189.707,68.71,189.707,60.177z"/>
		<path class="st4" d="M194.851,44.726c2.841,0,5.144,6.918,5.144,15.451s-2.303,15.451-5.144,15.451
			c8.533,0,15.451-6.918,15.451-15.451S203.384,44.726,194.851,44.726z"/>
		<ellipse class="st6" cx="194.851" cy="60.177" rx="5.144" ry="15.451"/>
	</g>
	<g>
		<path class="st5" d="M122.951,60.177c0-8.533,2.303-15.451,5.144-15.451c-8.533,0-15.451,6.918-15.451,15.451
			s6.918,15.451,15.451,15.451C125.254,75.628,122.951,68.71,122.951,60.177z"/>
		<path class="st4" d="M128.095,44.726c2.841,0,5.144,6.918,5.144,15.451s-2.303,15.451-5.144,15.451
			c8.533,0,15.451-6.918,15.451-15.451S136.628,44.726,128.095,44.726z"/>
		<ellipse class="st6" cx="128.095" cy="60.177" rx="5.144" ry="15.451"/>
	</g>
	<g>
		<path class="st5" d="M55.719,60.177c0-8.533,2.303-15.451,5.144-15.451c-8.533,0-15.451,6.918-15.451,15.451
			s6.918,15.451,15.451,15.451C58.022,75.628,55.719,68.71,55.719,60.177z"/>
		<path class="st4" d="M60.862,44.726c2.841,0,5.144,6.918,5.144,15.451s-2.303,15.451-5.144,15.451
			c8.533,0,15.451-6.918,15.451-15.451S69.396,44.726,60.862,44.726z"/>
		<ellipse class="st6" cx="60.862" cy="60.177" rx="5.144" ry="15.451"/>
	</g>
	<g>
		<path class="st7" d="M128.095,78.628c-10.174,0-18.451-8.277-18.451-18.451s8.277-18.451,18.451-18.451
			s18.451,8.277,18.451,18.451S138.269,78.628,128.095,78.628z M128.095,47.726c-6.865,0-12.451,5.586-12.451,12.451
			s5.585,12.451,12.451,12.451s12.451-5.586,12.451-12.451S134.96,47.726,128.095,47.726z"/>
	</g>
	<g>
		<path class="st7" d="M61.149,78.628c-10.174,0-18.451-8.277-18.451-18.451s8.277-18.451,18.451-18.451S79.6,50.003,79.6,60.177
			S71.323,78.628,61.149,78.628z M61.149,47.726c-6.865,0-12.451,5.586-12.451,12.451s5.585,12.451,12.451,12.451
			S73.6,67.042,73.6,60.177S68.015,47.726,61.149,47.726z"/>
	</g>
	<g>
		<path class="st7" d="M194.851,78.628c-10.174,0-18.451-8.277-18.451-18.451s8.277-18.451,18.451-18.451
			s18.451,8.277,18.451,18.451S205.024,78.628,194.851,78.628z M194.851,47.726c-6.865,0-12.451,5.586-12.451,12.451
			s5.586,12.451,12.451,12.451s12.451-5.586,12.451-12.451S201.716,47.726,194.851,47.726z"/>
	</g>
	<path class="st11" d="M148.765,81.656h-41.341v-3.087c0-4.954,4.016-8.97,8.97-8.97h23.401c4.954,0,8.97,4.016,8.97,8.97V81.656z"
		/>
	<path class="st11" d="M81.82,81.656H40.479v-3.087c0-4.954,4.016-8.97,8.97-8.97H72.85c4.954,0,8.97,4.016,8.97,8.97V81.656z"/>
	<path class="st11" d="M215.521,81.656H174.18v-3.087c0-4.954,4.016-8.97,8.97-8.97h23.401c4.954,0,8.97,4.016,8.97,8.97V81.656z"/>
	<g>
		<path class="st7" d="M148.766,84.656h-41.342c-1.657,0-3-1.343-3-3v-3.087c0-6.601,5.37-11.971,11.971-11.971h23.4
			c6.601,0,11.971,5.37,11.971,11.971v3.087C151.766,83.313,150.423,84.656,148.766,84.656z M110.424,78.656h35.342v-0.087
			c0-3.292-2.679-5.971-5.971-5.971h-23.4c-3.292,0-5.971,2.679-5.971,5.971V78.656z"/>
	</g>
	<g>
		<path class="st7" d="M81.82,84.656H40.479c-1.657,0-3-1.343-3-3v-3.087c0-6.601,5.37-11.971,11.971-11.971h23.4
			c6.601,0,11.971,5.37,11.971,11.971v3.087C84.82,83.313,83.477,84.656,81.82,84.656z M43.479,78.656H78.82v-0.087
			c0-3.292-2.678-5.971-5.971-5.971h-23.4c-3.292,0-5.971,2.679-5.971,5.971V78.656z"/>
	</g>
	<g>
		<path class="st7" d="M215.521,84.656H174.18c-1.657,0-3-1.343-3-3v-3.087c0-6.601,5.37-11.971,11.971-11.971h23.4
			c6.601,0,11.971,5.37,11.971,11.971v3.087C218.521,83.313,217.179,84.656,215.521,84.656z M177.18,78.656h35.342v-0.087
			c0-3.292-2.679-5.971-5.971-5.971h-23.4c-3.292,0-5.971,2.679-5.971,5.971V78.656z"/>
	</g>
</g>
</svg>
