<?xml version="1.0" encoding="utf-8"?>
<!-- Generator: Adobe Illustrator 23.0.1, SVG Export Plug-In . SVG Version: 6.00 Build 0)  -->
<svg version="1.1" id="Layer_1" xmlns="http://www.w3.org/2000/svg" xmlns:xlink="http://www.w3.org/1999/xlink" x="0px" y="0px"
	 viewBox="0 0 256 256" style="enable-background:new 0 0 256 256;" xml:space="preserve">
<style type="text/css">
	.st0{fill:#EDE27E;}
	.st1{fill:#FFECA7;}
	.st2{fill:#D3BA2A;}
	.st3{fill:#EEE045;}
	.st4{fill:#E8383B;}
	.st5{fill:#EF7F72;}
	.st6{fill:#E95947;}
	.st7{fill:#1C2D6B;}
	.st8{fill:#6287C5;}
	.st9{fill:#65BC49;}
	.st10{fill:#4B67B0;}
	.st11{fill:#89AADB;}
	.st12{fill:#419B46;}
	.st13{fill:#A4D4A0;}
	.st14{fill:#FF00FF;}
	.st15{fill:#FFFFFF;}
</style>
<g>
	<g>
		<polygon class="st5" points="64.004,87.969 85.719,216.232 110.474,216.232 101.474,87.969 		"/>
		<polygon class="st4" points="154.526,87.969 145.526,216.232 170.281,216.232 191.996,87.969 		"/>
		<polygon class="st6" points="128,87.969 101.474,87.969 110.474,216.232 128,216.232 145.526,216.232 154.526,87.969 		"/>
	</g>
	<g>
		<path class="st7" d="M170.281,219.232H85.719c-1.463,0-2.713-1.057-2.958-2.499L61.046,88.47
			c-0.147-0.871,0.097-1.763,0.667-2.438c0.57-0.674,1.408-1.063,2.292-1.063h127.992c0.883,0,1.722,0.39,2.292,1.063
			c0.569,0.675,0.813,1.566,0.666,2.438l-21.715,128.264C172.995,218.176,171.745,219.232,170.281,219.232z M88.253,213.232h79.493
			l20.699-122.264H67.555L88.253,213.232z"/>
	</g>
	<g>
		<path class="st1" d="M107.278,57.653c1.349,0,2.442-3.315,2.442-7.404v-3.078c0-4.089,1.093-7.404,2.442-7.404H79.983
			c-4.089,0-7.404,3.315-7.404,7.404v3.078c0,4.089-3.315,7.404-7.404,7.404H53.578l-6,30.316h53.896l1.979-30.316H107.278z"/>
		<path class="st2" d="M202.422,57.653h-11.597c-4.089,0-7.404-3.315-7.404-7.404v-3.078c0-4.089-3.315-7.404-7.404-7.404h-32.179
			c1.349,0,2.442,3.315,2.442,7.404v3.078c0,4.089,1.093,7.404,2.442,7.404h3.825l1.979,30.316h53.896L202.422,57.653z"/>
		<path class="st3" d="M148.722,57.653c-1.349,0-2.442-3.315-2.442-7.404v-3.078c0-4.089-1.093-7.404-2.442-7.404h-31.676
			c-1.349,0-2.442,3.315-2.442,7.404v3.078c0,4.089-1.093,7.404-2.442,7.404h-3.825l-1.979,30.316h53.052l-1.979-30.316H148.722z"/>
	</g>
	<g>
		<path class="st7" d="M208.422,90.969H47.578c-0.898,0-1.748-0.402-2.318-1.096c-0.57-0.693-0.799-1.606-0.625-2.486l6-30.315
			c0.278-1.405,1.511-2.418,2.943-2.418h11.597c2.428,0,4.404-1.976,4.404-4.403v-3.078c0-5.737,4.667-10.404,10.404-10.404h96.035
			c5.736,0,10.403,4.667,10.403,10.404v3.078c0,2.428,1.976,4.403,4.403,4.403h11.598c1.433,0,2.665,1.013,2.943,2.418l6,30.315
			c0.174,0.88-0.056,1.793-0.625,2.486C210.17,90.566,209.319,90.969,208.422,90.969z M51.23,84.969h153.54l-4.812-24.315h-9.133
			c-5.736,0-10.403-4.667-10.403-10.403v-3.078c0-2.429-1.976-4.404-4.403-4.404H79.983c-2.428,0-4.404,1.976-4.404,4.404v3.078
			c0,5.736-4.667,10.403-10.404,10.403h-9.133L51.23,84.969z"/>
	</g>
	<g>
		<polygon class="st12" points="186.703,119.232 152.332,119.232 147.679,185.548 175.476,185.548 		"/>
		<polygon class="st13" points="69.297,119.232 80.524,185.548 108.321,185.548 103.668,119.232 		"/>
		<polygon class="st9" points="103.668,119.232 108.321,185.548 147.679,185.548 152.332,119.232 		"/>
	</g>
	<g>
		<path class="st7" d="M175.476,188.548H80.524c-1.463,0-2.713-1.057-2.958-2.499l-11.227-66.315
			c-0.147-0.871,0.097-1.763,0.667-2.438c0.57-0.674,1.408-1.063,2.292-1.063h117.406c0.883,0,1.722,0.39,2.292,1.063
			c0.569,0.675,0.813,1.566,0.666,2.438l-11.228,66.315C178.189,187.492,176.939,188.548,175.476,188.548z M83.059,182.548h89.882
			l10.212-60.315H72.848L83.059,182.548z"/>
	</g>
	<g>
		<rect x="58.247" y="54.653" class="st7" width="136.842" height="6"/>
	</g>
	<g>
		<g>
			<path class="st2" d="M143.891,136.209c2.587,2.587-2.431,11.798-11.208,20.575c-8.776,8.776-17.988,13.794-20.575,11.208
				c7.298,7.298,20.33,6.1,29.106-2.676C149.991,156.539,151.19,143.508,143.891,136.209z"/>
			<path class="st1" d="M123.316,147.417c8.777-8.777,17.988-13.794,20.575-11.208c-7.298-7.298-20.329-6.1-29.106,2.676
				c-8.776,8.776-9.975,21.808-2.676,29.106C109.522,165.405,114.54,156.193,123.316,147.417z"/>
			
				<ellipse transform="matrix(0.7071 -0.7071 0.7071 0.7071 -70.0611 135.0589)" class="st3" cx="128" cy="152.101" rx="22.474" ry="6.624"/>
		</g>
		<g>
			<path class="st7" d="M124.211,175.747c-5.355,0-10.44-1.85-14.224-5.634c-8.457-8.457-7.256-23.417,2.676-33.349
				c9.931-9.932,24.891-11.135,33.349-2.677c8.456,8.457,7.255,23.417-2.677,33.349
				C137.849,172.925,130.824,175.747,124.211,175.747z M131.778,134.425c-5.052,0-10.541,2.251-14.872,6.582
				c-7.592,7.593-8.793,18.747-2.676,24.864c6.117,6.115,17.271,4.915,24.863-2.677c7.593-7.593,8.793-18.747,2.677-24.864
				C139.143,135.703,135.584,134.425,131.778,134.425z"/>
		</g>
		<g>
			<path class="st7" d="M117.622,163.649l-1.771-5.732l7.876-2.435c0.632-0.195,0.922-0.658,1.04-0.917s0.273-0.783,0.002-1.387
				c-0.905-2.019-0.896-4.329,0.022-6.341c0.919-2.011,2.66-3.529,4.777-4.167l8.773-2.643l1.73,5.744l-8.774,2.644
				c-0.637,0.192-0.931,0.656-1.049,0.916c-0.119,0.259-0.277,0.785-0.006,1.393c0.9,2.007,0.896,4.308-0.01,6.313
				c-0.907,2.005-2.633,3.527-4.735,4.177L117.622,163.649z"/>
		</g>
	</g>
</g>
</svg>
