<?xml version="1.0" encoding="utf-8"?>
<!-- Generator: Adobe Illustrator 23.0.1, SVG Export Plug-In . SVG Version: 6.00 Build 0)  -->
<svg version="1.1" id="Layer_1" xmlns="http://www.w3.org/2000/svg" xmlns:xlink="http://www.w3.org/1999/xlink" x="0px" y="0px"
	 viewBox="0 0 256 256" style="enable-background:new 0 0 256 256;" xml:space="preserve">
<style type="text/css">
	.st0{fill:#EDE27E;}
	.st1{fill:#FFECA7;}
	.st2{fill:#D3BA2A;}
	.st3{fill:#EEE045;}
	.st4{fill:#E8383B;}
	.st5{fill:#EF7F72;}
	.st6{fill:#E95947;}
	.st7{fill:#1C2D6B;}
	.st8{fill:#6287C5;}
	.st9{fill:#65BC49;}
	.st10{fill:#4B67B0;}
	.st11{fill:#89AADB;}
	.st12{fill:#419B46;}
	.st13{fill:#A4D4A0;}
	.st14{fill:#FF00FF;}
	.st15{fill:#FFFFFF;}
</style>
<g>
	<g>
		<path class="st10" d="M166.526,149.459L166.526,149.459c0,14.732-11.943,26.675-26.675,26.675h65.684
			c14.732,0,26.675-11.943,26.675-26.675l0,0H166.526z"/>
		<path class="st11" d="M89.474,149.459L89.474,149.459H23.79l0,0c0,14.732,11.943,26.675,26.675,26.675h65.684
			C101.416,176.134,89.474,164.191,89.474,149.459z"/>
		<path class="st8" d="M166.526,149.459L166.526,149.459H89.474l0,0c0,14.732,11.943,26.675,26.675,26.675h23.703
			C154.584,176.134,166.526,164.191,166.526,149.459z"/>
	</g>
	<g>
		<path class="st7" d="M205.536,179.134H50.464c-16.362,0-29.674-13.312-29.674-29.675c0-1.657,1.343-3,3-3h208.42
			c1.657,0,3,1.343,3,3C235.21,165.821,221.898,179.134,205.536,179.134z M26.979,152.459c1.479,11.644,11.446,20.675,23.484,20.675
			h155.072c12.038,0,22.006-9.031,23.484-20.675H26.979z"/>
	</g>
	<g>
		<path class="st1" d="M130.344,89.866c-44.376,0-81.313,25.665-89.254,59.592h50.836C95.344,115.531,111.243,89.866,130.344,89.866
			z"/>
		<path class="st2" d="M130.344,89.866c19.101,0,35,25.665,38.418,59.592h50.836C211.657,115.531,174.72,89.866,130.344,89.866z"/>
		<path class="st3" d="M130.344,89.866c-19.101,0-35,25.665-38.418,59.592h76.836C165.344,115.531,149.445,89.866,130.344,89.866z"
			/>
	</g>
	<g>
		<path class="st7" d="M219.598,152.459H41.091c-0.916,0-1.781-0.418-2.351-1.136s-0.779-1.656-0.57-2.548
			c8.396-35.873,47.16-61.909,92.174-61.909c45.015,0,83.779,26.036,92.175,61.909c0.209,0.892-0.001,1.83-0.57,2.548
			S220.514,152.459,219.598,152.459z M45.002,146.459h170.685c-9.502-31.271-44.667-53.593-85.343-53.593
			S54.504,115.188,45.002,146.459z"/>
	</g>
	<g>
		<path class="st4" d="M229.335,147.18c-9.128-39.004-50.759-67.313-98.99-67.313c-0.454,0-0.905,0.012-1.357,0.018
			c31.862,0.379,59.273,28.555,65.314,67.296l0.355,2.279h35.211L229.335,147.18z"/>
		<path class="st6" d="M124.349,83.525c0-0.015,0-0.029,0-0.044C124.349,83.496,124.349,83.51,124.349,83.525z"/>
		<path class="st15" d="M128.987,79.884c-0.217-0.002-0.431-0.018-0.648-0.018c-0.493,0-0.984,0.013-1.474,0.029
			c0.128,0.005,0.255,0.013,0.382,0.021C127.826,79.9,128.406,79.892,128.987,79.884z"/>
		<path class="st6" d="M128.987,79.884c-0.581,0.008-1.161,0.016-1.74,0.032c15.68,1.047,29.087,29,32.071,67.264l0.178,2.279
			h35.161l-0.355-2.279C188.26,108.439,160.849,80.263,128.987,79.884z"/>
		<path class="st15" d="M124.8,79.993c0.686-0.044,1.375-0.076,2.065-0.098c-0.176-0.007-0.351-0.029-0.528-0.029
			c-0.594,0-1.183,0.051-1.77,0.127c-0.156,1.11-0.222,2.3-0.219,3.488c-0.001-0.128,0.006-0.257,0.011-0.385
			C124.384,82.037,124.522,80.984,124.8,79.993z"/>
		<path class="st15" d="M124.36,83.096c-0.004,0.128-0.012,0.257-0.011,0.385c0,0.015,0,0.029,0,0.044
			c0.002,0.105,0.012,0.211,0.017,0.316C124.358,83.593,124.354,83.345,124.36,83.096z"/>
		<path class="st15" d="M124.36,83.096c0.036-1.059,0.256-2.113,0.673-3.103c0.736-0.032,1.475-0.056,2.214-0.077
			c-0.127-0.008-0.255-0.016-0.382-0.021c-0.69,0.022-1.379,0.054-2.065,0.098C124.522,80.984,124.384,82.037,124.36,83.096z"/>
		<path class="st5" d="M127.247,79.916c-0.739,0.021-1.478,0.045-2.214,0.077c-0.417,0.99-0.637,2.044-0.673,3.103
			c-0.006,0.249-0.002,0.497,0.006,0.746c0.128,2.518,1.331,4.988,3.632,6.617l0.002,0.001c4.883,3.458,4.883,10.705-0.001,14.163
			c-4.883,3.458-4.884,10.704-0.001,14.162l0.003,0.002c4.883,3.458,4.882,10.704-0.001,14.162l-0.003,0.002
			c-2.441,1.729-3.662,4.404-3.663,7.08c0,2.676,1.22,5.352,3.66,7.081l0.013,0.009c0.929,0.658,1.67,1.458,2.244,2.337h29.243
			l-0.178-2.279C156.335,108.916,142.927,80.964,127.247,79.916z"/>
	</g>
	<g>
		<g>
			<path class="st7" d="M229.868,152.459h-99.615c-1.014,0-1.958-0.512-2.513-1.36c-0.395-0.604-0.888-1.119-1.467-1.53
				c-3.098-2.194-4.939-5.757-4.938-9.538s1.844-7.343,4.93-9.527l1.736,2.446l-1.733-2.448c1.522-1.078,2.396-2.767,2.396-4.633
				s-0.873-3.555-2.396-4.633c-3.089-2.188-4.932-5.752-4.931-9.534c0.001-3.78,1.844-7.342,4.93-9.526
				c1.522-1.078,2.396-2.767,2.396-4.633c0-1.854-0.862-3.535-2.369-4.614c-0.01-0.007-0.019-0.014-0.028-0.021
				c-4.504-3.188-6.147-8.979-3.997-14.079c0.45-1.068,1.477-1.782,2.635-1.832c2.02-0.088,3.8-0.13,5.441-0.13
				c49.609,0,92.469,29.283,101.911,69.63l0.533,2.279c0.209,0.892-0.001,1.83-0.57,2.548S230.784,152.459,229.868,152.459z
				 M131.729,146.459h94.34c-9.477-36.937-49.456-63.593-95.725-63.593c-0.937,0-1.924,0.015-2.983,0.045
				c-0.17,1.954,0.679,3.886,2.343,5.079c0.011,0.008,0.021,0.015,0.031,0.021c3.086,2.187,4.928,5.749,4.928,9.531
				c-0.001,3.781-1.844,7.344-4.93,9.528c-1.522,1.078-2.396,2.766-2.396,4.632s0.873,3.555,2.396,4.634
				c3.088,2.188,4.93,5.75,4.93,9.531s-1.843,7.344-4.929,9.529c-0.022,0.017-0.046,0.032-0.069,0.048l-0.003,0.002
				c-1.453,1.03-2.326,2.719-2.327,4.584c0,1.866,0.873,3.555,2.395,4.634C130.47,145.189,131.138,145.789,131.729,146.459z"/>
		</g>
	</g>
	<circle class="st9" cx="155.183" cy="130.478" r="8.842"/>
	
		<rect x="164.102" y="95.815" transform="matrix(0.7071 -0.7071 0.7071 0.7071 -23.8563 149.6887)" class="st9" width="9.321" height="15.652"/>
	
		<rect x="192.477" y="124.191" transform="matrix(-0.4341 -0.9009 0.9009 -0.4341 163.7769 366.9184)" class="st9" width="9.321" height="15.652"/>
	<g>
		<path class="st7" d="M155.184,142.319c-6.53,0-11.843-5.312-11.843-11.842s5.312-11.842,11.843-11.842
			c6.529,0,11.842,5.312,11.842,11.842S161.713,142.319,155.184,142.319z M155.184,124.636c-3.222,0-5.843,2.621-5.843,5.842
			s2.621,5.842,5.843,5.842c3.221,0,5.842-2.621,5.842-5.842S158.404,124.636,155.184,124.636z"/>
	</g>
	<g>
		<path class="st7" d="M171.001,115.471c-0.768,0-1.535-0.293-2.121-0.879l-11.068-11.067c-0.562-0.562-0.879-1.325-0.879-2.121
			s0.316-1.559,0.879-2.121l6.591-6.591c1.172-1.172,3.07-1.172,4.242,0l11.068,11.067c0.562,0.562,0.879,1.325,0.879,2.121
			s-0.316,1.559-0.879,2.121l-6.591,6.591C172.536,115.178,171.769,115.471,171.001,115.471z M164.176,101.403l6.825,6.825
			l2.348-2.349l-6.825-6.825L164.176,101.403z"/>
	</g>
	<g>
		<path class="st7" d="M192.112,142.613c-1.116,0-2.188-0.626-2.704-1.698l-4.046-8.396c-0.346-0.717-0.393-1.542-0.13-2.293
			s0.813-1.367,1.53-1.713l14.101-6.794c1.492-0.718,3.286-0.091,4.004,1.4l4.046,8.396c0.346,0.717,0.393,1.542,0.13,2.293
			s-0.813,1.367-1.53,1.713l-14.101,6.794C192.993,142.518,192.549,142.613,192.112,142.613z M192.069,132.616l1.441,2.991
			l8.695-4.189l-1.441-2.991L192.069,132.616z"/>
	</g>
</g>
</svg>
