<?xml version="1.0" encoding="utf-8"?>
<!-- Generator: Adobe Illustrator 23.0.1, SVG Export Plug-In . SVG Version: 6.00 Build 0)  -->
<svg version="1.1" id="Layer_1" xmlns="http://www.w3.org/2000/svg" xmlns:xlink="http://www.w3.org/1999/xlink" x="0px" y="0px"
	 viewBox="0 0 256 256" style="enable-background:new 0 0 256 256;" xml:space="preserve">
<style type="text/css">
	.st0{fill:#EDE27E;}
	.st1{fill:#FFECA7;}
	.st2{fill:#D3BA2A;}
	.st3{fill:#EEE045;}
	.st4{fill:#E8383B;}
	.st5{fill:#EF7F72;}
	.st6{fill:#E95947;}
	.st7{fill:#1C2D6B;}
	.st8{fill:#6287C5;}
	.st9{fill:#65BC49;}
	.st10{fill:#4B67B0;}
	.st11{fill:#89AADB;}
	.st12{fill:#419B46;}
	.st13{fill:#A4D4A0;}
	.st14{fill:#FF00FF;}
	.st15{fill:#FFFFFF;}
</style>
<g>
	<g>
		<path class="st11" d="M156.591,180.59L156.591,180.59c0.003-0.005,0.005-0.01,0.008-0.015l0,0
			C156.596,180.579,156.594,180.585,156.591,180.59z"/>
		<path class="st11" d="M156.607,180.559c0.003-0.005,0.007-0.009,0.01-0.014l0,0C156.614,180.55,156.611,180.554,156.607,180.559
			L156.607,180.559z"/>
		<path class="st11" d="M88.099,164.11c-32.376-18.692-75.437-53.874-70.069-63.518l-0.002-0.001
			c-0.009,0.015-0.018,0.029-0.027,0.044l0,0l0.003,0.002C1.6,129.396,35.723,180.059,68.099,198.751
			c38.203,22.056,71.845,10.518,88.463-18.118l0.003,0.002l0,0c0.009-0.015,0.017-0.03,0.025-0.046l-0.002-0.001
			C151.006,190.109,126.302,186.166,88.099,164.11z"/>
		<path class="st10" d="M18.082,100.502l-0.003-0.002l0,0c-0.009,0.015-0.017,0.03-0.025,0.046l0.002,0.001
			c5.668-9.471,57.667,10.23,90.043,28.922c38.203,22.056,53.969,41.48,48.515,51.074l0.002,0.001
			c0.009-0.015,0.018-0.029,0.027-0.045l0,0l-0.003-0.002c16.49-28.709,9.662-63.613-28.541-85.67
			C95.723,76.136,34.786,71.915,18.082,100.502z"/>
		<polygon class="st11" points="156.6,180.575 156.602,180.566 156.599,180.574 		"/>
		<polygon class="st11" points="156.599,180.574 156.602,180.566 156.599,180.574 		"/>
		<polygon class="st11" points="156.608,180.56 156.607,180.559 156.602,180.566 		"/>
		<polygon class="st11" points="156.602,180.566 156.607,180.559 156.607,180.559 		"/>
		<polygon class="st11" points="156.617,180.545 156.617,180.545 156.616,180.544 156.616,180.544 		"/>
		<polygon class="st11" points="156.59,180.589 156.591,180.59 156.591,180.59 156.591,180.59 156.59,180.589 		"/>
		<path class="st11" d="M18.027,100.59L18.027,100.59l0.001,0.001c0.005-0.007,0.009-0.015,0.014-0.022
			C18.037,100.576,18.031,100.582,18.027,100.59z"/>
		<path class="st11" d="M18.053,100.545c-0.004,0.007-0.007,0.016-0.011,0.024c0.004-0.008,0.008-0.015,0.012-0.023L18.053,100.545z
			"/>
		<path class="st11" d="M156.591,180.59c0.003-0.005,0.005-0.01,0.008-0.015l0,0c0.001-0.003,0.002-0.005,0.004-0.008
			c-0.004,0.008-0.008,0.015-0.012,0.023L156.591,180.59z"/>
		<path class="st11" d="M156.602,180.566c0.001-0.002,0.003-0.005,0.005-0.007l0,0c0.003-0.005,0.007-0.009,0.01-0.014l-0.001-0.001
			C156.611,180.552,156.607,180.559,156.602,180.566z"/>
		<path class="st8" d="M108.099,129.469c-32.376-18.692-84.375-38.393-90.043-28.922l-0.002-0.001
			c-0.004,0.008-0.008,0.015-0.012,0.023s-0.009,0.015-0.014,0.022l0.002,0.001c-5.369,9.644,37.693,44.826,70.069,63.518
			c38.203,22.056,62.907,25.999,68.489,16.478l0.002,0.001c0,0,0,0,0,0l0,0c0.004-0.008,0.008-0.015,0.012-0.023
			c0.004-0.008,0.009-0.015,0.013-0.022l0,0c0,0,0,0,0,0l-0.002-0.001C162.068,170.949,146.302,151.525,108.099,129.469z"/>
		<path class="st11" d="M156.59,180.589c0.004-0.008,0.008-0.015,0.012-0.023C156.598,180.574,156.594,180.581,156.59,180.589
			L156.59,180.589z"/>
		<path class="st11" d="M156.616,180.544c-0.005,0.007-0.009,0.015-0.013,0.022C156.607,180.559,156.611,180.552,156.616,180.544
			L156.616,180.544z"/>
		<polygon class="st11" points="156.599,180.574 156.602,180.566 156.599,180.574 		"/>
		<polygon class="st11" points="156.607,180.559 156.602,180.566 156.607,180.559 		"/>
	</g>
	<g>
		<path class="st0" d="M156.591,180.59c0.004-0.008,0.007-0.016,0.011-0.023C156.598,180.574,156.594,180.581,156.591,180.59
			L156.591,180.59z"/>
		<path class="st0" d="M156.617,180.545L156.617,180.545c-0.006,0.007-0.01,0.014-0.014,0.022
			C156.607,180.559,156.613,180.552,156.617,180.545z"/>
		<g>
			<path class="st7" d="M107.038,213.278c-13.006,0-26.75-4.026-40.438-11.929C34.247,182.67-2.273,130.486,15.319,99.291
				c0.022-0.044,0.046-0.089,0.07-0.132c0.014-0.024,0.035-0.06,0.055-0.093c0.017-0.032,0.036-0.064,0.047-0.084
				c0.027-0.045,0.054-0.089,0.083-0.133c18.22-30.833,81.673-25.297,114.025-6.618l0,0c18.754,10.827,31.257,25.383,36.159,42.094
				c4.536,15.463,2.247,32.342-6.446,47.544c-0.021,0.042-0.044,0.084-0.068,0.125c-0.01,0.018-0.028,0.048-0.044,0.075
				c-0.018,0.032-0.036,0.065-0.048,0.085c-0.022,0.037-0.044,0.074-0.067,0.109c-8.82,15.128-22.293,25.551-37.952,29.354
				C116.562,212.727,111.85,213.278,107.038,213.278z M20.64,102.069c-0.01,0.018-0.02,0.036-0.03,0.054
				c-15.573,27.301,18.502,76.429,48.989,94.03c33.892,19.568,67.009,12.885,84.368-17.025c0.012-0.021,0.024-0.042,0.037-0.062
				c0.011-0.021,0.022-0.041,0.034-0.061c17.225-29.988,6.454-62.01-27.439-81.578l0,0C96.113,79.826,36.53,74.877,20.673,102.015
				C20.662,102.033,20.651,102.051,20.64,102.069z"/>
		</g>
	</g>
	<g>
		<path class="st1" d="M122.729,140.87c0-38.663,8.833-95.423,19.739-95.602v-0.003c-0.017-0.001-0.035-0.001-0.052-0.001h0v0.004
			c-32.972,0.179-59.676,56.939-59.676,95.602c0,45.622,26.704,69.786,59.676,69.862v0.004h0c0.017,0,0.035-0.001,0.052-0.001
			v-0.002C131.562,210.656,122.729,186.492,122.729,140.87z"/>
		<path class="st2" d="M142.572,45.268v-0.004h0c-0.017,0-0.035,0.001-0.052,0.001v0.003c10.906,0.179,19.739,56.939,19.739,95.602
			c0,45.622-8.833,69.786-19.739,69.862v0.002c0.017,0.001,0.035,0.001,0.052,0.001h0v-0.004
			c32.972-0.076,59.676-24.241,59.676-69.862C202.248,102.207,175.544,45.447,142.572,45.268z"/>
		<path class="st0" d="M142.468,210.736c0.009,0,0.017-0.002,0.026-0.002c-0.009,0-0.017,0-0.026,0.001V210.736z"/>
		<path class="st0" d="M142.52,210.736v-0.001c-0.009,0-0.017-0.001-0.026-0.001C142.503,210.734,142.511,210.736,142.52,210.736z"
			/>
		<path class="st3" d="M162.259,140.87c0-38.663-8.833-95.423-19.739-95.602v-0.003c-0.009,0-0.017,0.001-0.026,0.001
			c-0.009,0-0.017,0-0.026-0.001v0.003c-10.906,0.179-19.739,56.939-19.739,95.602c0,45.622,8.833,69.786,19.739,69.862v0.002
			c0.009,0,0.017-0.001,0.026-0.001c0.009,0,0.017,0,0.026,0.001v-0.002C153.426,210.656,162.259,186.492,162.259,140.87z"/>
		<path class="st4" d="M155.778,195.062c-0.003,0.001-0.007,0.002-0.01,0.003c14.826-5.391,25.415-19.605,25.415-36.295
			c0-14.305-7.785-26.783-19.344-33.454c0.274,5.376,0.419,10.613,0.419,15.554C162.259,165.138,159.759,183.333,155.778,195.062z"
			/>
		<path class="st5" d="M123.144,125.41c2.115-1.234,4.357-2.272,6.702-3.092c-15.069,5.261-25.883,19.59-25.883,36.453
			c0,16.617,10.499,30.78,25.224,36.224c-3.968-11.731-6.458-29.903-6.458-54.124C122.729,135.958,122.873,130.753,123.144,125.41z"
			/>
		<path class="st6" d="M146.283,197.199c0.247-0.024,0.492-0.053,0.737-0.082c0.362-0.042,0.722-0.086,1.081-0.137
			c0.26-0.037,0.52-0.078,0.778-0.121c0.34-0.056,0.678-0.116,1.014-0.181c0.264-0.051,0.528-0.102,0.79-0.158
			c0.33-0.071,0.657-0.148,0.984-0.227c0.259-0.063,0.52-0.123,0.777-0.191c0.337-0.089,0.67-0.187,1.003-0.285
			c0.24-0.07,0.482-0.136,0.719-0.21c0.539-0.169,1.073-0.35,1.601-0.542c0.003-0.001,0.007-0.002,0.01-0.003
			c3.981-11.729,6.481-29.924,6.481-54.191c0-4.941-0.145-10.178-0.419-15.554h0c-2.097-1.21-4.318-2.227-6.639-3.032
			c-0.078-0.027-0.156-0.053-0.235-0.079c-0.686-0.233-1.381-0.446-2.084-0.641c-0.086-0.024-0.171-0.05-0.257-0.073
			c-1.511-0.408-3.06-0.722-4.638-0.944c-0.204-0.029-0.409-0.053-0.614-0.078c-0.585-0.073-1.175-0.132-1.768-0.178
			c-0.221-0.017-0.442-0.037-0.664-0.05c-0.784-0.048-1.572-0.079-2.368-0.079c-0.802,0-1.595,0.032-2.385,0.08
			c-0.223,0.014-0.444,0.033-0.666,0.051c-0.602,0.047-1.199,0.107-1.793,0.182c-0.201,0.025-0.403,0.048-0.604,0.077
			c-1.586,0.225-3.142,0.544-4.661,0.956c-0.11,0.03-0.218,0.062-0.327,0.093c-0.696,0.196-1.384,0.408-2.064,0.641
			c-0.076,0.026-0.152,0.051-0.228,0.077c-2.345,0.821-4.588,1.858-6.702,3.092c-0.271,5.343-0.415,10.548-0.415,15.46
			c0,24.221,2.49,42.393,6.458,54.124c0,0,0,0,0,0c0.299,0.111,0.604,0.21,0.907,0.313c0.261,0.089,0.52,0.182,0.784,0.265
			c0.295,0.094,0.594,0.178,0.892,0.265c0.279,0.081,0.557,0.163,0.839,0.238c0.291,0.078,0.585,0.149,0.879,0.22
			c0.297,0.072,0.595,0.142,0.895,0.206c0.285,0.062,0.571,0.119,0.858,0.175c0.319,0.061,0.641,0.118,0.963,0.172
			c0.274,0.046,0.548,0.09,0.824,0.13c0.349,0.05,0.7,0.093,1.052,0.134c0.255,0.03,0.51,0.061,0.767,0.086
			c0.402,0.038,0.806,0.066,1.211,0.092c0.213,0.014,0.425,0.033,0.638,0.043c0.622,0.03,1.247,0.047,1.877,0.047
			c0.626,0,1.248-0.018,1.866-0.047c0.209-0.01,0.417-0.028,0.625-0.041C145.472,197.266,145.879,197.238,146.283,197.199z"/>
		<g>
			<path class="st7" d="M142.573,200.381c-22.944,0-41.61-18.667-41.61-41.61s18.666-41.61,41.61-41.61s41.61,18.667,41.61,41.61
				S165.517,200.381,142.573,200.381z M142.573,123.16c-19.635,0-35.61,15.975-35.61,35.61s15.975,35.61,35.61,35.61
				c19.636,0,35.61-15.975,35.61-35.61S162.208,123.16,142.573,123.16z"/>
		</g>
		<g>
			<path class="st7" d="M142.572,213.736c-0.063,0-0.164-0.001-0.225-0.003c-17.496-0.057-33.242-6.74-44.342-18.822
				c-11.948-13.006-18.264-31.693-18.264-54.04c0-38.594,26.826-98.226,62.498-98.601c0.077-0.004,0.138-0.006,0.257-0.004
				c0.127-0.003,0.178,0,0.255,0.004c35.671,0.375,62.498,60.007,62.498,98.601c0,22.347-6.316,41.034-18.264,54.04
				c-11.083,12.063-26.795,18.744-44.258,18.822C142.675,213.734,142.624,213.736,142.572,213.736z M142.494,48.267
				c-0.021,0-0.041,0.001-0.062,0.001c-31.294,0.169-56.692,56.155-56.692,92.602c0,40.538,22.25,66.783,56.683,66.862
				c0.048,0,0.094,0,0.142,0c34.434-0.08,56.683-26.325,56.683-66.862c0-36.447-25.398-92.433-56.692-92.602
				C142.535,48.268,142.515,48.268,142.494,48.267z"/>
		</g>
	</g>
	<g>
		<g>
			<path class="st11" d="M189.248,168c0-22.091,5.82-40,13-40c-22.091,0-40,17.909-40,40s17.909,40,40,40
				C195.068,208,189.248,190.091,189.248,168z"/>
			<path class="st10" d="M202.248,128c7.18,0,13,17.909,13,40s-5.82,40-13,40c22.091,0,40-17.909,40-40S224.339,128,202.248,128z"/>
			<ellipse class="st8" cx="202.248" cy="168" rx="13" ry="40"/>
		</g>
		<g>
			<path class="st7" d="M202.248,211c-23.71,0-43-19.29-43-43s19.29-43,43-43s43,19.29,43,43S225.958,211,202.248,211z M202.248,131
				c-20.402,0-37,16.598-37,37s16.598,37,37,37s37-16.598,37-37S222.65,131,202.248,131z"/>
		</g>
		<polygon class="st4" points="228.411,154.565 215.683,141.837 202.248,155.272 188.813,141.837 176.085,154.565 189.52,168 
			176.085,181.435 188.813,194.163 202.248,180.728 215.683,194.163 228.411,181.435 214.976,168 		"/>
		<g>
			<path class="st7" d="M188.813,197.163c-0.768,0-1.536-0.293-2.121-0.879l-12.728-12.728c-1.172-1.171-1.172-3.071,0-4.242
				L185.277,168l-11.313-11.314c-1.172-1.171-1.172-3.071,0-4.242l12.728-12.728c1.171-1.172,3.071-1.172,4.242,0l11.314,11.313
				l11.314-11.313c0.562-0.563,1.326-0.879,2.121-0.879l0,0c0.796,0,1.559,0.316,2.122,0.879l12.728,12.728
				c1.171,1.171,1.171,3.071,0,4.242L219.218,168l11.313,11.314c1.172,1.171,1.172,3.071,0,4.242l-12.728,12.728
				c-1.125,1.126-3.117,1.126-4.243,0l-11.314-11.313l-11.314,11.313C190.349,196.87,189.581,197.163,188.813,197.163z
				 M180.328,181.435l8.485,8.485l11.314-11.313c1.171-1.172,3.071-1.172,4.242,0l11.314,11.313l8.485-8.485l-11.313-11.314
				c-1.172-1.171-1.172-3.071,0-4.242l11.313-11.314l-8.485-8.485l-11.314,11.313c-1.171,1.172-3.071,1.172-4.242,0l-11.314-11.313
				l-8.485,8.485l11.313,11.314c1.172,1.171,1.172,3.071,0,4.242L180.328,181.435z"/>
		</g>
	</g>
</g>
</svg>
