<?xml version="1.0" encoding="utf-8"?>
<!-- Generator: Adobe Illustrator 23.0.1, SVG Export Plug-In . SVG Version: 6.00 Build 0)  -->
<svg version="1.1" id="Layer_1" xmlns="http://www.w3.org/2000/svg" xmlns:xlink="http://www.w3.org/1999/xlink" x="0px" y="0px"
	 viewBox="0 0 256 256" style="enable-background:new 0 0 256 256;" xml:space="preserve">
<style type="text/css">
	.st0{fill:#EDE27E;}
	.st1{fill:#FFECA7;}
	.st2{fill:#D3BA2A;}
	.st3{fill:#EEE045;}
	.st4{fill:#E8383B;}
	.st5{fill:#EF7F72;}
	.st6{fill:#E95947;}
	.st7{fill:#1C2D6B;}
	.st8{fill:#6287C5;}
	.st9{fill:#65BC49;}
	.st10{fill:#4B67B0;}
	.st11{fill:#89AADB;}
	.st12{fill:#419B46;}
	.st13{fill:#A4D4A0;}
	.st14{fill:#FF00FF;}
	.st15{fill:#FFFFFF;}
</style>
<g>
	<g>
		<polygon class="st1" points="41.077,186.594 69.912,181.016 69.714,101.555 		"/>
		<polygon class="st2" points="69.714,101.555 99.165,175.357 128,169.779 		"/>
		<polygon class="st3" points="69.912,181.016 99.165,175.357 69.714,101.555 		"/>
	</g>
	<g>
		<path class="st7" d="M41.077,189.594c-0.856,0-1.683-0.367-2.258-1.025c-0.703-0.804-0.926-1.92-0.585-2.932l28.637-85.038
			c0.345-1.024,1.213-1.783,2.273-1.988c1.064-0.206,2.15,0.175,2.851,0.997l58.286,68.223c0.693,0.812,0.903,1.931,0.551,2.938
			s-1.214,1.752-2.262,1.955l-86.923,16.815C41.457,189.576,41.266,189.594,41.077,189.594z M70.869,107.526L45.564,182.67
			l76.81-14.858L70.869,107.526z"/>
	</g>
	<g>
		<polygon class="st1" points="106.549,132.489 129.833,114.896 94.814,43.528 		"/>
		<polygon class="st2" points="94.814,43.528 153.902,96.709 177.186,79.115 		"/>
		<polygon class="st3" points="129.833,114.896 153.902,96.709 94.814,43.528 		"/>
	</g>
	<g>
		<path class="st7" d="M106.548,135.489c-0.391,0-0.785-0.076-1.158-0.232c-0.985-0.412-1.676-1.316-1.816-2.375L91.84,43.921
			c-0.141-1.071,0.304-2.135,1.166-2.786c0.861-0.651,2.005-0.789,2.999-0.36l82.372,35.587c0.98,0.424,1.662,1.336,1.789,2.396
			c0.128,1.061-0.318,2.108-1.17,2.752l-70.638,53.374C107.828,135.283,107.191,135.489,106.548,135.489z M98.48,48.38l10.37,78.611
			l62.419-47.165L98.48,48.38z"/>
	</g>
	<g>
		<polygon class="st2" points="222.008,147.542 168.024,77.371 191.965,151.771 		"/>
		<polygon class="st1" points="133.153,160.049 161.227,156.098 168.024,77.371 		"/>
		<polygon class="st3" points="166.919,155.296 161.227,156.098 161.227,156.098 		"/>
		<polygon class="st3" points="191.965,151.771 168.024,77.371 161.227,156.098 166.919,155.296 		"/>
	</g>
	<g>
		<path class="st7" d="M133.153,163.049c-0.924,0-1.806-0.427-2.378-1.171c-0.658-0.855-0.806-2-0.387-2.995l34.87-82.678
			c0.415-0.983,1.322-1.673,2.381-1.81c1.06-0.136,2.111,0.3,2.762,1.146l53.984,70.171c0.65,0.846,0.803,1.975,0.399,2.963
			s-1.302,1.688-2.359,1.837l-88.854,12.507C133.432,163.039,133.292,163.049,133.153,163.049z M168.786,83.282l-30.813,73.059
			l78.517-11.052L168.786,83.282z"/>
	</g>
	<g>
		<path class="st10" d="M166.526,185.797L166.526,185.797c0,14.732-11.943,26.675-26.675,26.675h65.684
			c14.732,0,26.675-11.943,26.675-26.675l0,0H166.526z"/>
		<path class="st11" d="M89.474,185.797L89.474,185.797H23.79l0,0c0,14.732,11.943,26.675,26.675,26.675h65.684
			C101.416,212.472,89.474,200.529,89.474,185.797z"/>
		<path class="st8" d="M166.526,185.797L166.526,185.797H89.474l0,0c0,14.732,11.943,26.675,26.675,26.675h23.703
			C154.584,212.472,166.526,200.529,166.526,185.797z"/>
	</g>
	<g>
		<path class="st7" d="M205.536,215.472H50.464c-16.363,0-29.675-13.312-29.675-29.675c0-1.657,1.343-3,3-3h208.42
			c1.657,0,3,1.343,3,3C235.21,202.159,221.898,215.472,205.536,215.472z M26.979,188.797c1.479,11.644,11.447,20.675,23.486,20.675
			h155.072c12.038,0,22.006-9.031,23.484-20.675H26.979z"/>
	</g>
	<g>
		<path class="st13" d="M92.459,171.006l0.868-1.509c0.297-0.517,0.606-0.961,0.922-1.347c-5.893-2.668-12.813-2.219-18.361,1.347
			l-0.002,0.001c-6.347,4.08-14.491,4.08-20.838,0c-6.346-4.081-14.491-4.081-20.837-0.001l-2.347,1.509
			c-5.032,3.235-8.075,8.807-8.075,14.79v0.001h65.684v-0.001C89.474,179.813,90.598,174.241,92.459,171.006z"/>
		<path class="st12" d="M224.134,171.006l-2.354-1.513c-6.345-4.078-14.487-4.078-20.832,0l-0.013,0.008
			c-6.346,4.078-14.488,4.078-20.833,0l-0.01-0.006c-5.543-3.562-12.457-4.012-18.347-1.351c0.317,0.387,0.627,0.831,0.925,1.35
			l0.87,1.513c1.861,3.235,2.986,8.807,2.986,14.791h65.684C232.21,179.813,229.167,174.241,224.134,171.006z"/>
		<path class="st9" d="M162.67,169.494c-0.298-0.519-0.608-0.963-0.925-1.35c-0.853,0.386-1.685,0.835-2.488,1.352l-0.008,0.005
			c-6.346,4.079-14.489,4.079-20.835,0l-0.008-0.005c-6.346-4.079-14.489-4.079-20.835,0l-0.007,0.004
			c-6.346,4.079-14.49,4.079-20.836,0l-0.004-0.002c-0.799-0.514-1.627-0.962-2.476-1.347c-0.316,0.386-0.625,0.83-0.922,1.347
			l-0.868,1.509c-1.861,3.235-2.985,8.807-2.985,14.79v0.001h77.052c0-5.983-1.125-11.556-2.986-14.791L162.67,169.494z"/>
	</g>
	<g>
		<path class="st7" d="M232.21,188.797H23.79c-1.657,0-3-1.343-3-3c0-7.037,3.534-13.51,9.453-17.314l2.347-1.509
			c7.313-4.702,16.767-4.701,24.082,0.001c5.344,3.436,12.25,3.436,17.594,0c0.011-0.008,0.023-0.015,0.035-0.022
			c7.3-4.676,16.72-4.676,24.021,0.004c0.01,0.007,0.021,0.013,0.031,0.02c5.333,3.43,12.224,3.436,17.562,0.02
			c0.013-0.009,0.024-0.017,0.036-0.023c7.313-4.702,16.765-4.7,24.079,0c0.018,0.011,0.034,0.021,0.051,0.033
			c5.337,3.406,12.219,3.396,17.548-0.028c7.32-4.706,16.772-4.707,24.087-0.005c5.354,3.439,12.257,3.44,17.599,0.007
			c7.325-4.709,16.776-4.707,24.09-0.01l2.354,1.514l0,0c5.92,3.805,9.454,10.278,9.454,17.314
			C235.21,187.454,233.867,188.797,232.21,188.797z M27.098,182.795l201.804,0.002c-0.788-3.784-3.055-7.124-6.39-9.268
			l-2.354-1.513c-5.344-3.434-12.248-3.432-17.588,0c-7.327,4.71-16.777,4.709-24.091,0.008c-5.354-3.439-12.257-3.441-17.601-0.006
			c-7.32,4.707-16.772,4.707-24.087,0.006c-0.017-0.011-0.034-0.021-0.051-0.033c-5.327-3.399-12.193-3.396-17.517,0.008
			c-0.013,0.009-0.025,0.017-0.037,0.024c-7.305,4.695-16.742,4.702-24.054,0.017c-0.01-0.007-0.02-0.013-0.03-0.02
			c-5.344-3.436-12.25-3.436-17.592,0c-0.012,0.008-0.023,0.015-0.035,0.021c-7.311,4.683-16.746,4.676-24.05-0.021
			c-5.345-3.436-12.25-3.437-17.593-0.001l-2.347,1.509C30.152,175.673,27.886,179.012,27.098,182.795z"/>
	</g>
</g>
</svg>
