<?xml version="1.0" encoding="utf-8"?>
<!-- Generator: Adobe Illustrator 23.0.1, SVG Export Plug-In . SVG Version: 6.00 Build 0)  -->
<svg version="1.1" id="Layer_1" xmlns="http://www.w3.org/2000/svg" xmlns:xlink="http://www.w3.org/1999/xlink" x="0px" y="0px"
	 viewBox="0 0 256 256" style="enable-background:new 0 0 256 256;" xml:space="preserve">
<style type="text/css">
	.st0{fill:#EDE27E;}
	.st1{fill:#FFECA7;}
	.st2{fill:#D3BA2A;}
	.st3{fill:#EEE045;}
	.st4{fill:#E8383B;}
	.st5{fill:#EF7F72;}
	.st6{fill:#E95947;}
	.st7{fill:#1C2D6B;}
	.st8{fill:#6287C5;}
	.st9{fill:#65BC49;}
	.st10{fill:#4B67B0;}
	.st11{fill:#89AADB;}
	.st12{fill:#419B46;}
	.st13{fill:#A4D4A0;}
	.st14{fill:#FF00FF;}
	.st15{fill:#FFFFFF;}
</style>
<g>
	<path class="st3" d="M220.092,119.42l-0.585,0.585H99.065l-0.585-0.585l11.106-11.106c27.449-27.449,71.952-27.449,99.401,0
		L220.092,119.42z"/>
	<g>
		<path class="st7" d="M219.507,123.005H99.064c-0.796,0-1.559-0.316-2.121-0.879l-0.585-0.585c-1.172-1.171-1.172-3.071,0-4.242
			l11.105-11.106c13.842-13.842,32.246-21.465,51.822-21.465s37.979,7.623,51.821,21.465l11.106,11.105
			c0.563,0.563,0.879,1.327,0.879,2.123c0,0.796-0.317,1.559-0.881,2.122l-0.586,0.585
			C221.063,122.689,220.302,123.005,219.507,123.005z M105.137,117.005h108.298l-6.569-6.569
			c-12.709-12.709-29.606-19.708-47.579-19.708c-17.974,0-34.871,6.999-47.58,19.708L105.137,117.005z"/>
	</g>
	<g>
		<path class="st7" d="M200.399,123.005h-82.236c-0.796,0-1.559-0.316-2.121-0.879l-0.585-0.585
			c-0.562-0.562-0.879-1.326-0.879-2.121c0-0.796,0.316-1.559,0.879-2.122l5.77-5.769c20.986-20.982,55.132-20.981,76.114,0.004
			l5.766,5.765c0.563,0.563,0.879,1.327,0.879,2.123c0,0.796-0.317,1.56-0.881,2.122l-0.586,0.585
			C201.956,122.689,201.194,123.005,200.399,123.005z M124.236,117.005h70.091l-1.229-1.229
			c-18.645-18.646-48.983-18.646-67.63-0.004L124.236,117.005z"/>
	</g>
	<g>
		<path class="st7" d="M180.083,123.005h-41.594c-1.217,0-2.312-0.735-2.775-1.86c-0.462-1.125-0.199-2.418,0.666-3.274
			c13.701-13.542,32.111-13.542,45.812,0c0.865,0.855,1.128,2.148,0.666,3.274C182.396,122.27,181.3,123.005,180.083,123.005z
			 M147.3,117.005h23.973C163.552,112.629,155.021,112.629,147.3,117.005z"/>
	</g>
	<path class="st3" d="M161.618,119.42l-0.585,0.585H40.59l-0.585-0.585l11.106-11.106c27.449-27.449,71.952-27.449,99.401,0
		L161.618,119.42z"/>
	<g>
		<path class="st7" d="M161.033,123.005H40.591c-0.795,0-1.557-0.315-2.119-0.877l-0.586-0.585
			c-0.563-0.562-0.881-1.326-0.881-2.122c0-0.796,0.315-1.56,0.879-2.123l11.106-11.106c13.842-13.842,32.245-21.465,51.821-21.465
			s37.98,7.623,51.822,21.465l11.105,11.106c1.172,1.171,1.172,3.071,0,4.242l-0.585,0.585
			C162.592,122.689,161.829,123.005,161.033,123.005z M46.663,117.005h108.298l-6.569-6.57
			c-12.709-12.708-29.606-19.708-47.58-19.708c-17.973,0-34.87,6.999-47.579,19.708L46.663,117.005z"/>
	</g>
	<g>
		<path class="st7" d="M141.926,123.005H59.688c-0.796,0-1.559-0.316-2.121-0.879l-0.585-0.585
			c-0.562-0.562-0.879-1.326-0.879-2.121c0-0.796,0.316-1.559,0.879-2.122l5.771-5.769c20.987-20.981,55.131-20.979,76.114,0.004
			l5.765,5.765c1.172,1.171,1.172,3.071,0,4.242l-0.585,0.585C143.484,122.689,142.722,123.005,141.926,123.005z M65.763,117.005
			h70.091l-1.229-1.229c-18.645-18.645-48.983-18.645-67.63-0.003L65.763,117.005z"/>
	</g>
	<g>
		<rect x="90.005" y="200.679" class="st13" width="27" height="15"/>
		<rect x="143.005" y="200.679" class="st12" width="27" height="15"/>
		<rect x="117.005" y="200.679" class="st9" width="26" height="15"/>
	</g>
	<g>
		<path class="st7" d="M170.005,218.679h-80c-1.657,0-3-1.343-3-3v-15c0-1.657,1.343-3,3-3h80c1.657,0,3,1.343,3,3v15
			C173.005,217.336,171.662,218.679,170.005,218.679z M93.005,212.679h74v-9h-74V212.679z"/>
	</g>
	<g>
		<path class="st12" d="M160.005,120.005c0,35.365-6.8,65.96-16.691,80.674h26.618c29.672-14.714,50.074-45.309,50.074-80.674
			H160.005z"/>
		<path class="st13" d="M40.005,120.005c0,35.365,20.401,65.96,50.074,80.674h26.618c-9.891-14.714-16.691-45.309-16.691-80.674
			H40.005z"/>
		<path class="st9" d="M100.005,120.005c0,35.365,6.8,65.96,16.691,80.674h26.618c9.891-14.714,16.691-45.309,16.691-80.674H100.005
			z"/>
	</g>
	<g>
		<path class="st7" d="M169.932,203.679H90.079c-0.462,0-0.919-0.107-1.333-0.312c-31.915-15.826-51.741-47.768-51.741-83.362
			c0-1.657,1.343-3,3-3h180c1.657,0,3,1.343,3,3c0,35.593-19.826,67.536-51.74,83.362
			C170.851,203.572,170.394,203.679,169.932,203.679z M90.788,197.679h78.435c28.598-14.458,46.661-42.821,47.731-74.674H43.056
			C44.126,154.859,62.189,183.221,90.788,197.679z"/>
	</g>
	<g>
		<path class="st7" d="M121.604,123.005H80.011c-1.217,0-2.312-0.735-2.775-1.86c-0.462-1.125-0.199-2.418,0.666-3.274
			c13.701-13.542,32.111-13.542,45.812,0c0.865,0.855,1.128,2.148,0.666,3.274C123.917,122.27,122.821,123.005,121.604,123.005z
			 M88.821,117.005h23.973C105.073,112.629,96.542,112.629,88.821,117.005z"/>
	</g>
	<g>
		
			<rect x="103.295" y="-8.785" transform="matrix(0.0582 -0.9983 0.9983 0.0582 38.491 164.2457)" class="st7" width="6" height="141.015"/>
	</g>
	<g>
		
			<rect x="103.296" y="-25.728" transform="matrix(0.0632 -0.998 0.998 0.0632 54.8858 148.0308)" class="st7" width="6" height="141.015"/>
	</g>
	<g>
		<path class="st7" d="M166.88,73.317c-1.657,0-3-1.343-3-3V42.441c0-1.657,1.343-3,3-3s3,1.343,3,3v27.876
			C169.88,71.974,168.537,73.317,166.88,73.317z"/>
	</g>
	<g>
		<path class="st7" d="M154.005,72.749c-1.657,0-3-1.343-3-3V41.873c0-1.657,1.343-3,3-3s3,1.343,3,3v27.876
			C157.005,71.405,155.662,72.749,154.005,72.749z"/>
	</g>
	<g>
		<path class="st7" d="M141.005,91.755c-1.657,0-3-1.343-3-3v-47.71c0-1.657,1.343-3,3-3s3,1.343,3,3v47.71
			C144.005,90.412,142.662,91.755,141.005,91.755z"/>
	</g>
	<g>
		<path class="st7" d="M128.005,93.255c-1.657,0-3-1.343-3-3V40.321c0-1.657,1.343-3,3-3s3,1.343,3,3v49.934
			C131.005,91.912,129.662,93.255,128.005,93.255z"/>
	</g>
</g>
</svg>
