<?xml version="1.0" encoding="utf-8"?>
<!-- Generator: Adobe Illustrator 23.0.1, SVG Export Plug-In . SVG Version: 6.00 Build 0)  -->
<svg version="1.1" id="Layer_1" xmlns="http://www.w3.org/2000/svg" xmlns:xlink="http://www.w3.org/1999/xlink" x="0px" y="0px"
	 viewBox="0 0 256 256" style="enable-background:new 0 0 256 256;" xml:space="preserve">
<style type="text/css">
	.st0{fill:#EDE27E;}
	.st1{fill:#FFECA7;}
	.st2{fill:#D3BA2A;}
	.st3{fill:#EEE045;}
	.st4{fill:#E8383B;}
	.st5{fill:#EF7F72;}
	.st6{fill:#E95947;}
	.st7{fill:#1C2D6B;}
	.st8{fill:#6287C5;}
	.st9{fill:#65BC49;}
	.st10{fill:#4B67B0;}
	.st11{fill:#89AADB;}
	.st12{fill:#419B46;}
	.st13{fill:#A4D4A0;}
	.st14{fill:#FF00FF;}
	.st15{fill:#FFFFFF;}
</style>
<g>
	<g>
		<path class="st2" d="M128,28c12.065,0.491,23.368,10.262,33.125,27.012L128,228L228,55.012C198.544,38.262,164.422,28.491,128,28z
			"/>
		<path class="st1" d="M128,28C91.578,28.491,57.456,38.262,28,55.012L128,228L94.875,55.012C104.632,38.262,115.935,28.491,128,28z
			"/>
		<path class="st3" d="M160.67,57.387c-0.001,0-0.002,0-0.002,0c-3.76-0.643-7.555-1.186-11.383-1.625
			c-0.518-0.06-1.036-0.117-1.555-0.173c-1.011-0.108-2.022-0.217-3.037-0.311c-1.451-0.136-2.906-0.257-4.366-0.363
			c-0.621-0.045-1.245-0.079-1.867-0.118c-1.187-0.075-2.377-0.142-3.57-0.197c-0.563-0.026-1.126-0.052-1.691-0.073
			c-1.728-0.066-3.46-0.119-5.199-0.142c-1.738,0.023-3.469,0.076-5.196,0.142c-0.563,0.021-1.125,0.047-1.688,0.073
			c-1.195,0.055-2.387,0.122-3.576,0.198c-0.621,0.039-1.244,0.073-1.863,0.117c-1.456,0.106-2.907,0.227-4.355,0.362
			c-1.018,0.094-2.032,0.203-3.046,0.312c-0.511,0.055-1.022,0.111-1.532,0.17c-3.821,0.438-7.609,0.979-11.363,1.62
			c-0.002,0-0.003,0-0.005,0.001l-0.465-2.427c-0.012,0.021-0.025,0.04-0.037,0.061L128,228l33.125-172.988v0L160.67,57.387z"/>
	</g>
	<g>
		<path class="st6" d="M113.84,28.672c0.715-0.058,1.435-0.101,2.152-0.152C115.274,28.571,114.555,28.615,113.84,28.672z"/>
		<path class="st6" d="M105.372,29.542c1.144-0.14,2.289-0.278,3.439-0.399C107.66,29.263,106.516,29.403,105.372,29.542z"/>
		<path class="st6" d="M120.082,28.269c0.648-0.033,1.295-0.066,1.945-0.093C121.378,28.203,120.73,28.236,120.082,28.269z"/>
		<path class="st6" d="M90.499,31.892c4.296-0.839,8.641-1.543,13.028-2.118C99.139,30.346,94.795,31.053,90.499,31.892z"/>
		<path class="st6" d="M133.974,28.176c0.65,0.027,1.299,0.06,1.947,0.093C135.272,28.236,134.624,28.203,133.974,28.176z"/>
		<path class="st6" d="M108.276,55.587c-0.511,0.055-1.022,0.111-1.532,0.17C107.254,55.699,107.765,55.642,108.276,55.587z"/>
		<path class="st6" d="M133.199,54.525c-1.728-0.066-3.46-0.119-5.199-0.142C129.739,54.406,131.47,54.459,133.199,54.525z"/>
		<path class="st6" d="M128,54.383c-1.738,0.023-3.469,0.076-5.196,0.142C124.531,54.459,126.262,54.406,128,54.383z"/>
		<path class="st6" d="M115.677,54.913c-1.456,0.106-2.907,0.227-4.355,0.362C112.77,55.141,114.221,55.017,115.677,54.913z"/>
		<path class="st6" d="M140.012,28.52c0.717,0.051,1.436,0.094,2.152,0.152C141.448,28.615,140.729,28.571,140.012,28.52z"/>
		<path class="st6" d="M121.117,54.598c-1.195,0.055-2.387,0.122-3.576,0.198C118.73,54.721,119.921,54.653,121.117,54.598z"/>
		<path class="st4" d="M160.67,57.387c-0.001,0-0.002,0-0.002,0c19.65,3.361,38.342,9.439,55.638,17.855L228,55.012
			c-22.745-12.934-48.28-21.683-75.5-25.235c4.395,0.577,8.748,1.283,13.051,2.124L160.67,57.387z"/>
		<path class="st5" d="M90.496,31.893C68.137,36.26,47.085,44.16,28,55.012l11.694,20.229c17.311-8.423,36.02-14.504,55.688-17.863
			c-0.002,0-0.003,0-0.005,0.001L90.496,31.893z"/>
		<path class="st6" d="M138.459,54.795c-1.187-0.075-2.377-0.142-3.57-0.197C136.082,54.653,137.271,54.721,138.459,54.795z"/>
		<path class="st6" d="M144.693,55.276c-1.451-0.136-2.906-0.257-4.366-0.363C141.787,55.018,143.241,55.142,144.693,55.276z"/>
		<path class="st6" d="M149.285,55.761c-0.518-0.06-1.036-0.117-1.555-0.173C148.249,55.643,148.767,55.701,149.285,55.761z"/>
		<path class="st6" d="M147.204,29.144c1.148,0.121,2.29,0.259,3.432,0.399C149.494,29.404,148.352,29.264,147.204,29.144z"/>
		<path class="st6" d="M140.326,54.913c-0.621-0.045-1.245-0.079-1.867-0.118C139.081,54.835,139.706,54.868,140.326,54.913z"/>
		<path class="st6" d="M106.744,55.757c-3.821,0.438-7.609,0.979-11.363,1.62C99.135,56.737,102.924,56.199,106.744,55.757z"/>
		<polygon class="st6" points="90.496,31.893 90.496,31.893 90.499,31.892 		"/>
		<path class="st6" d="M133.199,54.525c0.564,0.022,1.127,0.047,1.691,0.073C134.326,54.572,133.763,54.546,133.199,54.525z"/>
		<path class="st6" d="M117.54,54.796c-0.621,0.039-1.244,0.073-1.863,0.117C116.297,54.868,116.919,54.835,117.54,54.796z"/>
		<path class="st6" d="M122.804,54.525c-0.563,0.021-1.125,0.047-1.688,0.073C121.679,54.572,122.241,54.546,122.804,54.525z"/>
		<path class="st6" d="M111.323,55.275c-1.018,0.094-2.032,0.203-3.046,0.312C109.29,55.477,110.305,55.37,111.323,55.275z"/>
		<path class="st6" d="M128,28c1.999,0.027,3.989,0.093,5.974,0.176C131.989,28.092,129.999,28.027,128,28z"/>
		<path class="st6" d="M142.164,28.673c1.687,0.136,3.366,0.296,5.04,0.471C145.53,28.967,143.85,28.81,142.164,28.673z"/>
		<path class="st6" d="M150.636,29.543c0.622,0.076,1.243,0.154,1.864,0.234C151.88,29.696,151.258,29.619,150.636,29.543z"/>
		<path class="st6" d="M122.027,28.176c1.985-0.082,3.974-0.149,5.973-0.176C126.001,28.027,124.012,28.092,122.027,28.176z"/>
		<path class="st6" d="M135.921,28.269c1.368,0.069,2.731,0.156,4.091,0.251C138.652,28.424,137.288,28.339,135.921,28.269z"/>
		<path class="st6" d="M160.668,57.386c-3.76-0.643-7.555-1.186-11.383-1.625C153.112,56.203,156.908,56.743,160.668,57.386z"/>
		<path class="st6" d="M103.527,29.774c0.614-0.08,1.229-0.157,1.844-0.232C104.756,29.617,104.141,29.693,103.527,29.774z"/>
		<path class="st6" d="M108.81,29.143c1.671-0.175,3.347-0.335,5.03-0.471C112.157,28.809,110.481,28.966,108.81,29.143z"/>
		<path class="st6" d="M147.73,55.588c-1.011-0.108-2.022-0.217-3.037-0.311C145.708,55.371,146.719,55.478,147.73,55.588z"/>
		<path class="st6" d="M115.992,28.52c1.36-0.095,2.723-0.182,4.091-0.251C118.715,28.339,117.352,28.424,115.992,28.52z"/>
		<path class="st6" d="M138.459,54.795c0.623,0.039,1.246,0.073,1.867,0.118c1.46,0.106,2.915,0.227,4.366,0.363
			c1.015,0.094,2.026,0.203,3.037,0.311c0.519,0.056,1.037,0.113,1.555,0.173c3.828,0.44,7.623,0.982,11.383,1.625
			c0.001,0,0.002,0,0.002,0l4.88-25.485c-4.303-0.842-8.656-1.547-13.051-2.124c-0.62-0.081-1.242-0.159-1.864-0.234
			c-1.142-0.14-2.284-0.277-3.432-0.399c-1.675-0.175-3.354-0.336-5.04-0.471c-0.715-0.058-1.434-0.101-2.152-0.152
			c-1.36-0.096-2.723-0.182-4.091-0.251c-0.648-0.033-1.297-0.066-1.947-0.093c-1.985-0.083-3.975-0.149-5.974-0.176
			c-1.999,0.027-3.988,0.093-5.973,0.176c-0.649,0.027-1.297,0.06-1.945,0.093c-1.368,0.069-2.73,0.156-4.091,0.251
			c-0.717,0.051-1.437,0.094-2.152,0.152c-1.683,0.135-3.358,0.296-5.03,0.471c-1.15,0.121-2.295,0.259-3.439,0.399
			c-0.616,0.075-1.23,0.152-1.844,0.232c-4.387,0.576-8.733,1.279-13.028,2.118c-0.001,0-0.002,0-0.003,0.001l4.88,25.486
			c0.002,0,0.003,0,0.005-0.001c3.754-0.641,7.542-1.182,11.363-1.62c0.51-0.059,1.021-0.115,1.532-0.17
			c1.014-0.109,2.028-0.218,3.046-0.312c1.447-0.135,2.899-0.257,4.355-0.362c0.62-0.044,1.242-0.078,1.863-0.117
			c1.189-0.076,2.381-0.142,3.576-0.198c0.562-0.026,1.124-0.052,1.688-0.073c1.727-0.066,3.458-0.119,5.196-0.142
			c1.739,0.023,3.471,0.076,5.199,0.142c0.564,0.021,1.127,0.047,1.691,0.073C136.082,54.654,137.272,54.72,138.459,54.795z"/>
	</g>
	<g>
		<path class="st7" d="M128,231c-1.071,0-2.062-0.571-2.598-1.499l-100-172.988c-0.399-0.692-0.507-1.515-0.298-2.287
			s0.718-1.428,1.412-1.823C57.197,34.958,92.275,25.481,127.96,25c0.025-0.001,0.055-0.001,0.08,0
			c35.685,0.481,70.763,9.957,101.443,27.404c0.694,0.395,1.203,1.051,1.412,1.823s0.102,1.595-0.298,2.287l-100,172.988
			C130.062,230.429,129.071,231,128,231z M32.121,56.146L128,222.006l95.879-165.859C194.722,40.145,161.644,31.46,128,31
			C94.356,31.46,61.278,40.145,32.121,56.146z"/>
	</g>
	<g>
		<path class="st7" d="M216.305,78.242c-0.441,0-0.889-0.098-1.311-0.303C187.817,64.716,158.55,57.8,128,57.383
			C97.45,57.8,68.183,64.716,41.006,77.939c-1.417,0.688-3.122,0.166-3.91-1.196L25.402,56.514
			c-0.399-0.692-0.507-1.515-0.298-2.287s0.718-1.428,1.412-1.823C57.197,34.958,92.275,25.481,127.96,25
			c35.765,0.481,70.843,9.957,101.523,27.404c0.694,0.395,1.203,1.051,1.412,1.823s0.102,1.595-0.298,2.287l-11.693,20.229
			C218.351,77.699,217.345,78.242,216.305,78.242z M128,51.382c0.014,0,0.027,0,0.04,0c30.511,0.412,59.785,7.124,87.058,19.955
			l8.781-15.191C194.711,40.139,161.616,31.454,127.96,31c-33.578,0.454-66.671,9.139-95.839,25.147l8.781,15.191
			c27.272-12.831,56.547-19.543,87.058-19.955C127.973,51.382,127.986,51.382,128,51.382z"/>
	</g>
	<g>
		<path class="st5" d="M125.344,90.344c0-10.355,2.798-18.75,6.25-18.75c-10.355,0-18.75,8.395-18.75,18.75
			c0,10.355,8.395,18.75,18.75,18.75C128.142,109.094,125.344,100.7,125.344,90.344z"/>
		<path class="st4" d="M131.594,71.594c3.452,0,6.25,8.395,6.25,18.75c0,10.355-2.798,18.75-6.25,18.75
			c10.355,0,18.75-8.395,18.75-18.75C150.344,79.989,141.949,71.594,131.594,71.594z"/>
		<ellipse class="st6" cx="131.594" cy="90.344" rx="6.25" ry="18.75"/>
	</g>
	<g>
		<path class="st7" d="M131.594,112.094c-11.993,0-21.75-9.757-21.75-21.75s9.757-21.75,21.75-21.75s21.75,9.757,21.75,21.75
			S143.587,112.094,131.594,112.094z M131.594,74.594c-8.685,0-15.75,7.065-15.75,15.75s7.065,15.75,15.75,15.75
			s15.75-7.065,15.75-15.75S140.278,74.594,131.594,74.594z"/>
	</g>
	<g>
		<path class="st5" d="M96.174,146.75c0-10.355,2.798-18.75,6.25-18.75c-10.355,0-18.75,8.395-18.75,18.75
			c0,10.355,8.395,18.75,18.75,18.75C98.972,165.5,96.174,157.105,96.174,146.75z"/>
		<path class="st4" d="M102.424,128c3.452,0,6.25,8.395,6.25,18.75c0,10.355-2.798,18.75-6.25,18.75
			c10.355,0,18.75-8.395,18.75-18.75C121.174,136.395,112.779,128,102.424,128z"/>
		<ellipse class="st6" cx="102.424" cy="146.75" rx="6.25" ry="18.75"/>
	</g>
	<g>
		<path class="st7" d="M102.424,168.5c-11.993,0-21.75-9.757-21.75-21.75S90.431,125,102.424,125s21.75,9.757,21.75,21.75
			S114.417,168.5,102.424,168.5z M102.424,131c-8.685,0-15.75,7.065-15.75,15.75s7.065,15.75,15.75,15.75s15.75-7.065,15.75-15.75
			S111.108,131,102.424,131z"/>
	</g>
	<g>
		<path class="st5" d="M155.625,168.463c0,3.7,0.363,7.162,0.975,10.062l-3.7,6.4c-5.825-3.175-9.775-9.35-9.775-16.462
			c0-10.35,8.4-18.75,18.75-18.75C158.425,149.713,155.625,158.113,155.625,168.463z"/>
		<path class="st4" d="M171.662,152.475l-4.237,7.325c-1.05-6-3.138-10.088-5.55-10.088
			C165.462,149.713,168.813,150.725,171.662,152.475z"/>
		<path class="st6" d="M167.425,159.8L156.6,178.525c-0.612-2.9-0.975-6.363-0.975-10.062c0-10.35,2.8-18.75,6.25-18.75
			C164.288,149.713,166.375,153.8,167.425,159.8z"/>
	</g>
	<g>
		<path class="st7" d="M152.897,187.926c-0.485,0-0.978-0.118-1.433-0.366c-6.995-3.812-11.34-11.129-11.34-19.097
			c0-11.993,9.757-21.75,21.75-21.75c4.014,0,7.941,1.108,11.356,3.206c1.386,0.851,1.842,2.651,1.027,4.059l-18.761,32.45
			C154.943,187.386,153.936,187.926,152.897,187.926z M161.875,152.713c-8.685,0-15.75,7.065-15.75,15.75
			c0,4.779,2.159,9.235,5.778,12.192l15.562-26.916C165.688,153.063,163.796,152.713,161.875,152.713z"/>
	</g>
</g>
</svg>
