<?xml version="1.0" encoding="utf-8"?>
<!-- Generator: Adobe Illustrator 23.0.1, SVG Export Plug-In . SVG Version: 6.00 Build 0)  -->
<svg version="1.1" id="Layer_1" xmlns="http://www.w3.org/2000/svg" xmlns:xlink="http://www.w3.org/1999/xlink" x="0px" y="0px"
	 viewBox="0 0 256 256" style="enable-background:new 0 0 256 256;" xml:space="preserve">
<style type="text/css">
	.st0{fill:#EDE27E;}
	.st1{fill:#FFECA7;}
	.st2{fill:#D3BA2A;}
	.st3{fill:#EEE045;}
	.st4{fill:#E8383B;}
	.st5{fill:#EF7F72;}
	.st6{fill:#E95947;}
	.st7{fill:#1C2D6B;}
	.st8{fill:#6287C5;}
	.st9{fill:#65BC49;}
	.st10{fill:#4B67B0;}
	.st11{fill:#89AADB;}
	.st12{fill:#419B46;}
	.st13{fill:#A4D4A0;}
	.st14{fill:#FF00FF;}
	.st15{fill:#FFFFFF;}
</style>
<g>
	<g>
		<g>
			<path class="st12" d="M114.704,135.617h-5.3c-1.2-6.71-5.19-19.5-18.48-32.79c-7.81-7.81-16.23-12.05-18.81-9.48
				c-9.38-9.37-19.34-15.3-24.92-15.3c-1.38,0-2.49,0.36-3.26,1.13c11.71-11.71,30.67-11.72,42.39-0.04
				c7.81-7.81,20.48-7.81,28.29,0C133.314,97.837,115.904,133.247,114.704,135.617z"/>
			<path class="st13" d="M38.044,135.617c0.02-5.09,1.97-10.17,5.86-14.05c-11.68-11.72-11.67-30.69,0.03-42.39
				c-3.86,3.86,2.49,16.47,14.18,28.17c-0.51,0.51-0.76,1.25-0.76,2.18c0,3.72,3.97,10.37,10.23,16.63c3.9,3.9,7.76,7,11.43,9.46
				H38.044z"/>
			<path class="st9" d="M109.404,135.617h-30.39c-3.67-2.46-7.53-5.56-11.43-9.46c-6.26-6.26-10.23-12.91-10.23-16.63
				c0-0.93,0.25-1.67,0.76-2.18c-11.69-11.7-18.04-24.31-14.18-28.17c0.77-0.77,1.88-1.13,3.26-1.13c5.58,0,15.54,5.93,24.92,15.3
				c2.58-2.57,11,1.67,18.81,9.48C104.214,116.117,108.204,128.907,109.404,135.617z"/>
		</g>
		<g>
			<path class="st7" d="M114.703,138.617H38.044c-0.798,0-1.562-0.318-2.125-0.883c-0.563-0.565-0.878-1.331-0.875-2.129
				c0.02-5.139,1.717-10.017,4.828-14.003c-10.881-12.952-10.23-32.375,1.94-44.546C53.986,64.881,73.41,64.227,86.36,75.107
				c4.018-3.131,8.932-4.828,14.108-4.828c6.146,0,11.922,2.392,16.266,6.736c8.431,8.431,11.312,21.239,8.335,37.041
				c-2.257,11.969-7.141,21.831-7.689,22.916C116.869,137.981,115.834,138.617,114.703,138.617z M41.32,132.617h71.492
				c3.328-7.247,15.055-35.983-0.32-51.359c-3.211-3.21-7.48-4.979-12.023-4.979s-8.813,1.768-12.024,4.979
				c-1.171,1.17-3.066,1.171-4.239,0.003c-10.526-10.491-27.64-10.472-38.15,0.036c-10.507,10.508-10.52,27.622-0.026,38.151
				c1.169,1.173,1.166,3.072-0.006,4.242C43.552,126.155,41.934,129.251,41.32,132.617z"/>
		</g>
		<g>
			
				<rect x="79.763" y="93.094" transform="matrix(0.7072 -0.707 0.707 0.7072 -59.1956 93.066)" class="st7" width="6.001" height="49.816"/>
		</g>
	</g>
	<g>
		<g>
			<path class="st12" d="M141.296,135.617h5.3c1.2-6.71,5.19-19.5,18.48-32.79c7.81-7.81,16.23-12.05,18.81-9.48
				c9.38-9.37,19.34-15.3,24.92-15.3c1.38,0,2.49,0.36,3.26,1.13c-11.71-11.71-30.67-11.72-42.39-0.04
				c-7.81-7.81-20.48-7.81-28.29,0C122.686,97.837,140.096,133.247,141.296,135.617z"/>
			<path class="st13" d="M217.956,135.617c-0.02-5.09-1.97-10.17-5.86-14.05c11.68-11.72,11.67-30.69-0.03-42.39
				c3.86,3.86-2.49,16.47-14.18,28.17c0.51,0.51,0.76,1.25,0.76,2.18c0,3.72-3.97,10.37-10.23,16.63c-3.9,3.9-7.76,7-11.43,9.46
				H217.956z"/>
			<path class="st9" d="M146.596,135.617h30.39c3.67-2.46,7.53-5.56,11.43-9.46c6.26-6.26,10.23-12.91,10.23-16.63
				c0-0.93-0.25-1.67-0.76-2.18c11.69-11.7,18.04-24.31,14.18-28.17c-0.77-0.77-1.88-1.13-3.26-1.13c-5.58,0-15.54,5.93-24.92,15.3
				c-2.58-2.57-11,1.67-18.81,9.48C151.786,116.117,147.796,128.907,146.596,135.617z"/>
		</g>
		<g>
			<path class="st7" d="M217.956,138.617h-76.659c-1.131,0-2.166-0.636-2.677-1.645c-0.549-1.085-5.433-10.947-7.689-22.916
				c-2.978-15.801-0.096-28.61,8.335-37.041c4.344-4.344,10.12-6.736,16.266-6.736c5.177,0,10.091,1.697,14.108,4.828
				c12.95-10.879,32.374-10.226,44.548,1.949c12.171,12.171,12.821,31.595,1.94,44.546c3.111,3.986,4.809,8.864,4.828,14.003
				c0.003,0.798-0.312,1.564-0.875,2.129C219.519,138.299,218.754,138.617,217.956,138.617z M143.188,132.617h71.492
				c-0.613-3.366-2.231-6.461-4.702-8.926c-1.172-1.17-1.175-3.068-0.006-4.242c10.493-10.529,10.48-27.644-0.026-38.151
				c-10.51-10.509-27.625-10.527-38.15-0.036c-1.173,1.168-3.068,1.166-4.239-0.003c-3.211-3.211-7.481-4.979-12.024-4.979
				s-8.812,1.768-12.023,4.979C128.133,96.633,139.859,125.37,143.188,132.617z"/>
		</g>
		<g>
			
				<rect x="148.328" y="115.001" transform="matrix(0.7069 -0.7073 0.7073 0.7069 -32.6911 157.1059)" class="st7" width="49.816" height="6.001"/>
		</g>
	</g>
	<g>
		<path class="st4" d="M128,99.614c6.627,0,12,16.118,12,36c0,19.882-5.373,36-12,36c19.882,0,36-16.118,36-36
			C164,115.732,147.882,99.614,128,99.614z"/>
		<path class="st5" d="M116,135.614c0-19.882,5.373-36,12-36c-19.882,0-36,16.118-36,36c0,19.882,16.118,36,36,36
			C121.373,171.614,116,155.497,116,135.614z"/>
		<ellipse class="st6" cx="128" cy="135.614" rx="12" ry="36"/>
	</g>
	<g>
		<path class="st7" d="M128,174.614c-21.505,0-39-17.495-39-39s17.495-39,39-39s39,17.495,39,39S149.505,174.614,128,174.614z
			 M128,102.614c-18.196,0-33,14.804-33,33s14.804,33,33,33s33-14.804,33-33S146.196,102.614,128,102.614z"/>
	</g>
	<g>
		<polygon class="st11" points="38,135.614 54,185.614 103.333,185.614 98,135.614 		"/>
		<polygon class="st10" points="158,135.614 152.667,185.614 202,185.614 218,135.614 		"/>
		<polygon class="st8" points="98,135.614 103.333,185.614 152.667,185.614 158,135.614 		"/>
	</g>
	<g>
		<path class="st7" d="M202,188.614H54c-1.305,0-2.46-0.843-2.857-2.085l-16-50c-0.292-0.913-0.131-1.91,0.435-2.683
			c0.564-0.774,1.465-1.231,2.423-1.231h180c0.958,0,1.858,0.458,2.423,1.231c0.565,0.773,0.727,1.771,0.435,2.683l-16,50
			C204.46,187.771,203.305,188.614,202,188.614z M56.189,182.614h143.621l14.08-44H42.109L56.189,182.614z"/>
	</g>
</g>
</svg>
