<?xml version="1.0" encoding="utf-8"?>
<!-- Generator: Adobe Illustrator 23.0.1, SVG Export Plug-In . SVG Version: 6.00 Build 0)  -->
<svg version="1.1" id="Layer_1" xmlns="http://www.w3.org/2000/svg" xmlns:xlink="http://www.w3.org/1999/xlink" x="0px" y="0px"
	 viewBox="0 0 256 256" style="enable-background:new 0 0 256 256;" xml:space="preserve">
<style type="text/css">
	.st0{fill:#EDE27E;}
	.st1{fill:#FFECA7;}
	.st2{fill:#D3BA2A;}
	.st3{fill:#EEE045;}
	.st4{fill:#E8383B;}
	.st5{fill:#EF7F72;}
	.st6{fill:#E95947;}
	.st7{fill:#1C2D6B;}
	.st8{fill:#6287C5;}
	.st9{fill:#65BC49;}
	.st10{fill:#4B67B0;}
	.st11{fill:#89AADB;}
	.st12{fill:#419B46;}
	.st13{fill:#A4D4A0;}
	.st14{fill:#FF00FF;}
	.st15{fill:#FFFFFF;}
</style>
<g>
	<g>
		<rect x="158.125" y="92.5" class="st2" width="60" height="36"/>
		<rect x="38.125" y="92.5" class="st1" width="60" height="36"/>
		<rect x="98.125" y="92.5" class="st3" width="60" height="36"/>
	</g>
	<g>
		<rect x="158.125" y="169.5" class="st2" width="60" height="36"/>
		<rect x="38.125" y="169.5" class="st1" width="60" height="36"/>
		<rect x="98.125" y="169.5" class="st3" width="60" height="36"/>
	</g>
	<g>
		<path class="st7" d="M218.125,131.5h-180c-1.657,0-3-1.343-3-3v-36c0-1.657,1.343-3,3-3h180c1.657,0,3,1.343,3,3v36
			C221.125,130.157,219.782,131.5,218.125,131.5z M41.125,125.5h174v-30h-174V125.5z"/>
	</g>
	<g>
		<path class="st7" d="M218.125,208.5h-180c-1.657,0-3-1.343-3-3v-36c0-1.657,1.343-3,3-3h180c1.657,0,3,1.343,3,3v36
			C221.125,207.157,219.782,208.5,218.125,208.5z M41.125,202.5h174v-30h-174V202.5z"/>
	</g>
	<g>
		<rect x="54.875" y="159" class="st5" width="49" height="10.5"/>
		<rect x="151.875" y="159" class="st4" width="49" height="10.5"/>
		<rect x="103.875" y="159" class="st6" width="48" height="10.5"/>
	</g>
	<g>
		<path class="st7" d="M200.875,172.5h-146c-1.657,0-3-1.343-3-3V159c0-1.657,1.343-3,3-3h146c1.657,0,3,1.343,3,3v10.5
			C203.875,171.157,202.532,172.5,200.875,172.5z M57.875,166.5h140V162h-140V166.5z"/>
	</g>
	<g>
		<rect x="37.875" y="148.5" class="st13" width="60" height="10.5"/>
		<rect x="157.875" y="148.5" class="st12" width="60" height="10.5"/>
		<rect x="97.875" y="148.5" class="st9" width="60" height="10.5"/>
	</g>
	<g>
		<path class="st7" d="M217.875,162h-180c-1.657,0-3-1.343-3-3v-10.5c0-1.657,1.343-3,3-3h180c1.657,0,3,1.343,3,3V159
			C220.875,160.657,219.532,162,217.875,162z M40.875,156h174v-4.5h-174V156z"/>
	</g>
	<g>
		<path class="st5" d="M101.375,142.745v-8.489c0-3.179,2.577-5.755,5.755-5.755H57.875c-5.523,0-10,4.477-10,10
			c0,5.523,4.477,10,10,10h49.255C103.952,148.5,101.375,145.923,101.375,142.745z"/>
		<path class="st4" d="M197.875,128.5H148.62c3.179,0,5.755,2.577,5.755,5.755v8.489c0,3.179-2.577,5.755-5.755,5.755h49.255
			c5.523,0,10-4.477,10-10C207.875,132.977,203.398,128.5,197.875,128.5z"/>
		<path class="st6" d="M154.375,142.745v-8.489c0-3.179-2.577-5.755-5.755-5.755H107.13c-3.179,0-5.755,2.577-5.755,5.755v8.489
			c0,3.179,2.577,5.755,5.755,5.755h41.489C151.798,148.5,154.375,145.923,154.375,142.745z"/>
	</g>
	<g>
		<path class="st7" d="M197.875,151.5h-140c-7.168,0-13-5.832-13-13s5.832-13,13-13h140c7.168,0,13,5.832,13,13
			S205.043,151.5,197.875,151.5z M57.875,131.5c-3.86,0-7,3.14-7,7s3.14,7,7,7h140c3.86,0,7-3.14,7-7s-3.14-7-7-7H57.875z"/>
	</g>
	<g>
		<g>
			<polygon class="st11" points="63.125,128.5 93.125,146.5 83.375,128.5 			"/>
			<polygon class="st10" points="102.875,128.5 93.125,146.5 123.125,128.5 			"/>
			<polygon class="st8" points="83.375,128.5 93.125,146.5 102.875,128.5 			"/>
		</g>
		<g>
			<path class="st7" d="M93.125,149.5c-0.534,0-1.068-0.143-1.543-0.428l-30-18c-1.156-0.693-1.708-2.074-1.348-3.373
				s1.542-2.199,2.891-2.199h60c1.349,0,2.531,0.9,2.891,2.199s-0.191,2.68-1.348,3.373l-30,18
				C94.193,149.357,93.659,149.5,93.125,149.5z M73.956,131.5l19.169,11.501l19.169-11.501H73.956z"/>
		</g>
	</g>
	<g>
		<g>
			<polygon class="st11" points="133.125,128.5 163.125,146.5 153.375,128.5 			"/>
			<polygon class="st10" points="172.875,128.5 163.125,146.5 193.125,128.5 			"/>
			<polygon class="st8" points="153.375,128.5 163.125,146.5 172.875,128.5 			"/>
		</g>
		<g>
			<path class="st7" d="M163.125,149.5c-0.534,0-1.068-0.143-1.543-0.428l-30-18c-1.156-0.693-1.708-2.074-1.348-3.373
				s1.542-2.199,2.891-2.199h60c1.349,0,2.531,0.9,2.891,2.199s-0.191,2.68-1.348,3.373l-30,18
				C164.193,149.357,163.659,149.5,163.125,149.5z M143.956,131.5l19.169,11.501l19.169-11.501H143.956z"/>
		</g>
	</g>
	<g>
		<rect x="124.875" y="50.5" class="st7" width="6" height="42"/>
	</g>
	<g>
		<g>
			<path class="st13" d="M128.125,75.818c10.459,0,18.937,2.015,18.937,4.5c0-6.707-8.479-12.145-18.937-12.145
				s-18.937,5.437-18.937,12.145C109.188,77.833,117.666,75.818,128.125,75.818z"/>
			<path class="st12" d="M147.062,80.318c0,2.485-8.479,4.5-18.937,4.5s-18.937-2.015-18.937-4.5
				c0,6.707,8.479,12.144,18.937,12.144S147.062,87.026,147.062,80.318z"/>
			<ellipse class="st9" cx="128.125" cy="80.318" rx="18.937" ry="4.5"/>
		</g>
		<g>
			<path class="st7" d="M128.125,95.463c-12.301,0-21.938-6.652-21.938-15.145s9.636-15.145,21.938-15.145
				s21.938,6.652,21.938,15.145S140.426,95.463,128.125,95.463z M128.125,71.174c-8.639,0-15.938,4.188-15.938,9.145
				s7.298,9.145,15.938,9.145s15.938-4.188,15.938-9.145S136.764,71.174,128.125,71.174z"/>
		</g>
	</g>
</g>
</svg>
