<?xml version="1.0" encoding="utf-8"?>
<!-- Generator: Adobe Illustrator 23.0.1, SVG Export Plug-In . SVG Version: 6.00 Build 0)  -->
<svg version="1.1" id="Layer_1" xmlns="http://www.w3.org/2000/svg" xmlns:xlink="http://www.w3.org/1999/xlink" x="0px" y="0px"
	 viewBox="0 0 256 256" style="enable-background:new 0 0 256 256;" xml:space="preserve">
<style type="text/css">
	.st0{fill:#EDE27E;}
	.st1{fill:#FFECA7;}
	.st2{fill:#D3BA2A;}
	.st3{fill:#EEE045;}
	.st4{fill:#E8383B;}
	.st5{fill:#EF7F72;}
	.st6{fill:#E95947;}
	.st7{fill:#1C2D6B;}
	.st8{fill:#6287C5;}
	.st9{fill:#65BC49;}
	.st10{fill:#4B67B0;}
	.st11{fill:#89AADB;}
	.st12{fill:#419B46;}
	.st13{fill:#A4D4A0;}
	.st14{fill:#FF00FF;}
	.st15{fill:#FFFFFF;}
</style>
<g>
	<path class="st3" d="M156.411,142.532l-7.071-7.071l56.353-56.353c1.953-1.953,5.118-1.953,7.071,0v0
		c1.953,1.953,1.953,5.118,0,7.071L156.411,142.532z"/>
	<g>
		<path class="st7" d="M156.411,145.532c-0.768,0-1.536-0.293-2.121-0.878l-7.071-7.071c-0.563-0.563-0.879-1.326-0.879-2.122
			c0-0.795,0.316-1.559,0.879-2.121l56.353-56.353c3.119-3.12,8.194-3.12,11.313,0c3.119,3.119,3.119,8.194,0,11.313l-56.353,56.353
			C157.946,145.239,157.178,145.532,156.411,145.532z M153.582,135.461l2.829,2.828l54.232-54.231c0.779-0.78,0.779-2.049,0-2.829
			c-0.78-0.779-2.049-0.779-2.829,0L153.582,135.461z"/>
	</g>
	<g>
		<rect x="88" y="199.045" class="st11" width="27" height="15"/>
		<rect x="141" y="199.045" class="st10" width="27" height="15"/>
		<rect x="115" y="199.045" class="st8" width="26" height="15"/>
	</g>
	<g>
		<path class="st7" d="M168,217.045H88c-1.657,0-3-1.343-3-3v-15c0-1.657,1.343-3,3-3h80c1.657,0,3,1.343,3,3v15
			C171,215.702,169.657,217.045,168,217.045z M91,211.045h74v-9H91V211.045z"/>
	</g>
	<g>
		<path class="st10" d="M158,118.371c0,35.365-6.8,65.96-16.691,80.674h26.618C197.599,184.332,218,153.736,218,118.371H158z"/>
		<path class="st11" d="M38,118.371c0,35.365,20.401,65.96,50.074,80.674h26.618C104.8,184.332,98,153.736,98,118.371H38z"/>
		<path class="st8" d="M98,118.371c0,35.365,6.8,65.96,16.691,80.674h26.618C151.2,184.332,158,153.736,158,118.371H98z"/>
	</g>
	<g>
		<path class="st7" d="M167.926,202.045H88.074c-0.462,0-0.918-0.107-1.333-0.312C54.826,185.907,35,153.965,35,118.371
			c0-1.657,1.343-3,3-3h180c1.657,0,3,1.343,3,3c0,35.594-19.826,67.536-51.741,83.362
			C168.845,201.938,168.389,202.045,167.926,202.045z M88.783,196.045h78.435c28.598-14.458,46.662-42.82,47.732-74.674H41.05
			C42.121,153.225,60.185,181.587,88.783,196.045z"/>
	</g>
	<g>
		<path class="st7" d="M127.727,105.413c-0.768,0-1.536-0.293-2.121-0.879c-1.172-1.171-1.172-3.071,0-4.242
			c4.386-4.387,4.386-11.524,0-15.911c-3.258-3.258-5.053-7.59-5.053-12.197s1.794-8.939,5.053-12.197
			c4.386-4.387,4.386-11.524,0-15.911c-1.172-1.171-1.172-3.071,0-4.242c1.171-1.172,3.071-1.172,4.242,0
			c3.258,3.258,5.053,7.59,5.053,12.198c0,4.607-1.794,8.939-5.053,12.197c-4.386,4.387-4.386,11.523,0,15.91
			c3.258,3.258,5.053,7.59,5.053,12.197c0,4.608-1.794,8.94-5.053,12.198C129.263,105.12,128.495,105.413,127.727,105.413z"/>
	</g>
	<g>
		<path class="st7" d="M147.138,105.413c-0.768,0-1.536-0.293-2.121-0.878c-1.172-1.172-1.172-3.071,0-4.243
			c4.387-4.387,4.387-11.524,0-15.911c-3.258-3.258-5.053-7.589-5.053-12.197c0-4.607,1.794-8.939,5.053-12.197
			c1.171-1.172,3.071-1.172,4.242,0c1.172,1.171,1.172,3.071,0,4.242c-4.386,4.387-4.386,11.523,0,15.91
			c6.726,6.725,6.727,17.669,0.001,24.395C148.674,105.12,147.906,105.413,147.138,105.413z"/>
	</g>
	<g>
		<path class="st7" d="M108.862,105.413c-0.768,0-1.536-0.293-2.121-0.878c-1.172-1.172-1.172-3.071,0-4.243
			c4.387-4.387,4.387-11.524,0-15.911c-3.258-3.258-5.053-7.589-5.053-12.197c0-4.607,1.794-8.939,5.053-12.197
			c1.171-1.172,3.071-1.172,4.242,0c1.172,1.171,1.172,3.071,0,4.242c-4.386,4.387-4.386,11.523,0,15.91
			c6.726,6.725,6.727,17.669,0.001,24.395C110.398,105.12,109.63,105.413,108.862,105.413z"/>
	</g>
</g>
</svg>
