<?xml version="1.0" encoding="utf-8"?>
<!-- Generator: Adobe Illustrator 23.0.1, SVG Export Plug-In . SVG Version: 6.00 Build 0)  -->
<svg version="1.1" id="Layer_1" xmlns="http://www.w3.org/2000/svg" xmlns:xlink="http://www.w3.org/1999/xlink" x="0px" y="0px"
	 viewBox="0 0 256 256" style="enable-background:new 0 0 256 256;" xml:space="preserve">
<style type="text/css">
	.st0{fill:#EDE27E;}
	.st1{fill:#FFECA7;}
	.st2{fill:#D3BA2A;}
	.st3{fill:#EEE045;}
	.st4{fill:#E8383B;}
	.st5{fill:#EF7F72;}
	.st6{fill:#E95947;}
	.st7{fill:#1C2D6B;}
	.st8{fill:#6287C5;}
	.st9{fill:#65BC49;}
	.st10{fill:#4B67B0;}
	.st11{fill:#89AADB;}
	.st12{fill:#419B46;}
	.st13{fill:#A4D4A0;}
	.st14{fill:#FF00FF;}
	.st15{fill:#FFFFFF;}
</style>
<g>
	<g>
		<path class="st1" d="M104.77,186.501H56c-8.29,0-15-6.72-15-15v-42c0-8.29,6.71-15,15-15h48.77c-3.19,0-5.77,2.58-5.77,5.77v60.45
			C99,183.911,101.58,186.501,104.77,186.501z"/>
		<path class="st2" d="M215,129.501v42c0,8.28-6.72,15-15,15h-48.78c3.19,0,5.78-2.59,5.78-5.78v-60.45c0-3.19-2.59-5.77-5.78-5.77
			H200C208.28,114.501,215,121.211,215,129.501z"/>
		<path class="st3" d="M156.996,180.725v-60.453c0-3.189-2.585-5.773-5.773-5.773h-46.453c-3.189,0-5.773,2.585-5.773,5.773v60.453
			c0,3.189,2.585,5.773,5.773,5.773h46.453C154.411,186.499,156.996,183.914,156.996,180.725z"/>
	</g>
	<g>
		<path class="st7" d="M200,189.501H56c-9.925,0-18-8.075-18-18v-42c0-9.925,8.075-18,18-18h144c9.925,0,18,8.075,18,18v42
			C218,181.426,209.925,189.501,200,189.501z M56,117.501c-6.617,0-12,5.383-12,12v42c0,6.617,5.383,12,12,12h144
			c6.617,0,12-5.383,12-12v-42c0-6.617-5.383-12-12-12H56z"/>
	</g>
	<g>
		<path class="st5" d="M96,110.299V82.422c0-7.137,5.786-12.923,12.923-12.923H53.5c-12.426,0-22.5,10.074-22.5,22.5v15.187
			c0,4.039,3.274,7.313,7.313,7.313H100.2C97.881,114.499,96,112.618,96,110.299z"/>
		<path class="st4" d="M202.5,69.499h-55.423c7.137,0,12.923,5.786,12.923,12.923v27.877c0,2.32-1.88,4.2-4.2,4.2h61.887
			c4.039,0,7.313-3.274,7.313-7.313V91.999C225,79.572,214.926,69.499,202.5,69.499z"/>
		<path class="st6" d="M160,110.299V82.422c0-7.137-5.786-12.923-12.923-12.923h-38.154C101.786,69.499,96,75.285,96,82.422v27.877
			c0,2.32,1.88,4.2,4.2,4.2h55.6C158.12,114.499,160,112.618,160,110.299z"/>
	</g>
	<g>
		<path class="st7" d="M217.688,117.499H38.312c-5.687,0-10.312-4.626-10.312-10.313V91.999c0-14.061,11.439-25.5,25.5-25.5h149
			c14.061,0,25.5,11.439,25.5,25.5v15.187C228,112.873,223.374,117.499,217.688,117.499z M53.5,72.499
			c-10.752,0-19.5,8.748-19.5,19.5v15.187c0,2.378,1.935,4.313,4.312,4.313h179.375c2.378,0,4.312-1.935,4.312-4.313V91.999
			c0-10.752-8.748-19.5-19.5-19.5H53.5z"/>
	</g>
	<g>
		<rect x="113" y="69.499" class="st13" width="10" height="117.002"/>
		<rect x="133" y="69.499" class="st12" width="10" height="117.002"/>
		<rect x="123" y="69.499" class="st9" width="10" height="117.002"/>
	</g>
	<g>
		<path class="st7" d="M143,189.501h-30c-1.657,0-3-1.343-3-3V69.499c0-1.657,1.343-3,3-3h30c1.657,0,3,1.343,3,3v117.002
			C146,188.158,144.657,189.501,143,189.501z M116,183.501h24V72.499h-24V183.501z"/>
	</g>
</g>
</svg>
