<?xml version="1.0" encoding="utf-8"?>
<!-- Generator: Adobe Illustrator 23.0.1, SVG Export Plug-In . SVG Version: 6.00 Build 0)  -->
<svg version="1.1" id="Layer_1" xmlns="http://www.w3.org/2000/svg" xmlns:xlink="http://www.w3.org/1999/xlink" x="0px" y="0px"
	 viewBox="0 0 256 256" style="enable-background:new 0 0 256 256;" xml:space="preserve">
<style type="text/css">
	.st0{fill:#EDE27E;}
	.st1{fill:#FFECA7;}
	.st2{fill:#D3BA2A;}
	.st3{fill:#EEE045;}
	.st4{fill:#E8383B;}
	.st5{fill:#EF7F72;}
	.st6{fill:#E95947;}
	.st7{fill:#1C2D6B;}
	.st8{fill:#6287C5;}
	.st9{fill:#65BC49;}
	.st10{fill:#4B67B0;}
	.st11{fill:#89AADB;}
	.st12{fill:#419B46;}
	.st13{fill:#A4D4A0;}
	.st14{fill:#FF00FF;}
	.st15{fill:#FFFFFF;}
</style>
<g>
	<g>
		<g>
			<path class="st4" d="M118.285,113h-11.063c2.052,0,3.655,5.108,3.451,10.995l-3.312,95.498
				c-0.266,7.668-2.504,13.507-5.176,13.507h0.989c8.018,0,14.731-5.839,15.529-13.507l9.936-95.498
				C129.25,118.108,124.44,113,118.285,113z"/>
			<path class="st5" d="M96.019,219.493l-3.312-95.498C92.503,118.108,94.107,113,96.158,113H85.095
				c-6.155,0-10.965,5.108-10.353,10.995l9.936,95.498C85.476,227.161,92.189,233,100.207,233h0.989
				C98.523,233,96.285,227.161,96.019,219.493z"/>
			<path class="st6" d="M107.361,219.493l3.312-95.498c0.204-5.887-1.399-10.995-3.451-10.995H96.158
				c-2.052,0-3.655,5.108-3.451,10.995l3.312,95.498c0.266,7.668,2.504,13.507,5.176,13.507h0.989
				C104.857,233,107.095,227.161,107.361,219.493z"/>
		</g>
		<g>
			<path class="st7" d="M103.173,236h-2.966c-9.593,0-17.552-6.963-18.513-16.197l-9.936-95.498
				c-0.372-3.568,0.811-7.163,3.243-9.861C77.548,111.62,81.227,110,85.095,110h33.19c3.868,0,7.547,1.62,10.093,4.445
				c2.433,2.698,3.615,6.292,3.244,9.861l-9.937,95.498C120.726,229.037,112.767,236,103.173,236z M85.095,116
				c-2.172,0-4.226,0.897-5.636,2.462c-1.316,1.459-1.932,3.314-1.732,5.223l9.937,95.498C88.305,225.349,93.697,230,100.207,230
				h2.966c6.511,0,11.903-4.65,12.544-10.817l9.937-95.498c0.199-1.908-0.416-3.763-1.732-5.223
				c-1.41-1.564-3.464-2.462-5.636-2.462H85.095z"/>
		</g>
		<g>
			<path class="st12" d="M131.69,52.947c0,0-0.001,0-0.001,0C131.66,36.403,118.241,23,101.69,23c5.462,0,9.89,13.403,9.9,29.947
				c0,0,0,0,0,0c3.645,0,6.6,8.954,6.6,20c0,27.384-13.2,40.053-13.2,40.053h6.7c0,0,40-12.668,40-40.053
				C151.69,61.902,142.736,52.947,131.69,52.947z"/>
			<path class="st13" d="M85.19,72.947c0-11.046,2.955-20,6.6-20c0,0,0,0,0,0C91.8,36.403,96.228,23,101.69,23
				c-16.551,0-29.97,13.403-29.999,29.947c0,0-0.001,0-0.001,0c-11.046,0-20,8.954-20,20c0,27.384,40,40.053,40,40.053h6.7
				C98.39,113,85.19,100.332,85.19,72.947z"/>
			<path class="st9" d="M118.19,72.947c0-11.046-2.955-20-6.6-20c0,0,0,0,0,0C111.58,36.403,107.152,23,101.69,23
				s-9.89,13.403-9.9,29.947c0,0,0,0,0,0c-3.645,0-6.6,8.954-6.6,20c0,27.384,13.2,40.053,13.2,40.053h3.3h3.3
				C104.99,113,118.19,100.332,118.19,72.947z"/>
		</g>
		<g>
			<path class="st7" d="M111.69,116h-20c-0.308,0-0.613-0.047-0.906-0.14c-0.424-0.134-10.515-3.37-20.744-10.112
				c-13.967-9.204-21.35-20.546-21.35-32.8c0-11.708,8.794-21.402,20.124-22.821C70.277,33.274,84.475,20,101.69,20
				c17.215,0,31.411,13.275,32.874,30.126c11.331,1.418,20.126,11.112,20.126,22.821c0,12.254-7.383,23.596-21.35,32.8
				c-10.229,6.742-20.32,9.978-20.744,10.112C112.304,115.953,111.998,116,111.69,116z M92.178,110h19.023
				c4.147-1.425,37.489-13.629,37.489-37.053c0-9.374-7.626-17-17-17c-1.654,0-2.997-1.34-3-2.995
				C128.663,38.091,116.551,26,101.69,26c-14.862,0-26.974,12.091-26.999,26.953c-0.003,1.655-1.345,2.995-3,2.995
				c-9.374,0-17.001,7.626-17.001,17C54.69,96.417,88.03,108.58,92.178,110z"/>
		</g>
		<g>
			<rect x="98.69" y="53" class="st7" width="6" height="60"/>
		</g>
		<g>
			<rect x="75.739" y="128.082" class="st7" width="24.515" height="6"/>
		</g>
		<g>
			<rect x="77.989" y="150.082" class="st7" width="20.25" height="6"/>
		</g>
		<g>
			<rect x="80.239" y="172.082" class="st7" width="18" height="6"/>
		</g>
		<g>
			<rect x="82.254" y="194.082" class="st7" width="15.985" height="6"/>
		</g>
		<g>
			<rect x="84.572" y="216.082" class="st7" width="13.667" height="6"/>
		</g>
	</g>
	<g>
		<g>
			<path class="st2" d="M154.31,136c9.111,0,16.5,22.38,16.5,50v8h-8.91c-0.907,0-1.643,2.22-1.65,4.97V233h12.06v-34.03
				c0.02-2.75,2.25-4.97,5-4.97h27v-8C204.31,158.38,181.92,136,154.31,136z"/>
			<path class="st1" d="M146.72,194h-8.91v-8c0-13.81,1.848-26.31,4.831-35.36c2.987-9.05,7.112-14.64,11.669-14.64
				c-13.81,0-26.31,5.59-35.36,14.64c-9.04,9.05-14.64,21.55-14.64,35.36v8h27c2.76,0,5,2.24,5,5v34h12.06v-34
				C148.37,196.24,147.631,194,146.72,194z"/>
			<path class="st3" d="M161.9,194h8.91v-8c0-27.62-7.389-50-16.5-50c-4.557,0-8.682,5.59-11.669,14.64
				c-2.983,9.05-4.831,21.55-4.831,35.36v8h8.91c0.911,0,1.65,2.24,1.65,5v34h11.88v-34.03C160.257,196.22,160.992,194,161.9,194z"
				/>
		</g>
		<g>
			<path class="st7" d="M172.31,236h-36c-1.657,0-3-1.343-3-3v-34c0-1.103-0.897-2-2-2h-27c-1.657,0-3-1.343-3-3v-8
				c0-14.151,5.511-27.462,15.519-37.48C126.836,138.511,140.146,133,154.31,133c29.225,0,53,23.776,53,53v8c0,1.657-1.343,3-3,3
				h-27c-1.095,0-1.992,0.894-2,1.993V233C175.31,234.657,173.967,236,172.31,236z M139.31,230h30v-31.03
				c0.033-4.405,3.621-7.97,8-7.97h24v-5c0-25.916-21.084-47-47-47c-12.561,0-24.364,4.887-33.238,13.761
				c-8.874,8.884-13.762,20.688-13.762,33.239v5h24c4.411,0,8,3.589,8,8V230z"/>
		</g>
		<path class="st8" d="M136.31,163v36c0-2.76-2.24-5-5-5h-9v-17c0-3.87,1.57-7.37,4.1-9.9C128.95,164.57,132.45,163,136.31,163z"/>
		<path class="st8" d="M186.32,177l-0.01,17h-9c-2.75,0-4.98,2.22-5,4.97l0.01-35.97c3.87,0,7.37,1.57,9.9,4.1
			C184.75,169.63,186.32,173.13,186.32,177z"/>
		<g>
			<path class="st7" d="M136.31,202c-1.657,0-3-1.343-3-3c0-1.103-0.897-2-2-2h-9c-1.657,0-3-1.343-3-3v-17
				c0-4.542,1.769-8.811,4.979-12.021c3.225-3.212,7.492-4.979,12.021-4.979c1.657,0,3,1.343,3,3v36
				C139.31,200.657,137.967,202,136.31,202z M125.31,191h6c0.69,0,1.36,0.088,2,0.253v-24.839c-1.786,0.505-3.427,1.461-4.782,2.812
				c-2.073,2.073-3.218,4.835-3.218,7.774V191z"/>
		</g>
		<g>
			<path class="st7" d="M172.31,201.97c-0.004,0-0.008,0-0.012,0c-1.652-0.006-2.989-1.348-2.988-3.001l0.011-35.97
				c0.001-1.656,1.344-2.999,3-2.999c4.542,0,8.812,1.768,12.021,4.979c3.21,3.21,4.979,7.479,4.979,12.021c0,0,0,0.001,0,0.002
				l-0.011,17c-0.001,1.656-1.344,2.998-3,2.998h-9c-1.095,0-1.992,0.894-2,1.993C175.297,200.641,173.957,201.97,172.31,201.97z
				 M175.319,166.411l-0.008,24.843c0.64-0.166,1.31-0.254,1.998-0.254h6.002l0.009-14.001c0-2.938-1.145-5.701-3.222-7.777
				C178.749,167.871,177.108,166.915,175.319,166.411z"/>
		</g>
	</g>
</g>
</svg>
