<?xml version="1.0" encoding="utf-8"?>
<!-- Generator: Adobe Illustrator 24.0.0, SVG Export Plug-In . SVG Version: 6.00 Build 0)  -->
<svg version="1.1" id="Layer_1" xmlns="http://www.w3.org/2000/svg" xmlns:xlink="http://www.w3.org/1999/xlink" x="0px" y="0px"
	 viewBox="0 0 256 256" style="enable-background:new 0 0 256 256;" xml:space="preserve">
<style type="text/css">
	.st0{fill:#FFA91A;}
	.st1{fill:#F79219;}
	.st2{fill:#EF7816;}
	.st3{fill:#F2AD97;}
	.st4{fill:#8C3F0A;}
	.st5{fill:#7C3108;}
	.st6{fill:#E63950;}
	.st7{fill:#E8566F;}
	.st8{fill:#D10028;}
	.st9{fill:#76A34F;}
	.st10{fill:#648940;}
	.st11{fill:#B7022D;}
	.st12{fill:#F1F2F2;}
	.st13{fill:#E6E7E8;}
	.st14{fill:#FFFFFF;}
	.st15{fill:#D1D3D4;}
	.st16{fill:#FFD2C0;}
	.st17{fill:#FFC91D;}
	.st18{fill:#6D2E03;}
	.st19{fill:#995222;}
	.st20{fill:#5A7A39;}
	.st21{fill:#58595B;}
	.st22{fill:#808285;}
	.st23{fill:#FCC4AE;}
	.st24{fill:#91B56B;}
	.st25{fill:#E59076;}
	.st26{fill:#939598;}
	.st27{fill:#414042;}
	.st28{fill:#478CF7;}
	.st29{fill:#5E9CF7;}
	.st30{fill:#377DE2;}
	.st31{fill:#2266D3;}
	.st32{fill:#FFCC34;}
</style>
<g>
	<g>
		<g>
			<g>
				<g>
					<path class="st0" d="M139.503,27.003L139.503,27.003c14.199-5.409,30.248-0.194,38.556,12.528v0
						c4.335,6.638,10.959,11.451,18.611,13.522l0,0c14.667,3.97,24.586,17.622,23.829,32.798l0,0
						c-0.395,7.918,2.135,15.705,7.109,21.879l0,0c9.532,11.832,9.532,28.708,0,40.54l0,0c-4.974,6.174-7.504,13.961-7.109,21.879
						l0,0c0.757,15.176-9.162,28.828-23.829,32.798h0c-7.653,2.071-14.277,6.884-18.611,13.522l0,0
						c-8.308,12.722-24.357,17.937-38.556,12.528l0,0c-7.409-2.822-15.597-2.822-23.005,0l0,0
						c-14.199,5.409-30.248,0.195-38.556-12.528l0,0c-4.335-6.638-10.959-11.451-18.612-13.522h0
						c-14.667-3.97-24.586-17.622-23.829-32.798l0,0c0.395-7.918-2.135-15.705-7.109-21.879l0,0c-9.532-11.833-9.532-28.708,0-40.54
						l0,0c4.974-6.174,7.504-13.961,7.109-21.879l0,0c-0.757-15.176,9.162-28.828,23.829-32.798l0,0
						c7.653-2.071,14.277-6.884,18.612-13.522v0c8.308-12.722,24.357-17.937,38.556-12.528l0,0
						C123.906,29.825,132.094,29.825,139.503,27.003z"/>
				</g>
			</g>
		</g>
	</g>
	<g>
		<path class="st17" d="M82.97,215.19c-0.68,0-1.31-0.34-1.68-0.91c-4.88-7.47-12.31-12.86-20.92-15.19
			c-5.94-1.62-11.3-5.23-15.07-10.18c-3.76-4.93-5.84-11.03-5.84-17.17c0-0.48,0.01-0.95,0.04-1.39c0.03-0.61,0.04-1.22,0.04-1.82
			c0-8.25-2.85-16.34-8.03-22.77c-4.02-4.98-6.23-11.29-6.22-17.76c-0.01-6.47,2.2-12.78,6.22-17.76
			c5.18-6.43,8.03-14.52,8.03-22.77c0-0.61-0.01-1.22-0.04-1.82c-0.03-0.49-0.04-0.95-0.04-1.39c0-6.14,2.08-12.24,5.84-17.17
			c3.77-4.95,9.13-8.56,15.07-10.18c8.61-2.33,16.04-7.72,20.92-15.19C86.54,33.68,95.4,28.88,105,28.88h0.02
			c3.44,0,6.82,0.63,10.05,1.86c8.29,3.16,17.56,3.16,25.86,0c2.65-1.01,5.42-1.62,8.23-1.8c1.12-0.07,2.06,0.78,2.13,1.87
			c0.03,0.53-0.14,1.05-0.5,1.45c-0.35,0.4-0.84,0.64-1.37,0.67c-2.41,0.16-4.79,0.68-7.07,1.55c-9.2,3.5-19.5,3.5-28.7,0
			c-2.78-1.06-5.69-1.6-8.65-1.6c-8.24,0-15.85,4.12-20.36,11.02c-5.41,8.3-13.66,14.29-23.22,16.87
			c-10.58,2.86-17.97,12.51-17.96,23.49c0,0.38,0.01,0.77,0.03,1.19c0.03,0.68,0.05,1.36,0.05,2.02c0,9.16-3.17,18.14-8.92,25.28
			c-3.44,4.27-5.33,9.68-5.33,15.25c0,5.56,1.89,10.98,5.33,15.25c5.75,7.14,8.92,16.12,8.92,25.28c0,0.66-0.02,1.34-0.05,2.02
			c-0.02,0.36-0.03,0.75-0.03,1.19c-0.01,10.97,7.38,20.63,17.96,23.49c9.56,2.58,17.8,8.57,23.21,16.86c0.01,0,0.01,0,0.01,0.01
			c0.6,0.92,0.34,2.16-0.58,2.76C83.73,215.08,83.35,215.19,82.97,215.19z M157.23,33.63c-0.16,0-0.32-0.02-0.47-0.06
			c-0.01,0-0.01,0-0.01-0.01c-1.07-0.26-1.72-1.34-1.46-2.41c0.25-1.05,1.35-1.73,2.41-1.47c1.07,0.26,1.73,1.34,1.48,2.41
			C158.96,33,158.16,33.63,157.23,33.63z"/>
	</g>
	<g>
		<g>
			<path class="st1" d="M227.609,107.73c-4.974-6.174-7.504-13.961-7.109-21.879c0.592-11.87-5.348-22.808-14.981-28.909
				c3.48,5.487,5.324,12.042,4.981,18.909c-0.395,7.918,2.135,15.705,7.109,21.879c9.532,11.832,9.532,28.708,0,40.54
				c-4.974,6.174-7.504,13.961-7.109,21.879c0.757,15.176-9.162,28.828-23.829,32.798h0c-7.653,2.071-14.277,6.884-18.611,13.522
				c-8.308,12.722-24.357,17.937-38.556,12.527c-7.409-2.822-15.597-2.822-23.005,0c-9.767,3.721-20.41,2.415-28.806-2.904
				c0.084,0.125,0.167,0.25,0.25,0.376c8.308,12.722,24.357,17.937,38.556,12.527c7.409-2.822,15.597-2.822,23.005,0
				c14.199,5.409,30.249,0.195,38.556-12.527c4.335-6.638,10.959-11.451,18.611-13.522h0c14.667-3.97,24.586-17.622,23.829-32.798
				c-0.395-7.918,2.135-15.705,7.109-21.879C237.14,136.438,237.14,119.562,227.609,107.73z"/>
		</g>
	</g>
	<g>
		<path class="st2" d="M227.609,107.73c-4.974-6.174-7.504-13.961-7.109-21.879c0.53-10.622-4.171-20.497-12.069-26.829
			c4.814,6.002,7.474,13.696,7.069,21.829c-0.395,7.918,2.135,15.705,7.109,21.879c9.532,11.832,9.532,28.708,0,40.54
			c-4.974,6.174-7.504,13.961-7.109,21.879c0.757,15.176-9.162,28.828-23.829,32.798h0c-7.653,2.071-14.277,6.884-18.611,13.522
			c-8.308,12.722-24.357,17.937-38.556,12.527c-7.409-2.822-15.597-2.822-23.005,0c-10.931,4.164-22.959,2.032-31.707-4.976
			c8.69,10.846,23.499,15.007,36.707,9.976c7.409-2.822,15.597-2.822,23.005,0c14.199,5.409,30.249,0.195,38.556-12.527
			c4.335-6.638,10.959-11.451,18.611-13.522h0c14.667-3.97,24.586-17.622,23.829-32.798c-0.395-7.918,2.135-15.705,7.109-21.879
			C237.14,136.438,237.14,119.562,227.609,107.73z"/>
	</g>
	<g>
		<g>
			<g>
				<g>
					<path class="st14" d="M111.236,207.589c-9.167,0-18.084-4.55-23.293-12.528c-2.645-4.05-6.673-6.977-11.344-8.242
						c-12.478-3.377-21.067-15.199-20.424-28.11c0.241-4.832-1.298-9.568-4.333-13.335c-8.109-10.067-8.109-24.681,0-34.747
						c3.035-3.768,4.574-8.504,4.333-13.335c-0.644-12.911,7.946-24.733,20.424-28.111c4.67-1.264,8.699-4.191,11.344-8.242
						c7.069-10.824,20.967-15.339,33.046-10.737c4.52,1.722,9.5,1.722,14.022,0l0,0c12.08-4.603,25.977-0.086,33.046,10.737
						c2.645,4.051,6.673,6.978,11.343,8.242c12.478,3.377,21.068,15.2,20.424,28.111c-0.241,4.832,1.298,9.568,4.333,13.335
						c8.109,10.066,8.109,24.679,0,34.747c-3.035,3.768-4.574,8.504-4.333,13.335c0.644,12.911-7.946,24.733-20.424,28.11
						c-4.67,1.264-8.699,4.191-11.344,8.242c-7.067,10.824-20.965,15.341-33.046,10.737c-4.521-1.722-9.501-1.722-14.022,0
						C117.812,207.009,114.508,207.589,111.236,207.589z M111.206,56.404c-6.519,0-12.86,3.236-16.565,8.908
						c-3.719,5.697-9.384,9.813-15.952,11.59c-8.874,2.401-14.981,10.809-14.524,19.99c0.339,6.794-1.825,13.454-6.093,18.752
						c-5.767,7.159-5.767,17.55,0,24.709c4.268,5.298,6.432,11.958,6.093,18.752c-0.458,9.181,5.65,17.588,14.523,19.99
						c6.567,1.777,12.233,5.894,15.952,11.589c5.026,7.697,14.909,10.908,23.5,7.636c6.358-2.422,13.361-2.422,19.718,0
						c8.591,3.274,18.473,0.062,23.5-7.636c3.719-5.696,9.384-9.812,15.951-11.589c8.874-2.402,14.982-10.809,14.524-19.99
						c-0.339-6.794,1.825-13.454,6.093-18.752c5.767-7.159,5.767-17.551,0-24.709c-4.268-5.298-6.432-11.958-6.093-18.752
						c0.458-9.182-5.65-17.589-14.523-19.991c-6.567-1.777-12.233-5.893-15.952-11.589c-5.026-7.697-14.909-10.908-23.5-7.636v0
						c-6.357,2.421-13.36,2.421-19.718,0C115.882,56.817,113.532,56.404,111.206,56.404z"/>
				</g>
			</g>
		</g>
	</g>
	<g>
		<g>
			<g>
				<g>
					<g>
						<path class="st14" d="M159.946,147.128c-0.001,0.014-0.002,0.029-0.003,0.043
							C159.944,147.157,159.945,147.142,159.946,147.128z"/>
					</g>
				</g>
				<g>
					<g>
						<path class="st14" d="M164.212,164.852h-6.875v-6h6.875c6.586,0,11.944-5.358,11.944-11.943V132c0-0.551-0.449-1-1-1h-17.819
							v-6h17.819c3.86,0,7,3.14,7,7v14.908C182.156,156.802,174.106,164.852,164.212,164.852z"/>
					</g>
					<g>
						<path class="st14" d="M98.663,164.852h-6.875c-9.894,0-17.944-8.049-17.944-17.943V132c0-3.86,3.14-7,7-7h17.819v6H80.844
							c-0.551,0-1,0.449-1,1v14.908c0,6.585,5.358,11.943,11.944,11.943h6.875V164.852z"/>
					</g>
				</g>
				<g>
					<g>
						<path class="st12" d="M159.392,115.363c2.7,0,4.958,2.064,5.199,4.753c1.64,18.358-1.236,36.842-8.468,54.105l-0.655,1.563
							c-0.811,1.935-2.704,3.195-4.802,3.195h-45.333c-2.098,0-3.991-1.259-4.802-3.195l-0.655-1.563
							c-7.232-17.262-10.108-35.746-8.467-54.105c0.24-2.689,2.499-4.753,5.199-4.753H159.392z"/>
					</g>
				</g>
				<g>
					<path class="st14" d="M159.392,115.363h-31.419v63.616h22.693c2.098,0,3.991-1.259,4.802-3.195l0.655-1.563
						c7.232-17.262,10.108-35.746,8.468-54.105C164.351,117.427,162.092,115.363,159.392,115.363z"/>
				</g>
				<g>
					<g>
						<g>
							<path class="st15" d="M164.858,136.346c0.006-0.1,0.009-0.2,0.015-0.3c-0.005,0.1-0.007,0.2-0.013,0.301
								C164.859,136.346,164.858,136.346,164.858,136.346z"/>
						</g>
					</g>
				</g>
			</g>
			<g>
				<g>
					<path class="st4" d="M98.338,141.33c-0.587,0-1.053,0.507-0.997,1.091c0.916,9.53,3.268,18.935,7.042,27.944l0.55,1.313
						c0.681,1.625,2.271,2.683,4.032,2.683h38.068c1.762,0,3.352-1.058,4.032-2.683l0.55-1.313
						c3.774-9.009,6.127-18.414,7.042-27.944c0.056-0.584-0.41-1.091-0.997-1.091H98.338z"/>
				</g>
			</g>
		</g>
		<g>
			<g>
				<g>
					<g>
						<g>
							<path class="st9" d="M151.508,103.7c-4.141,4.141-11.971,3.37-15.195,2.835c-0.882-0.146-1.577-0.841-1.724-1.724
								c-0.535-3.224-1.307-11.053,2.835-15.195c4.141-4.141,11.971-3.37,15.195-2.834c0.882,0.146,1.577,0.841,1.724,1.724
								C154.878,91.73,155.65,99.559,151.508,103.7z"/>
						</g>
					</g>
				</g>
			</g>
			<g>
				<path class="st10" d="M154.343,88.506c-0.146-0.882-0.841-1.577-1.724-1.724c-0.757-0.126-1.769-0.264-2.927-0.349
					c0.277,3.772-0.015,9.099-3.184,12.268s-8.496,3.461-12.268,3.184c0.085,1.158,0.224,2.17,0.349,2.927
					c0.146,0.882,0.841,1.577,1.724,1.724c3.224,0.535,11.053,1.307,15.195-2.834C155.65,99.559,154.878,91.73,154.343,88.506z"/>
			</g>
			<g>
				<g>
					<g>
						<g>
							
								<ellipse transform="matrix(0.7071 -0.7071 0.7071 0.7071 -36.0698 107.3385)" class="st4" cx="111.534" cy="97.209" rx="9.427" ry="12.845"/>
						</g>
					</g>
					<g>
						<path class="st5" d="M118.199,90.544c-0.867-0.867-1.795-1.616-2.756-2.244c3.004,4.598,3.218,9.948,0.173,12.993
							c-3.045,3.045-8.395,2.831-12.993-0.173c0.628,0.961,1.377,1.889,2.244,2.756c5.016,5.016,12.067,6.099,15.749,2.417
							C124.298,102.611,123.216,95.56,118.199,90.544z"/>
					</g>
					<g>
						<g>
							<path class="st18" d="M102.451,88.126c0.84-0.84,1.862-1.42,2.99-1.774c3.795,1.735,9.647,5.404,8.509,11.216
								c-0.739,3.78,4.866,6.512,7.565,7.595c-0.262,0.401-0.552,0.784-0.898,1.13c-0.671,0.671-1.456,1.18-2.319,1.539
								c-3.785-1.821-9.096-5.42-8.008-10.981c0.842-4.302-6.549-7.254-8.502-7.953C101.989,88.628,102.208,88.369,102.451,88.126z"
								/>
						</g>
					</g>
				</g>
			</g>
		</g>
	</g>
	<g>
		<path class="st2" d="M157.662,141.33h-29.688v33.031h19.061c1.762,0,3.352-1.058,4.032-2.683l0.55-1.313
			c3.774-9.009,6.127-18.414,7.042-27.944C158.715,141.837,158.249,141.33,157.662,141.33z"/>
	</g>
</g>
</svg>
