<?xml version="1.0" encoding="utf-8"?>
<!-- Generator: Adobe Illustrator 24.0.0, SVG Export Plug-In . SVG Version: 6.00 Build 0)  -->
<svg version="1.1" id="Layer_1" xmlns="http://www.w3.org/2000/svg" xmlns:xlink="http://www.w3.org/1999/xlink" x="0px" y="0px"
	 viewBox="0 0 256 256" style="enable-background:new 0 0 256 256;" xml:space="preserve">
<style type="text/css">
	.st0{fill:#FFA91A;}
	.st1{fill:#F79219;}
	.st2{fill:#EF7816;}
	.st3{fill:#F2AD97;}
	.st4{fill:#8C3F0A;}
	.st5{fill:#7C3108;}
	.st6{fill:#E63950;}
	.st7{fill:#E8566F;}
	.st8{fill:#D10028;}
	.st9{fill:#76A34F;}
	.st10{fill:#648940;}
	.st11{fill:#B7022D;}
	.st12{fill:#F1F2F2;}
	.st13{fill:#E6E7E8;}
	.st14{fill:#FFFFFF;}
	.st15{fill:#D1D3D4;}
	.st16{fill:#FFD2C0;}
	.st17{fill:#FFC91D;}
	.st18{fill:#6D2E03;}
	.st19{fill:#995222;}
	.st20{fill:#5A7A39;}
	.st21{fill:#58595B;}
	.st22{fill:#808285;}
	.st23{fill:#FCC4AE;}
	.st24{fill:#91B56B;}
	.st25{fill:#E59076;}
	.st26{fill:#939598;}
	.st27{fill:#414042;}
	.st28{fill:#478CF7;}
	.st29{fill:#5E9CF7;}
	.st30{fill:#377DE2;}
	.st31{fill:#2266D3;}
	.st32{fill:#FFCC34;}
</style>
<g>
	<g>
		<g>
			<g>
				<g>
					<path class="st6" d="M139.503,27.003L139.503,27.003c14.199-5.409,30.248-0.194,38.556,12.528v0
						c4.335,6.638,10.959,11.451,18.611,13.522l0,0c14.667,3.97,24.586,17.622,23.829,32.798l0,0
						c-0.395,7.918,2.135,15.705,7.109,21.879l0,0c9.532,11.832,9.532,28.708,0,40.54l0,0c-4.974,6.174-7.504,13.961-7.109,21.879
						l0,0c0.757,15.176-9.162,28.828-23.829,32.798h0c-7.653,2.071-14.277,6.884-18.611,13.522l0,0
						c-8.308,12.722-24.357,17.937-38.556,12.528l0,0c-7.409-2.822-15.597-2.822-23.005,0l0,0
						c-14.199,5.409-30.248,0.195-38.556-12.528l0,0c-4.335-6.638-10.959-11.451-18.612-13.522h0
						c-14.667-3.97-24.586-17.622-23.829-32.798l0,0c0.395-7.918-2.135-15.705-7.109-21.879l0,0c-9.532-11.833-9.532-28.708,0-40.54
						l0,0c4.974-6.174,7.504-13.961,7.109-21.879l0,0c-0.757-15.176,9.162-28.828,23.829-32.798l0,0
						c7.653-2.071,14.277-6.884,18.612-13.522v0c8.308-12.722,24.357-17.937,38.556-12.528l0,0
						C123.906,29.825,132.094,29.825,139.503,27.003z"/>
				</g>
			</g>
		</g>
	</g>
	<g>
		<g>
			<path class="st7" d="M82.97,215.19c-0.68,0-1.31-0.34-1.68-0.91c-4.88-7.47-12.311-12.86-20.92-15.19
				c-5.94-1.62-11.301-5.23-15.07-10.18c-3.76-4.93-5.84-11.03-5.84-17.17c0-0.52,0.01-0.97,0.04-1.39
				c0.02-0.62,0.04-1.23,0.04-1.82c0-8.25-2.851-16.34-8.03-22.77c-4.02-4.98-6.229-11.29-6.22-17.76
				c-0.01-6.47,2.2-12.78,6.22-17.76c5.18-6.43,8.03-14.52,8.03-22.77c0-0.59-0.021-1.2-0.04-1.81c-0.03-0.45-0.04-0.91-0.04-1.4
				c0-6.14,2.08-12.24,5.84-17.17c3.77-4.95,9.12-8.56,15.07-10.18c8.609-2.32,16.04-7.72,20.92-15.19
				c5.25-8.04,14.109-12.84,23.71-12.84h0.02c3.44,0,6.82,0.63,10.05,1.86c8.301,3.16,17.561,3.16,25.86,0
				c2.65-1.01,5.42-1.62,8.23-1.8c1.09-0.08,2.06,0.78,2.13,1.87c0.069,1.1-0.771,2.05-1.87,2.12c-2.41,0.16-4.79,0.68-7.07,1.55
				c-9.2,3.51-19.51,3.5-28.7,0c-2.779-1.06-5.689-1.6-8.649-1.6c-8.24,0.01-15.851,4.13-20.36,11.02
				c-5.41,8.3-13.66,14.29-23.22,16.88c-10.58,2.85-17.97,12.5-17.96,23.48c0,0.39,0.01,0.78,0.03,1.2
				c0.029,0.69,0.05,1.37,0.05,2.01c0,9.16-3.17,18.14-8.92,25.28c-3.44,4.27-5.34,9.68-5.34,15.25c0,5.57,1.899,10.98,5.34,15.25
				c5.75,7.15,8.92,16.12,8.92,25.28c0,0.67-0.021,1.33-0.05,2.03c-0.021,0.37-0.03,0.77-0.03,1.18
				c-0.01,10.97,7.38,20.63,17.96,23.48c9.56,2.59,17.8,8.58,23.21,16.87c0,0,0.01,0,0.01,0.01c0.601,0.92,0.34,2.16-0.58,2.76
				C83.729,215.08,83.35,215.19,82.97,215.19z M157.229,33.62L157.229,33.62c-0.16,0-0.319-0.02-0.47-0.05
				c-0.52-0.13-0.96-0.45-1.24-0.9c-0.279-0.46-0.359-1-0.239-1.52c0.26-1.05,1.359-1.72,2.42-1.47c0.52,0.13,0.96,0.45,1.239,0.9
				c0.28,0.46,0.36,1,0.23,1.52C158.95,33,158.16,33.62,157.229,33.62z"/>
		</g>
	</g>
	<g>
		<g>
			<path class="st8" d="M227.609,107.73c-4.974-6.174-7.504-13.961-7.109-21.879c0.592-11.87-5.348-22.808-14.981-28.909
				c3.48,5.487,5.324,12.042,4.981,18.909c-0.395,7.918,2.135,15.705,7.109,21.879c9.532,11.832,9.532,28.708,0,40.54
				c-4.974,6.174-7.504,13.961-7.109,21.879c0.757,15.176-9.162,28.828-23.829,32.798h0c-7.653,2.071-14.277,6.884-18.611,13.522
				c-8.308,12.722-24.357,17.937-38.556,12.527c-7.409-2.822-15.597-2.822-23.005,0c-9.767,3.721-20.41,2.415-28.806-2.904
				c0.084,0.125,0.167,0.25,0.25,0.376c8.308,12.722,24.357,17.937,38.556,12.527c7.409-2.822,15.597-2.822,23.005,0
				c14.199,5.409,30.249,0.195,38.556-12.527c4.335-6.638,10.959-11.451,18.611-13.522h0c14.667-3.97,24.586-17.622,23.829-32.798
				c-0.395-7.918,2.135-15.705,7.109-21.879C237.14,136.438,237.14,119.562,227.609,107.73z"/>
		</g>
	</g>
	<g>
		<g>
			<path class="st11" d="M227.609,107.73c-4.974-6.174-7.504-13.961-7.109-21.879c0.53-10.622-4.171-20.497-12.069-26.829
				c4.814,6.002,7.474,13.696,7.069,21.829c-0.395,7.918,2.135,15.705,7.109,21.879c9.532,11.832,9.532,28.708,0,40.54
				c-4.974,6.174-7.504,13.961-7.109,21.879c0.757,15.176-9.162,28.828-23.829,32.798h0c-7.653,2.071-14.277,6.884-18.611,13.522
				c-8.308,12.722-24.357,17.937-38.556,12.527c-7.409-2.822-15.597-2.822-23.005,0c-10.931,4.164-22.959,2.032-31.707-4.976
				c8.69,10.846,23.499,15.007,36.707,9.976c7.409-2.822,15.597-2.822,23.005,0c14.199,5.409,30.249,0.195,38.556-12.527
				c4.335-6.638,10.959-11.451,18.611-13.522h0c14.667-3.97,24.586-17.622,23.829-32.798c-0.395-7.918,2.135-15.705,7.109-21.879
				C237.14,136.438,237.14,119.562,227.609,107.73z"/>
		</g>
	</g>
	<g>
		<g>
			<g>
				<g>
					<g>
						<g>
							<path class="st13" d="M114.48,81.891v23.484c0,1.291-1.047,2.338-2.338,2.338l0,0c-1.291,0-2.338-1.047-2.338-2.338V81.891
								c0-1.079-0.875-1.954-1.954-1.954h-0.696c-1.079,0-1.954,0.875-1.954,1.954v23.484c0,1.291-1.047,2.338-2.338,2.338l0,0
								c-1.291,0-2.338-1.047-2.338-2.338V81.891c0-1.079-0.875-1.954-1.954-1.954h-0.791c-1.079,0-1.954,0.875-1.954,1.954v29.95
								c0,3.697,2.997,6.694,6.695,6.694h9.961c3.697,0,6.694-2.997,6.694-6.694v-29.95c0-1.079-0.875-1.954-1.954-1.954h-0.791
								C115.355,79.937,114.48,80.812,114.48,81.891z"/>
						</g>
					</g>
					<g>
						<g>
							<path class="st14" d="M112.088,118.535h-9.169l-1.845,50.868c-0.128,3.64,2.788,6.66,6.43,6.66c3.642,0,6.558-3.02,6.43-6.66
								L112.088,118.535z"/>
						</g>
					</g>
				</g>
			</g>
			<g>
				<g>
					<g>
						<path class="st13" d="M160.172,105.926c0,10.659-6.561,12.609-14.653,12.609c-8.093,0-14.653-1.95-14.653-12.609
							c0-10.659,6.561-25.989,14.653-25.989C153.611,79.937,160.172,95.268,160.172,105.926z"/>
					</g>
				</g>
				<g>
					<g>
						<path class="st14" d="M150.094,118.255c-1.44,0.204-2.978,0.28-4.576,0.28s-3.136-0.076-4.576-0.28l-1.854,51.148
							c-0.128,3.64,2.788,6.66,6.43,6.66c3.642,0,6.558-3.02,6.43-6.66L150.094,118.255z"/>
					</g>
				</g>
			</g>
		</g>
	</g>
	<g>
		<g>
			<g>
				<g>
					<path class="st0" d="M144.764,207.589c-3.272,0-6.575-0.58-9.753-1.791c-4.521-1.723-9.5-1.723-14.021,0
						c-12.078,4.602-25.979,0.087-33.047-10.737c-2.645-4.05-6.674-6.978-11.343-8.242c-12.479-3.377-21.068-15.2-20.424-28.111
						c0.24-4.832-1.299-9.567-4.334-13.335c-8.108-10.067-8.108-24.68,0-34.747c3.035-3.768,4.574-8.503,4.334-13.336
						c-0.645-12.91,7.944-24.733,20.424-28.11c4.67-1.264,8.698-4.191,11.343-8.242c7.069-10.824,20.969-15.339,33.047-10.737
						c4.521,1.722,9.5,1.722,14.021,0l0,0c12.077-4.603,25.978-0.088,33.047,10.737c2.645,4.051,6.673,6.978,11.343,8.242
						c12.479,3.378,21.068,15.201,20.424,28.112c-0.24,4.832,1.299,9.567,4.334,13.335c8.108,10.066,8.108,24.679,0,34.747
						c-3.035,3.768-4.574,8.503-4.334,13.336c0.645,12.91-7.944,24.732-20.424,28.11c-4.669,1.264-8.698,4.191-11.344,8.242
						C162.849,203.038,153.93,207.588,144.764,207.589z M128,196.506c3.341,0,6.68,0.605,9.858,1.817
						c8.593,3.272,18.474,0.061,23.5-7.636c3.721-5.696,9.386-9.812,15.952-11.589c8.874-2.402,14.982-10.809,14.523-19.99
						c-0.338-6.796,1.826-13.456,6.094-18.753c5.767-7.159,5.767-17.551,0-24.709c-4.268-5.297-6.432-11.957-6.094-18.752
						c0.459-9.182-5.649-17.589-14.523-19.991c-6.566-1.777-12.231-5.893-15.952-11.589c-5.024-7.697-14.908-10.908-23.5-7.636l0,0
						c-6.357,2.422-13.359,2.422-19.717,0c-8.594-3.273-18.475-0.062-23.5,7.635c-3.721,5.697-9.386,9.813-15.952,11.59
						c-8.874,2.402-14.982,10.809-14.523,19.99c0.338,6.796-1.826,13.456-6.094,18.753c-5.767,7.158-5.767,17.55,0,24.709
						c4.268,5.297,6.432,11.957,6.094,18.752c-0.459,9.182,5.649,17.588,14.523,19.991c6.566,1.777,12.231,5.893,15.951,11.589
						c5.026,7.697,14.909,10.909,23.501,7.636C121.319,197.112,124.66,196.506,128,196.506z"/>
				</g>
			</g>
		</g>
	</g>
</g>
</svg>
