<?xml version="1.0" encoding="utf-8"?>
<!-- Generator: Adobe Illustrator 24.0.0, SVG Export Plug-In . SVG Version: 6.00 Build 0)  -->
<svg version="1.1" id="Layer_1" xmlns="http://www.w3.org/2000/svg" xmlns:xlink="http://www.w3.org/1999/xlink" x="0px" y="0px"
	 viewBox="0 0 256 256" style="enable-background:new 0 0 256 256;" xml:space="preserve">
<style type="text/css">
	.st0{fill:#FFA91A;}
	.st1{fill:#F79219;}
	.st2{fill:#EF7816;}
	.st3{fill:#F2AD97;}
	.st4{fill:#8C3F0A;}
	.st5{fill:#7C3108;}
	.st6{fill:#E63950;}
	.st7{fill:#E8566F;}
	.st8{fill:#D10028;}
	.st9{fill:#76A34F;}
	.st10{fill:#648940;}
	.st11{fill:#B7022D;}
	.st12{fill:#F1F2F2;}
	.st13{fill:#E6E7E8;}
	.st14{fill:#FFFFFF;}
	.st15{fill:#D1D3D4;}
	.st16{fill:#FFD2C0;}
	.st17{fill:#FFC91D;}
	.st18{fill:#6D2E03;}
	.st19{fill:#995222;}
	.st20{fill:#5A7A39;}
	.st21{fill:#58595B;}
	.st22{fill:#808285;}
	.st23{fill:#FCC4AE;}
	.st24{fill:#91B56B;}
	.st25{fill:#E59076;}
	.st26{fill:#939598;}
	.st27{fill:#414042;}
	.st28{fill:#478CF7;}
	.st29{fill:#5E9CF7;}
	.st30{fill:#377DE2;}
	.st31{fill:#2266D3;}
	.st32{fill:#FFCC34;}
</style>
<g>
	<g>
		<g>
			<g>
				<g>
					<g>
						<g>
							<circle class="st4" cx="128" cy="128" r="109.357"/>
						</g>
					</g>
				</g>
			</g>
			<g>
				<g>
					<path class="st19" d="M24.64,130c-1.1,0-2-0.9-2-2v-0.01c0.01-1.1,0.91-1.99,2-1.99c1.101,0,1.99,0.89,2,1.99V128
						C26.64,129.1,25.75,130,24.64,130z M24.95,122.01c-0.051,0-0.101,0-0.16-0.01c-1.101-0.08-1.92-1.04-1.84-2.14
						C24.979,93.5,36.81,69,56.28,50.88C75.85,32.67,101.319,22.65,128,22.64c11.17,0,22.16,1.75,32.689,5.19
						c10.17,3.33,19.771,8.19,28.521,14.46c0.89,0.64,1.1,1.89,0.46,2.79c-0.62,0.86-1.93,1.08-2.79,0.46
						c-17.27-12.36-37.63-18.9-58.88-18.9c-52.641,0-97.03,41.08-101.061,93.53C26.859,121.2,25.99,122.01,24.95,122.01z"/>
				</g>
			</g>
			<g>
				<g>
					<path class="st5" d="M200.166,45.834C217.093,65.09,227.357,90.346,227.357,118c0,60.396-48.961,109.357-109.357,109.357
						c-27.654,0-52.91-10.264-72.166-27.191c20.042,22.801,49.423,37.191,82.166,37.191c60.396,0,109.357-48.961,109.357-109.357
						C237.357,95.257,222.967,65.876,200.166,45.834z"/>
				</g>
			</g>
			<g>
				<g>
					<path class="st18" d="M202.787,48.213c18.339,19.557,29.57,45.86,29.57,74.787c0,60.396-48.961,109.357-109.357,109.357
						c-28.926,0-55.229-11.231-74.787-29.57c19.952,21.277,48.317,34.57,79.787,34.57c60.396,0,109.357-48.961,109.357-109.357
						C237.357,96.53,224.064,68.165,202.787,48.213z"/>
				</g>
			</g>
			<g>
				<g>
					<g>
						<g>
							<g>
								<path class="st0" d="M128,37.114c-50.114,0-90.886,40.772-90.886,90.885c0,50.114,40.771,90.886,90.886,90.886
									s90.885-40.771,90.885-90.886C218.885,77.886,178.114,37.114,128,37.114z M50.579,128c0-7.14,0.992-14.049,2.809-20.618
									H78.23c-0.831,6.608-1.283,13.5-1.283,20.618c0,6.513,0.371,12.842,1.07,18.934H52.93
									C51.401,140.872,50.579,134.531,50.579,128z M90.412,128c0-7.109,0.504-14.023,1.424-20.618h29.432v39.552H91.601
									C90.827,140.851,90.412,134.504,90.412,128z M134.732,51.907c11.657,4.552,21.612,20.611,26.867,42.011h-26.867V51.907z
									 M121.268,51.907v42.011H94.402C99.656,72.518,109.612,56.458,121.268,51.907z M121.268,160.399v43.695
									c-11.96-4.671-22.129-21.456-27.267-43.695H121.268z M134.732,204.094v-43.695h27.268
									C156.863,182.637,146.693,199.423,134.732,204.094z M134.732,146.934v-39.552h29.433c0.92,6.595,1.424,13.509,1.424,20.618
									c0,6.504-0.415,12.851-1.19,18.934H134.732z M177.771,107.382h24.84c1.818,6.569,2.809,13.478,2.809,20.618
									c0,6.531-0.821,12.872-2.351,18.934h-25.086c0.699-6.092,1.07-12.421,1.07-18.934
									C179.054,120.882,178.602,113.991,177.771,107.382z M197.494,93.917h-22.04c-3.134-14.171-8.177-26.496-14.61-36.005
									C176.764,65.402,189.731,78.153,197.494,93.917z M95.156,57.912c-6.433,9.51-11.476,21.834-14.61,36.005h-22.04
									C66.269,78.153,79.237,65.402,95.156,57.912z M57.711,160.399H80.18c3.099,14.881,8.29,27.804,14.977,37.689
									C78.675,190.333,65.364,176.936,57.711,160.399z M160.844,198.088c6.687-9.885,11.878-22.808,14.977-37.689h22.468
									C190.636,176.936,177.326,190.333,160.844,198.088z"/>
							</g>
						</g>
					</g>
				</g>
			</g>
		</g>
	</g>
	<g>
		<g>
			<g>
				<g>
					<g>
						
							<ellipse transform="matrix(0.7071 -0.7071 0.7071 0.7071 -53.0194 128)" class="st12" cx="128" cy="128" rx="51.054" ry="51.054"/>
					</g>
				</g>
			</g>
		</g>
		<g>
			<g>
				<g>
					<g>
						<g>
							<path class="st1" d="M108.021,95.252v14.686c0,0.807-0.655,1.462-1.462,1.462l0,0c-0.807,0-1.462-0.654-1.462-1.462V95.252
								c0-0.675-0.547-1.222-1.222-1.222h-0.435c-0.675,0-1.222,0.547-1.222,1.222v14.686c0,0.807-0.655,1.462-1.462,1.462l0,0
								c-0.807,0-1.462-0.654-1.462-1.462V95.252c0-0.675-0.547-1.222-1.222-1.222h-0.495c-0.675,0-1.222,0.547-1.222,1.222v18.73
								c0,2.312,1.874,4.186,4.187,4.186h6.229c2.312,0,4.186-1.874,4.186-4.186v-18.73c0-0.675-0.547-1.222-1.222-1.222h-0.495
								C108.568,94.031,108.021,94.578,108.021,95.252z"/>
						</g>
					</g>
					<g>
						<g>
							<path class="st0" d="M106.525,118.169h-5.734l-1.154,39.045c-0.08,2.276,1.743,4.165,4.021,4.165
								c2.277,0,4.101-1.889,4.021-4.165L106.525,118.169z"/>
						</g>
					</g>
				</g>
			</g>
			<g>
				<g>
					<g>
						<path class="st1" d="M136.595,110.284c0,6.666-4.103,7.885-9.164,7.885c-5.061,0-9.164-1.22-9.164-7.885
							c0-6.666,4.103-16.253,9.164-16.253C132.492,94.031,136.595,103.618,136.595,110.284z"/>
					</g>
				</g>
				<g>
					<g>
						<path class="st0" d="M130.293,117.994c-0.9,0.128-1.862,0.175-2.862,0.175c-0.999,0-1.961-0.048-2.862-0.175l-1.159,39.22
							c-0.08,2.276,1.743,4.165,4.021,4.165c2.278,0,4.101-1.889,4.021-4.165L130.293,117.994z"/>
					</g>
				</g>
			</g>
			<g>
				<g>
					<g>
						<g>
							<path class="st0" d="M155.324,133.419l-0.002,23.796c0.08,2.276-1.743,4.165-4.021,4.165c-2.277,0-4.101-1.889-4.021-4.165
								l0.713-23.796H155.324z"/>
						</g>
					</g>
				</g>
				<g>
					<g>
						<g>
							<path class="st1" d="M144.001,102.285v30.036c0,0.606,0.491,1.098,1.098,1.098h10.226V95.132
								c0-0.606-0.492-1.098-1.098-1.098h-1.975C147.695,94.034,144.001,97.728,144.001,102.285z"/>
						</g>
					</g>
				</g>
			</g>
		</g>
	</g>
</g>
</svg>
