<?xml version="1.0" encoding="utf-8"?>
<!-- Generator: Adobe Illustrator 24.0.0, SVG Export Plug-In . SVG Version: 6.00 Build 0)  -->
<svg version="1.1" id="Layer_1" xmlns="http://www.w3.org/2000/svg" xmlns:xlink="http://www.w3.org/1999/xlink" x="0px" y="0px"
	 viewBox="0 0 256 256" style="enable-background:new 0 0 256 256;" xml:space="preserve">
<style type="text/css">
	.st0{fill:#FFA91A;}
	.st1{fill:#F79219;}
	.st2{fill:#EF7816;}
	.st3{fill:#F2AD97;}
	.st4{fill:#8C3F0A;}
	.st5{fill:#7C3108;}
	.st6{fill:#E63950;}
	.st7{fill:#E8566F;}
	.st8{fill:#D10028;}
	.st9{fill:#76A34F;}
	.st10{fill:#648940;}
	.st11{fill:#B7022D;}
	.st12{fill:#F1F2F2;}
	.st13{fill:#E6E7E8;}
	.st14{fill:#FFFFFF;}
	.st15{fill:#D1D3D4;}
	.st16{fill:#FFD2C0;}
	.st17{fill:#FFC91D;}
	.st18{fill:#6D2E03;}
	.st19{fill:#995222;}
	.st20{fill:#5A7A39;}
	.st21{fill:#58595B;}
	.st22{fill:#808285;}
	.st23{fill:#FCC4AE;}
	.st24{fill:#91B56B;}
	.st25{fill:#E59076;}
	.st26{fill:#939598;}
	.st27{fill:#414042;}
	.st28{fill:#478CF7;}
	.st29{fill:#5E9CF7;}
	.st30{fill:#377DE2;}
	.st31{fill:#2266D3;}
	.st32{fill:#FFCC34;}
</style>
<g>
	<g>
		<g>
			<g>
				<g>
					<g>
						<g>
							<path class="st12" d="M195.703,232.054H60.297c-5.522,0-9.999-4.477-9.999-9.999V33.945c0-5.522,4.477-9.999,9.999-9.999
								h135.405c5.522,0,9.999,4.477,9.999,9.999v188.109C205.702,227.577,201.225,232.054,195.703,232.054z"/>
						</g>
					</g>
				</g>
			</g>
		</g>
	</g>
	<g>
		<g>
			<path class="st14" d="M56.3,213.49c-1.1,0-2-0.9-2-2V33.95c0-3.31,2.69-6,6-6h106.17c1.1,0,2,0.89,2,2c0,1.1-0.9,2-2,2H60.3
				c-1.1,0-2,0.9-2,2v177.54C58.3,212.59,57.4,213.49,56.3,213.49z M174.47,31.95c-1.1,0-2-0.9-2-2c0-1.11,0.9-2,2-2s2,0.89,2,2
				C176.47,31.05,175.569,31.95,174.47,31.95z"/>
		</g>
	</g>
	<g>
		<path class="st13" d="M195.703,23.946L195.703,23.946l-0.001,188.108c0,5.522-4.477,9.999-9.999,9.999H50.298v0.001
			c0,5.522,4.477,9.999,9.999,9.999h135.405c5.522,0,9.999-4.477,9.999-9.999V33.945C205.702,28.423,201.225,23.946,195.703,23.946z
			"/>
	</g>
	<g>
		<path class="st15" d="M199.818,24.83c0.568,1.255,0.884,2.649,0.884,4.116v188.109c0,5.522-4.477,9.999-9.999,9.999H55.297
			c-1.467,0-2.86-0.316-4.116-0.883c1.569,3.469,5.06,5.883,9.116,5.883h135.405c5.522,0,9.999-4.477,9.999-9.999V33.945
			C205.702,29.89,203.288,26.399,199.818,24.83z"/>
	</g>
	<g>
		<g>
			<g>
				<g>
					<path class="st0" d="M116.831,134.717H80.36c-1.657,0-3-1.343-3-3c0-1.657,1.343-3,3-3h36.471c1.657,0,3,1.343,3,3
						C119.831,133.374,118.487,134.717,116.831,134.717z"/>
				</g>
			</g>
			<g>
				<g>
					<path class="st15" d="M105.189,148.171H80.36c-1.657,0-3-1.343-3-3c0-1.657,1.343-3,3-3h24.829c1.657,0,3,1.343,3,3
						C108.189,146.828,106.846,148.171,105.189,148.171z"/>
				</g>
			</g>
		</g>
		<g>
			<g>
				<g>
					<path class="st0" d="M175.64,134.717h-36.47c-1.657,0-3-1.343-3-3c0-1.657,1.343-3,3-3h36.47c1.657,0,3,1.343,3,3
						C178.64,133.374,177.297,134.717,175.64,134.717z"/>
				</g>
			</g>
			<g>
				<g>
					<path class="st15" d="M163.999,148.171H139.17c-1.657,0-3-1.343-3-3c0-1.657,1.343-3,3-3h24.829c1.657,0,3,1.343,3,3
						C166.999,146.828,165.656,148.171,163.999,148.171z"/>
				</g>
			</g>
		</g>
	</g>
	<g>
		<g>
			<g>
				<g>
					<path class="st0" d="M116.831,167.378H80.36c-1.657,0-3-1.343-3-3c0-1.657,1.343-3,3-3h36.471c1.657,0,3,1.343,3,3
						C119.831,166.034,118.487,167.378,116.831,167.378z"/>
				</g>
			</g>
			<g>
				<g>
					<path class="st15" d="M105.189,180.831H80.36c-1.657,0-3-1.343-3-3c0-1.657,1.343-3,3-3h24.829c1.657,0,3,1.343,3,3
						C108.189,179.487,106.846,180.831,105.189,180.831z"/>
				</g>
			</g>
		</g>
		<g>
			<g>
				<g>
					<path class="st0" d="M175.64,167.378h-36.47c-1.657,0-3-1.343-3-3c0-1.657,1.343-3,3-3h36.47c1.657,0,3,1.343,3,3
						C178.64,166.034,177.297,167.378,175.64,167.378z"/>
				</g>
			</g>
			<g>
				<g>
					<path class="st15" d="M163.999,180.831H139.17c-1.657,0-3-1.343-3-3c0-1.657,1.343-3,3-3h24.829c1.657,0,3,1.343,3,3
						C166.999,179.487,165.656,180.831,163.999,180.831z"/>
				</g>
			</g>
		</g>
	</g>
	<g>
		<g>
			<g>
				<g>
					<path class="st0" d="M116.831,200.037H80.36c-1.657,0-3-1.343-3-3c0-1.657,1.343-3,3-3h36.471c1.657,0,3,1.343,3,3
						C119.831,198.694,118.487,200.037,116.831,200.037z"/>
				</g>
			</g>
			<g>
				<g>
					<path class="st15" d="M105.189,213.491H80.36c-1.657,0-3-1.343-3-3c0-1.657,1.343-3,3-3h24.829c1.657,0,3,1.343,3,3
						C108.189,212.148,106.846,213.491,105.189,213.491z"/>
				</g>
			</g>
		</g>
		<g>
			<g>
				<g>
					<path class="st0" d="M175.64,200.037h-36.47c-1.657,0-3-1.343-3-3c0-1.657,1.343-3,3-3h36.47c1.657,0,3,1.343,3,3
						C178.64,198.694,177.297,200.037,175.64,200.037z"/>
				</g>
			</g>
			<g>
				<g>
					<path class="st15" d="M163.999,213.491H139.17c-1.657,0-3-1.343-3-3c0-1.657,1.343-3,3-3h24.829c1.657,0,3,1.343,3,3
						C166.999,212.148,165.656,213.491,163.999,213.491z"/>
				</g>
			</g>
		</g>
	</g>
	<g>
		<g>
			<g>
				<g>
					<g>
						
							<ellipse transform="matrix(0.7071 -0.7071 0.7071 0.7071 -19.9132 114.287)" class="st4" cx="128" cy="81.181" rx="40.655" ry="40.655"/>
					</g>
				</g>
			</g>
		</g>
		<g>
			<path class="st5" d="M154.139,50.042c5.939,7.067,9.516,16.185,9.516,26.139c0,22.453-18.202,40.655-40.656,40.655
				c-9.954,0-19.072-3.578-26.139-9.516c7.458,8.875,18.64,14.516,31.139,14.516c22.453,0,40.656-18.202,40.656-40.655
				C168.655,68.681,163.014,57.5,154.139,50.042z"/>
		</g>
		<g>
			<g>
				<g>
					<g>
						<g>
							<path class="st13" d="M112.091,55.103v11.695c0,0.643-0.521,1.164-1.164,1.164l0,0c-0.643,0-1.164-0.521-1.164-1.164V55.103
								c0-0.537-0.436-0.973-0.973-0.973h-0.347c-0.537,0-0.973,0.436-0.973,0.973v11.695c0,0.643-0.521,1.164-1.164,1.164l0,0
								c-0.643,0-1.164-0.521-1.164-1.164V55.103c0-0.537-0.436-0.973-0.973-0.973h-0.394c-0.537,0-0.973,0.436-0.973,0.973v14.915
								c0,1.841,1.493,3.334,3.334,3.334h4.961c1.841,0,3.334-1.493,3.334-3.334V55.103c0-0.537-0.436-0.973-0.973-0.973h-0.394
								C112.526,54.13,112.091,54.566,112.091,55.103z"/>
						</g>
					</g>
					<g>
						<g>
							<path class="st14" d="M110.899,73.352h-4.566l-0.919,31.092c-0.064,1.813,1.388,3.317,3.202,3.317
								c1.814,0,3.266-1.504,3.202-3.317L110.899,73.352z"/>
						</g>
					</g>
				</g>
			</g>
			<g>
				<g>
					<g>
						<path class="st13" d="M134.845,67.073c0,5.308-3.267,6.279-7.297,6.279c-4.03,0-7.297-0.971-7.297-6.279
							c0-5.308,3.267-12.943,7.297-12.943C131.577,54.13,134.845,61.765,134.845,67.073z"/>
					</g>
				</g>
				<g>
					<g>
						<path class="st14" d="M129.826,73.213c-0.717,0.102-1.483,0.14-2.279,0.14c-0.796,0-1.562-0.038-2.279-0.14l-0.923,31.232
							c-0.064,1.813,1.388,3.317,3.202,3.317c1.814,0,3.266-1.504,3.202-3.317L129.826,73.213z"/>
					</g>
				</g>
			</g>
			<g>
				<g>
					<g>
						<g>
							<path class="st14" d="M149.759,85.496l-0.001,18.949c0.064,1.812-1.388,3.316-3.202,3.316c-1.814,0-3.266-1.504-3.202-3.316
								l0.568-18.949H149.759z"/>
						</g>
					</g>
				</g>
				<g>
					<g>
						<g>
							<path class="st13" d="M140.742,60.704v23.918c0,0.483,0.391,0.874,0.874,0.874h8.144V55.007c0-0.483-0.391-0.874-0.874-0.874
								h-1.573C143.684,54.133,140.742,57.075,140.742,60.704z"/>
						</g>
					</g>
				</g>
			</g>
		</g>
	</g>
</g>
</svg>
