<?xml version="1.0" encoding="utf-8"?>
<!-- Generator: Adobe Illustrator 24.0.0, SVG Export Plug-In . SVG Version: 6.00 Build 0)  -->
<svg version="1.1" id="Layer_1" xmlns="http://www.w3.org/2000/svg" xmlns:xlink="http://www.w3.org/1999/xlink" x="0px" y="0px"
	 viewBox="0 0 256 256" style="enable-background:new 0 0 256 256;" xml:space="preserve">
<style type="text/css">
	.st0{fill:#FFA91A;}
	.st1{fill:#F79219;}
	.st2{fill:#EF7816;}
	.st3{fill:#F2AD97;}
	.st4{fill:#8C3F0A;}
	.st5{fill:#7C3108;}
	.st6{fill:#E63950;}
	.st7{fill:#E8566F;}
	.st8{fill:#D10028;}
	.st9{fill:#76A34F;}
	.st10{fill:#648940;}
	.st11{fill:#B7022D;}
	.st12{fill:#F1F2F2;}
	.st13{fill:#E6E7E8;}
	.st14{fill:#FFFFFF;}
	.st15{fill:#D1D3D4;}
	.st16{fill:#FFD2C0;}
	.st17{fill:#FFC91D;}
	.st18{fill:#6D2E03;}
	.st19{fill:#995222;}
	.st20{fill:#5A7A39;}
	.st21{fill:#58595B;}
	.st22{fill:#808285;}
	.st23{fill:#FCC4AE;}
	.st24{fill:#91B56B;}
	.st25{fill:#E59076;}
	.st26{fill:#939598;}
	.st27{fill:#414042;}
	.st28{fill:#478CF7;}
	.st29{fill:#5E9CF7;}
	.st30{fill:#377DE2;}
	.st31{fill:#2266D3;}
	.st32{fill:#FFCC34;}
</style>
<g>
	<g>
		<g>
			<g>
				<path class="st9" d="M186.845,185.557c-2.209,0-4-1.791-4-4s1.791-4,4-4c4.528,0,8.213-3.685,8.213-8.213c0-2.209,1.791-4,4-4
					s4,1.791,4,4C203.058,178.283,195.784,185.557,186.845,185.557z"/>
			</g>
			<g>
				<path class="st6" d="M196.476,188.172c-1.161-8.069-8.458-14.343-16.426-16.063c-7.969-1.719-16.348,0.435-23.637,4.087
					c-14.433,7.232-26.112,20.501-42.341,23.896c-7.863,1.624-16.255,0.564-23.467-2.964c-5.843-2.917-12.178-7.894-19.03-5.629
					c-5.59,1.942-8.19,8.91-6.879,14.681c1.311,5.771,5.575,10.418,10.186,14.129c23.424,18.401,59.009,21.212,86.789,11.44
					c9.953-3.879,19.008-10.294,25.919-18.448C192.833,207.115,197.639,196.262,196.476,188.172z"/>
			</g>
			<g>
				<path class="st8" d="M196.476,188.172c-0.901-6.26-5.493-11.439-11.228-14.25c0.594,1.344,1.015,2.767,1.228,4.25
					c1.164,8.09-3.643,18.943-8.886,25.13c-6.911,8.154-15.966,14.569-25.919,18.448c-26.892,9.46-61.098,7.128-84.506-9.724
					c1.982,3.174,4.779,5.919,7.718,8.284c23.424,18.401,59.009,21.212,86.789,11.44c9.953-3.879,19.008-10.294,25.919-18.448
					C192.833,207.115,197.639,196.262,196.476,188.172z"/>
			</g>
			<g>
				<path class="st11" d="M196.476,188.172c-0.721-5.01-3.807-9.328-7.951-12.294c1.52,2.171,2.569,4.635,2.951,7.294
					c1.164,8.09-3.643,18.943-8.886,25.13c-6.911,8.154-15.966,14.569-25.919,18.448c-27.78,9.772-63.364,6.961-86.789-11.44
					c-0.296-0.238-0.59-0.48-0.883-0.726c1.719,2.119,3.764,4.021,5.883,5.726c23.424,18.401,59.009,21.212,86.789,11.44
					c9.953-3.879,19.008-10.294,25.919-18.448C192.833,207.115,197.639,196.262,196.476,188.172z"/>
			</g>
			<g>
				<path class="st9" d="M196.475,188.172c-1.161-8.069-8.457-14.343-16.426-16.063c-3.279-0.707-6.627-0.759-9.94-0.32
					c0.363,0.595,0.902,1.123,1.638,1.522c2.949,1.601,2.949,5.834,0,7.436c-4.123,2.239-2.08,8.525,2.571,7.912
					c3.327-0.438,5.815,2.987,4.371,6.016c-2.02,4.234,3.328,8.119,6.731,4.89l0,0c2.434-2.31,6.46-1.002,7.072,2.298
					c0.151,0.817,0.484,1.489,0.932,2.017C195.765,198.702,197.164,192.954,196.475,188.172z"/>
			</g>
			<g>
				<path class="st10" d="M196.65,190.494c0.047-6.488-4.128-12.325-9.565-15.566c0,0,0,0,0,0c-0.597-0.363-1.21-0.698-1.837-1.006
					c3.57,8.239-0.272,18.302-5.169,26.038c1.507,1.06,3.661,1.199,5.341-0.395c2.434-2.31,6.46-1.002,7.072,2.298
					c0.151,0.817,0.484,1.489,0.932,2.017C195.3,199.676,196.672,195.132,196.65,190.494z"/>
			</g>
		</g>
		<g>
			<g>
				<path class="st9" d="M56.942,191.098c-2.209,0-4-1.791-4-4c0-8.94,7.273-16.213,16.213-16.213c2.209,0,4,1.791,4,4s-1.791,4-4,4
					c-4.528,0-8.213,3.685-8.213,8.213C60.942,189.307,59.151,191.098,56.942,191.098z"/>
			</g>
			<g>
				<path class="st6" d="M59.524,168.269c1.161,8.069,8.458,14.343,16.426,16.063c7.969,1.719,16.348-0.435,23.637-4.087
					c14.433-7.232,26.112-20.501,42.341-23.896c7.863-1.624,16.255-0.564,23.467,2.964c5.843,2.917,12.178,7.894,19.03,5.629
					c5.59-1.942,8.19-8.91,6.879-14.681c-1.311-5.771-5.575-10.418-10.186-14.129c-23.424-18.401-59.009-21.212-86.789-11.44
					c-9.953,3.879-19.008,10.294-25.919,18.448C63.167,149.326,58.361,160.18,59.524,168.269z"/>
			</g>
			<g>
				<g>
					<path class="st7" d="M70.359,152.69c-0.369,0-0.739-0.11-1.05-0.3c-0.46-0.28-0.779-0.72-0.899-1.24s-0.04-1.06,0.239-1.51
						c0.9-1.46,1.841-2.77,2.811-3.91c6.46-7.63,14.84-13.6,24.229-17.27l0.061-0.03c9.84-3.44,20.819-5.26,31.78-5.26
						c12.3,0,24.289,2.27,34.67,6.58c1.02,0.43,1.51,1.6,1.08,2.61c-0.41,1-1.61,1.5-2.61,1.09c-9.89-4.11-21.34-6.28-33.12-6.28
						h-0.05c-10.48,0-20.98,1.73-30.38,5.02c-8.761,3.44-16.58,9.01-22.61,16.12c-0.82,0.98-1.65,2.13-2.44,3.41
						c0,0.01-0.01,0.01-0.01,0.01C71.689,152.33,71.06,152.69,70.359,152.69z M168.649,137.06c-0.34,0-0.659-0.08-0.96-0.24
						c0,0,0,0-0.01,0c-0.47-0.26-0.81-0.69-0.95-1.2c-0.149-0.51-0.09-1.05,0.17-1.52c0.511-0.93,1.78-1.3,2.71-0.79
						c0.971,0.54,1.32,1.75,0.79,2.72C170.05,136.67,169.37,137.06,168.649,137.06z"/>
				</g>
			</g>
			<g>
				<path class="st8" d="M191.304,150.26c-1.227-5.401-5.04-9.817-9.303-13.403c2.023,2.492,3.594,5.283,4.303,8.403
					c1.311,5.771-1.289,12.739-6.879,14.681c-6.852,2.265-13.187-2.712-19.03-5.629c-7.212-3.528-15.604-4.588-23.467-2.964
					c-16.229,3.396-27.907,16.665-42.341,23.896c-7.288,3.653-15.668,5.807-23.637,4.087c-3.021-0.652-5.945-1.958-8.475-3.769
					c3.092,4.416,8.132,7.616,13.475,8.769c7.969,1.719,16.348-0.435,23.637-4.087c14.433-7.232,26.112-20.501,42.341-23.896
					c7.863-1.624,16.255-0.564,23.467,2.964c5.843,2.917,12.178,7.894,19.03,5.629C190.016,162.999,192.615,156.031,191.304,150.26z
					"/>
			</g>
			<g>
				<path class="st9" d="M59.525,168.269c1.161,8.069,8.457,14.343,16.426,16.063c3.279,0.707,6.627,0.759,9.94,0.32
					c-0.363-0.595-0.902-1.123-1.638-1.522c-2.949-1.601-2.949-5.834,0-7.436c4.123-2.239,2.08-8.525-2.571-7.912
					c-3.327,0.438-5.815-2.987-4.371-6.016c2.02-4.234-3.328-8.119-6.731-4.89l0,0c-2.434,2.31-6.46,1.002-7.072-2.298
					c-0.151-0.817-0.484-1.489-0.932-2.017C60.235,157.739,58.836,163.487,59.525,168.269z"/>
			</g>
			<g>
				<path class="st10" d="M84.253,183.129c-1.452-0.788-2.188-2.214-2.211-3.65c-6.717,1.169-13.967,0.179-19.566-3.917
					c5.074,7.307,14.506,10.368,23.104,9.128c0.104-0.013,0.207-0.026,0.31-0.04C85.527,184.057,84.989,183.529,84.253,183.129z"/>
			</g>
		</g>
	</g>
	<g>
		<g>
			<g>
				<g>
					<g>
						<g>
							<g>
								<g>
									<g>
										<path class="st2" d="M55.768,130.018c-2.236-7.36,4.772-12.83,8.139-19.124c7.389-13.97-4.384-28.854-17.947-32.427
											c-2.945-1.053-4.614,1.434-2.951,4.01c0.923,1.236,2.411,1.882,3.725,2.69c6.021,3.7,8.696,12.021,5.957,18.536
											c-1.887,4.488-5.854,7.837-7.821,12.29c-2.347,5.315-1.504,11.635,1.078,16.841c1.415,2.854,9.577,16.279,13.332,11.201
											c0.843-1.14,0.941-2.698,0.589-4.071C58.977,136.481,56.764,133.453,55.768,130.018z"/>
									</g>
								</g>
							</g>
						</g>
					</g>
				</g>
			</g>
			<g>
				<g>
					<g>
						<g>
							<g>
								<g>
									<g>
										<path class="st2" d="M203.23,130.018c-2.236-7.36,4.772-12.83,8.139-19.124c7.389-13.97-4.384-28.854-17.947-32.427
											c-2.945-1.053-4.614,1.434-2.951,4.01c0.923,1.236,2.411,1.882,3.725,2.69c6.021,3.7,8.696,12.021,5.957,18.536
											c-1.886,4.488-5.854,7.837-7.821,12.29c-2.347,5.315-1.504,11.635,1.078,16.841c1.415,2.854,9.577,16.279,13.332,11.201
											c0.843-1.14,0.941-2.698,0.589-4.071C206.439,136.481,204.227,133.453,203.23,130.018z"/>
									</g>
								</g>
							</g>
						</g>
					</g>
				</g>
			</g>
		</g>
		<g>
			<g>
				<g>
					<g>
						<g>
							<g>
								<g>
									<g>
										<path class="st0" d="M91.66,99.504c-2.236-7.36,4.772-12.83,8.139-19.124c7.389-13.97-4.384-28.854-17.947-32.427
											c-2.945-1.053-4.614,1.434-2.951,4.01c0.923,1.236,2.411,1.882,3.725,2.69c6.021,3.7,8.696,12.021,5.957,18.536
											c-1.886,4.488-5.854,7.837-7.821,12.29c-2.347,5.315-1.504,11.635,1.078,16.841c1.415,2.854,9.577,16.279,13.332,11.201
											c0.843-1.14,0.941-2.698,0.589-4.071C94.869,105.967,92.656,102.939,91.66,99.504z"/>
									</g>
								</g>
							</g>
						</g>
					</g>
				</g>
			</g>
			<g>
				<g>
					<g>
						<g>
							<g>
								<g>
									<g>
										<path class="st0" d="M167.338,99.504c-2.236-7.36,4.772-12.83,8.139-19.124c7.389-13.97-4.384-28.854-17.947-32.427
											c-2.945-1.053-4.614,1.434-2.951,4.01c0.923,1.236,2.411,1.882,3.725,2.69c6.021,3.7,8.696,12.021,5.957,18.536
											c-1.887,4.488-5.854,7.837-7.821,12.29c-2.347,5.315-1.504,11.635,1.078,16.841c1.415,2.854,9.577,16.279,13.332,11.201
											c0.843-1.14,0.941-2.698,0.589-4.071C170.547,105.967,168.335,102.939,167.338,99.504z"/>
									</g>
								</g>
							</g>
						</g>
					</g>
				</g>
			</g>
		</g>
		<g>
			<g>
				<g>
					<g>
						<g>
							<g>
								<g>
									<path class="st2" d="M129.499,72.175c-2.236-7.36,4.772-12.83,8.139-19.124c7.389-13.97-4.384-28.854-17.947-32.427
										c-2.945-1.053-4.614,1.434-2.951,4.01c0.923,1.236,2.411,1.882,3.725,2.69c6.021,3.7,8.696,12.021,5.957,18.536
										c-1.887,4.488-5.854,7.837-7.821,12.29c-2.347,5.315-1.504,11.635,1.078,16.841c1.415,2.854,9.577,16.279,13.332,11.201
										c0.843-1.14,0.941-2.698,0.589-4.071C132.708,78.638,130.495,75.61,129.499,72.175z"/>
								</g>
							</g>
						</g>
					</g>
				</g>
			</g>
		</g>
	</g>
</g>
</svg>
