<?xml version="1.0" encoding="utf-8"?>
<!-- Generator: Adobe Illustrator 24.0.0, SVG Export Plug-In . SVG Version: 6.00 Build 0)  -->
<svg version="1.1" id="Layer_1" xmlns="http://www.w3.org/2000/svg" xmlns:xlink="http://www.w3.org/1999/xlink" x="0px" y="0px"
	 viewBox="0 0 256 256" style="enable-background:new 0 0 256 256;" xml:space="preserve">
<style type="text/css">
	.st0{fill:#FFA91A;}
	.st1{fill:#F79219;}
	.st2{fill:#EF7816;}
	.st3{fill:#F2AD97;}
	.st4{fill:#8C3F0A;}
	.st5{fill:#7C3108;}
	.st6{fill:#E63950;}
	.st7{fill:#E8566F;}
	.st8{fill:#D10028;}
	.st9{fill:#76A34F;}
	.st10{fill:#648940;}
	.st11{fill:#B7022D;}
	.st12{fill:#F1F2F2;}
	.st13{fill:#E6E7E8;}
	.st14{fill:#FFFFFF;}
	.st15{fill:#D1D3D4;}
	.st16{fill:#FFD2C0;}
	.st17{fill:#FFC91D;}
	.st18{fill:#6D2E03;}
	.st19{fill:#995222;}
	.st20{fill:#5A7A39;}
	.st21{fill:#58595B;}
	.st22{fill:#808285;}
	.st23{fill:#FCC4AE;}
	.st24{fill:#91B56B;}
	.st25{fill:#E59076;}
	.st26{fill:#939598;}
	.st27{fill:#414042;}
	.st28{fill:#478CF7;}
	.st29{fill:#5E9CF7;}
	.st30{fill:#377DE2;}
	.st31{fill:#2266D3;}
	.st32{fill:#FFCC34;}
</style>
<g>
	<g>
		<g>
			<g>
				<g>
					<g>
						<g>
							<path class="st4" d="M128,23.946C70.533,23.946,23.946,70.533,23.946,128c0,57.467,46.587,104.054,104.054,104.054
								S232.054,185.467,232.054,128C232.054,70.533,185.467,23.946,128,23.946z"/>
						</g>
					</g>
				</g>
			</g>
		</g>
		<g>
			<g>
				<path class="st19" d="M49.59,71.18L49.59,71.18c-0.44,0-0.85-0.14-1.2-0.4c-0.43-0.32-0.7-0.79-0.78-1.32
					c-0.07-0.53,0.06-1.05,0.39-1.48c9.13-12.15,21.1-22.22,34.6-29.13c6.89-3.52,14.18-6.23,21.68-8.07
					c7.73-1.88,15.71-2.83,23.72-2.83c13.46,0,26.53,2.64,38.84,7.84c0.49,0.21,0.87,0.6,1.07,1.09c0.21,0.5,0.2,1.04-0.01,1.53
					c-0.42,0.99-1.62,1.49-2.62,1.07c-11.82-5-24.36-7.53-37.28-7.53c-30.44,0-58.43,14.01-76.81,38.43
					C50.81,70.89,50.23,71.18,49.59,71.18z M173.29,43.05c-0.32,0-0.64-0.08-0.92-0.23c-0.48-0.25-0.83-0.67-0.98-1.18
					c-0.16-0.51-0.12-1.05,0.13-1.52c0.5-0.94,1.75-1.34,2.7-0.84c0.98,0.51,1.36,1.72,0.85,2.7
					C174.72,42.64,174.04,43.05,173.29,43.05z"/>
			</g>
		</g>
		<g>
			<g>
				<path class="st5" d="M196.405,49.595c15.971,18.29,25.649,42.216,25.649,68.405c0,57.467-46.587,104.054-104.054,104.054
					c-26.189,0-50.115-9.678-68.405-25.649C68.669,218.25,96.721,232.054,128,232.054c57.467,0,104.054-46.587,104.054-104.054
					C232.054,96.721,218.25,68.669,196.405,49.595z"/>
			</g>
		</g>
		<g>
			<g>
				<path class="st18" d="M199.029,51.97c17.381,18.596,28.025,43.568,28.025,71.03c0,57.467-46.587,104.054-104.054,104.054
					c-27.462,0-52.434-10.644-71.03-28.024c18.99,20.319,46.024,33.024,76.03,33.024c57.467,0,104.054-46.587,104.054-104.054
					C232.054,97.994,219.348,70.96,199.029,51.97z"/>
			</g>
		</g>
		<g>
			<path class="st0" d="M23.946,128c0,17.837,4.488,34.625,12.397,49.298h183.315c7.908-14.673,12.397-31.461,12.397-49.298
				c0-17.837-4.488-34.625-12.397-49.298H36.343C28.435,93.375,23.946,110.163,23.946,128z"/>
		</g>
		<g>
			<path class="st1" d="M232.051,127.188c-0.093-16.818-4.399-33.724-12.396-48.486h-5.28c13.391,31.115,8.676,71.724-10.86,98.595
				h16.142C227.934,161.998,232.213,144.58,232.051,127.188z"/>
		</g>
		<g>
			<path class="st14" d="M45.645,172.003h27.522c2.013,0,3.646-1.632,3.646-3.646v-80.71c0-2.013-1.632-3.646-3.646-3.646H45.645
				c-2.013,0-3.646,1.632-3.646,3.646v80.71C41.999,170.371,43.631,172.003,45.645,172.003z"/>
		</g>
	</g>
	<g>
		<g>
			<g>
				<g>
					<g>
						<g>
							
								<ellipse transform="matrix(0.7071 -0.7071 0.7071 0.7071 -53.3587 128.1406)" class="st14" cx="128" cy="128.48" rx="44.526" ry="44.526"/>
						</g>
					</g>
				</g>
			</g>
			<g>
				<g>
					<g>
						<g>
							<g>
								<g>
									
										<ellipse transform="matrix(0.9593 -0.2822 0.2822 0.9593 -30.9759 41.3389)" class="st13" cx="128" cy="128.187" rx="33.739" ry="33.739"/>
								</g>
							</g>
						</g>
						<g>
							<g>
								<g>
									
										<ellipse transform="matrix(0.9813 -0.1923 0.1923 0.9813 -22.2644 27.0113)" class="st6" cx="128" cy="128.187" rx="26.345" ry="26.345"/>
								</g>
							</g>
						</g>
						<g>
							<path class="st8" d="M140.948,105.239c2.162,3.824,3.397,8.242,3.397,12.948c0,14.55-11.795,26.345-26.345,26.345
								c-4.706,0-9.124-1.234-12.948-3.397c4.522,7.998,13.105,13.397,22.948,13.397c14.55,0,26.345-11.795,26.345-26.345
								C154.345,118.344,148.946,109.762,140.948,105.239z"/>
						</g>
					</g>
				</g>
			</g>
		</g>
		<g>
			<path class="st13" d="M165.975,132.76h-7.716v-9.519h7.716c2.209,0,4,1.791,4,4v1.519
				C169.975,130.969,168.184,132.76,165.975,132.76z"/>
		</g>
	</g>
	<g>
		<g>
			<g>
				<g>
					<path class="st13" d="M197.435,108.24c0,7.357-4.529,8.704-10.115,8.704c-5.586,0-10.115-1.346-10.115-8.704
						c0-7.357,4.529-17.94,10.115-17.94C192.907,90.301,197.435,100.883,197.435,108.24z"/>
				</g>
			</g>
			<g>
				<g>
					<path class="st14" d="M190.479,116.75c-0.994,0.141-2.056,0.193-3.159,0.193s-2.165-0.053-3.159-0.193l-1.279,43.291
						c-0.088,2.512,1.924,4.597,4.438,4.597c2.514,0,4.527-2.085,4.438-4.597L190.479,116.75z"/>
				</g>
			</g>
		</g>
		<g>
			<g>
				<g>
					<g>
						<path class="st14" d="M213.667,133.776l-0.002,26.265c0.088,2.512-1.924,4.597-4.438,4.597c-2.514,0-4.526-2.085-4.438-4.597
							l0.787-26.265H213.667z"/>
					</g>
				</g>
			</g>
			<g>
				<g>
					<g>
						<path class="st13" d="M201.169,99.412v33.153c0,0.669,0.542,1.212,1.212,1.212h11.288v-42.26c0-0.669-0.542-1.212-1.212-1.212
							h-2.18C205.247,90.304,201.169,94.382,201.169,99.412z"/>
					</g>
				</g>
			</g>
		</g>
	</g>
	<g>
		<g>
			<g>
				<g>
					<path class="st15" d="M70.597,91.649v16.211c0,0.891-0.722,1.614-1.614,1.614l0,0c-0.891,0-1.614-0.722-1.614-1.614V91.649
						c0-0.745-0.604-1.348-1.349-1.348h-0.48c-0.745,0-1.348,0.604-1.348,1.348v16.211c0,0.891-0.722,1.614-1.614,1.614l0,0
						c-0.891,0-1.614-0.722-1.614-1.614V91.649c0-0.745-0.604-1.348-1.349-1.348h-0.546c-0.745,0-1.349,0.604-1.349,1.348v20.674
						c0,2.552,2.069,4.621,4.621,4.621h6.876c2.552,0,4.621-2.069,4.621-4.621V91.649c0-0.745-0.604-1.348-1.349-1.348h-0.546
						C71.201,90.301,70.597,90.905,70.597,91.649z"/>
				</g>
			</g>
			<g>
				<g>
					<path class="st15" d="M68.945,116.944h-6.329l-1.274,43.097c-0.088,2.512,1.924,4.597,4.438,4.597
						c2.514,0,4.527-2.085,4.438-4.597L68.945,116.944z"/>
				</g>
			</g>
		</g>
	</g>
	<g>
		<g>
			<g>
				<g>
					<path class="st13" d="M53.594,120.003v9.913c0,0.545-0.442,0.987-0.987,0.987l0,0c-0.545,0-0.987-0.442-0.987-0.987v-9.913
						c0-0.455-0.369-0.825-0.825-0.825h-0.294c-0.455,0-0.825,0.369-0.825,0.825v9.913c0,0.545-0.442,0.987-0.987,0.987l0,0
						c-0.545,0-0.987-0.442-0.987-0.987v-9.913c0-0.455-0.369-0.825-0.825-0.825h-0.334c-0.455,0-0.825,0.369-0.825,0.825v12.643
						c0,1.561,1.265,2.826,2.826,2.826h4.205c1.561,0,2.826-1.265,2.826-2.826v-12.643c0-0.455-0.369-0.825-0.825-0.825h-0.334
						C53.963,119.179,53.594,119.548,53.594,120.003z"/>
				</g>
			</g>
			<g>
				<g>
					<path class="st13" d="M52.584,135.472h-3.87l-0.779,26.355c-0.054,1.536,1.177,2.811,2.714,2.811
						c1.537,0,2.768-1.275,2.714-2.811L52.584,135.472z"/>
				</g>
			</g>
		</g>
	</g>
	<g>
		<g>
			<circle class="st14" cx="95.339" cy="58.456" r="12.521"/>
		</g>
		<g>
			<g>
				<circle class="st13" cx="95.339" cy="58.456" r="8.453"/>
			</g>
			<g>
				<path class="st13" d="M95.339,68.634L95.339,68.634c-0.98,0-1.775-0.795-1.775-1.775V50.053c0-0.98,0.795-1.775,1.775-1.775h0
					c0.98,0,1.775,0.795,1.775,1.775v16.806C97.114,67.84,96.319,68.634,95.339,68.634z"/>
			</g>
			<g>
				<path class="st13" d="M85.161,58.456L85.161,58.456c0-0.98,0.795-1.775,1.775-1.775h16.806c0.98,0,1.775,0.795,1.775,1.775v0
					c0,0.98-0.795,1.775-1.775,1.775H86.936C85.956,60.231,85.161,59.437,85.161,58.456z"/>
			</g>
			<g>
				<path class="st13" d="M88.142,65.653L88.142,65.653c-0.693-0.693-0.693-1.817,0-2.51l11.884-11.884
					c0.693-0.693,1.817-0.693,2.51,0h0c0.693,0.693,0.693,1.817,0,2.51L90.652,65.653C89.959,66.346,88.835,66.346,88.142,65.653z"
					/>
			</g>
			<g>
				<path class="st13" d="M88.142,51.26L88.142,51.26c0.693-0.693,1.817-0.693,2.51,0l11.884,11.884c0.693,0.693,0.693,1.817,0,2.51
					l0,0c-0.693,0.693-1.817,0.693-2.51,0L88.142,53.77C87.449,53.077,87.449,51.953,88.142,51.26z"/>
			</g>
		</g>
	</g>
	<g>
		<g>
			<circle class="st14" cx="128" cy="58.456" r="12.521"/>
		</g>
		<g>
			<g>
				<circle class="st13" cx="128" cy="58.456" r="8.453"/>
			</g>
			<g>
				<path class="st13" d="M128,68.634L128,68.634c-0.98,0-1.775-0.795-1.775-1.775V50.053c0-0.98,0.795-1.775,1.775-1.775l0,0
					c0.98,0,1.775,0.795,1.775,1.775v16.806C129.775,67.84,128.98,68.634,128,68.634z"/>
			</g>
			<g>
				<path class="st13" d="M117.822,58.456L117.822,58.456c0-0.98,0.795-1.775,1.775-1.775h16.806c0.98,0,1.775,0.795,1.775,1.775v0
					c0,0.98-0.795,1.775-1.775,1.775h-16.806C118.617,60.231,117.822,59.437,117.822,58.456z"/>
			</g>
			<g>
				<path class="st13" d="M120.803,65.653L120.803,65.653c-0.693-0.693-0.693-1.817,0-2.51l11.884-11.884
					c0.693-0.693,1.817-0.693,2.51,0l0,0c0.693,0.693,0.693,1.817,0,2.51l-11.884,11.884
					C122.62,66.346,121.496,66.346,120.803,65.653z"/>
			</g>
			<g>
				<path class="st13" d="M120.803,51.26L120.803,51.26c0.693-0.693,1.817-0.693,2.51,0l11.884,11.884
					c0.693,0.693,0.693,1.817,0,2.51v0c-0.693,0.693-1.817,0.693-2.51,0L120.803,53.77C120.11,53.077,120.11,51.953,120.803,51.26z"
					/>
			</g>
		</g>
	</g>
	<g>
		<g>
			<circle class="st14" cx="160.661" cy="58.456" r="12.521"/>
		</g>
		<g>
			<g>
				<circle class="st13" cx="160.661" cy="58.456" r="8.453"/>
			</g>
			<g>
				<path class="st13" d="M160.661,68.634L160.661,68.634c-0.98,0-1.775-0.795-1.775-1.775V50.053c0-0.98,0.795-1.775,1.775-1.775
					l0,0c0.98,0,1.775,0.795,1.775,1.775v16.806C162.436,67.84,161.641,68.634,160.661,68.634z"/>
			</g>
			<g>
				<path class="st13" d="M150.483,58.456L150.483,58.456c0-0.98,0.795-1.775,1.775-1.775h16.806c0.98,0,1.775,0.795,1.775,1.775v0
					c0,0.98-0.795,1.775-1.775,1.775h-16.806C151.278,60.231,150.483,59.437,150.483,58.456z"/>
			</g>
			<g>
				<path class="st13" d="M153.464,65.653L153.464,65.653c-0.693-0.693-0.693-1.817,0-2.51l11.884-11.884
					c0.693-0.693,1.817-0.693,2.51,0l0,0c0.693,0.693,0.693,1.817,0,2.51l-11.884,11.884
					C155.281,66.346,154.157,66.346,153.464,65.653z"/>
			</g>
			<g>
				<path class="st13" d="M153.464,51.26L153.464,51.26c0.693-0.693,1.817-0.693,2.51,0l11.884,11.884
					c0.693,0.693,0.693,1.817,0,2.51v0c-0.693,0.693-1.817,0.693-2.51,0L153.464,53.77C152.771,53.077,152.771,51.953,153.464,51.26
					z"/>
			</g>
		</g>
	</g>
	<g>
		<g>
			<g>
				<g>
					<g>
						<g>
							<g>
								<g>
									<path class="st1" d="M153.828,201.898c0,6.116,4.958,11.073,11.073,11.073c6.116,0,11.073-4.958,11.073-11.073
										c0-6.116-4.958-11.073-11.073-11.073C158.785,190.824,153.828,195.782,153.828,201.898z M158.962,201.898
										c0-3.28,2.659-5.939,5.939-5.939c3.28,0,5.939,2.659,5.939,5.939s-2.659,5.939-5.939,5.939
										C161.621,207.837,158.962,205.178,158.962,201.898z"/>
								</g>
							</g>
							<g>
								<g>
									<g>
										<path class="st2" d="M154.115,199.38l-2.692-2.375c-0.405-0.358-0.503-0.951-0.232-1.42l1.432-2.48
											c0.27-0.468,0.833-0.681,1.345-0.509l3.433,1.154C155.795,195.23,154.627,197.179,154.115,199.38z"/>
									</g>
								</g>
								<g>
									<g>
										<path class="st2" d="M178.379,197.005l-2.692,2.375c-0.512-2.201-1.68-4.149-3.286-5.629l3.433-1.154
											c0.512-0.172,1.075,0.041,1.345,0.509l1.432,2.48C178.882,196.054,178.784,196.647,178.379,197.005z"/>
									</g>
								</g>
								<g>
									<g>
										<path class="st2" d="M164.901,190.825c-1.128,0-2.217,0.169-3.242,0.482l0.697-3.452c0.107-0.53,0.573-0.911,1.113-0.911
											h2.864c0.541,0,1.006,0.381,1.113,0.911l0.697,3.452C167.118,190.993,166.029,190.825,164.901,190.825z"/>
									</g>
								</g>
								<g>
									<g>
										<path class="st2" d="M151.511,206.639l2.591-2.285c0.494,2.182,1.632,4.119,3.204,5.601l-3.25,1.093
											c-0.512,0.172-1.075-0.041-1.345-0.509l-1.432-2.48C151.008,207.591,151.105,206.997,151.511,206.639z"/>
									</g>
								</g>
								<g>
									<g>
										<path class="st2" d="M164.901,212.971c1.128,0,2.217-0.169,3.242-0.482l-0.697,3.452c-0.107,0.53-0.573,0.911-1.113,0.911
											h-2.864c-0.541,0-1.006-0.381-1.113-0.911l-0.697-3.452C162.684,212.803,163.773,212.971,164.901,212.971z"/>
									</g>
								</g>
								<g>
									<g>
										<path class="st2" d="M175.701,204.354l2.59,2.285c0.405,0.358,0.503,0.951,0.232,1.42l-1.432,2.48
											c-0.27,0.468-0.833,0.681-1.345,0.509l-3.25-1.093C174.069,208.473,175.207,206.536,175.701,204.354z"/>
									</g>
								</g>
							</g>
						</g>
					</g>
				</g>
			</g>
		</g>
		<g>
			<g>
				<g>
					<g>
						<g>
							<g>
								<g>
									<path class="st1" d="M116.927,201.898c0,6.116,4.958,11.073,11.073,11.073s11.073-4.958,11.073-11.073
										c0-6.116-4.958-11.073-11.073-11.073S116.927,195.782,116.927,201.898z M122.061,201.898c0-3.28,2.659-5.939,5.939-5.939
										c3.28,0,5.939,2.659,5.939,5.939s-2.659,5.939-5.939,5.939C124.72,207.837,122.061,205.178,122.061,201.898z"/>
								</g>
							</g>
							<g>
								<g>
									<g>
										<path class="st2" d="M117.214,199.38l-2.692-2.375c-0.405-0.358-0.503-0.951-0.232-1.42l1.432-2.48
											c0.27-0.468,0.833-0.681,1.345-0.509l3.433,1.154C118.894,195.23,117.726,197.179,117.214,199.38z"/>
									</g>
								</g>
								<g>
									<g>
										<path class="st2" d="M141.478,197.005l-2.692,2.375c-0.512-2.201-1.68-4.149-3.286-5.629l3.433-1.154
											c0.512-0.172,1.075,0.041,1.345,0.509l1.432,2.48C141.981,196.054,141.883,196.647,141.478,197.005z"/>
									</g>
								</g>
								<g>
									<g>
										<path class="st2" d="M128,190.825c-1.128,0-2.217,0.169-3.242,0.482l0.697-3.452c0.107-0.53,0.573-0.911,1.113-0.911
											h2.864c0.541,0,1.006,0.381,1.113,0.911l0.697,3.452C130.217,190.993,129.128,190.825,128,190.825z"/>
									</g>
								</g>
								<g>
									<g>
										<path class="st2" d="M114.61,206.639l2.591-2.285c0.494,2.182,1.632,4.119,3.204,5.601l-3.25,1.093
											c-0.512,0.172-1.075-0.041-1.345-0.509l-1.432-2.48C114.107,207.591,114.204,206.997,114.61,206.639z"/>
									</g>
								</g>
								<g>
									<g>
										<path class="st2" d="M128,212.971c1.128,0,2.217-0.169,3.242-0.482l-0.697,3.452c-0.107,0.53-0.573,0.911-1.113,0.911
											h-2.864c-0.541,0-1.006-0.381-1.113-0.911l-0.697-3.452C125.783,212.803,126.872,212.971,128,212.971z"/>
									</g>
								</g>
								<g>
									<g>
										<path class="st2" d="M138.8,204.354l2.59,2.285c0.405,0.358,0.503,0.951,0.232,1.42l-1.432,2.48
											c-0.27,0.468-0.833,0.681-1.345,0.509l-3.25-1.093C137.168,208.473,138.306,206.536,138.8,204.354z"/>
									</g>
								</g>
							</g>
						</g>
					</g>
				</g>
			</g>
		</g>
		<g>
			<g>
				<g>
					<g>
						<g>
							<g>
								<g>
									<path class="st1" d="M80.025,201.898c0,6.116,4.958,11.073,11.073,11.073c6.116,0,11.073-4.958,11.073-11.073
										c0-6.116-4.958-11.073-11.073-11.073C84.983,190.824,80.025,195.782,80.025,201.898z M85.16,201.898
										c0-3.28,2.659-5.939,5.939-5.939c3.28,0,5.939,2.659,5.939,5.939s-2.659,5.939-5.939,5.939
										C87.819,207.837,85.16,205.178,85.16,201.898z"/>
								</g>
							</g>
							<g>
								<g>
									<g>
										<path class="st2" d="M80.313,199.38l-2.692-2.375c-0.405-0.358-0.503-0.951-0.232-1.42l1.432-2.48
											c0.27-0.468,0.833-0.681,1.345-0.509l3.433,1.154C81.993,195.23,80.825,197.179,80.313,199.38z"/>
									</g>
								</g>
								<g>
									<g>
										<path class="st2" d="M104.577,197.005l-2.692,2.375c-0.512-2.201-1.68-4.149-3.286-5.629l3.433-1.154
											c0.512-0.172,1.075,0.041,1.345,0.509l1.432,2.48C105.079,196.054,104.982,196.647,104.577,197.005z"/>
									</g>
								</g>
								<g>
									<g>
										<path class="st2" d="M91.099,190.825c-1.128,0-2.217,0.169-3.242,0.482l0.697-3.452c0.107-0.53,0.573-0.911,1.113-0.911
											h2.864c0.541,0,1.006,0.381,1.113,0.911l0.697,3.452C93.316,190.993,92.227,190.825,91.099,190.825z"/>
									</g>
								</g>
								<g>
									<g>
										<path class="st2" d="M77.708,206.639l2.591-2.285c0.494,2.182,1.632,4.119,3.204,5.601l-3.25,1.093
											c-0.512,0.172-1.075-0.041-1.345-0.509l-1.432-2.48C77.206,207.591,77.303,206.997,77.708,206.639z"/>
									</g>
								</g>
								<g>
									<g>
										<path class="st2" d="M91.099,212.971c1.128,0,2.217-0.169,3.242-0.482l-0.697,3.452c-0.107,0.53-0.573,0.911-1.113,0.911
											h-2.864c-0.541,0-1.006-0.381-1.113-0.911l-0.697-3.452C88.882,212.803,89.971,212.971,91.099,212.971z"/>
									</g>
								</g>
								<g>
									<g>
										<path class="st2" d="M101.899,204.354l2.59,2.285c0.405,0.358,0.503,0.951,0.232,1.42l-1.432,2.48
											c-0.27,0.468-0.833,0.681-1.345,0.509l-3.25-1.093C100.267,208.473,101.405,206.536,101.899,204.354z"/>
									</g>
								</g>
							</g>
						</g>
					</g>
				</g>
			</g>
		</g>
	</g>
</g>
</svg>
