<svg width="244" height="180" viewBox="0 0 244 180" fill="none" xmlns="http://www.w3.org/2000/svg">
<g id="Image">
<path id="Vector" fill-rule="evenodd" clip-rule="evenodd" d="M130.347 0.956396C123.855 2.32865 120.03 3.81004 117.875 5.78694C116.863 6.71611 116.848 6.7161 114.106 5.75717C112.592 5.22716 109.763 4.54269 107.819 4.23611C105.875 3.92907 103.463 3.38726 102.459 3.03203C99.9028 2.1279 96.2721 2.22614 90.6934 3.34993C81.1202 5.27865 75.9185 8.97548 70.2625 17.8699L67.1331 22.7907L66.456 21.4453C65.5056 19.5577 59.4674 13.4782 56.9275 11.8513C53.049 9.36709 50.1491 8.85031 41.6437 9.12996C33.331 9.40252 29.4373 10.2268 24.1413 12.8348C15.0992 17.2875 7.662 26.3004 3.91348 37.3494C1.97726 43.0552 1.32416 47.6878 1.32416 55.7112C1.32416 66.522 2.18224 72.0455 4.79466 78.0528L5.55143 79.7925L3.55536 80.8894C-0.719502 83.2395 -1.08186 87.4517 2.15821 97.1387C4.00443 102.66 9.00921 113.369 11.3785 116.869C12.1918 118.07 12.7064 119.802 13.1173 122.717C13.8368 127.824 17.5585 142.982 18.3181 143.899C19.2077 144.974 20.2661 144.698 22.9199 142.699C26.8225 139.759 28.0472 139.732 35.4873 142.413C39.871 143.994 41.1192 143.958 42.8693 142.204L44.2891 140.781L49.1591 143.975C51.838 145.732 54.3651 147.382 54.775 147.642C55.374 148.021 55.6133 149.683 55.9898 156.068C56.2476 160.442 56.5864 164.531 56.7428 165.155C56.9747 166.081 56.7518 166.44 55.5177 167.121C52.9453 168.542 49.8593 171.038 49.8593 171.697C49.8593 172.043 50.2005 172.61 50.6175 172.957C51.2612 173.493 52.0797 173.344 56.0464 171.972C62.2768 169.816 62.7791 169.249 62.3899 164.795C62.224 162.895 61.9644 158.95 61.8131 156.027C61.5016 150.013 61.2142 150.358 65.645 151.431C67.2 151.807 69.918 152.118 71.6846 152.122C74.5821 152.129 74.8705 152.215 74.6236 152.995C74.4728 153.47 74.0407 157.086 73.6628 161.03C72.8928 169.071 73.0954 170.38 75.1706 170.777C75.8925 170.915 77.8613 171.375 79.5459 171.799C85.7617 173.365 88.0277 173.239 88.0277 171.325C88.0277 169.797 86.8931 168.919 83.1662 167.564C81.3996 166.921 79.8404 166.281 79.7009 166.142C79.5619 166.002 79.7169 162.464 80.0454 158.279L80.6429 150.67L84.127 149.056C91.8008 145.501 100.63 138.254 105.129 131.816C105.726 130.961 105.968 130.909 107.051 131.403C108.272 131.961 108.73 132.762 107.828 132.762C107.033 132.762 106.675 135.179 107.402 135.64C108.35 136.242 108.656 136.175 109.696 135.132C110.628 134.198 110.632 134.199 111.357 135.604C112.149 137.14 113.043 137.395 113.92 136.335C114.329 135.841 114.344 135.4 113.977 134.713C113.058 132.99 113.369 132.763 116.654 132.754C118.403 132.749 121.319 132.431 123.133 132.046C124.947 131.66 126.474 131.345 126.527 131.345C126.579 131.345 127.309 132.355 128.149 133.589C128.989 134.823 130.891 137.109 132.375 138.668L135.074 141.503L135.861 149.51C136.836 159.434 136.588 162.161 134.555 163.887C133.755 164.565 132.426 165.545 131.6 166.065C130.773 166.584 129.172 167.815 128.042 168.798C126.327 170.29 126.074 170.721 126.511 171.396C126.834 171.894 127.541 172.167 128.351 172.105C130.193 171.964 139.384 168.197 140.419 167.159C141.137 166.439 141.275 165.504 141.275 161.358C141.275 156.164 142.148 146.93 142.637 146.939C142.795 146.942 143.965 147.26 145.238 147.647C146.51 148.034 148.604 148.351 149.891 148.351H152.231L151.904 149.886C150.925 154.486 150.244 160.458 150.237 164.515L150.228 169.106L152.938 170.85C154.428 171.808 156.813 173.103 158.239 173.727C159.664 174.351 161.215 175.071 161.685 175.328C162.961 176.024 164.365 175.393 164.365 174.124C164.365 172.836 161.118 169.663 158.354 168.25C156.622 167.363 156.47 167.121 156.191 164.791C155.716 160.827 155.829 157.553 156.567 153.881C156.944 152.009 157.315 149.775 157.392 148.917C157.527 147.41 157.664 147.314 161.537 146.01C166.437 144.361 173.477 141.292 177.477 139.062C179.116 138.148 180.559 137.502 180.683 137.626C180.807 137.75 180.59 140.162 180.202 142.984C178.805 153.116 178.401 159.799 178.946 163.732C180.528 175.128 187.886 180 203.517 180C208.549 180 209.23 179.899 210.097 179.031C211.152 177.973 211.059 177.201 209.535 174.339C208.438 172.278 208.431 171.378 209.505 170.404C210.756 169.269 216.059 166.984 219.026 166.302C223.389 165.299 223.968 165.07 224.121 164.276C224.224 163.746 223.355 163.05 221.294 162.012C209.02 155.827 206.278 149.495 209.395 134.541C210.918 127.234 211.462 125.381 214.187 118.191C216.257 112.726 216.532 112.266 218.536 110.893C221.556 108.824 228.33 101.914 230.901 98.2786C234.28 93.5014 242.65 80.2635 243.361 78.5719C243.713 77.7358 244 75.8921 244 74.475C244 72.2539 243.809 71.7064 242.617 70.5108L241.233 69.1239L242.165 65.6325C243.371 61.1208 243.861 51.6789 243.1 47.6463C241.611 39.7608 238.278 33.397 232.736 27.8616C227.294 22.426 221.502 19.6101 213.286 18.4056C203.997 17.0442 192.975 19.9403 187.62 25.1502C185.821 26.8999 185.641 26.9755 185.363 26.0973C185.197 25.5725 184.412 24.3273 183.62 23.3301C182.827 22.3329 181.583 20.2025 180.855 18.5964C177.94 12.1645 170.3 6.89985 157.584 2.56011C149.757 -0.110711 138.523 -0.772036 130.347 0.956396ZM146.223 2.90968C157.286 4.26872 170.6 10.1276 175.601 15.8377C176.448 16.8047 177.645 18.7391 178.262 20.1364C178.878 21.5341 180.047 23.5063 180.859 24.5196C181.672 25.5333 182.609 27.2915 182.942 28.4271C183.827 31.4432 184.796 31.345 188.643 27.8498C193.843 23.1256 200.081 20.8289 207.747 20.8157C221.194 20.7925 231.364 27.0813 237.166 39.0065C241.442 47.7965 241.738 57.4542 238.083 68.9562C237.056 72.1887 236.732 72.6814 234.733 74.0602C231.565 76.244 216.581 82.5271 211.401 83.8441C206.315 85.137 199.544 86.0421 184.391 87.4545C172.728 88.5415 167.045 88.4782 156.912 87.1475C151.097 86.3841 135.233 83.4039 134.829 82.999C134.691 82.8606 135.683 80.4491 137.033 77.6409C141.841 67.6373 143.162 61.9664 143.157 51.3332C143.153 41.4586 141.563 32.6506 138.8 27.1857C135.715 21.0863 130.403 15.3356 123.734 10.8763C121.33 9.26884 119.298 7.8928 119.218 7.81864C118.788 7.42042 125.307 4.69526 128.27 4.03441C135.267 2.47414 140.174 2.16663 146.223 2.90968ZM101.761 5.63436C103.408 6.12186 106.645 6.87529 108.953 7.30846C116.054 8.64151 122.925 12.661 129.542 19.3517C136.308 26.1932 138.973 32.9884 139.98 45.9632C140.59 53.8188 140.09 60.5734 138.462 66.4625C137.772 68.959 132.327 81.8752 131.685 82.5385C131.64 82.5852 130.093 82.3344 128.245 81.9815C119.856 80.3792 111.908 79.7377 103.813 80.0103C94.4999 80.3244 90.4309 81.0793 79.0747 84.5999C70.3101 87.317 61.8056 89.4286 56.2207 90.2732C50.9949 91.064 42.8505 90.9912 38.0789 90.1112C35.876 89.7049 32.1652 89.2387 29.8327 89.0752C25.3495 88.7611 15.8022 86.958 12.0438 85.7157C10.2509 85.1233 9.75703 84.7242 9.56525 83.7147C9.33247 82.4908 8.52951 80.0698 6.24836 73.7149C4.03223 67.5424 3.51484 50.7654 5.29745 42.9003C8.18647 30.155 15.4856 20.2568 25.5917 15.3809C31.8066 12.3823 35.1225 11.6893 43.4979 11.6392C50.1986 11.5995 50.7042 11.6619 53.22 12.8447C58.1574 15.1651 64.2295 21.9054 65.6083 26.5952C65.891 27.5574 67.0342 27.6826 67.7622 26.8314C68.0402 26.5069 69.9859 23.5233 72.0856 20.202C74.1853 16.8803 76.8307 13.2467 77.9635 12.1267C81.7691 8.36565 88.8528 5.80631 98.2272 4.80534C98.5236 4.77369 100.114 5.1464 101.761 5.63436ZM84.9008 58.3428C83.7383 59.1586 81.7267 63.6008 82.09 64.5494C82.2294 64.914 82.7685 65.2121 83.2878 65.2121C83.9715 65.2121 84.5115 64.5607 85.2452 62.8502C85.8027 61.5512 86.4756 60.4883 86.7399 60.4883C87.0047 60.4883 87.8949 61.2696 88.7181 62.2248C89.7562 63.4284 90.4578 63.8677 91.0063 63.6566C92.3026 63.1577 91.9129 61.5946 89.9856 59.5634C88.0372 57.51 86.5835 57.1609 84.9008 58.3428ZM158.227 59.0107C155.969 61.2744 155.73 64.495 157.843 64.1823C158.527 64.0812 159.047 63.4917 159.41 62.4062C160.173 60.1251 160.914 60.1071 161.586 62.3533C162.331 64.8488 163.213 65.624 164.19 64.6443C165.701 63.1308 162.873 57.6541 160.581 57.6541C160.03 57.6541 158.971 58.2644 158.227 59.0107ZM182.093 61.6518C180.594 63.2725 179.669 66.4715 180.431 67.3926C181.373 68.5301 182.335 67.9401 183.152 65.7237C184.216 62.8337 185.098 62.6674 185.098 65.3567C185.098 68.0421 186.467 69.9869 187.778 69.1621C188.248 68.866 188.564 68.2282 188.48 67.745C188.397 67.2613 188.171 65.8626 187.978 64.6363C187.785 63.4105 187.237 61.9754 186.761 61.4477C185.56 60.1185 183.424 60.2115 182.093 61.6518ZM49.9705 62.4959C49.4234 63.0807 48.703 64.5801 48.3703 65.8281C47.8529 67.7696 47.8656 68.1616 48.4589 68.5438C49.7161 69.3525 50.4601 68.7847 51.1208 66.5111C51.4794 65.2768 51.9803 64.2674 52.2342 64.2674C52.4878 64.2674 53.2766 65.1072 53.9872 66.1333C55.5116 68.3364 56.3805 68.7975 57.2894 67.8862C57.8624 67.3114 57.8544 67.0242 57.2296 65.8135C56.2254 63.8668 53.3449 61.4331 52.0458 61.4331C51.452 61.4331 50.5181 61.9111 49.9705 62.4959ZM241.07 74.945C240.839 77.7486 239.41 80.3518 231.508 92.3739C225.427 101.625 220.035 107.237 214.264 110.324C213.292 110.844 211.581 111.78 210.46 112.405C207.471 114.071 199.714 116.61 194.803 117.529C188.986 118.619 171.451 118.599 160.124 117.49C149.068 116.408 142.422 115.29 128.87 112.236C114.764 109.057 110.431 108.305 102.917 107.729C94.1173 107.056 89.5922 107.629 81.1391 110.484C74.4412 112.748 52.5495 118.086 46.0896 119.032C34.6966 120.7 19.7661 119.49 15.3635 116.54C12.0071 114.291 3.52567 95.1278 2.87351 88.319C2.57947 85.2447 3.11383 83.9528 5.10802 82.9192L6.50752 82.1936V83.8252C6.50752 86.7535 8.41407 87.8607 16.7857 89.7932C20.0738 90.5528 24.9909 91.396 27.7122 91.6672C30.4335 91.9388 34.8375 92.5042 37.4984 92.9246C47.647 94.5265 60.947 93.1197 73.9624 89.0677C93.6027 82.9532 96.4465 82.4539 109.431 82.8408C119.322 83.136 122.113 83.5262 143.16 87.5613C161.415 91.0606 171.014 91.5307 188.868 89.7989C202.539 88.4725 205.735 88.0332 211.251 86.7204C216.228 85.5357 230.942 79.6036 234.781 77.2332C236.021 76.4675 237.527 75.5709 238.127 75.2416C238.726 74.9119 239.49 74.0238 239.823 73.268C240.713 71.2524 241.309 72.054 241.07 74.945ZM109.665 111.311C112.105 111.678 114.207 112.083 114.335 112.211C114.462 112.339 114.254 112.817 113.872 113.274C113.489 113.73 111.315 117.026 109.04 120.598C106.765 124.171 104.79 127.094 104.651 127.094C103.796 127.094 95.4178 122.574 93.884 121.285C92.8662 120.43 90.5968 118.715 88.8411 117.475C85.6118 115.194 83.7868 113.523 83.7868 112.846C83.7868 112.36 88.5188 110.987 91.7975 110.523C95.0884 110.056 103.912 110.445 109.665 111.311ZM130.437 115.519C142.844 118.305 141.843 117.966 141.144 119.141C140.565 120.114 132.878 125.363 129.512 127.085L127.707 128.008L124.989 123.417C123.494 120.893 121.458 117.616 120.464 116.137C118.361 113.006 118.293 112.729 119.717 113.085C120.3 113.231 125.124 114.326 130.437 115.519ZM81.7163 115.058C82.9768 116.987 94.5107 125.382 98.9958 127.636L103.132 129.714L100.598 132.792C95.7759 138.654 88.4759 144.148 81.3455 147.285C77.8773 148.81 76.8774 149.031 72.6751 149.202C64.8737 149.521 59.4156 147.605 49.6369 141.115L44.5247 137.722L43.2609 133.943C42.5659 131.865 41.5395 128.909 40.9807 127.374C39.4671 123.221 39.5397 122.983 42.4377 122.623C49.2359 121.777 71.579 116.815 77.661 114.8C81.0123 113.69 80.8139 113.678 81.7163 115.058ZM121.251 122.686C123.193 125.917 124.783 128.641 124.783 128.739C124.783 128.966 120.572 129.784 117.326 130.187C114.915 130.486 114.84 130.462 115.398 129.567C116.262 128.18 115.607 126.936 114.158 127.214C113.312 127.376 112.829 127.179 112.482 126.53C111.678 125.023 109.969 125.606 109.792 127.448C109.649 128.928 108.684 129.533 108.066 128.53C107.913 128.281 109.649 125.107 111.926 121.477C116.779 113.739 115.795 113.611 121.251 122.686ZM210.712 119.418C208.028 126.532 205.541 136.608 205.062 142.315C204.365 150.598 208.364 157.787 216.103 162.169L218.599 163.582L215.16 164.742C207.055 167.474 204.538 170.492 206.702 174.878C207.237 175.962 207.547 177.058 207.39 177.313C206.968 177.998 196.694 177.367 192.96 176.427C184.428 174.279 180.83 167.972 181.493 156.329C181.72 152.357 183.337 138.99 183.919 136.279C184.056 135.64 186.408 133.874 190.775 131.128C197.835 126.69 207.336 120.079 210.072 117.7C210.98 116.912 211.765 116.259 211.818 116.248C211.872 116.237 211.374 117.664 210.712 119.418ZM204.889 117.819C204.889 117.914 202.61 119.595 199.824 121.555C178.657 136.442 161.489 144.806 150.875 145.399C147 145.615 146.324 145.523 144.043 144.465C139.118 142.183 133.754 137.227 130.208 131.685C129.235 130.165 129.122 130.351 131.851 128.974C135.79 126.985 141.027 123.251 143.167 120.905L145.295 118.573L147.644 119.02C158.171 121.02 186.926 121.82 194.841 120.332C198.177 119.704 202.848 118.463 204.771 117.693C204.836 117.667 204.889 117.724 204.889 117.819ZM26.0705 122.319C28.3988 122.606 31.8141 122.84 33.6599 122.841L37.0159 122.842L37.3231 124.766C37.4918 125.824 38.3725 128.534 39.2801 130.789C41.1103 135.335 41.6418 137.784 41.1894 139.589C40.7757 141.242 39.0657 141.177 34.4393 139.331C29.5744 137.39 26.1303 137.507 22.7206 139.73C21.4554 140.555 20.2873 141.078 20.1247 140.893C19.4796 140.16 16.2551 126.179 15.7933 122.114L15.5765 120.205L18.7068 121.002C20.4286 121.44 23.7422 122.033 26.0705 122.319Z" fill="#12151C"/>
</g>
</svg>
