<svg width="24" height="24" viewBox="0 0 24 24" fill="none" xmlns="http://www.w3.org/2000/svg">
<mask id="mask0_307_6441" style="mask-type:alpha" maskUnits="userSpaceOnUse" x="0" y="0" width="24" height="24">
<rect width="24" height="24" fill="white"/>
</mask>
<g mask="url(#mask0_307_6441)">
<path d="M14.9997 7L8.4997 13.5C8.10188 13.8978 7.87838 14.4374 7.87838 15C7.87838 15.5626 8.10188 16.1022 8.4997 16.5C8.89753 16.8978 9.43709 17.1213 9.9997 17.1213C10.5623 17.1213 11.1019 16.8978 11.4997 16.5L17.9997 10C18.7954 9.20435 19.2423 8.12521 19.2423 7C19.2423 5.87478 18.7954 4.79564 17.9997 4C17.2041 3.20435 16.1249 2.75735 14.9997 2.75735C13.8745 2.75735 12.7954 3.20435 11.9997 4L5.4997 10.5C4.30623 11.6935 3.63574 13.3122 3.63574 15C3.63574 16.6878 4.30623 18.3065 5.4997 19.5C6.69318 20.6935 8.31188 21.364 9.9997 21.364C11.6875 21.364 13.3062 20.6935 14.4997 19.5L20.9997 13" stroke="#12151C" stroke-width="2" stroke-linecap="round" stroke-linejoin="round"/>
</g>
</svg>
