<svg width="24" height="24" viewBox="0 0 24 24" fill="none" xmlns="http://www.w3.org/2000/svg">
<mask id="mask0_302_4346" style="mask-type:alpha" maskUnits="userSpaceOnUse" x="0" y="0" width="24" height="24">
<rect width="24" height="24" fill="white"/>
</mask>
<g mask="url(#mask0_302_4346)">
<path fill-rule="evenodd" clip-rule="evenodd" d="M6 7H5C4.46957 7 3.96086 7.21071 3.58579 7.58579C3.21071 7.96086 3 8.46957 3 9V18C3 18.5304 3.21071 19.0391 3.58579 19.4142C3.96086 19.7893 4.46957 20 5 20H19C19.5304 20 20.0391 19.7893 20.4142 19.4142C20.7893 19.0391 21 18.5304 21 18V9C21 8.46957 20.7893 7.96086 20.4142 7.58579C20.0391 7.21071 19.5304 7 19 7H18C17.4696 7 16.9609 6.78929 16.5858 6.41421C16.2107 6.03914 16 5.53043 16 5C16 4.73478 15.8946 4.48043 15.7071 4.29289C15.5196 4.10536 15.2652 4 15 4H9C8.73478 4 8.48043 4.10536 8.29289 4.29289C8.10536 4.48043 8 4.73478 8 5C8 5.53043 7.78929 6.03914 7.41421 6.41421C7.03914 6.78929 6.53043 7 6 7ZM13 9.12674C12.4089 8.97412 11.7907 8.95882 11.1927 9.08203C10.5948 9.20524 10.033 9.46368 9.55037 9.83756C9.29708 10.0338 9.06913 10.259 8.87084 10.5081C8.69911 10.2047 8.37346 10 8 10C7.44772 10 7 10.4477 7 11V13C7 13.5523 7.44772 14 8 14H10C10.5523 14 11 13.5523 11 13C11 12.534 10.6813 12.1425 10.25 12.0315C10.3814 11.7939 10.56 11.5853 10.7752 11.4186C11.0165 11.2317 11.2974 11.1025 11.5964 11.0409C11.8953 10.9793 12.2044 10.9869 12.5 11.0632C13.0347 11.2013 13.5802 10.8797 13.7182 10.345C13.8563 9.81024 13.5347 9.26481 13 9.12674ZM15.0049 12L14.9998 12L14.9951 12H14C13.4477 12 13 12.4477 13 13C13 13.466 13.3188 13.8576 13.7501 13.9685C13.6184 14.2067 13.4393 14.4157 13.2235 14.5826C12.9818 14.7696 12.7005 14.8986 12.4011 14.9599C12.1018 15.0212 11.7924 15.0131 11.4967 14.9362C10.9622 14.7972 10.4162 15.1178 10.2772 15.6523C10.1382 16.1868 10.4588 16.7328 10.9933 16.8718C11.5848 17.0256 12.2036 17.0418 12.8023 16.9193C13.401 16.7967 13.9636 16.5386 14.4471 16.1647C14.7014 15.968 14.9303 15.742 15.1293 15.4921C15.301 15.7953 15.6266 16 16 16C16.5523 16 17 15.5523 17 15V13C17 12.4477 16.5523 12 16 12H15.0049Z" fill="white"/>
</g>
</svg>
