<svg width="24" height="24" viewBox="0 0 24 24" fill="none" xmlns="http://www.w3.org/2000/svg">
<mask id="mask0_302_1488" style="mask-type:alpha" maskUnits="userSpaceOnUse" x="0" y="0" width="24" height="24">
<rect width="24" height="24" fill="white"/>
</mask>
<g mask="url(#mask0_302_1488)">
<path d="M19.5 11.625V13.95C19.5 15.6302 19.5 16.4702 19.173 17.112C18.8854 17.6765 18.4265 18.1354 17.862 18.423C17.2202 18.75 16.3802 18.75 14.7 18.75H9.3C7.61984 18.75 6.77976 18.75 6.13803 18.423C5.57354 18.1354 5.1146 17.6765 4.82698 17.112C4.5 16.4702 4.5 15.6302 4.5 13.95V10.05C4.5 8.36984 4.5 7.52976 4.82698 6.88803C5.1146 6.32354 5.57354 5.8646 6.13803 5.57698C6.77976 5.25 7.61984 5.25 9.3 5.25H12.375M17.25 9V4.5M15 6.75H19.5M15 12C15 13.6569 13.6569 15 12 15C10.3431 15 9 13.6569 9 12C9 10.3431 10.3431 9 12 9C13.6569 9 15 10.3431 15 12Z" stroke="#3E36ED" stroke-width="2" stroke-linecap="round" stroke-linejoin="round"/>
</g>
</svg>
