<svg width="42" height="42" viewBox="0 0 42 42" fill="none" xmlns="http://www.w3.org/2000/svg">
<path d="M7 25.5727C3.29728 27.2061 1 29.4823 1 32C1 36.9706 9.9543 41 21 41C32.0457 41 41 36.9706 41 32C41 29.4823 38.7027 27.2061 35 25.5727M33 13C33 21.1274 24 25 21 31C18 25 9 21.1274 9 13C9 6.37258 14.3726 1 21 1C27.6274 1 33 6.37258 33 13ZM23 13C23 14.1046 22.1046 15 21 15C19.8954 15 19 14.1046 19 13C19 11.8954 19.8954 11 21 11C22.1046 11 23 11.8954 23 13Z" stroke="#3E36ED" stroke-width="2" stroke-linecap="round" stroke-linejoin="round"/>
</svg>
