<svg width="18" height="18" viewBox="0 0 18 18" fill="none" xmlns="http://www.w3.org/2000/svg">
<g id="Icon">
<mask id="mask0_302_1835" style="mask-type:alpha" maskUnits="userSpaceOnUse" x="0" y="0" width="18" height="18">
<rect id="Bounding box" width="18" height="18" fill="white"/>
</mask>
<g mask="url(#mask0_302_1835)">
<g id="Icon_2">
<path id="Vector" d="M5 6.75C5 7.74456 5.39509 8.69839 6.09835 9.40165C6.80161 10.1049 7.75544 10.5 8.75 10.5C9.74456 10.5 10.6984 10.1049 11.4017 9.40165C12.1049 8.69839 12.5 7.74456 12.5 6.75C12.5 5.75544 12.1049 4.80161 11.4017 4.09835C10.6984 3.39509 9.74456 3 8.75 3C7.75544 3 6.80161 3.39509 6.09835 4.09835C5.39509 4.80161 5 5.75544 5 6.75Z" stroke="white" stroke-width="2" stroke-linecap="round" stroke-linejoin="round"/>
<path id="Vector_2" d="M8.75 10.5V15.75" stroke="white" stroke-width="2" stroke-linecap="round" stroke-linejoin="round"/>
<path id="Vector_3" d="M6.5 13.5H11" stroke="white" stroke-width="2" stroke-linecap="round" stroke-linejoin="round"/>
</g>
</g>
</g>
</svg>
