<svg width="100" height="124" viewBox="0 0 100 124" fill="none" xmlns="http://www.w3.org/2000/svg">
<path fill-rule="evenodd" clip-rule="evenodd" d="M28.0605 0.498928C24.2175 1.74353 20.5282 5.04377 18.8226 8.76245C17.9888 10.581 17.8509 11.389 17.8336 14.5681C17.8151 17.9851 17.9025 18.4497 19.0041 20.7783C20.3744 23.6756 23.287 26.7549 25.6797 27.8352L27.244 28.5417L24.7142 29.1851C18.9982 30.6387 13.7862 33.779 9.26945 38.4908C4.45212 43.5165 1.68261 49.0766 0.434668 56.2292C-0.647692 62.4353 0.335838 70.1714 2.88925 75.5291C5.18636 80.3491 7.92121 83.2933 29.3084 103.97C40.7678 115.048 50.2542 124.062 50.3899 124C50.526 123.937 52.2869 122.176 54.3034 120.085L57.9698 116.282L55.7774 114.125C54.5715 112.939 45.9513 104.629 36.6213 95.6581C27.2912 86.6874 18.7754 78.3175 17.6971 77.0577C5.95341 63.3371 10.388 44.4775 26.4799 39.7055C29.606 38.7785 34.6597 38.5806 37.8415 39.2601C42.348 40.2229 45.771 42.119 49.1988 45.5518C51.4914 47.8479 52.5049 49.2077 53.5474 51.386C56.949 58.4954 56.679 66.3072 52.805 72.8848C52.0988 74.0836 51.605 75.2839 51.7076 75.5516C51.9856 76.2773 56.2697 79.3593 58.3791 80.3509L60.223 81.2177L60.865 80.393C62.1816 78.7023 64.8308 72.8165 65.6414 69.7814C66.7986 65.4489 66.8012 57.3265 65.647 53.0889C62.3564 41.0085 52.6856 31.5952 40.8047 28.9084L38.1613 28.3105L39.4195 27.6627C41.9246 26.3731 44.1163 24.036 45.556 21.1188C46.8865 18.4224 46.947 18.138 46.947 14.5796C46.947 11.1375 46.8585 10.6792 45.7621 8.4489C44.2166 5.30488 41.6584 2.73553 38.6495 1.30478C36.5973 0.329043 35.7749 0.152874 32.9335 0.0801185C30.9078 0.0287831 29.009 0.191654 28.0605 0.498928ZM65.3121 0.647025C58.6796 3.01362 54.4151 10.0303 55.5266 16.7482C56.2155 20.9101 59.0536 25.2758 62.3435 27.2347C62.9014 27.5667 63.3576 27.9456 63.3576 28.0771C63.3576 28.2086 62.4504 28.4228 61.3419 28.5532C59.2715 28.7969 53.2059 30.6808 52.6277 31.2599C52.4425 31.4453 53.3438 32.366 54.7404 33.4167C56.0801 34.425 58.0538 36.2169 59.1266 37.3987L61.0763 39.5474L63.2068 39.153C67.798 38.3028 72.4959 39.0042 77.0023 41.212C80.8442 43.0944 85.2113 47.4679 87.091 51.3154C90.941 59.1971 90.2152 68.0906 85.205 74.4197C84.4103 75.4235 76.527 83.2091 67.6859 91.7212L51.6117 107.198L55.3385 111.193C58.5052 114.586 59.1528 115.119 59.644 114.736C60.6552 113.946 89.6455 85.8483 91.5893 83.7738C95.2347 79.883 97.4709 76.034 99.005 71.0083C99.9141 68.0315 100 67.2238 100 61.6564C100 56.0929 99.9137 55.2797 99.008 52.3137C95.6713 41.3874 87.9299 33.3203 77.3589 29.7557L74.7222 28.8663L76.9636 27.6698C87.6526 21.9641 87.3513 6.51034 76.4492 1.27228C73.5285 -0.131133 68.3136 -0.424001 65.3121 0.647025ZM35.3453 9.32492C37.1593 10.2855 38.6495 12.641 38.6495 14.5478C38.6495 16.0403 37.2567 18.7625 36.0397 19.6492C34.0026 21.1332 30.7581 21.1332 28.721 19.6492C28.1984 19.2685 27.3867 18.2185 26.9173 17.3162C25.3714 14.3458 26.5433 10.7287 29.5312 9.24737C31.5528 8.2454 33.3521 8.2694 35.3453 9.32492ZM73.7892 9.68205C77.1557 12.2536 77.0824 17.095 73.638 19.6492C70.7969 21.7562 66.1684 20.6785 64.6937 17.5667C63.9576 16.0129 63.9181 13.2105 64.6133 11.8721C65.2612 10.6253 66.5796 9.37589 67.7833 8.86918C69.3823 8.19554 72.3731 8.60032 73.7892 9.68205ZM38.415 44.206C34.9869 49.9464 33.7127 54.7017 33.7393 61.6564C33.7618 67.5891 34.4805 70.7833 36.9399 75.8752C39.5737 81.3285 43.6398 86.0392 48.5084 89.2766L50.5031 90.6029L51.8374 89.8868C53.1332 89.191 59.3025 83.6043 59.2996 83.129C59.2984 82.999 58.0125 82.233 56.4415 81.4271C52.4012 79.3549 48.8388 75.7248 46.7988 71.6025C43.2283 64.386 43.5332 56.5834 47.654 49.7299L48.9137 47.6352L47.127 46.0264C45.7042 44.7456 40.7309 41.7131 40.0524 41.7131C39.9709 41.7131 39.2341 42.8351 38.415 44.206Z" fill="#F759F5"/>
</svg>
