<svg width="105" height="130" viewBox="0 0 105 130" fill="none" xmlns="http://www.w3.org/2000/svg">
<path fill-rule="evenodd" clip-rule="evenodd" d="M29.4635 0.523069C25.4283 1.8279 21.5546 5.28783 19.7637 9.18644C18.8883 11.093 18.7434 11.9401 18.7252 15.2731C18.7059 18.8553 18.7976 19.3424 19.9543 21.7837C21.3932 24.8212 24.4514 28.0495 26.9636 29.1821L28.6062 29.9228L25.9499 30.5972C19.9481 32.1212 14.4755 35.4135 9.73293 40.3533C4.67473 45.6221 1.76674 51.4513 0.456401 58.95C-0.680077 65.4563 0.35263 73.5668 3.03371 79.1837C5.44568 84.2369 8.31727 87.3236 30.7738 109.001C42.8062 120.615 52.7669 130.065 52.9094 130C53.0523 129.934 54.9013 128.087 57.0185 125.895L60.8683 121.909L58.5662 119.647C57.3001 118.403 48.2489 109.691 38.4523 100.287C28.6558 90.8819 19.7142 82.107 18.582 80.7863C6.25108 66.4018 10.9074 46.6296 27.8039 41.6267C31.0863 40.6549 36.3927 40.4474 39.7336 41.1598C44.4654 42.1692 48.0595 44.157 51.6587 47.756C54.066 50.1631 55.1301 51.5887 56.2248 53.8724C59.7964 61.3258 59.513 69.5156 55.4453 76.4115C54.7038 77.6683 54.1853 78.9266 54.2929 79.2074C54.5849 79.9682 59.0832 83.1993 61.2981 84.2389L63.2341 85.1476L63.9083 84.283C65.2906 82.5105 68.0724 76.3398 68.9235 73.1579C70.1386 68.6158 70.1413 60.1003 68.9293 55.6577C65.4742 42.9927 55.3198 33.124 42.8449 30.3072L40.0693 29.6804L41.3905 29.0013C44.0209 27.6492 46.3221 25.1991 47.8338 22.1406C49.2309 19.3138 49.2944 19.0156 49.2944 15.2851C49.2944 11.6765 49.2014 11.196 48.0502 8.85771C46.4274 5.56157 43.7413 2.86789 40.582 1.36792C38.4272 0.344965 37.5637 0.160272 34.5802 0.0839952C32.4532 0.0301758 30.4594 0.200928 29.4635 0.523069ZM68.5777 0.678333C61.6136 3.15944 57.1359 10.5157 58.3029 17.5586C59.0263 21.9219 62.0063 26.4988 65.4606 28.5525C66.0465 28.9006 66.5255 29.2978 66.5255 29.4357C66.5255 29.5735 65.5729 29.7981 64.4089 29.9348C62.2351 30.1903 55.8662 32.1654 55.259 32.7725C55.0647 32.9669 56.011 33.9321 57.4774 35.0337C58.8842 36.0907 60.9565 37.9693 62.0829 39.2083L64.1302 41.461L66.3671 41.0475C71.1879 40.1562 76.1207 40.8915 80.8524 43.2061C84.8865 45.1796 89.4719 49.7647 91.4455 53.7984C95.488 62.0614 94.726 71.3854 89.4653 78.0206C88.6308 79.073 80.3533 87.2354 71.0702 96.1593L54.1923 112.385L58.1055 116.573C61.4305 120.131 62.1104 120.69 62.6262 120.287C63.6879 119.46 94.1277 90.0022 96.1688 87.8274C99.9964 83.7483 102.344 79.713 103.955 74.4441C104.91 71.3234 105 70.4766 105 64.6397C105 58.8071 104.909 57.9545 103.958 54.845C100.455 43.39 92.3264 34.9326 81.2269 31.1955L78.4583 30.2631L80.8118 29.0086C92.0352 23.0269 91.7189 6.82535 80.2716 1.33384C77.2049 -0.137478 71.7293 -0.444517 68.5777 0.678333ZM37.1126 9.77612C39.0173 10.7832 40.582 13.2527 40.582 15.2518C40.582 16.8164 39.1195 19.6704 37.8417 20.6C35.7027 22.1557 32.296 22.1557 30.157 20.6C29.6083 20.2008 28.7561 19.1 28.2631 18.1541C26.6399 15.04 27.8705 11.2478 31.0077 9.69482C33.1304 8.64437 35.0197 8.66954 37.1126 9.77612ZM77.4786 10.1505C81.0135 12.8465 80.9365 17.9222 77.3199 20.6C74.3368 22.8089 69.4768 21.6791 67.9283 18.4167C67.1555 16.7877 67.114 13.8497 67.8439 12.4466C68.5243 11.1394 69.9086 9.82956 71.1724 9.29834C72.8514 8.5921 75.9917 9.01646 77.4786 10.1505ZM40.3358 46.345C36.7362 52.3631 35.3984 57.3486 35.4262 64.6397C35.4499 70.8596 36.2045 74.2084 38.7869 79.5465C41.5524 85.2638 45.8218 90.2024 50.9338 93.5965L53.0283 94.9869L54.4292 94.2361C55.7899 93.5067 62.2676 87.6496 62.2645 87.1513C62.2634 87.015 60.9132 86.212 59.2636 85.3672C55.0213 83.1946 51.2808 79.3889 49.1387 75.0671C45.3897 67.5015 45.7099 59.3213 50.0367 52.1362L51.3594 49.9401L49.4833 48.2535C47.9895 46.9107 42.7675 43.7315 42.055 43.7315C41.9694 43.7315 41.1958 44.9078 40.3358 46.345Z" fill="white"/>
</svg>
