<svg width="49" height="94" viewBox="0 0 49 94" fill="none" xmlns="http://www.w3.org/2000/svg">
<g opacity="0.2">
<path d="M33.4597 81.898C34.3497 81.368 35.8698 81.678 36.8398 81.798C37.8131 81.9252 38.7712 82.1496 39.6997 82.468C37.4697 79.758 35.1097 77.058 34.4497 73.608C33.9911 70.3217 34.0586 66.9832 34.6497 63.718C34.4897 63.398 34.3197 63.088 34.1397 62.778C33.2488 62.5943 32.3229 62.6875 31.4864 63.045C30.6499 63.4024 29.9428 64.0072 29.4597 64.778C29.2197 65.148 28.6097 64.868 28.8297 64.458C29.3093 63.6087 30.0423 62.9305 30.9262 62.5181C31.8101 62.1058 32.8008 61.9799 33.7597 62.158C33.0321 60.9547 31.9965 59.9674 30.7597 59.298C27.9497 57.878 26.0797 60.558 26.4197 63.228C26.6097 64.758 27.6097 68.448 29.4197 68.808C32.1897 69.368 33.1597 65.808 33.6197 63.858C33.6588 63.7525 33.7345 63.6644 33.833 63.6099C33.9316 63.5554 34.0464 63.5381 34.1566 63.5611C34.2668 63.5841 34.3651 63.6459 34.4336 63.7353C34.502 63.8247 34.5362 63.9356 34.5298 64.048C33.9498 66.508 32.8497 69.788 29.7597 69.758C26.8897 69.758 25.7597 65.528 25.4897 63.278C25.2197 61.028 26.4897 57.768 29.3297 57.958C31.6897 58.128 33.7197 60.228 34.7497 62.428H34.8197C35.4197 57.518 35.7297 52.718 32.2397 48.228C31.9597 47.868 32.5198 47.368 32.8398 47.698C37.4998 52.478 36.4698 58.478 35.8398 64.458C36.0697 62.458 38.0897 61.078 40.0497 60.968C40.6638 60.9574 41.274 61.0681 41.8453 61.2937C42.4166 61.5193 42.9378 61.8553 43.3791 62.2826C43.8203 62.7099 44.1729 63.22 44.4167 63.7838C44.6604 64.3476 44.7906 64.9539 44.7997 65.568C44.9797 68.028 43.2597 71.348 40.3797 71.058C37.7497 70.798 37.1598 67.588 35.6598 65.798C35.4641 67.5476 35.4172 69.3106 35.5197 71.068C35.8797 75.778 38.2097 78.468 40.7097 81.528C40.7097 79.458 40.4198 77.138 42.2798 75.878C44.1398 74.618 45.7197 75.998 46.5397 77.588C47.2331 78.9577 47.7731 80.3998 48.1497 81.888C48.2878 82.2756 48.3225 82.6923 48.2506 83.0973C48.1788 83.5023 48.0026 83.8817 47.7397 84.198C46.2597 85.858 44.0797 84.918 42.5397 83.838C42.8097 84.208 43.0798 84.578 43.3398 84.978C44.2214 86.1361 44.8416 87.4715 45.1575 88.8923C45.4734 90.3131 45.4776 91.7855 45.1697 93.208C45.1392 93.3566 45.051 93.4869 44.9244 93.5703C44.7978 93.6538 44.6432 93.6835 44.4947 93.653C44.3462 93.6225 44.2159 93.5343 44.1324 93.4077C44.049 93.2811 44.0192 93.1266 44.0497 92.978C44.5197 89.618 43.1698 86.978 41.3398 84.488C40.9798 86.368 41.6597 88.718 39.4597 89.648C37.4597 90.4781 35.3898 89.288 34.3398 87.648C33.6298 86.518 31.7897 82.8881 33.4597 81.898ZM38.6297 68.538C39.3697 69.688 40.3897 70.418 41.7697 69.668C42.2691 69.3622 42.6936 68.9483 43.012 68.4568C43.3304 67.9653 43.5346 67.4088 43.6097 66.828C43.9597 64.718 42.7797 62.2281 40.4297 62.1181C39.7338 62.0902 39.0431 62.2477 38.4281 62.5745C37.8131 62.9013 37.296 63.3857 36.9297 63.978C37.9657 63.969 38.9921 64.177 39.9428 64.5886C40.8935 65.0002 41.7475 65.6064 42.4497 66.3681C42.5797 66.5081 42.3997 66.728 42.2497 66.588C41.4901 65.8929 40.5985 65.3577 39.6279 65.0141C38.6573 64.6706 37.6274 64.5256 36.5997 64.588C36.5344 64.7312 36.4777 64.8781 36.4297 65.028C37.2691 66.1281 38.0055 67.3031 38.6297 68.538ZM41.7297 82.838C41.8894 82.0915 42.2436 81.4005 42.7564 80.8351C43.2692 80.2696 43.9224 79.8497 44.6497 79.618C44.7152 79.6029 44.7839 79.6127 44.8426 79.6456C44.9012 79.6784 44.9455 79.732 44.9667 79.7957C44.988 79.8595 44.9847 79.9288 44.9575 79.9903C44.9303 80.0518 44.8812 80.1009 44.8197 80.128C44.2309 80.3528 43.7051 80.7167 43.2872 81.1886C42.8693 81.6604 42.5717 82.2263 42.4197 82.838C42.5158 82.8365 42.61 82.8644 42.6897 82.918C43.5497 83.498 44.5797 84.318 45.6897 84.228C47.0197 84.128 47.2097 82.798 47.0697 81.758C46.7732 80.3041 46.225 78.9133 45.4497 77.6481C45.3418 77.4044 45.1863 77.1847 44.9923 77.002C44.7984 76.8193 44.5698 76.6772 44.3202 76.584C44.0705 76.4909 43.8047 76.4485 43.5385 76.4595C43.2722 76.4705 43.0109 76.5346 42.7697 76.6481C41.6997 77.0881 41.4797 78.928 41.4197 79.838C41.3597 80.748 41.4197 81.468 41.2897 82.268L41.7297 82.838ZM35.4098 87.508C36.5698 89.088 39.4797 89.838 40.2997 87.508C40.7097 86.358 40.5198 85.148 40.9698 84.028L37.9698 87.258C37.5998 87.658 36.9697 87.098 37.3297 86.698L40.2198 83.578C38.5949 82.8509 36.8151 82.5382 35.0397 82.668C34.3997 82.788 33.9497 82.818 33.9797 83.608C34.0481 84.0649 34.162 84.5138 34.3197 84.948C34.5322 85.8563 34.8974 86.722 35.3997 87.508H35.4098Z" fill="#12151C"/>
<path d="M-0.00075531 21.908C-0.00075531 16.298 3.27924 10.6681 8.67924 8.68805C13.7592 6.82805 18.6192 8.80805 22.7992 11.6881C24.5892 6.84805 27.1692 2.15804 32.4392 0.478045C38.0992 -1.33196 42.9693 2.21805 44.9493 7.41805C49.4393 19.168 44.0492 34.328 35.4992 43.128C36.618 43.4806 37.6742 44.0071 38.6292 44.688C40.0792 45.688 42.1693 47.3281 41.5693 49.3581C40.9693 51.3881 38.7592 51.6581 37.1092 51.0181C36.2609 50.6813 35.4789 50.1972 34.7992 49.588C33.9712 51.3328 32.6725 52.8117 31.0492 53.8581C30.7466 54.0506 30.3993 54.1616 30.0411 54.1803C29.6828 54.199 29.3259 54.1247 29.0049 53.9647C28.6838 53.8047 28.4096 53.5644 28.2088 53.2671C28.0081 52.9698 27.8877 52.6256 27.8592 52.2681C27.6986 50.0947 28.1379 47.9189 29.1292 45.978C16.4792 44.358 0.0492439 36.308 -0.00075531 21.908Z" fill="#3E36ED"/>
<path d="M5.16949 16.468C5.47949 14.038 7.93952 11.598 10.5095 11.928C10.5425 11.9399 10.571 11.9616 10.5911 11.9902C10.6113 12.0189 10.6221 12.053 10.6221 12.088C10.6221 12.1231 10.6113 12.1572 10.5911 12.1858C10.571 12.2145 10.5425 12.2362 10.5095 12.248C8.09952 12.808 6.34953 14.078 5.88953 16.618C5.81953 17.108 5.10949 16.978 5.16949 16.468Z" fill="#12151C"/>
<path d="M6.47974 18.678C6.63352 17.6848 7.04633 16.7495 7.67658 15.9666C8.30682 15.1836 9.13227 14.5805 10.0698 14.218C10.3498 14.118 10.5898 14.568 10.3098 14.698C9.49784 15.0849 8.79388 15.666 8.26013 16.3899C7.72639 17.1137 7.37933 17.958 7.24976 18.848C7.16976 19.348 6.40974 19.178 6.47974 18.678Z" fill="#12151C"/>
</g>
</svg>
