<svg width="93" height="67" viewBox="0 0 93 67" fill="none" xmlns="http://www.w3.org/2000/svg">
<g opacity="0.2">
<path d="M68.264 32.7633C66.754 27.0733 61.724 23.6733 55.974 23.4833C50.614 23.3133 45.974 25.8133 41.864 28.9433C39.954 18.4833 28.494 7.94326 18.674 16.8433C8.554 25.9733 12.784 41.5533 17.284 52.3833C19.014 56.5333 21.944 65.4733 27.284 66.2533C29.764 66.6133 32.604 65.1433 34.924 64.3833C38.924 63.0933 42.924 61.7233 46.744 60.0433C57.074 55.5833 71.814 46.1833 68.264 32.7633ZM28.454 57.7633L28.144 57.1833H28.984L28.454 57.7633Z" fill="#3E36ED"/>
<path d="M14.8944 31.3733C11.7544 33.0033 8.36444 35.5633 4.69444 33.7733C0.234439 31.6033 2.76444 27.0433 5.35444 24.5133C5.57567 24.5553 5.79954 24.582 6.02444 24.5933C6.13774 24.5947 6.24803 24.5568 6.33654 24.4861C6.42506 24.4153 6.48632 24.3161 6.5099 24.2053C6.53348 24.0945 6.51792 23.9789 6.46587 23.8782C6.41382 23.7776 6.32851 23.6981 6.22444 23.6533C3.22444 22.2833 0.514438 19.8333 1.42444 16.1533C2.16444 13.2033 4.74444 11.6733 7.54444 11.4033C7.8998 11.7675 8.28442 12.1019 8.69444 12.4033C8.78493 12.4564 8.89085 12.4769 8.99463 12.4615C9.0984 12.4462 9.19381 12.3958 9.26502 12.3187C9.33623 12.2417 9.37896 12.1426 9.38613 12.0379C9.3933 11.9333 9.36448 11.8293 9.30444 11.7433L8.95444 11.3533H9.14444C9.20003 11.3617 9.25674 11.3485 9.30293 11.3165C9.34911 11.2844 9.38127 11.2359 9.39278 11.1808C9.4043 11.1258 9.39432 11.0684 9.36487 11.0205C9.33542 10.9726 9.28875 10.9378 9.23444 10.9233C8.95407 10.817 8.66673 10.7301 8.37444 10.6633C7.15652 9.4685 6.42289 7.86593 6.31444 6.16327C6.05444 0.823271 12.3144 0.753267 15.3744 3.32327C18.7944 6.21327 19.4444 10.8033 20.2044 14.9533C20.227 15.0766 20.2976 15.1859 20.4007 15.2572C20.5039 15.3284 20.6311 15.3558 20.7544 15.3333C20.8778 15.3107 20.9871 15.2401 21.0583 15.137C21.1296 15.0338 21.157 14.9066 21.1344 14.7833C20.6044 8.86327 18.0444 -1.32673 9.90444 0.143267C3.90444 1.23327 3.90444 6.77327 6.82444 10.5233C5.28519 10.5884 3.807 11.1435 2.60537 12.1077C1.40375 13.0719 0.541537 14.3947 0.14444 15.8833C-0.186426 17.5538 0.0549209 19.2872 0.829571 20.8038C1.60422 22.3205 2.86704 23.5321 4.41444 24.2433C1.41444 26.5033 -0.585562 30.7933 2.49444 33.8233C6.22444 37.4533 11.9644 34.9433 15.4944 32.3033C15.5943 32.2145 15.6591 32.0929 15.6771 31.9605C15.6952 31.828 15.6653 31.6935 15.5928 31.5812C15.5204 31.4689 15.4102 31.3863 15.2821 31.3481C15.154 31.31 15.0165 31.3189 14.8944 31.3733Z" fill="#12151C"/>
<path d="M84.9347 41.9233C90.7547 39.9233 95.0147 32.0333 89.4847 27.3133C82.8847 21.6733 71.3747 28.9133 67.3447 34.4533C67.0347 34.8933 67.6747 35.3033 68.0147 34.9233C71.6047 30.9233 76.2147 27.7933 81.6647 27.1133C86.6647 26.5033 91.8847 29.3733 90.2347 35.1133C89.2347 38.6433 85.9047 40.4333 82.5647 41.1933C82.5015 41.2119 82.441 41.2388 82.3847 41.2733H82.1447C81.7647 41.2733 81.8047 41.8633 82.1447 41.9333C82.1598 42.0492 82.2193 42.1547 82.3108 42.2275C82.4022 42.3003 82.5184 42.3346 82.6347 42.3233C82.906 42.3115 83.1764 42.2848 83.4447 42.2433C86.3347 43.4233 86.1647 47.4933 85.0147 50.1133C83.7347 53.0333 80.0147 55.4933 77.7347 51.9733C77.4847 51.5733 77.0347 51.7233 76.8247 52.0533C76.7653 52.0828 76.7174 52.1313 76.6884 52.191C76.6595 52.2507 76.6511 52.3183 76.6647 52.3833C77.5047 57.0733 72.9947 60.3833 68.6647 58.9333C64.7247 57.6333 62.9547 53.9333 61.9647 50.2033C61.9191 50.0596 61.8226 49.9376 61.6935 49.8599C61.5643 49.7822 61.4113 49.7542 61.263 49.7812C61.1147 49.8082 60.9813 49.8882 60.8878 50.0064C60.7942 50.1246 60.7469 50.2727 60.7547 50.4233C61.6747 55.5333 65.3647 60.6533 71.0447 60.5333C71.9135 60.5346 72.774 60.3641 73.5766 60.0317C74.3793 59.6992 75.1083 59.2113 75.7217 58.5961C76.3351 57.9808 76.8208 57.2503 77.1508 56.4467C77.4808 55.643 77.6487 54.782 77.6447 53.9133C78.1461 54.362 78.7405 54.6942 79.3854 54.8862C80.0303 55.0781 80.7096 55.1249 81.3747 55.0233C83.5047 54.7333 85.0547 53.0233 85.9547 51.1633C87.2547 48.4933 87.5247 43.6433 84.9347 41.9233Z" fill="#12151C"/>
<path d="M63.1444 31.7233C62.7536 30.4936 62.02 29.4011 61.0298 28.5738C60.0396 27.7466 58.834 27.2191 57.5544 27.0533C57.3144 27.0533 57.2244 27.4133 57.4644 27.4733C58.6015 27.7672 59.6553 28.3199 60.5435 29.0884C61.4316 29.8569 62.1301 30.8202 62.5844 31.9033C62.7544 32.1933 63.2544 32.0633 63.1444 31.7233Z" fill="#12151C"/>
<path d="M61.6746 32.7233C61.4694 32.0228 61.1069 31.3784 60.6147 30.8394C60.1225 30.3004 59.5136 29.881 58.8346 29.6133C58.6046 29.5233 58.4946 29.8533 58.7046 29.9533C59.3107 30.2274 59.8423 30.6429 60.2546 31.1649C60.667 31.6869 60.9482 32.3002 61.0746 32.9533C61.1446 33.3633 61.8246 33.1833 61.6746 32.7233Z" fill="#12151C"/>
<path d="M26.9646 62.2433C26.1046 60.7733 25.1046 59.4233 24.3746 57.8633C23.6123 56.1913 23.0355 54.4409 22.6546 52.6433C22.6384 52.5759 22.597 52.5173 22.5388 52.4796C22.4806 52.4419 22.4101 52.4281 22.342 52.4409C22.2739 52.4538 22.2133 52.4923 22.1729 52.5486C22.1324 52.6049 22.1151 52.6746 22.1246 52.7433C22.6746 56.1333 24.0146 60.0433 26.4046 62.6033C26.6546 62.8633 27.1446 62.5833 26.9646 62.2433Z" fill="#12151C"/>
<path d="M29.1449 62.3933C28.3149 60.0733 27.1449 57.8333 26.1449 55.5833C26.0249 55.3033 25.6249 55.5033 25.7249 55.7833C26.5949 58.0833 27.3549 60.4933 28.3949 62.7233C28.6049 63.2033 29.2749 62.8633 29.1449 62.3933Z" fill="#12151C"/>
</g>
</svg>
