<?xml version="1.0" encoding="utf-8"?>
<!-- Generator: Adobe Illustrator 23.0.3, SVG Export Plug-In . SVG Version: 6.00 Build 0)  -->
<svg version="1.1" id="Layer_1" xmlns="http://www.w3.org/2000/svg" xmlns:xlink="http://www.w3.org/1999/xlink" x="0px" y="0px"
	 viewBox="0 0 512 512" style="enable-background:new 0 0 512 512;" xml:space="preserve">
<style type="text/css">
	.st0{fill:#BE5000;}
	.st1{fill:#FAA037;}
	.st2{fill:#353744;}
	.st3{fill:#87AAC8;}
	.st4{fill:#A0C8E1;}
	.st5{fill:#BEDCF0;}
	.st6{fill:#F57828;}
	.st7{fill:#D7322D;}
	.st8{fill:#F04B37;}
	.st9{fill:#69A041;}
	.st10{fill:#D7E6E6;}
	.st11{fill:#91B945;}
	.st12{fill:#FABE19;}
	.st13{fill:#4B8C41;}
	.st14{fill:#F5871E;}
	.st15{fill:#AFD763;}
	.st16{fill:#FFDC37;}
	.st17{fill:#A55023;}
	.st18{fill:#D26E28;}
	.st19{fill:#A5C3DC;}
	.st20{fill:#FF6955;}
	.st21{fill:#F0BE8C;}
	.st22{fill:#D7E6F0;}
	.st23{fill:#AAC3D7;}
	.st24{fill:#FAA01E;}
	.st25{fill:#E13741;}
	.st26{fill:#FF555F;}
	.st27{fill:#4B55A5;}
	.st28{fill:#6478B9;}
	.st29{fill:#FAB991;}
	.st30{fill:#F0915A;}
	.st31{fill:#DC6E1E;}
	.st32{fill:#FF8773;}
	.st33{fill:#DCC8A0;}
	.st34{fill:#CDA06E;}
	.st35{fill:#55525B;}
	.st36{fill:#FAE6BE;}
	.st37{fill:#FFFFFF;}
	.st38{fill:#737079;}
	.st39{fill:#D65A0A;}
	.st40{fill:#E64178;}
	.st41{fill:#FF6E91;}
	.st42{fill:#C8235A;}
	.st43{fill:#9BD2F0;}
	.st44{fill:#50C3EB;}
	.st45{fill:#FFBE55;}
	.st46{fill:#87A5BE;}
	.st47{fill:#F28A39;}
	.st48{fill:#FFB53B;}
	.st49{fill:#FAA51E;}
	.st50{fill:#5A7891;}
	.st51{fill:#73A041;}
	.st52{fill:#96AAB9;}
	.st53{fill:#736969;}
	.st54{fill:#3C413C;}
	.st55{fill:#FACC0A;}
	.st56{fill:#B9140F;}
	.st57{fill:#9B5FAA;}
	.st58{fill:#784687;}
	.st59{fill:#4B873C;}
	.st60{fill:#788C9B;}
	.st61{fill:#BED2DC;}
	.st62{fill:#6EA5D7;}
	.st63{fill:#FFD3AF;}
</style>
<g>
	<g>
		<g>
			<path class="st2" d="M480,384H16V144c0-17.673,14.327-32,32-32h400c17.673,0,32,14.327,32,32V384z"/>
		</g>
		<g>
			<path class="st35" d="M448,384H16V144c0-17.673,14.327-32,32-32h368c17.673,0,32,14.327,32,32V384z"/>
		</g>
		<g>
			<path class="st19" d="M48,424h400c17.673,0,32-14.327,32-32v-8H16v8C16,409.673,30.327,424,48,424z"/>
		</g>
		<g>
			<path class="st10" d="M416,424H48c-17.673,0-32-14.327-32-32v-8h432v8C448,409.673,433.673,424,416,424z"/>
		</g>
		<g>
			<rect x="200" y="424" class="st23" width="72" height="32"/>
		</g>
		<g>
			<rect x="200" y="440" class="st10" width="48" height="16"/>
		</g>
		<g>
			<path class="st10" d="M312,480H152v-8c0-8.837,7.163-16,16-16h128c8.837,0,16,7.163,16,16V480z"/>
		</g>
		<g>
			<path class="st23" d="M312,480h-48v-8c0-8.837,7.163-16,16-16h16c8.837,0,16,7.163,16,16V480z"/>
		</g>
	</g>
	<g>
		<g>
			<path class="st10" d="M376,256h-20c-6.627,0-12-5.373-12-12v-44c0-13.255,10.745-24,24-24h0c4.418,0,8,3.582,8,8V256z"/>
		</g>
		<g>
			<path class="st10" d="M376,256h-16v88c0,4.418,3.582,8,8,8l0,0c4.418,0,8-3.582,8-8V256z"/>
		</g>
		<g>
			<path class="st19" d="M376,256L376,256c-4.418,0-8,3.582-8,8v88l0,0c4.418,0,8-3.582,8-8V256z"/>
		</g>
	</g>
	<g>
		<g>
			<circle class="st27" cx="416" cy="112" r="72"/>
		</g>
		<path class="st62" d="M416,32c-44.183,0-80,35.817-80,80c0,44.183,35.817,80,80,80c44.183,0,80-35.817,80-80
			C496,67.817,460.183,32,416,32z M479.482,104H447.84c-0.831-20.909-4.886-39.435-10.9-52.464
			C459.547,59.389,476.42,79.571,479.482,104z M416,175.545c-1.893-1.625-5.717-6.478-9.295-17.062
			c-3.647-10.79-5.906-24.229-6.525-38.483h31.64c-0.619,14.254-2.878,27.693-6.525,38.483
			C421.717,169.067,417.893,173.92,416,175.545z M400.18,104c0.619-14.254,2.878-27.693,6.525-38.484
			c3.578-10.583,7.402-15.437,9.295-17.062c1.893,1.625,5.717,6.478,9.295,17.062c3.647,10.791,5.906,24.229,6.525,38.484H400.18z
			 M395.059,51.536c-6.014,13.029-10.069,31.554-10.9,52.464h-31.642C355.58,79.571,372.453,59.389,395.059,51.536z M352.518,120
			h31.642c0.831,20.91,4.886,39.435,10.9,52.463C372.453,164.611,355.58,144.429,352.518,120z M436.941,172.463
			c6.014-13.029,10.069-31.554,10.9-52.463h31.642C476.42,144.429,459.547,164.611,436.941,172.463z"/>
	</g>
	<g>
		<circle class="st10" cx="232" cy="264" r="88"/>
	</g>
	<g>
		<circle class="st19" cx="232" cy="264" r="56"/>
	</g>
	<g>
		<path class="st3" d="M200,264c0-26.807,18.841-49.202,44-54.698c-3.867-0.845-7.879-1.302-12-1.302c-30.928,0-56,25.072-56,56
			s25.072,56,56,56c4.121,0,8.133-0.458,12-1.302C218.841,313.202,200,290.807,200,264z"/>
	</g>
	<g>
		<g>
			<path class="st10" d="M88,228v116c0,4.418,3.582,8,8,8s8-3.582,8-8V228H88z"/>
		</g>
		<g>
			<path class="st23" d="M96,228v124c4.418,0,8-3.582,8-8V228H96z"/>
		</g>
		<path class="st10" d="M112,172c-2.209,0-4,1.791-4,4v32h-8v-32c0-2.209-1.791-4-4-4s-4,1.791-4,4v32h-8v-32c0-2.209-1.791-4-4-4
			s-4,1.791-4,4v40c0,6.617,5.383,12,12,12h16c6.617,0,12-5.383,12-12v-40C116,173.791,114.209,172,112,172z"/>
	</g>
</g>
</svg>
