<?xml version="1.0" encoding="utf-8"?>
<!-- Generator: Adobe Illustrator 23.0.3, SVG Export Plug-In . SVG Version: 6.00 Build 0)  -->
<svg version="1.1" id="Layer_1" xmlns="http://www.w3.org/2000/svg" xmlns:xlink="http://www.w3.org/1999/xlink" x="0px" y="0px"
	 viewBox="0 0 512 512" style="enable-background:new 0 0 512 512;" xml:space="preserve">
<style type="text/css">
	.st0{fill:#BE5000;}
	.st1{fill:#FAA037;}
	.st2{fill:#353744;}
	.st3{fill:#87AAC8;}
	.st4{fill:#A0C8E1;}
	.st5{fill:#BEDCF0;}
	.st6{fill:#F57828;}
	.st7{fill:#D7322D;}
	.st8{fill:#F04B37;}
	.st9{fill:#69A041;}
	.st10{fill:#D7E6E6;}
	.st11{fill:#91B945;}
	.st12{fill:#FABE19;}
	.st13{fill:#4B8C41;}
	.st14{fill:#F5871E;}
	.st15{fill:#AFD763;}
	.st16{fill:#FFDC37;}
	.st17{fill:#A55023;}
	.st18{fill:#D26E28;}
	.st19{fill:#A5C3DC;}
	.st20{fill:#FF6955;}
	.st21{fill:#F0BE8C;}
	.st22{fill:#D7E6F0;}
	.st23{fill:#AAC3D7;}
	.st24{fill:#FAA01E;}
	.st25{fill:#E13741;}
	.st26{fill:#FF555F;}
	.st27{fill:#4B55A5;}
	.st28{fill:#6478B9;}
	.st29{fill:#FAB991;}
	.st30{fill:#F0915A;}
	.st31{fill:#DC6E1E;}
	.st32{fill:#FF8773;}
	.st33{fill:#DCC8A0;}
	.st34{fill:#CDA06E;}
	.st35{fill:#55525B;}
	.st36{fill:#FAE6BE;}
	.st37{fill:#FFFFFF;}
	.st38{fill:#737079;}
	.st39{fill:#D65A0A;}
	.st40{fill:#E64178;}
	.st41{fill:#FF6E91;}
	.st42{fill:#C8235A;}
	.st43{fill:#9BD2F0;}
	.st44{fill:#50C3EB;}
	.st45{fill:#FFBE55;}
	.st46{fill:#87A5BE;}
	.st47{fill:#F28A39;}
	.st48{fill:#FFB53B;}
	.st49{fill:#FAA51E;}
	.st50{fill:#5A7891;}
	.st51{fill:#73A041;}
	.st52{fill:#96AAB9;}
	.st53{fill:#736969;}
	.st54{fill:#3C413C;}
	.st55{fill:#FACC0A;}
	.st56{fill:#B9140F;}
	.st57{fill:#9B5FAA;}
	.st58{fill:#784687;}
	.st59{fill:#4B873C;}
	.st60{fill:#788C9B;}
	.st61{fill:#BED2DC;}
	.st62{fill:#6EA5D7;}
	.st63{fill:#FFD3AF;}
</style>
<g>
	<g>
		<g>
			<path class="st24" d="M430.987,451.333h-336v-36h336c16.542,0,30-13.458,30-30s-13.458-30-30-30h-160c-36.393,0-66-29.607-66-66
				s29.607-66,66-66h176v36h-176c-16.542,0-30,13.458-30,30s13.458,30,30,30h160c36.393,0,66,29.607,66,66
				S467.38,451.333,430.987,451.333z"/>
		</g>
		<g>
			<circle class="st25" cx="94.987" cy="433.333" r="24"/>
		</g>
		<g>
			<circle class="st25" cx="446.987" cy="241.333" r="24"/>
		</g>
		<g>
			<path class="st25" d="M95.961,177.339c-46.03-0.549-82.391,38.328-80.903,84.337c2.061,63.739,48.833,116.607,65.828,133.774
				c3.729,3.767,8.801,5.883,14.102,5.883h0h0c5.303,0,10.376-2.12,14.107-5.888c17.384-17.561,65.893-72.446,65.893-138.112
				C174.987,213.475,139.695,177.861,95.961,177.339z"/>
		</g>
		<g>
			<path class="st26" d="M94.987,177.333v224c-5.3,0-10.37-2.12-14.1-5.88c-17-17.17-63.77-70.04-65.83-133.78
				C13.577,215.993,49.417,177.343,94.987,177.333z"/>
		</g>
		<g>
			<circle class="st19" cx="94.987" cy="257.333" r="56"/>
		</g>
		<g>
			<path class="st22" d="M94.987,201.333v112c-30.93,0-56-25.07-56-56S64.057,201.333,94.987,201.333z"/>
		</g>
	</g>
	<g>
		<g>
			<circle class="st3" cx="382.987" cy="73.333" r="16"/>
		</g>
		<g>
			<path class="st4" d="M482.987,201.333h-200c-6.627,0-12-5.373-12-12v0c0-6.627,5.373-12,12-12h200c6.627,0,12,5.373,12,12v0
				C494.987,195.961,489.614,201.333,482.987,201.333z"/>
		</g>
		<g>
			<path class="st5" d="M386.987,201.333h-104c-6.627,0-12-5.373-12-12v0c0-6.627,5.373-12,12-12h104c6.627,0,12,5.373,12,12v0
				C398.987,195.961,393.614,201.333,386.987,201.333z"/>
		</g>
		<g>
			<path class="st4" d="M382.987,81.333L382.987,81.333c-53.019,0-96,42.981-96,96v0h192v0
				C478.987,124.314,436.006,81.333,382.987,81.333z"/>
		</g>
		<g>
			<path class="st5" d="M315.099,161.335c-0.888,0-1.789-0.148-2.674-0.462c-4.164-1.477-6.343-6.049-4.866-10.214
				c11.309-31.896,41.621-53.326,75.428-53.326c4.418,0,8,3.582,8,8s-3.582,8-8,8c-27.046,0-51.298,17.149-60.348,42.674
				C321.476,159.287,318.391,161.335,315.099,161.335z"/>
		</g>
		<g>
			<path class="st3" d="M430.987,129.333L430.987,129.333c-26.51,0-48,21.49-48,48v0h96v0
				C478.987,150.824,457.497,129.333,430.987,129.333z"/>
		</g>
	</g>
	<g>
		<path class="st18" d="M50.987,102.667h-4c-13.255,0-24-10.745-24-24v0c0-13.255,10.745-24,24-24h4c2.209,0,4,1.791,4,4v40
			C54.987,100.876,53.196,102.667,50.987,102.667z"/>
	</g>
	<g>
		<path class="st18" d="M122.987,110.667h-14.343c-3.622,0-7.096-1.439-9.657-4l0,0c-2.561-2.561-6.035-4-9.657-4H74.987
			c-2.209,0-4-1.791-4-4v-40c0-2.209,1.791-4,4-4h48c15.464,0,28,12.536,28,28v0C150.987,98.131,138.451,110.667,122.987,110.667z"
			/>
	</g>
	<g>
		<path class="st18" d="M162.987,129.333h-4c-13.255,0-24,10.745-24,24v0c0,13.255,10.745,24,24,24h4c2.209,0,4-1.791,4-4v-40
			C166.987,131.124,165.196,129.333,162.987,129.333z"/>
	</g>
	<g>
		<path class="st18" d="M234.987,121.333h-14.343c-3.622,0-7.096,1.439-9.657,4v0c-2.561,2.561-6.035,4-9.657,4h-14.343
			c-2.209,0-4,1.791-4,4v40c0,2.209,1.791,4,4,4h48c15.464,0,28-12.536,28-28v0C262.987,133.869,250.451,121.333,234.987,121.333z"
			/>
	</g>
</g>
</svg>
