<?xml version="1.0" encoding="utf-8"?>
<!-- Generator: Adobe Illustrator 23.0.3, SVG Export Plug-In . SVG Version: 6.00 Build 0)  -->
<svg version="1.1" id="Layer_1" xmlns="http://www.w3.org/2000/svg" xmlns:xlink="http://www.w3.org/1999/xlink" x="0px" y="0px"
	 viewBox="0 0 512 512" style="enable-background:new 0 0 512 512;" xml:space="preserve">
<style type="text/css">
	.st0{fill:#BE5000;}
	.st1{fill:#FAA037;}
	.st2{fill:#353744;}
	.st3{fill:#87AAC8;}
	.st4{fill:#A0C8E1;}
	.st5{fill:#BEDCF0;}
	.st6{fill:#F57828;}
	.st7{fill:#D7322D;}
	.st8{fill:#F04B37;}
	.st9{fill:#69A041;}
	.st10{fill:#D7E6E6;}
	.st11{fill:#91B945;}
	.st12{fill:#FABE19;}
	.st13{fill:#4B8C41;}
	.st14{fill:#F5871E;}
	.st15{fill:#AFD763;}
	.st16{fill:#FFDC37;}
	.st17{fill:#A55023;}
	.st18{fill:#D26E28;}
	.st19{fill:#A5C3DC;}
	.st20{fill:#FF6955;}
	.st21{fill:#F0BE8C;}
	.st22{fill:#D7E6F0;}
	.st23{fill:#AAC3D7;}
	.st24{fill:#FAA01E;}
	.st25{fill:#E13741;}
	.st26{fill:#FF555F;}
	.st27{fill:#4B55A5;}
	.st28{fill:#6478B9;}
	.st29{fill:#FAB991;}
	.st30{fill:#F0915A;}
	.st31{fill:#DC6E1E;}
	.st32{fill:#FF8773;}
	.st33{fill:#DCC8A0;}
	.st34{fill:#CDA06E;}
	.st35{fill:#55525B;}
	.st36{fill:#FAE6BE;}
	.st37{fill:#FFFFFF;}
	.st38{fill:#737079;}
	.st39{fill:#D65A0A;}
	.st40{fill:#E64178;}
	.st41{fill:#FF6E91;}
	.st42{fill:#C8235A;}
	.st43{fill:#9BD2F0;}
	.st44{fill:#50C3EB;}
	.st45{fill:#FFBE55;}
	.st46{fill:#87A5BE;}
	.st47{fill:#F28A39;}
	.st48{fill:#FFB53B;}
	.st49{fill:#FAA51E;}
	.st50{fill:#5A7891;}
	.st51{fill:#73A041;}
	.st52{fill:#96AAB9;}
	.st53{fill:#736969;}
	.st54{fill:#3C413C;}
	.st55{fill:#FACC0A;}
	.st56{fill:#B9140F;}
	.st57{fill:#9B5FAA;}
	.st58{fill:#784687;}
	.st59{fill:#4B873C;}
	.st60{fill:#788C9B;}
	.st61{fill:#BED2DC;}
	.st62{fill:#6EA5D7;}
	.st63{fill:#FFD3AF;}
</style>
<g>
	<g>
		<path class="st6" d="M272,131.4h-64v-80c0-17.673,14.327-32,32-32h0c17.673,0,32,14.327,32,32V131.4z"/>
	</g>
	<g>
		<path class="st39" d="M272,131.4h-32v-112h0c17.673,0,32,14.327,32,32V131.4z"/>
	</g>
	<g>
		<g>
			<path class="st1" d="M252,75.4h-24c-2.209,0-4-1.791-4-4v0c0-2.209,1.791-4,4-4h24c2.209,0,4,1.791,4,4v0
				C256,73.609,254.209,75.4,252,75.4z"/>
		</g>
		<g>
			<path class="st1" d="M252,115.4h-24c-2.209,0-4-1.791-4-4v0c0-2.209,1.791-4,4-4h24c2.209,0,4,1.791,4,4v0
				C256,113.609,254.209,115.4,252,115.4z"/>
		</g>
	</g>
	<g>
		<g>
			<path class="st13" d="M394.4,63c-3.977,0-7.2-3.224-7.2-7.2c0-6.566,2.557-12.739,7.2-17.382l4.218-4.218
				C403.261,29.557,409.434,27,416,27c3.977,0,7.2,3.224,7.2,7.2s-3.224,7.2-7.2,7.2c-2.72,0-5.276,1.059-7.2,2.982l-4.218,4.218
				c-1.923,1.923-2.981,4.48-2.981,7.2C401.601,59.776,398.377,63,394.4,63z"/>
		</g>
		<g>
			<path class="st9" d="M365.6,63c-3.977,0-7.2-3.224-7.2-7.2c0-2.72-1.059-5.277-2.981-7.2l-4.218-4.218
				c-1.924-1.923-4.48-2.982-7.2-2.982c-3.977,0-7.2-3.224-7.2-7.2s3.224-7.2,7.2-7.2c6.566,0,12.739,2.557,17.382,7.2l4.218,4.218
				c4.644,4.643,7.2,10.816,7.2,17.382C372.8,59.776,369.576,63,365.6,63z"/>
		</g>
		<g>
			<path class="st9" d="M383.6,63c-3.977,0-7.2-3.224-7.2-7.2v-9.67c0-9.615,3.745-18.656,10.544-25.456l5.966-5.965
				c2.811-2.812,7.371-2.812,10.182,0c2.813,2.812,2.813,7.371,0,10.183l-5.965,5.965c-4.079,4.08-6.326,9.504-6.326,15.273v9.67
				C390.8,59.776,387.576,63,383.6,63z"/>
		</g>
		<g>
			<path class="st11" d="M376.4,63c-3.977,0-7.2-3.224-7.2-7.2v-9.67c0-5.77-2.247-11.194-6.326-15.273l-5.965-5.965
				c-2.813-2.812-2.813-7.371,0-10.183c2.811-2.812,7.371-2.812,10.182,0l5.965,5.965c6.8,6.799,10.545,15.839,10.545,25.456v9.67
				C383.601,59.776,380.377,63,376.4,63z"/>
		</g>
		<g>
			<path class="st1" d="M344,70.2v103.377c0,19.096,7.586,37.409,21.088,50.912l8.766,8.766c1.63,1.63,3.841,2.546,6.146,2.546l0,0
				l0,0c2.305,0,4.516-0.916,6.146-2.546l8.766-8.766C408.414,210.986,416,192.672,416,173.577V70.2c0-7.953-6.447-14.4-14.4-14.4
				h-43.2C350.447,55.8,344,62.247,344,70.2z"/>
		</g>
		<g>
			<path class="st6" d="M380,235.8V77.4c0-3.976,3.224-7.2,7.2-7.2H416v103.377c0,19.096-7.586,37.409-21.088,50.912l-8.766,8.766
				C384.516,234.884,382.305,235.8,380,235.8L380,235.8z"/>
		</g>
		<g>
			<path class="st6" d="M362,91.8h-18v-7.2h18c1.988,0,3.6,1.612,3.6,3.6v0C365.6,90.188,363.988,91.8,362,91.8z"/>
		</g>
		<g>
			<path class="st6" d="M362,131.4h-18v-7.2h18c1.988,0,3.6,1.612,3.6,3.6v0C365.6,129.788,363.988,131.4,362,131.4z"/>
		</g>
		<g>
			<path class="st6" d="M362,171h-18v-7.2h18c1.988,0,3.6,1.612,3.6,3.6l0,0C365.6,169.388,363.988,171,362,171z"/>
		</g>
		<g>
			<path class="st39" d="M398,113.4h18v-7.2h-18c-1.988,0-3.6,1.612-3.6,3.6v0C394.4,111.788,396.012,113.4,398,113.4z"/>
		</g>
		<g>
			<path class="st39" d="M398,149.4h18v-7.2h-18c-1.988,0-3.6,1.612-3.6,3.6v0C394.4,147.788,396.012,149.4,398,149.4z"/>
		</g>
	</g>
	<g>
		<g>
			<path class="st2" d="M302.667,118.067c-3.313,0-6-2.687-6-6v-4c0-9.925-8.075-18-18-18c-3.313,0-6-2.687-6-6s2.687-6,6-6
				c16.542,0,30,13.458,30,30v4C308.667,115.38,305.98,118.067,302.667,118.067z"/>
		</g>
		<g>
			<path class="st7" d="M326.667,102.067c-9.222,0-17.63,3.471-24,9.174c-6.37-5.703-14.778-9.174-24-9.174
				c-19.882,0-36,16.118-36,36c0,34,24,60,42,60s18,0,18,0s0,0,18,0s42-26,42-60C362.667,118.184,346.549,102.067,326.667,102.067z"
				/>
		</g>
		<g>
			<circle class="st8" cx="272.667" cy="126.067" r="12"/>
		</g>
		<g>
			<path class="st9" d="M332.667,54.067L332.667,54.067c-16.569,0-30,13.431-30,30v6h6c16.569,0,30-13.431,30-30v0
				C338.667,56.753,335.98,54.067,332.667,54.067z"/>
		</g>
	</g>
	<g>
		<g>
			<path class="st15" d="M205.689,131.4h-30.578v36.948c0,4.222,3.423,7.644,7.644,7.644h15.289c4.222,0,7.644-3.423,7.644-7.644
				V131.4z"/>
		</g>
		<g>
			<path class="st11" d="M205.689,131.4H190.4v44.593h7.644c4.222,0,7.644-3.423,7.644-7.644V131.4z"/>
		</g>
		<g>
			<path class="st15" d="M190.4,148.582l-35.983-35.984c-2.985-2.985-2.985-7.826,0-10.811c2.985-2.986,7.826-2.986,10.811,0
				L190.4,126.96l25.172-25.172c2.985-2.985,7.825-2.985,10.811,0c2.985,2.985,2.985,7.825,0,10.811L190.4,148.582z"/>
		</g>
		<g>
			<g>
				<circle class="st9" cx="205.689" cy="107.193" r="15.289"/>
			</g>
			<g>
				<circle class="st9" cx="220.978" cy="107.193" r="15.289"/>
			</g>
			<g>
				<circle class="st13" cx="213.333" cy="91.904" r="15.289"/>
			</g>
		</g>
		<g>
			<g>
				<circle class="st13" cx="159.822" cy="107.193" r="15.289"/>
			</g>
			<g>
				<circle class="st13" cx="175.111" cy="107.193" r="15.289"/>
			</g>
			<g>
				<circle class="st9" cx="167.467" cy="91.904" r="15.289"/>
			</g>
		</g>
		<g>
			<g>
				<circle class="st11" cx="182.756" cy="76.615" r="15.289"/>
			</g>
			<g>
				<circle class="st11" cx="198.044" cy="76.615" r="15.289"/>
			</g>
			<g>
				<circle class="st9" cx="190.4" cy="91.904" r="15.289"/>
			</g>
		</g>
	</g>
	<g>
		<g>
			<path class="st29" d="M296,387.4h-68.118c-12.73,0-24.939,5.057-33.941,14.059L176,419.4l40,40l19.314-19.314
				c3.001-3.001,7.07-4.686,11.314-4.686H296c13.255,0,24-10.745,24-24v0C320,398.145,309.255,387.4,296,387.4z"/>
		</g>
		<g>
			<path class="st30" d="M411.313,376.086c-6.248-6.249-16.379-6.249-22.627,0L329.373,435.4h-82.745
				c-4.243,0-8.313,1.686-11.314,4.686L216,459.4l24,24l16-16h76.687c6.411,0,12.438-2.497,16.97-7.03l61.657-61.657
				C417.562,392.465,417.562,382.335,411.313,376.086z"/>
		</g>
		<g>
			<path class="st30" d="M296,424.733h-5.333c-4.418,0-8-3.582-8-8v-10.667c0-4.418,3.582-8,8-8H296
				c7.364,0,13.333,5.97,13.333,13.333l0,0C309.333,418.764,303.364,424.733,296,424.733z"/>
		</g>
		<g>
			<path class="st1" d="M173.657,417.057L216,459.4l-40,40H80l82.343-82.343C165.467,413.933,170.533,413.933,173.657,417.057z"/>
		</g>
		<g>
			<path class="st6" d="M216,459.4l26.343,26.343c3.124,3.124,3.124,8.19,0,11.314L240,499.4h-64L216,459.4z"/>
		</g>
	</g>
	<g>
		<path class="st1" d="M416,355.4H160c-8.837,0-16-7.163-16-16v-192c0-8.837,7.163-16,16-16h256c8.837,0,16,7.163,16,16v192
			C432,348.237,424.837,355.4,416,355.4z"/>
	</g>
	<g>
		<path class="st6" d="M416,355.4h-80c-8.837,0-16-7.163-16-16v-192c0-8.837,7.163-16,16-16h80c8.837,0,16,7.163,16,16v192
			C432,348.237,424.837,355.4,416,355.4z"/>
	</g>
</g>
</svg>
