<?xml version="1.0" encoding="utf-8"?>
<!-- Generator: Adobe Illustrator 23.0.3, SVG Export Plug-In . SVG Version: 6.00 Build 0)  -->
<svg version="1.1" id="Layer_1" xmlns="http://www.w3.org/2000/svg" xmlns:xlink="http://www.w3.org/1999/xlink" x="0px" y="0px"
	 viewBox="0 0 512 512" style="enable-background:new 0 0 512 512;" xml:space="preserve">
<style type="text/css">
	.st0{fill:#BE5000;}
	.st1{fill:#FAA037;}
	.st2{fill:#353744;}
	.st3{fill:#87AAC8;}
	.st4{fill:#A0C8E1;}
	.st5{fill:#BEDCF0;}
	.st6{fill:#F57828;}
	.st7{fill:#D7322D;}
	.st8{fill:#F04B37;}
	.st9{fill:#69A041;}
	.st10{fill:#D7E6E6;}
	.st11{fill:#91B945;}
	.st12{fill:#FABE19;}
	.st13{fill:#4B8C41;}
	.st14{fill:#F5871E;}
	.st15{fill:#AFD763;}
	.st16{fill:#FFDC37;}
	.st17{fill:#A55023;}
	.st18{fill:#D26E28;}
	.st19{fill:#A5C3DC;}
	.st20{fill:#FF6955;}
	.st21{fill:#F0BE8C;}
	.st22{fill:#D7E6F0;}
	.st23{fill:#AAC3D7;}
	.st24{fill:#FAA01E;}
	.st25{fill:#E13741;}
	.st26{fill:#FF555F;}
	.st27{fill:#4B55A5;}
	.st28{fill:#6478B9;}
	.st29{fill:#FAB991;}
	.st30{fill:#F0915A;}
	.st31{fill:#DC6E1E;}
	.st32{fill:#FF8773;}
	.st33{fill:#DCC8A0;}
	.st34{fill:#CDA06E;}
	.st35{fill:#55525B;}
	.st36{fill:#FAE6BE;}
	.st37{fill:#FFFFFF;}
	.st38{fill:#737079;}
	.st39{fill:#D65A0A;}
	.st40{fill:#E64178;}
	.st41{fill:#FF6E91;}
	.st42{fill:#C8235A;}
	.st43{fill:#9BD2F0;}
	.st44{fill:#50C3EB;}
	.st45{fill:#FFBE55;}
	.st46{fill:#87A5BE;}
	.st47{fill:#F28A39;}
	.st48{fill:#FFB53B;}
	.st49{fill:#FAA51E;}
	.st50{fill:#5A7891;}
	.st51{fill:#73A041;}
	.st52{fill:#96AAB9;}
	.st53{fill:#736969;}
	.st54{fill:#3C413C;}
	.st55{fill:#FACC0A;}
	.st56{fill:#B9140F;}
	.st57{fill:#9B5FAA;}
	.st58{fill:#784687;}
	.st59{fill:#4B873C;}
	.st60{fill:#788C9B;}
	.st61{fill:#BED2DC;}
	.st62{fill:#6EA5D7;}
	.st63{fill:#FFD3AF;}
</style>
<g>
	<g>
		<path class="st2" d="M464,464H48c-17.673,0-32-14.327-32-32V144c0-17.673,14.327-32,32-32h416c17.673,0,32,14.327,32,32v288
			C496,449.673,481.673,464,464,464z"/>
	</g>
	<g>
		<path class="st35" d="M464,400H16V144c0-17.673,14.327-32,32-32h384c17.673,0,32,14.327,32,32V400z"/>
	</g>
	<g>
		<path class="st2" d="M464,464H48c-17.673,0-32-14.327-32-32v-32h480v32C496,449.673,481.673,464,464,464z"/>
	</g>
	<g>
		<path class="st2" d="M432,464H48c-17.673,0-32-14.327-32-32v-32h448v32C464,449.673,449.673,464,432,464z"/>
	</g>
	<g>
		<path class="st10" d="M64,416L64,416c-4.418,0-8,3.582-8,8v16c0,4.418,3.582,8,8,8h0c4.418,0,8-3.582,8-8v-16
			C72,419.582,68.418,416,64,416z"/>
	</g>
	<g>
		<path class="st10" d="M96,416L96,416c-4.418,0-8,3.582-8,8v16c0,4.418,3.582,8,8,8h0c4.418,0,8-3.582,8-8v-16
			C104,419.582,100.418,416,96,416z"/>
	</g>
	<g>
		<path class="st35" d="M424,440H136c-4.418,0-8-3.582-8-8l0,0c0-4.418,3.582-8,8-8h288c4.418,0,8,3.582,8,8l0,0
			C432,436.418,428.418,440,424,440z"/>
	</g>
	<path class="st8" d="M344,416c-5.919,0-11.074,3.222-13.842,8H136c-4.418,0-8,3.582-8,8s3.582,8,8,8h194.158
		c2.768,4.778,7.923,8,13.842,8c8.836,0,16-7.163,16-16S352.836,416,344,416z"/>
	<g>
		<path class="st30" d="M240,352v-40c0-4.418-3.582-8-8-8s-8,3.582-8,8v72h48v-32H240z"/>
		<g>
			<path class="st29" d="M272,360h-24c-4.418,0-8-3.582-8-8v-16h32c4.418,0,8,3.582,8,8v8C280,356.418,276.418,360,272,360z"/>
		</g>
		<g>
			<path class="st29" d="M232,368v-20c0-6.627-5.373-12-12-12h0c-2.209,0-4,1.791-4,4v36c0,4.418,3.582,8,8,8h24v0
				C248,375.163,240.837,368,232,368L232,368z"/>
		</g>
		<g>
			<rect x="224" y="384" class="st19" width="48" height="16"/>
		</g>
	</g>
	<g>
		<path class="st29" d="M88,216v104h56v-16h28c15.464,0,28-12.536,28-28v-60H88z"/>
		<g>
			<path class="st2" d="M80,216v64c0,4.418,3.582,8,8,8h32c4.418,0,8-3.582,8-8v-40h8c4.418,0,8-3.582,8-8v-16H80z"/>
		</g>
		<g>
			<path class="st30" d="M128,256L128,256l0-32h0c-8.837,0-16,7.163-16,16v0C112,248.837,119.163,256,128,256z"/>
		</g>
		<g>
			<path class="st30" d="M144,304h-40c-8.837,0-16,7.163-16,16v0h56V304z"/>
		</g>
		<g>
			<path class="st19" d="M176,320H88c-13.255,0-24,10.745-24,24v56h136v-56C200,330.745,189.255,320,176,320z"/>
		</g>
		<g>
			<path class="st10" d="M88,320L88,320c-13.255,0-24,10.745-24,24v56h48v-56C112,330.745,101.255,320,88,320z"/>
		</g>
	</g>
	<g>
		<circle class="st2" cx="165.333" cy="229.333" r="5.333"/>
	</g>
	<g>
		<circle class="st2" cx="186.667" cy="229.333" r="5.333"/>
	</g>
	<g>
		<path class="st30" d="M178.667,264L178.667,264c-4.418,0-8-3.582-8-8v-16h0c8.837,0,16,7.163,16,16v0
			C186.667,260.418,183.085,264,178.667,264z"/>
	</g>
	<g>
		<path class="st2" d="M178.667,288L178.667,288c-4.418,0-8-3.582-8-8l0,0h16l0,0C186.667,284.418,183.085,288,178.667,288z"/>
	</g>
	<g>
		<rect x="80" y="184" class="st23" width="120" height="32"/>
	</g>
	<g>
		<rect x="80" y="200" class="st10" width="64" height="16"/>
	</g>
	<g>
		<path class="st23" d="M200,184H80c-8.837,0-16-7.163-16-16v0c0-8.837,7.163-16,16-16h120c8.837,0,16,7.163,16,16v0
			C216,176.837,208.837,184,200,184z"/>
	</g>
	<g>
		<path class="st10" d="M128,184H80c-8.837,0-16-7.163-16-16v0c0-8.837,7.163-16,16-16h48c8.837,0,16,7.163,16,16v0
			C144,176.837,136.837,184,128,184z"/>
	</g>
	<g>
		<path class="st14" d="M464,48h-48h-80h-48c-17.673,0-32,14.327-32,32v228.686c0,6.248,5.065,11.314,11.314,11.314
			c3,0,41.752,0,48,0c3,0,5.878-1.192,8-3.314L368,272h48h48c17.673,0,32-14.327,32-32V80C496,62.327,481.673,48,464,48z"/>
	</g>
	<g>
		<path class="st12" d="M256,80v228.686c0,6.248,5.065,11.314,11.314,11.314h0c3.001,0,5.878-1.192,8-3.314L320,272h96
			c17.673,0,32-14.327,32-32V80c0-17.673-14.327-32-32-32H288C270.327,48,256,62.327,256,80z"/>
	</g>
	<g>
		<circle class="st2" cx="136" cy="352" r="8"/>
	</g>
	<g>
		<circle class="st2" cx="176" cy="352" r="8"/>
	</g>
	<g>
		<circle class="st2" cx="136" cy="384" r="8"/>
	</g>
	<g>
		<circle class="st2" cx="176" cy="384" r="8"/>
	</g>
	<g>
		<path class="st35" d="M368,208v-58.667c0-8.837-7.163-16-16-16h-16c-8.837,0-16,7.163-16,16s7.163,16,16,16V208
			c-8.837,0-16,7.164-16,16s7.163,16,16,16h32c8.837,0,16-7.164,16-16S376.837,208,368,208z"/>
		<g>
			<circle class="st35" cx="352" cy="101.333" r="21.333"/>
		</g>
	</g>
</g>
</svg>
